<svg xmlns="http://www.w3.org/2000/svg" width="1170.667" height="1146.667" viewBox="0 0 878 860" fill="#00C8FF"><path d="m499.7 13-24.9.5-2.4 2.8-2.4 2.8V105h-62V13h-19v92h-62.5V13.5l-9.7-.3-9.8-.3V105h-52.9l-.3-43.6-.3-43.6-2.8-2.4-2.8-2.4h-69.7l-.1 9.5-.2 9.5H234v73h-36.2c-41 0-47.5.6-56 5.2-6.7 3.6-14.5 11.6-17.6 18-3.7 7.9-4.2 14.7-4.2 55V222H32v-58H12v34c0 37.5.3 39.5 5.9 42.4 2.6 1.4 9.5 1.6 52.6 1.6H120v61l-53.8.2-53.7.3v19l53.7.3 53.8.2v54H11.9l.3 9.7.3 9.8 53.7.3 53.8.2v54H70.3c-47.6 0-49.9.1-53 2-4.6 2.8-5.3 6.6-5.3 31.2V506h20v-35h88v54H11.9l.3 9.7.3 9.8 53.7.3 53.8.2v61H18.8l-2.8 2.8c-1.9 1.9-3 4.3-3.5 7.3-.3 2.4-.5 18.6-.3 35.9l.3 31.5 9.8.3 9.7.3V626h88v38.8c0 23.7.4 41.1 1.1 44.7 2.9 15.7 15.5 28.9 31.1 32.5 2.4.5 21.1 1 43.1 1H234v84l-27.8.2-27.7.3-.3 9.8-.3 9.7 4.8.1c2.6.1 5.9.2 7.3.1 1.4 0 15 0 30.3-.1l27.9-.1 2.9-2.9 2.9-2.9V743h47v42c0 46.2.1 47.5 5.9 50.4 2.5 1.3 7.4 1.6 29.1 1.6h26v-20h-41v-74h108v48.2c0 36.5.3 48.9 1.3 50.8.7 1.4 2.8 3.3 4.8 4.3 3.4 1.6 6.1 1.7 34.3 1.1l30.7-.7-.3-9.6-.3-9.6-25.2-.3-25.3-.2v-84h108v74h-41v20h26.3c28.9 0 30-.2 32.9-6 1.6-3.2 1.8-7.5 1.8-45.8V743h47v48.2c0 46.1.1 48.4 2 51.5 1.3 2.2 3.1 3.5 5.7 4.2 2.2.6 17 .9 35.8.8l32-.2v-20l-27.7-.3-27.8-.2v-83.9l41.3-.3c45.8-.4 45-.3 55.5-7.5 6-4.1 11.5-11.1 14.6-18.6 2-5 2.1-6.9 2.4-47.9l.3-42.8H846v58h20v-34.5c0-28.7-.3-35.1-1.5-37.5-3.2-6.2-1.1-6-56.2-6H758v-61h108v-20H758v-54h88v35h20v-22.8c0-24.8-.7-28.3-6-30.9-1.9-1-14.5-1.3-52.2-1.3H758v-54l53.8-.2 53.7-.3.3-9.8.3-9.7H758v-54l53.8-.2 53.7-.3.3-9.8.3-9.7H758v-61h49.8c37.7 0 50.3-.3 52.2-1.3 1.4-.7 3.3-2.8 4.2-4.7 1.6-3.1 1.8-7.1 1.8-37.8V164h-20v58h-87.9l-.3-42.8c-.3-41.2-.4-42.9-2.5-48-3.1-7.5-9.3-15.3-15.2-19.1-9.9-6.4-10.5-6.5-55.3-6.9l-40.8-.3V33.2l2.3-.6c1.2-.3 13.8-.6 28-.6H700V13h-69.9l-2.8 2.4-2.8 2.4-.3 43.6-.3 43.6H570V13h-20v92h-60.5l.3-36.5.2-36.5h41.1l-.3-9.7-.3-9.7-3-.1c-1.6 0-14.2.2-27.8.5M726 126.9c1.4.7 4 2.7 5.8 4.4 6.7 6.4 6.2-15.7 6.2 293.1 0 202.1-.3 281.2-1.1 284.1-1.5 5.2-8.2 11.9-13.4 13.4-5.7 1.5-563.3 1.6-569 0-5.5-1.5-11.9-8.3-13.3-14.2-1.7-6.4-1.7-559.2-.1-566.7 1.6-7.6 7.1-13.3 14.4-15.1 1.7-.4 130.1-.6 285.5-.6 237.1.2 282.9.4 285 1.6m-528.2 44.4c-6.9 3.5-11.9 9.6-13.8 16.7-.7 2.5-.9 80.9-.8 238.1l.3 234.4 2.2 4c2.9 5.5 9.9 11.8 15.4 13.9 4.1 1.5 21.5 1.6 239.4 1.4 231.4-.3 235.1-.3 239-2.3 5-2.5 10.5-8 13-13 2-3.9 2-7.6 2.3-239.5l.2-235.5-3-6.2c-1.8-3.7-4.6-7.4-6.9-9.3-8.3-6.5 10.9-6-246.6-6H204.2zM378 220v32h-59v-26.2l-2.9-2.9-2.9-2.9h-72.4l-2.9 2.9-2.9 2.9v35.7c0 22.5.4 36.3 1 37.6 2.2 4 6.1 4.9 22 4.9h15v72l2.9 3.2 2.9 3.3 36 .3 36 .3.4 10c.3 9.9.3 10.1 3.6 13l3.2 2.9h29.1c30.8 0 33.4-.4 35.9-4.9 1.5-2.9 1.3-59.2-.2-62.6-1.9-4.2-5.6-5.5-15.8-5.5h-9V188h31v112.2l3.4 3.4 3.4 3.4H480v29h-9.6c-9.6 0-9.6 0-13 3.4l-3.4 3.4v29.1c0 31.3.3 33.2 5.1 35.7 3.7 1.9 58.3 2.1 62.4.2 4.2-1.9 5.5-5.6 5.5-15.8v-9h148v82H527v-9.1c0-10-1.4-13.9-5.7-15.8-3.5-1.6-58.3-1.5-61.8.1-5.2 2.4-5.5 4.2-5.5 35.7V505l2.9 3.2c2.9 3.3 3.1 3.3 13 3.6l10.1.4V660h-82V512.2l10.1-.4c10-.3 10.1-.3 13-3.6l3-3.3-.3-30.4c-.3-30.2-.3-30.5-2.6-32.7-2.2-2.3-2.6-2.3-31.9-2.6-21.2-.2-30.5.1-32.5.9-4.4 1.8-5.8 5.6-5.8 15.9v9h-26c-29 0-30.9.4-32.9 6.1-.7 2-1.1 12.6-1.1 28.5V525h-9c-14.9 0-18 3.1-18 18v8h-61V192.9l2.5-2.4 2.4-2.5H378zm294.7-29.8 2.3 2.1V363h-64v-59h12.3c10.3 0 12.7-.3 15.4-2 5.1-3.1 5.4-6.1 5.1-43.1l-.3-33.1-3.3-2.9-3.2-2.9h-72.2l-2.9 2.9-2.9 2.9V252h-33.7c-20.7 0-35.3.4-37.6 1.1-6.5 1.8-7.7 5-7.7 20.6V287h-31v-99h221.4zm-373.4 59.5c.9 12.3.9 29.1.1 32-.6 2.3-.7 2.3-22.5 2.3h-21.8l-.3-22-.3-22h44.2zM623 262v22h-44v-44h44zm-245 42v32h-10c-9.6 0-10.1.1-13.2 2.9-3.3 2.9-3.3 3-3.6 13.5l-.4 10.6H293v-59h8.9c15.9 0 17.5-1.7 17.2-18.6-.1-6.3.1-11.9.4-12.4.4-.6 12.3-1 29.6-1H378zm180.7-20c.4 14.5.6 15.6 4.6 18 2.7 1.7 5 2 15.5 2H591v59h-63.8l-.4-10.6c-.3-10.5-.3-10.6-3.6-13.5-3.1-2.8-3.6-2.9-13.2-2.9h-10v-64l29.3.2 29.2.3zM404 372.5V389h-33v-33h33zm103 0V389h-33v-33h33zm-103 103V492h-33v-33h33zm103 0V492h-33v-33h33zm-156 18.7c0 5.4.6 10.3 1.3 11.8 2.1 4.2 7.1 6 17 6h8.7v39h-40v-8.3c0-9.3-1.9-14.4-6-16.4-1.5-.7-6.4-1.3-11.7-1.3H311v-40h40zM567 505v20h-9.2c-5.4 0-10.3.6-11.8 1.3-4.1 2-6 7.1-6 16.4v8.3h-40v-38.8l10.5-.4c9.9-.3 10.6-.5 13.2-3.1s2.8-3.3 3.1-13.2l.4-10.5H567zm108 13v33h-60.8l-.4-10c-.3-9.3-.5-10.1-3.1-12.7s-3.3-2.8-13.2-3.1l-10.5-.4V485h88zm-357 43.5V578h-34v-33h34zm276 0V578h-34v-33h34zm-329.5 20.1v10.6l3.3 2.9c3.1 2.8 3.6 2.9 13.2 2.9h10v62h-41.7c-41.4 0-41.7 0-44-2.2l-2.3-2.1V571h61.5zM378 615.5V660h-67v-62h10.4c9.7 0 10.5-.2 12.8-2.5 3.1-3 3.8-6.3 3.8-16.6V571h40zm162.2-33.8c.5 10.4.5 10.7 3.7 13.5 3 2.7 3.6 2.8 13.1 2.8h10v62h-67v-89h39.7zM675 613.2c0 41.9 0 42.2-2.2 44.5l-2.1 2.3H587v-62h10c15.1 0 17-2 17-18.1V571h61z"/></svg>