<svg xmlns="http://www.w3.org/2000/svg" width="612" height="905.333" viewBox="0 0 459 679" fill="#00E676"><path d="M196.1 14.2c-.1 1.2-.6 1.5-1.8 1.1-1.4-.5-1.5-.3-.7.6 1.9 2 4.3 1 3.3-1.4-.6-1.7-.8-1.7-.8-.3m16.9-.3c0 .5-.8 1.1-1.7 1.3-1.4.3-1.3.5.5 1 1.3.4 2.1.4 1.8.1-.3-.4-.1-1.2.5-2 .9-.9.8-1.3 0-1.3-.6 0-1.1.4-1.1.9m-25 .9c0 1.5 2 2.6 2.9 1.6.3-.5.4-.8.2-.7-.2.2-1-.2-1.8-.8-.9-.8-1.3-.8-1.3-.1m11 .2c0 .6.7 1 1.5 1s1.5-.2 1.5-.4-.7-.6-1.5-1c-.8-.3-1.5-.1-1.5.4m-15.4 1.6c-.8 2.1-.3 2.6 1.6 1.9 1.8-.7 2-3.5.2-3.5-.6 0-1.5.7-1.8 1.6m22.2-.9c.6.2 1.8.2 2.5 0 .6-.3.1-.5-1.3-.5s-1.9.2-1.2.5m-28.5 1.5c-2.7 1.3-2.9 2.3-.7 3.2.8.3 1.2.2.9-.3s-.1-1.2.5-1.6c.5-.3 1-.1 1 .5 0 1.8 2.3.6 2.6-1.3s-1.1-2.1-4.3-.5m44.4.4c-.4.4-1.7.7-2.9.8-1.3.1-2.2.7-2.1 1.4.2.8-.7 1-2.8.5-2.9-.6-3.1-.4-2.4 1.8.3 1.3 1.8 3.4 3.1 4.6s2.4 2.6 2.4 3.1c0 .6 1.3 2 3 3.3 1.6 1.3 3 2.9 3 3.6s.6 1.6 1.3 2c2.3 1.5 8.5 16.8 10.2 25.3.2.8.4 1.5.5 1.5s.4 1.1.6 2.5c.3 1.4 1.3 5.2 2.4 8.5 1 3.3 2.1 8.2 2.4 11 .3 2.7 1 8.2 1.5 12 1.2 8.6.3 32.6-1.4 40.2-.3 1.3-.1 2.3.5 2.3s.5 1.1-.4 2.8c-1.4 2.8-2.1 15.8-1.2 22.7.3 1.6.5 3.6.5 4.3.1 1.9 2.1.4 3.3-2.6l1.1-2.7 1 2.7c.6 1.6 1.4 2.8 1.8 2.8s1.5-2.6 2.4-5.8c.9-3.1 2.7-7.7 4-10.2s2.6-6.1 2.8-8c1.4-11.9 9.4-32.8 14.4-37.8.7-.7 1.3-1.8 1.3-2.3 0-1.3 10-14.7 17.1-23 9.2-10.6 18.6-19.6 23.4-22.5 2.5-1.4 4.5-2.9 4.5-3.3s1.8-1.4 4.1-2.1c2.2-.8 4.2-1.7 4.4-2 .4-.7 10.5 1.2 13.8 2.5 1 .4 1.7.3 1.7-.4 0-.6-.6-1.1-1.4-1.1s-2.8-.8-4.5-1.7l-3-1.8 6.7-1.6c10-2.3 11.8-.6 12.5 12.1.2 4.3 1.2 9.3 2.2 11.6 2.7 6.1 5.8 7.5 17 7.7 6.6.1 9.8.6 10.7 1.6 1 1 1 1.2.1.7-.7-.4-1.3-.2-1.3.4 0 .7.7.9 1.6.6s1.8-.6 2-.6c.3 0 0-.9-.6-2-.7-1.4-.7-2 0-2 1.8 0 1-1.7-1.6-3.5-1.5-.9-4.3-1.8-6.3-1.9-4.7-.3-13.9-4.5-14.6-6.7-.3-.9-.8-4.7-1-8.3-.3-3.7-.9-7.4-1.4-8.4-.5-.9-.8-2.2-.8-2.7.1-.6-1.9-2.4-4.4-4-3.8-2.5-5.6-3-10.1-2.9-3 0-5.9.3-6.4.6s-3.6 1.1-6.9 1.8-6.7 1.4-7.5 1.7c-.8.2-1.5.3-1.6.1 0-.2-.7.2-1.5.9-.8.6-3 .9-4.9.7-3.4-.4-10.9 1.8-13.9 4-.7.6-3.4 3.3-6 6-2.5 2.7-6.1 6.3-7.8 7.9-1.8 1.7-3.3 3.4-3.3 3.9s-1.9 3.4-4.2 6.5c-2.4 3-4.9 6.7-5.7 8.2-.7 1.4-2.4 3.7-3.6 5.1s-3 4.8-3.9 7.7c-1 2.9-2.7 6.7-3.9 8.5-1.9 2.9-6 10.7-9 17.5-.6 1.2-1.4 2-1.8 1.7-.9-.5-.5-10.7.5-12.3.4-.5.2-1.3-.4-1.6-.7-.4-.8-1.1-.1-1.8.5-.7 1.1-3.2 1.2-5.7.3-3.6.1-4.4-1.1-4.2-.9.2-.6-.5.8-1.8 1.7-1.6 2-2.5 1.3-3.4-.6-.7-.8-1.6-.4-1.9.3-.4.4-.7 0-.7-.3 0-1.2.7-2.1 1.5-1.3 1.4-1.6 1.1-2.5-2.2-1-3.5-3.1-18.2-4.5-30.8-.5-4.9-.5-4.9.8-1.9.8 1.7 2.2 3.4 3.1 3.8 1.7.6 1.7.7.1 1.9-1.5 1.1-1.5 1.7-.2 6.6.7 2.9 2 5.7 2.7 6.2 1 .6 1.1.9.2.9-.7 0-1.3.7-1.3 1.7 0 1.4.2 1.4 2-.2 1.1-1 1.6-2.3 1.2-2.9-.3-.6-.7-2.2-.8-3.6-.7-10.7-2.3-17-4.2-17-1.3 0-1.4-.2-.4-.9 1.1-.6.9-1.6-.9-4.7-1.2-2.1-2.2-4.1-2.2-4.4-.1-1.4-2.8-6.9-3.7-7.5-.6-.4-.8-1-.5-1.5.8-1.3-4.4-11.2-5.5-10.5-.5.3-1.2 0-1.6-.6-.3-.6 0-1.5.7-2 1-.6.6-.9-1.3-.9s-2.8-.5-2.8-1.6c0-.8-.4-1.3-1-.9-1.3.8-.1 3.5 1.7 3.5.8 0 1.3.6 1 1.3s.4 1.9 1.4 2.5c1.9 1.2 2.5 4.2 1.2 5.5-.3.4-1.8-1.1-3.3-3.2-1.4-2.2-3.8-5.4-5.4-7.1-2.2-2.5-2.5-3.4-1.5-4.6 1.1-1.3-.1-2.1-1.4-.8M307.8 56c-2.6 1.6-6.9 5-9.5 7.6-6.3 6-8.6 7.7-4.8 3.5 9.3-10.4 13.2-13.6 16.6-13.8 1.9-.2 1.4.4-2.3 2.7m-56.4 72.5c-.4.8-.8 1.5-1 1.5s-.4-.7-.4-1.5.4-1.5 1-1.5c.5 0 .7.7.4 1.5m-54-108.4c-3.2 1-6.6 1.9-7.5 1.9-1.7 0-4.9 2.8-8.9 7.8-1.4 1.7-2.9 3.1-3.3 3.2-.5 0-2.2 1-3.9 2.1-3.1 2.2-9.2 2.8-12.5 1.1-1-.5-3.5-.7-5.6-.4-3 .3-3.7.8-3.2 2.2.4 1.4-.7 2.1-5.5 3.8-3.3 1.1-6 1.7-6 1.2 0-.4 2.3-2.5 5-4.6 6.3-4.8 6.5-6.3.3-2.8-12.2 6.8-26.6 19.8-28 25.2-.3 1.5-1.6 4.7-2.7 7.2l-2.1 4.5-.5-5.5c-.3-3.8-.7-4.8-1.1-3.3-.8 2.6-.3 20.4.6 23.2.9 3.1 1.5 6.2 2.1 12.6.4 3.3 1 6.9 1.5 8.1.4 1.2.6 2.4.3 2.7-.3.2 0 2.4.6 4.8s1.2 5.3 1.4 6.4c.8 4.8 2 8.2 3.7 10.7 1.1 1.4 1.9 3.3 1.9 4.2s.9 2.1 2 2.8 2 2.1 2 3c0 1 .5 1.8 1 1.8.6 0 1 .6 1 1.3 0 1.6 3.6 4.8 4.5 3.9.3-.4.3.1 0 1-.5 1.1 1.6 4 6.9 9.4 4.1 4.4 7.3 8 7.1 8.2s-2.8-1-5.7-2.6c-22.9-13-50.4-24.5-56.7-23.7-1.7.2-3.3 0-3.6-.5s-5.6-.8-11.8-.6c-9.7.2-12 .6-16.7 2.9-6.3 3-12.3 8.4-11.6 10.4.3.7.2 1.3-.2 1.3-.5 0-1.3 1.5-2 3.3-.7 1.9-3.2 4.8-6.2 7.1-2.7 2.1-5 4.2-5 4.6 0 .5-.6 1.5-1.4 2.2-1.8 1.8-3.2 6.3-1.7 5.4.8-.5.8 0-.1 1.8-.9 2-.8 3.2.2 5.3.7 1.6 1.4 3.9 1.6 5.3s.6 4.1.9 6.1c.6 2.9.3 3.9-1.3 5-1 .8-2.1 1.8-2.3 2.4-.2.5-.7.9-1 .8-1.2-.4-9.9 9.5-10.3 11.8-.3 1.3-.5 2.4-.6 2.4-.2 0-.3 1.7-.4 3.7-.1 2.1.2 3.8.7 3.8.6 0 .6.5 0 1.2-1.2 1.6-.7 7.8.7 9.2.6.6 1 2.1 1 3.5.1 1.5.7 4.3 1.4 6.3 1 2.7 1 3.8.2 4.1-.6.3.1 1.7 1.7 3.4 1.5 1.6 2.7 3.9 2.7 5.1s.5 2.2 1.1 2.2.8.8.4 1.9c-.3 1 .1 2.4 1 3.1.8.7 1.5 1.9 1.5 2.7 0 .7.7 1.6 1.5 1.9.8.4 1.5 1.2 1.5 1.8 0 1.7 13.3 8 15.6 7.5.5-.1 2.7.2 4.9.8 2.2.7 5.8 1.4 8 1.7s8.3 1.5 13.5 2.7c6.9 1.6 12.8 2.2 21.5 2.2 11.8.1 15.7-.6 29.5-4.8 7.6-2.3 12.4-3.4 12.7-3.1.2.2-6.3 7.1-14.4 15.4-14.3 14.7-24.4 26-25.2 28.5-.2.7-1.4 2.5-2.6 4.2-3.2 4.3-5.5 9-6 12.5-.3 1.6-.7 4.4-1 6.1s-.7 3.5-1 3.9c-.3.5-.2 1.7.3 2.7 1.6 3 3.6 11.6 3.5 14.8-.4 9.9-.3 11.9.5 12.4.5.3 1.9 2.5 3.2 4.8 1.3 2.4 2.7 4.3 3.1 4.3.5 0-.1-1.9-1.1-4.3-2.8-6-2.6-7.8.5-4.5 1.4 1.5 4.3 3.2 6.4 3.8 2.8.7 4.2 1.8 5.1 4 1.3 3.2 3.7 5.6 4.6 4.7.3-.3-.1-1.6-1-2.9-.9-1.2-1.6-2.6-1.6-3 0-1.6 10.6-.8 14.2 1.1 2.5 1.2 3.9 1.5 4.2.7.2-.6.5-.3.5.6.1 1 .5 1.8 1 1.8 1.5 0 5.3 6.9 7.6 13.5 1.4 4 2.8 6.3 4.3 7 1.2.5 2.2 1.3 2.2 1.7 0 2.1 8.7 6.1 13.9 6.5 7.7.5 10 .8 10.6 1.5.7.6 9 .1 12.5-.9 1.4-.3 2.9-.5 3.3-.4 2 .4 13.9-9.4 19.1-15.8 6-7.5 8.5-9.4 11-8.5 1.1.4 1.9-.2 2.6-2 .5-1.4 1.4-2.6 2-2.6 1.2 0 8-14.3 10.5-22 1.8-5.9 3.4-9.1 3.6-7.5 0 .5.3 2.1.5 3.5 1.7 10.5 2.9 30.1 2.7 43.9-.4 22.5-.4 30.5-.3 31.1.1.3.1 2.5 0 5-.9 25.9-1.3 31.9-3.1 46-.7 5.2-1.3 11.5-1.4 14 0 2.5-.4 5-.7 5.5-.6.9-.9 4.9-1 11.7-.1 1.6-.4 2.8-.8 2.8-.5 0-.8 2.5-.9 5.5 0 3.1-.2 5.9-.5 6.3-.3.5-.8 3-1.1 5.8-.9 7.2-1.6 11.7-1.9 13.4-.2.8-.7 3.9-1.1 6.7-.4 2.9-1.2 5.3-1.7 5.3-.6 0-.8-.6-.5-1.4.8-2.1-1.2-8.2-5.2-15.6-1.9-3.6-5.2-10.1-7.4-14.5-6.7-13.5-7.5-15-11.5-20.4-1.7-2.4-3.2-4.1-3.2-3.8s-1.1-.4-2.4-1.6c-1.3-1.3-3.7-2.9-5.3-3.7-1.5-.8-3.9-2.2-5.3-3.1s-3.4-1.9-4.5-2.1c-1.1-.1-2.2-.6-2.5-.9s-2.7-1.8-5.5-3.3c-9.1-5.1-21.5-12.8-22.1-13.7-1.1-1.9-2.4-.8-1.8 1.6.6 2.5.5 2.6-3.5 2.3-2.2-.2-4.3-.8-4.5-1.5-.8-1.9-4.3-.3-5.5 2.4-1 2.2-.8 2.8 1.3 4.7 1.7 1.4 2.7 3.5 3.1 6.6.3 2.5.9 5.6 1.5 7 .9 2.5 3 11.9 5.1 23.2.6 3.2 1.5 5.8 1.9 5.8.5 0 .6.9.3 2-.3 1.2 0 2 .6 2 .7 0 1.1.6 1 1.2-.1.7.3 2.6.9 4.1.7 1.6 1.2 3.1 1.2 3.5s1.6 2.5 3.5 4.7 3.5 4.3 3.5 4.7c0 1.1 7 8.1 7.6 7.6.3-.3 1.6.5 3 1.9 1.3 1.3 2.9 2.1 3.4 1.8.6-.3 1-.1 1 .4 0 .6.6 1.1 1.4 1.1s3.2 1 5.3 2.2c4.1 2.4 17.5 8.6 20.8 9.6 2.6.7 9.5 5.2 9.5 6.2 0 1.2 4.9 3 8.1 3h3l-.7 5.7c-.3 3.2-.9 6.2-1.2 6.8-.3.5-.7 1.6-.7 2.5-.2 1.3-3.2 12-7.1 25.2-.8 2.6-1.4 5.5-1.4 6.5s-1 4.7-2.1 8.3c-3.4 10.6-4.4 17.5-2.6 17.5.4 0 1.2.7 1.8 1.5.8 1.3 1.1 1.3 2.3-.3.8-1.1 1.8-3.6 2.1-5.8.4-2.1 1-3.7 1.5-3.4 1.3.8 2.9-1.9 3.5-6.1.3-2.1 1-4.8 1.4-5.9 1.3-2.9 2.7-9 5.7-25 2.6-13.9 9.2-42.6 10.1-43.5.5-.5-.3 7.9-.9 10-.3.8-1.2 5-2 9.3-1.2 6.5-1.2 7.9-.1 8.9.7.6 1.6.8 2 .5.7-.8 2.2-7.9 2.8-13.7.3-2.5.8-5.2 1.1-6 1.4-3.4 2.1-9.1 1.2-9.6-.6-.4-.5-1 .2-1.4.7-.5 1.4-2.1 1.5-3.7.4-5.8.4-5.8 2.8-3.5l2.2 2.1 3-2.5c1.7-1.3 3.5-2.9 4.2-3.4.7-.6 2-1 3-1s3.1-.7 4.7-1.5c1.6-.9 4.5-1.8 6.5-2.1s5.1-.7 7-1c1.9-.2 3.9-.8 4.5-1.1.5-.4 3.1-1.1 5.6-1.5 4.3-.8 5.5-1 12.8-2.2 1.8-.3 3.8-.9 4.5-1.3.6-.4 1.8-.8 2.6-.9 3-.5 12.1-4.7 12.1-5.6 0-.6.6-.8 1.4-.5s2-.1 2.6-.9c.7-.8 1.7-1.4 2.3-1.4 1.4 0 12.6-7.8 15.2-10.6 6.7-7.2 13.6-19.8 17.5-31.9.7-2.2 1.6-4.2 2-4.5 1.1-.8 10-18.4 10-19.8 0-1.6-1-1.5-3.2.5-1.7 1.5-1.8 1.5-.7-1.8.7-1.9 2.8-4.9 4.7-6.7 2.5-2.2 3.1-3.2 1.9-3.2-.9 0-2.1-.9-2.7-2-1.4-2.6-2.4-2.5-6.7.7-2 1.5-5 3.3-6.7 3.9s-4 1.5-5.1 1.8c-1.1.4.2-1.2 2.9-3.7 2.7-2.4 4.5-4.6 4-4.9-1.3-.8-5.4 1-5.4 2.3 0 .7-.3 1-.6.7-.5-.6-3.8.5-10.9 3.7-2.6 1.2-20.7 7.5-38 13.3-2.7.9-5.1 2-5.3 2.4-.2.5-1 .8-1.8.8-3.6 0-11.6 6.1-23 17.5-5 4.9-10.2 10.9-11.7 13.2-1.4 2.3-3.1 4.4-3.7 4.8-.5.3-1 1.5-1 2.5s-.6 2.3-1.3 2.7-2.3 2.4-3.5 4.3c-2.5 4.1-2.6 3.3-1.2-7.5 2.1-15.2 5.3-43.4 6.6-57 .3-3.9.8-7.3 1-7.6.5-.9.5-25.6 0-42.4-1.1-33.7-1.1-39.4-.1-37.7.5.9 3.1 6.2 5.7 11.7 5.9 12.5 9.6 17 16.7 20.4 3.1 1.4 5.8 2.6 6.1 2.6 4 .7 6.9 1.9 7.3 3 .3.7 1.9 1.6 3.6 2s3.1 1 3.1 1.5 1.5 1.2 3.3 1.5c1.7.4 3.8 1.2 4.5 1.7 3.3 2.7 18.5-2.7 25-8.9 2-1.9-.7-1.7-3.2.2-1.1.8-3 1.5-4.3 1.5s-2.3.4-2.3 1c0 .5-.5 1-1.1 1-.5 0 0-1.8 1.2-4 1.3-2.2 2.6-4 3-4s1-.9 1.4-1.9c.4-1.4 1.8-2.2 4.8-2.6 4.4-.6 20.8-1.7 24.2-1.6 3.3 0 12.5-7.2 11.1-8.7-.3-.3.1-1 .9-1.6s1.6-2.2 1.8-3.6c.3-1.4 1-4.4 1.6-6.7 1.8-6.6.5-19-3.4-33.8-2.2-8.2-2.7-11.3-1.7-11.9.8-.5 8.7 22.1 8.4 24.4 0 .6 2 2 2.9 2 .4 0 .9-1.4 1.3-3.1 1-5.4-4.7-24.5-9.5-31.6-1.6-2.3-2.9-4.6-2.9-5.2s-.4-1.1-.8-1.1c-.5 0-2.4-2.1-4.2-4.8-1.8-2.6-3.8-5.2-4.4-5.7-1.1-1-14.8-16.5-17.4-19.7-1.2-1.5-1.1-1.6.7-1.1 1.2.3 2.1 1 2.1 1.5s.4.7.9.4 2.8.1 5.2 1c2.4.8 5.1 1.7 5.9 1.9s4.7 1.1 8.5 1.9c3.9.9 9.3 2.3 12 3 2.8.8 7.3 1.7 10 1.9 2.8.3 5.7.8 6.5 1.1 2.4.8 13.8 1.5 14.4.9.3-.4 3-.7 5.8-.8 6-.1 14.4-2.8 17.9-5.7 2.3-1.9 2.3-1.9.2-.8-1.3.6-2.3.8-2.3.5s-1.6.2-3.6 1c-5.4 2.2-5.4 1.9 0-1.6 2.7-1.6 5.5-3.7 6.3-4.5s2.5-1.7 3.9-2c1.3-.3 2.4-.9 2.4-1.3s2.5-2.5 5.5-4.6c5-3.4 7-6.1 8.9-11.7.3-1-.4-4.9-1.6-8.8-1.9-6.2-2-7.3-.7-9.8.8-1.5 2-3.2 2.8-3.8 1.6-1.2.9-8.6-.9-9.2-.5-.2-1-1-1-1.7 0-.8-1.3-2.2-3-3.1-3.5-2.1-5.6-9.5-4.6-16.5 2-14.2 1.9-14.9-.3-17.9-2.9-4.1-2.7-4.3 1.9-2 2.2 1.1 4.7 3.4 5.5 5 .9 1.7 2 3 2.5 3s.7.7.4 1.5c-.4.8-.2 1.5.4 1.5 1.8 0 1.8-2.3 0-5.8-1.7-3.5-7.4-8-13.3-10.6-1.6-.8-5.8-3.6-9.2-6.4-7.2-5.8-14-8.2-22.6-7.8-3.1.1-6 0-6.3-.3-.9-.9-5.2-1.2-5.8-.3-.2.4-4 .7-8.3.5s-10.3.1-13.3.7c-10.5 1.8-20 2.3-20 1.1 0-.6.6-1.1 1.4-1.1 2.1 0 30.9-28.3 35.2-34.7 2.1-3.2 4.9-6.9 6.2-8.3s3.3-4.2 4.5-6.3c5.8-10.2 5.8-10.1 4.4-11.2-1.6-1.2-1.6-1.3-2-12-.4-8.2-2.9-15.9-5.1-15.2-.6.2-1.7-1-2.4-2.7-1.2-2.8-1.4-2.9-2.6-1.4-.7 1-1.6 1.5-2 1.1-.3-.4-1.7-.8-2.9-1s-3.1-.7-4.2-1.2c-7.9-3.4-8.5-3.6-8.5-1.7 0 1.3 11.5 7.6 13.9 7.6 2 0 1.8 6-.5 16.5-.8 3.8-1.9 7.4-2.3 8-.4.5-1.4 2.6-2.1 4.5s-3.9 7.3-6.9 11.9c-3.1 4.6-6 9.1-6.6 10-4.8 7.6-9 13-11 13.9-1.4.7-2.5 1.6-2.5 2.2 0 1.1-13.3 11.4-18.9 14.6-8.4 4.8-12.9 7.3-19.1 10.8-3.6 2-7.2 4.1-8 4.6-.8.6-3 1.8-4.7 2.7-1.8.9-3.3 2-3.3 2.5 0 .4-.6.8-1.4.8-1.6 0-3.1 3.4-2.1 5 .3.5 2 .7 3.8.4l3.2-.6-3.7 3.1c-3.6 3.1-3.7 3.3-2.3 5.5 1.5 2.2 1.8 2.2 6.4 1 5-1.3 23.4-9.8 26.2-12.1.8-.7 2.9-1.5 4.5-1.7 3.4-.6 5.3-1.1 7.4-1.9 1.9-.8 10.6-2.8 14-3.2 1.4-.2 5-.7 8-1 3-.4 11.1-.8 18-.8 11-.1 13.7.2 21.9 2.6 5.2 1.6 10.6 3.4 12 4.2 1.4.7 2.8 1.3 3.1 1.2.9-.2 8.7 7.7 9.8 9.9 1.1 2.1 1 5.4-.3 7.4-1.2 1.9-1.8 14-.7 14 .5 0 1.5 1.4 2.1 3.1s1.9 3.3 3 3.6c1 .2 2.4 1.6 3 2.9s1.5 2.4 2 2.4.8 1.1.6 2.5c-.1 1.6.3 2.5 1.2 2.5 1.2 0 1.2.3-.1 1.6-.9.8-1.6 2.1-1.6 2.9 0 .7-.6 1.5-1.4 1.8-1.3.5-3.5 4.4-4.9 8.9-.4 1-.2 2 .4 2.4s.6 1.1-.2 2c-.8 1-.8 1.8-.1 2.6.6.7 1.2 2.6 1.4 4.3.2 1.9.9 3.1 2 3.3 2.4.5 4.2-4.4 3.1-8.3-1.1-4.1-.5-10.2 1.1-10.8 1-.4 1.8 1.3 2.9 5.6 1.4 5.6 1.4 6.5 0 9.4-.8 1.8-2.2 3.3-2.9 3.3-.8 0-1.4.4-1.4.9 0 .9-13.1 10.1-14.4 10.1-.4 0-2.3 1.1-4.4 2.5-8.7 5.7-20.3 7.8-32.4 5.9-9.3-1.5-10.9-2.3-4.7-2.5 4.3-.2 7-.3 11.7-.7 1.2-.1 2.2-.8 2.2-1.6 0-1.2-1.2-1.4-5.2-1.1-2.9.2-5.3.5-5.3.5 0 .1-4.2.3-9.4.6-8.8.4-13.1-.3-20.1-3.3-.8-.3-1.7-.7-2-.8s-3-1.4-6-2.8c-3-1.5-6.1-2.7-6.8-2.7-1.7 0-9.2-3.9-11-5.6-.7-.8-2-1.4-2.8-1.4s-1.4-.4-1.4-.9c0-2.4-24.1-15.3-24.8-13.2-.2.5-1 .7-1.8.4-1.6-.6-1.9 1.2-.4 2.2.6.4.8 1.1.4 1.6-.3.5-.9.7-1.4.4-.4-.3-1.4-.3-2.2 0-1.6.6-2.3 5.5-.7 5.5 1.8 0 7 4.1 6.4 5.1-.9 1.4.6 3.3 7 8.6 6.1 5.1 24.8 23.5 31.8 31.2 6 6.7 8.6 11.6 12.7 23.5 6.1 17.5 6.7 22.9 4.6 35.4-.3 1.8-1 4-1.4 5-.5.9-1.2 3-1.6 4.6-.6 2.3-.4 2.7.8 2.3 2.6-1 2.3 1.5-.5 4.5-3 3.4-8.6 5-14.1 4.1-2.1-.3-4.5-.2-5.5.2-1 .5-2.8.7-4.1.6-1.3-.2-3.4.5-4.7 1.3-1.3.9-3.3 1.6-4.3 1.6-1.1 0-3.1 1.5-4.4 3.2-3.8 5.2-9.1 14.2-9.1 15.5 0 .7-.4 1.3-.9 1.3-.4 0-.8-.5-.8-1.1 0-.5-.4-.7-1-.4-.5.3-1-.1-1-.9 0-.9-.4-1.6-1-1.6-.5 0-1 .5-1 1.1 0 .5-.5.7-1.1.4-.6-.4-.8-1-.4-1.3.3-.3-.9-1.3-2.7-2.2-11.4-5.7-11.7-6-22.1-19-2.2-2.7-9.3-15.3-13.3-23.5-2.1-4.4-4.2-8.2-4.5-8.5-1.9-1.6-7.1-18.7-8.3-27.1-1.6-11.1-2.7-20.1-3-24.6-.6-6.9-1.5-9.6-3.1-8.9-.8.3-1.2 0-.9-.7.2-.7-.2-2.1-1-3.2-1.4-1.9-1.5-1.9-2.7.8-1.1 2.5-1.7 2.8-4.2 2.3-2.3-.5-2.8-.3-2.3.9.3.8.1 1.5-.5 1.5s-.9.6-.6 1.4c1 2.5-1.2 23-3.2 31.1-.6 2.2-2.2 8.9-3.7 15-2.3 9.9-8.3 24.2-11.8 28.5-.6.8-1.8 2.7-2.6 4.2-1.8 3.8-14.5 17.4-17.8 19.2-1.5.8-5.5 2.9-9 4.6-3.4 1.7-6.8 3.8-7.6 4.5-.7.8-3.6 1.6-6.4 2-4.6.5-5.2.3-6.3-1.7-.6-1.3-2.7-3.7-4.5-5.4-3-2.8-3.9-3.1-8.7-2.8-5 .3-5.5.1-6.6-2.2-.6-1.4-1.1-3.4-1.1-4.5 0-1-1.4-3.8-3.1-6.2-3.1-4.3-6.8-6.9-10.6-7.3-1.1-.1-3-.5-4.2-.9-1.4-.4-2.1-.2-2.1.7 0 1-.2 1-.9-.1-.5-.7-1.3-1.1-1.9-.7-.6.3-1.2.2-1.4-.3-.1-.5-2.1-1.2-4.2-1.5-2.2-.4-4.2-.8-4.4-1.1-1.1-1.1-1.2-15.1-.2-19.8.7-2.8 1.4-7 1.6-9.2.8-8.1 3.7-17.3 8.9-28 4.7-9.5 6.6-12.3 14.2-20.1 5.5-5.6 11.3-10.5 15.6-13 3.9-2.2 6.2-4 5.3-4.2-2.2-.5 3.5-5.9 8.8-8.4 11.4-5.4 16.1-9.6 12.4-11.1q-1.2-.6.3-.6c2.3-.1 2.1-4.9-.2-6.2-1.5-.7-3.5-.4-8.2 1.2-3.4 1.2-6.6 2.6-7.2 2.9-1.2.8-11.5 4.4-13 4.5-1.3 0-14.5 3.2-21 5-5.7 1.5-9.5 2.2-18 3.1-3.3.3-6.4.8-6.8 1.1-.5.3-4.5.5-9 .4-7.6 0-18.4-2.5-26.2-6-18.6-8.4-20.7-9.7-30.1-18.4-2.8-2.6-5.5-4.7-6-4.7s-1.8-1.3-2.9-2.8c-1.6-2.1-2-4.4-2.1-10.7 0-4.4.3-9.6.9-11.5.9-3.8 6.4-10.3 8.1-9.7 1.3.4.8 7.7-.6 9.4-.7.9-.7 1.3 0 1.3 2 0 3.4-3.1 3.7-8.6.3-5.1.8-6.1 4.4-9.8 2.3-2.3 4.1-4.5 4.1-5 0-.4.7-1.4 1.5-2.2 1.6-1.6 1.6-1.8 1.8-19.1.2-8.6.6-11.6 1.7-12.8 1.6-1.5 18.1-5.5 23-5.5 1.5 0 3-.3 3.3-.7 1.3-1.2 19.7-2.4 19.7-1.2 0 1.3 4.4 1.8 5.2.6.5-.8.8-.7.8.4 0 1.6 3.6 2.6 12 3.5 1.4.1 2.8.3 3.2.3.4.1 1.3.7 2 1.4s4.7 2.5 8.8 4.1c15.3 5.8 23.9 10.9 43 25.6 6.9 5.3 8.7 5.7 8.2 2l-.2-2.2 4.6 2.7c2.5 1.5 4.8 2.4 5.1 2.1.3-.2-.4-1.8-1.6-3.4-1.2-1.7-2.1-3.7-2.1-4.6 0-.8-.6-1.9-1.2-2.3-.7-.4-2-1.7-2.8-2.8-1.5-1.9-1.5-1.9 1.3-.2 1.6 1 3.1 1.6 3.5 1.3.6-.7-1.3-2.3-8.3-7.1-11.3-7.6-20.3-20-32.6-45.1-10.6-21.6-14.1-39.4-10.3-53.1 4.3-16 6.5-24.8 6.3-26.2-.3-3.2.1-4.1 1.9-4.1.9 0 2.6-.7 3.6-1.5 3.2-2.4 12.2-4.6 16.3-3.9 8.6 1.3 12.2 1.1 16.7-1S190 32.7 190 30.8c0-1.1 6-3.7 7.5-3.2.6.3 2-.4 3.1-1.4 1-1 2.4-1.7 3-1.5s2.3-.7 3.8-2l2.7-2.3-3.4-1.1c-2.7-.8-4.6-.6-9.3.8M137 52.3c0 .2-.8 2.1-1.9 4.3-1 2.1-2.6 5.9-3.4 8.4-.9 2.5-2.3 6.1-3.1 8l-1.6 3.5.4-5c.5-6.4 3.2-14.4 5.9-17.3 1.8-1.9 3.7-2.9 3.7-1.9M120.4 81c-.2 7.6.2 11.7 1.7 17.2 1.1 4 2.3 9 2.6 11.1s1 4 1.4 4.3c1.2.7 1.2 2.4 0 2.4-1 0-3.5-6.4-5.5-14.6-2.1-8.1-2.2-30.4-.1-30.4.1 0 .1 4.5-.1 10m265.5 23.7c.6 8.6-.3 14.8-2.7 17.6-.8.9-1.2 2-.9 2.3.4.4-.2 1.9-1.3 3.4-1.1 1.6-2 3.1-2 3.6 0 .4-2 2.9-4.5 5.5s-4.5 5.2-4.5 5.7-1.5 2.1-3.4 3.6c-2.9 2.2-3.3 2.3-2.9.7.3-1.1 1.3-2.8 2.2-3.8s2.8-3.7 4.1-6.1c1.3-2.3 2.7-4.2 3.2-4.2.4 0 .8-.5.8-1.2 0-.6.6-1.9 1.3-2.7 2.4-2.8 6.9-14.5 7.2-18.6.3-3.7 2-9.5 2.8-9.5.2 0 .4 1.7.6 3.7m-259.5 24c1.5 3.2 4.1 8 5.8 10.6s2.8 5 2.5 5.4c-.3.3-1.9-1.7-3.6-4.3-1.6-2.7-3.5-5.6-4.3-6.4-1.7-2-4.9-11-4-11 .4 0 2 2.6 3.6 5.7M81 147.9c2.4.7 2.4.7-.8 1.4-1.9.4-4.2.2-5.3-.3-1-.6-3.9-.9-6.4-.7s-4.5 0-4.5-.5c0-1 13.5-.9 17 .1m-14 4c0 .4-2 1.1-4.5 1.4-2.5.4-5.7.9-7.2 1.3-2.7.6-2.7.6-.7-.9 1.1-.9 4-1.7 6.5-2 2.4-.2 4.7-.4 5.2-.5.4-.1.7.2.7.7m30.5 3.1c-.3.5-1.2 1-1.8 1-.7 0-.6-.4.3-1 1.9-1.2 2.3-1.2 1.5 0m251 15c-1 1.1-2.3 2-2.8 2-.6 0-.2-.9.8-2s2.3-2 2.8-2c.6 0 .2.9-.8 2M37 183.2c-.5 4.6-1.7 9.2-2.7 10.7l-1.7 2.6-1.3-6.5c-1.7-8.5-.9-13.8 2.5-17.3l2.7-2.8.7 2.7c.4 1.4.3 6.2-.2 10.6m306-9.9c0 .2-1 1.2-2.2 2.3l-2.3 1.9 1.9-2.3c1.8-2.1 2.6-2.7 2.6-1.9m-7.5 5.7c-.3.5-1.2 1-1.8 1-.7 0-.6-.4.3-1 1.9-1.2 2.3-1.2 1.5 0M29.6 255.1c2.2 1.7 5.7 4.7 7.9 6.8 3.8 3.6 12.8 7.7 30.3 14.1 3.4 1.2 6.2 2.5 6.2 2.7 0 .7-8.1-.6-10.5-1.7-1.1-.5-4.2-1.6-6.8-2.6-2.7-.9-5.9-2.5-7.2-3.5-1.9-1.6-2.5-1.7-3.4-.5-.9 1.1-.7 1.8 1.1 3.1 2.3 1.7 2.2 1.7-2.2 1.1-6.1-.9-12.6-4.9-14.4-8.9-2.2-4.8-5.6-13.7-5.2-13.7.2 0 2.1 1.4 4.2 3.1M139 272.4c0 .3-.4.8-1 1.1-.5.3-1 .1-1-.4 0-.6.5-1.1 1-1.1.6 0 1 .2 1 .4m-30 7.5c0 1-6.1 2.1-10.5 2-2-.1-1.1-.6 3-1.4 7.8-1.7 7.5-1.6 7.5-.6m-4.1 40.3c-1.7 3.4-4.1 7.8-5.4 9.8-1.2 1.9-3.1 6-4.3 9-5.5 14.8-8.4 17.5-5.7 5.4 1.5-7.2 4.5-13.5 9.1-19.4 1.9-2.5 4.6-6 6-7.8 1.4-1.7 2.7-3.2 3-3.2.2 0-1 2.8-2.7 6.2m-2.6 29c-1.6 6.2-2.2 21.2-.9 24.8l.9 2.5-2.3-2c-4.8-4.3-5.4-7-3.4-15.4 1-4.2 2.6-8.7 3.6-10s1.8-3 1.8-3.7c0-.8.4-1.4.9-1.4.4 0 .2 2.4-.6 5.2m129.4 10c-.3.8-.6.5-.6-.6-.1-1.1.2-1.7.5-1.3.3.3.4 1.2.1 1.9M216.9 379c-1.7 3.4-3.3 5.9-3.6 5.7-.2-.3 1.1-3.4 2.9-7s3.4-6.2 3.6-5.7c.2.4-1.1 3.5-2.9 7m43.1 2.5c0 .5-.5.3-1-.5s-1-2-1-2.5c0-.6.5-.3 1 .5s1 1.9 1 2.5m4 5.7c0 .5 1.3 2.8 2.8 5.1 4.4 6.4 4.8 7.4 2 4.9-1.5-1.3-4.1-5.1-5.9-8.5-2.7-5.2-2.9-5.9-1.1-4.3 1.2 1.1 2.2 2.3 2.2 2.8m-75.1 18.7c-1.9 2.1-5 4.7-6.9 5.7-4 2-16 3.2-12.5 1.2 1.1-.6 2.2-1.4 2.5-1.8.5-.6 5-2.8 11.3-5.4 2.5-1 3.6-2 3.1-2.7-.5-.9-.1-1 1.4-.7 1.2.4 2.5.2 2.8-.4.3-.5.8-.7 1.1-.4s-.9 2.3-2.8 4.5m-36.9 3.9c1.4 2 2.6 4 2.8 4.4.6 1.4-4.4-.6-7.5-2.9-4.1-3-4.3-5.3-.5-5.3 2 0 3.3 1 5.2 3.8m88.7 8.4c-.3.8-.6.5-.6-.6-.1-1.1.2-1.7.5-1.3.3.3.4 1.2.1 1.9m1.7 22.8c-.4 20.7-3 49.5-5.5 60.7-.5 2.4-.9 4.6-.8 5 .3 1.8-.2 3.3-.9 3.3-.8 0-.5-4.2 2.3-27 1.2-10.3 2.2-31.5 2.6-59l.1-4.5 1.2 3.5c.8 2.3 1.2 8.2 1 18M346 479.4c-1.5 3.5-3.8 8.1-4.9 10.3-1.1 2.1-3.2 6.4-4.7 9.6-1.5 3.3-3.6 6.4-4.6 7-1 .7-1.8 1.7-1.8 2.3s-.9 1.9-2 2.9-2 2.2-2 2.7c0 2.7-11.7 14-17.2 16.5-2.5 1.2-8.1 3.1-12.4 4.3-4.3 1.1-8.2 2.4-8.7 2.9s-1.5.7-2.2.4c-.8-.2-3.4.5-5.9 1.6s-4.6 1.8-4.6 1.5-1.2.1-2.7.9c-5.6 2.9-16.2 7.7-16.9 7.7-.4 0-1.8 1-3.1 2.2s-2.5 1.9-2.8 1.6c-.7-.7 8.2-9.6 12.8-12.6 2-1.3 3.7-2.9 3.7-3.3 0-.5.6-.9 1.3-.9s2.2-.8 3.3-1.8c1-.9 3.8-2.9 6.2-4.5 2.3-1.5 4.2-3.1 4.2-3.6s.8-1.1 1.8-1.5c1.9-.6 10.7-6.6 13.7-9.3 1.1-1 2.8-2.3 3.9-2.8 1.1-.6 2.1-1.6 2.4-2.4.3-1 0-1.1-.9-.5-.8.5-2 .9-2.7 1-2.3.4-10.2 4.4-10.2 5.2 0 .4-.8 1.2-1.9 1.7-1 .6-3.4 1.8-5.2 2.8-3.3 1.8-3.3 1.7.9-2.1 2.3-2.1 4.2-4.1 4.2-4.4 0-.9-5.4.4-7 1.7-.8.7-3.2 2-5.2 3-2.1.9-5.4 3.1-7.3 4.9-1.9 1.7-4.9 4.2-6.7 5.6-1.7 1.4-6.1 5.4-9.6 8.9-6.2 6.3-6.5 5.8-1.5-2.1 1.2-2.1 2.3-4.4 2.3-5.3 0-.8.4-1.5.9-1.5s2-2.1 3.2-4.8c1.3-2.6 3.1-5.6 4.1-6.6 1-1.1 1.8-2.4 1.8-2.9 0-.6 1.6-2.5 3.5-4.4s3.5-3.6 3.5-3.8 2.2-2.5 5-5.1c2.7-2.5 4.7-5 4.4-5.5s.4-.9 1.5-.9c1 0 2.1-.4 2.3-.8.6-1.4 14.2-7.6 16.2-7.3 1 .1 2.2-.3 2.7-1 .4-.7 1.8-1.4 3.1-1.5 5.3-.5 8.5-1.1 10.4-2.2 1.2-.6 2.4-.9 2.7-.5.4.3 1.9.1 3.4-.5s3.9-1.3 5.3-1.6c3-.5 20-6.3 20.8-7.1 2-2 1.7.4-.8 5.9m-196.6 20.5c3.4 1.6 8.8 4.1 12 5.6s8 4.7 10.7 7.2c2.8 2.6 5.5 4.3 6.6 4.1 1.2-.2 1.7.2 1.5 1.5-.2 1 .5 2 1.7 2.5 1.1.4 2 1.1 2.1 1.7.1 1.8 5.2 7.5 6.6 7.5.8 0 1.1.6.7 1.6-.3.9-.2 1.9.4 2.3.5.3 2 2.4 3.3 4.6s3.3 4.8 4.4 5.8c1.2 1 2.1 2.2 2 2.5 0 .4.6 2.3 1.4 4.2 2 4.8 4.2 13 3.4 13-.4 0-2.3-2.4-4.3-5.3-5.6-8-16.8-19.7-19-19.7-1 0-1.9.3-1.9.8 0 1.2 5 8.4 8.3 11.9 1.7 1.8 2.8 3.3 2.4 3.3s-2.6-2-4.9-4.5-4.8-4.3-5.4-4.1c-.7.3-1.5 0-1.8-.7-.3-.8-.5-.6-.5.3-.1 1.6 3.7 4.6 5.2 4.2.5-.1.6.2.2.8s.9 2.6 2.8 4.5 3.3 3.6 3.1 3.7c-.1.2 2.7 4.1 6.2 8.8 6.6 8.7 6.9 10.7 1.2 7.2-1.8-1.1-6.2-3.5-9.8-5.4-7-3.6-11.9-6.6-13.5-8.4-.5-.6-2.3-1.8-3.8-2.8-1.5-.9-3.1-2.5-3.4-3.4-.4-.9-1.3-2.4-2-3.2-1.4-1.5-5.6-8-5.8-9-.6-3.3-3-8-4-8-.9 0-1.2-.6-.8-1.6.5-1.4-.8-7.2-2.8-11.9-.4-1.1-1.6-3.8-2.5-6s-1.8-4.7-2-5.5c-.2-.9-1.5-4.1-2.8-7.3-1.4-3.1-2.3-5.7-1.9-5.7.3 0 3.4 1.3 6.7 2.9m85.3 14.3c-.3.7-.5.2-.5-1.2s.2-1.9.5-1.3c.2.7.2 1.9 0 2.5M332 519c-1.1 2.2-2.5 4-3 4-.6 0 .2-1.8 1.6-4 1.5-2.2 2.8-4 3.1-4 .2 0-.6 1.8-1.7 4m-190-2.6c0 .3-.4.8-1 1.1-.5.3-1 .1-1-.4 0-.6.5-1.1 1-1.1.6 0 1 .2 1 .4m5 13.1c.6 2.2 1.5 4.9 2 6 .8 1.7 4.7 11.2 6.7 16.5.5 1.1.1 1-1.4-.3-1.2-1-2.7-3.3-3.3-5-.7-1.8-2.1-5-3.1-7.2s-2.1-5.9-2.5-8.3c-.4-2.3-1-4.2-1.4-4.2-.5 0-.6-.9-.3-2.1.7-2.6 1.9-1 3.3 4.6m131-5.5c0 .5-.5 1-1.1 1-.5 0-.7-.5-.4-1 .3-.6.8-1 1.1-1 .2 0 .4.4.4 1m47 3.3c0 .2-1.4 1.6-3.2 3.3-1.8 1.6-2.6 2-1.8.9 1.9-2.7 5-5.3 5-4.2m-7.5 6.7c-.3.5-1.6 1.5-2.8 2.1-1.9.9-1.9.8.3-1 2.8-2.3 3.4-2.6 2.5-1.1m-14 7c-1 1.6-6 3.5-17.2 6.5-1.2.3-2.4.2-2.7-.4-.3-.5 2.7-1.9 6.6-3.1 4-1.2 8.4-2.5 9.8-3 3.4-1.2 4.2-1.2 3.5 0m-21.8 6.6c-.3.3-1.2.4-1.9.1-.8-.3-.5-.6.6-.6 1.1-.1 1.7.2 1.3.5M225 19.1c0 .5.5.7 1 .4.6-.3 1-.8 1-1.1 0-.2-.4-.4-1-.4-.5 0-1 .5-1 1.1m-54.6 2.1c-.4.5-.4 1.1-.1 1.4.6.6 3.7-.6 3.7-1.5 0-1.1-3-.9-3.6.1m-2.2 5c-.7.7-1.2 2-1.2 3s-.6 1.8-1.4 1.8c-1.2 0-2.6 2-2.6 3.6 0 .9 4.7-4.1 6.3-6.9 1.8-2.7 1.1-3.7-1.1-1.5m82.4 56.4c-2 1.9-2 2.3.1 4.6.9 1.1 1.1 1.8.5 1.8-.7 0-1.2.7-1.2 1.5 0 1.7.9 1.9 2.8.7 1-.7 1-1.5.2-3.7-.7-1.9-.7-3.1 0-4 1.7-2-.6-2.8-2.4-.9m-25.4 95.6c-.7.7-1.2.9-1.2.6 0-.9-9.9 2-12.5 3.6-1.1.7-3.1 1.6-4.5 1.9-2.5.6-11 8.2-11 9.9 0 .4-.6.8-1.3.8s-1.7.8-2.2 1.9c-.6 1-2.9 4.4-5.3 7.5-8.1 10.7-11.8 20.7-10.8 29.5 1.2 10.2 1.7 12.6 2.6 13.5.6.6 1 1.8 1 2.7 0 3.6 8.6 16.6 15.2 23.2 5.9 5.8 12.8 10.8 12.8 9.3 0-.3 1.2.1 2.7.9s3 1.2 3.5.9 1.4-.2 2.1.4c.7.5 3.5 1 6.2 1.1 2.8.1 6.4.3 8 .4 8.2.4 18.2-1.6 25-5 14.5-7.2 23-19.6 30.2-44.3 1.8-6.2 2.1-15.2.4-15.8-.6-.2-1.1-1.4-1.1-2.6 0-1.3-.3-2.6-.7-2.9-.3-.4-.8-2.1-1-3.7-.1-1.7-1-4.5-1.9-6.3-2.6-5-11.3-15.5-13.4-16.2-1.1-.4-2-1-2-1.5 0-.4-1.2-1.1-2.7-1.5-1.5-.3-4.6-1.5-7-2.6-2.3-1-5.1-1.9-6.2-1.9s-2.2-.4-2.5-.9c-.8-1.2-6.2-2.4-11.6-2.6-2.6-.1-5.7-.5-7.1-.8-1.5-.4-3.1-.1-3.7.5m14.9 15.1c2.7.2 10.9 4.7 10.9 5.9 0 .4.7.8 1.5.8s1.5.4 1.5.9c0 .4 1.8 2.6 4.1 4.7 2.2 2.2 5.1 6.3 6.4 9.1 1.4 2.9 2.9 5.3 3.3 5.3.5 0 1.5 3.1 2.2 6.9 1.2 6.5 1.1 7.4-1 14.3-1.3 4-3.5 8.6-4.9 10.1-7.3 8.1-11.9 11.8-15.6 12.7-2.2.6-6.2 1.8-8.8 2.6-4.9 1.5-11.2 1.3-16-.5-1.5-.6-2.7-.8-2.7-.5s-1.2-.4-2.6-1.5c-1.5-1.2-3-2.1-3.5-2.1-.4 0-3.5-2.8-6.9-6.3-5.8-6-9.6-12-10.2-16.2-.2-1.1-.6-2.5-.9-3-1.1-1.8.1-11.3 2-15.8.6-1.6 1.1-3.1 1.1-3.3 0-1.3 9.4-12.6 12.3-14.7 7.1-5.3 19.8-8 22.4-4.7 1 1.3 1.3 1.3 1.9-.4.5-1.3.2-2.3-.9-3.1-1.8-1.3-1.3-2.7.7-1.9.7.3 2.4.6 3.7.7m204.3 17.8c-.3.6-.1 1.6.5 2.2.8.8 1.1.5 1.1-1.1 0-2.4-.5-2.8-1.6-1.1M403 285.2c0 .4.9.8 2 .8s2-.4 2-.9c0-.6-.9-.9-2-.8s-2 .5-2 .9m-9.3 1.5c-1 .3-1.6 1-1.4 1.6.2.7.6 1.1.8 1.1.2-.1 2.3-.7 4.7-1.3 2.3-.7 4.2-1.4 4.2-1.6 0-.6-5.8-.4-8.3.2M95 391c0 .5.5 1 1.1 1 .5 0 .7-.5.4-1-.3-.6-.8-1-1.1-1-.2 0-.4.4-.4 1m128 216.2c0 .7-.3 2.4-.7 3.7-.5 2-.3 2.3 1 1.8 1.1-.4 1.4-.2 1 .8-.3.8-.9 1.2-1.4.9-1-.6-1.6.7-2.3 4.6-.2 1.4-.7 3.7-1.1 5.2-.5 1.9-.2 3.2.9 4.4 1.6 1.5 1.6 1.4 1-1.1-.5-2.1-.4-2.6.6-2 .9.5 1 .2.5-1.4-.4-1.3-.2-2.1.5-2.1.8 0 1-1 .8-2.5-.3-1.3-.1-2.6.4-2.7 1.3-.5 2.1-6.8.9-6.8-.6 0-1.1-.5-1.1-1 0-.6.5-.9 1.1-.8.6.2 1.4-.3 1.6-1 .3-.7-.4-1.2-1.6-1.2s-2.1.6-2.1 1.2m-4.7 23.8c.1 2 2.7 2.9 2.7 1 0-.6-.5-1-1.1-1-.5 0-.7-.5-.4-1 .3-.6.2-1-.4-1-.5 0-.9.9-.8 2m.7 4c-1.2.7-1.2 1.2-.3 2.1 1 1 1.4.9 1.9-.5.8-2.2.2-2.7-1.6-1.6m-2.1 4.6c-.2 2.9-.7 5.7-1.5 8.1-.3 1.3-.2 2.3.3 2.3 1.2 0 3.3-6.8 3-9.2-.4-2.6-1.7-3.4-1.8-1.2"/></svg>