<svg xmlns="http://www.w3.org/2000/svg" width="685.333" height="980" viewBox="0 0 514 735"><path d="M455.6 14.5c-.3.8-1.2 1.5-2.1 1.5-.8 0-4.1 2-7.3 4.5-3.1 2.5-6.2 4.5-6.9 4.5s-1.6.6-2 1.4c-.7 1.1-19.8 14.6-20.8 14.6-.2 0-3.1 1.6-6.4 3.4-3.4 1.9-6.1 3.2-6.1 2.8 0-.6 4.2-3.4 12.4-8.5 1.1-.7 2.9-2 4-3 1.1-.9 2.5-1.7 3.1-1.7 2.6 0 1-2.7-1.7-2.8-1.5 0-2.8.4-2.8.9s-.7.9-1.5.9c-1 0-1.2.6-.8 1.7.6 1.6.5 1.7-1.1.3-1.6-1.3-2-1.2-3.1.3-.7.9-1.8 1.7-2.5 1.7-2.2 0-10.1 4.2-10.7 5.6-.3.8-.9 1.2-1.3.9s-1.1.2-1.4 1.1c-.3.8-.2 1.2.4.9s1-.1 1 .4c0 .6-.7 1.1-1.5 1.1s-1.5-.5-1.5-1c0-.6-.9-1-1.9-1-1.1 0-2.3.4-2.6 1-.3.5-1.3 1-2.2 1s-5.5 1.7-10.2 3.9c-7.4 3.3-12.6 5.4-12.6 5.1 0-.1-20 7-22 7.9-1.1.5-5.6 2.1-10 3.6-9.1 3.1-14.8 6.2-13.9 7.6.3.5-.4.9-1.5.9-1 0-2.2.6-2.5 1.2-.3.9-.9.8-2-.5-1.4-1.8-1.5-1.8-2.7.1-1 1.6-1.7 1.8-3.1 1.1-1.2-.6-2.5-.6-3.7 0-1 .6-3.3 1.2-5.2 1.5-7 .9-10.5 1.9-12.5 3.7-1.1 1.1-2.3 1.7-2.6 1.3-.4-.3-1.7 0-3 .7-1.2.7-3.2 1.3-4.3 1.4-1.1 0-2.4.3-3 .6-.5.4-2.2.9-3.7 1.3-1.6.3-2.8 1-2.8 1.5s-.9.7-2 .4c-2.6-.7-17.2 4.8-16.6 6.2.2.7-.7 1-2.3.7-2.5-.3-7.9 1.8-15.6 6.1-1.1.6-3.6 1.9-5.5 2.9s-5.3 3.3-7.5 5.1-5.3 4.1-7 5.2c-5 3.1-15.7 13.3-20.3 19.3-4.5 5.9-1.1 4.8 4.9-1.6 3.2-3.4 6.1-6.2 6.4-6.2s3.1-1.9 6.2-4.3c3-2.3 6.3-4.7 7.1-5.2a34 34 0 0 0 3-2.3c.7-.6 1.7-1.2 2.1-1.2s1.6-.8 2.7-1.8c2.4-2.1 9.5-5.7 11.2-5.5.6 0 1.2-.3 1.2-.8s.5-.9 1.1-.9c.8 0 .8.5-.1 1.5-.7.8-1.6 1.5-2.1 1.5-2.6 0-18.6 12-26.4 19.9-4.9 5-9.4 9.1-9.8 9.1-.5 0-2.1 1.2-3.7 2.7-3.5 3.6-5.7 5.3-6.6 5.3-.4 0-1.5.7-2.4 1.5-1.6 1.5-1.8 1.2-2.4-3.5-.5-3.4-1.1-5-2.1-5-.8 0-1.5-.5-1.5-1 0-.6-1.6-1-3.5-1-2.4 0-3.5.5-3.5 1.5 0 .8-.9 1.5-2 1.5s-2.9.9-3.9 1.9c-1.1 1.1-3 2.1-4.3 2.3s-3.4 1.6-4.8 3.3c-3.4 4.1-5.2 5.4-7.3 5.5-1 0-2.1.8-2.4 1.7-.7 1.9-2.5 3.6-5.6 5.4-1.6.9-1.7.8-.8-.9.6-1.1 1.6-2.2 2.3-2.5.7-.2 1-.8.6-1.2-.7-.8-11.8 8.2-11.8 9.5 0 .5-2 2.8-4.5 5.1-2.5 2.4-5.3 6-6.2 8.1-.9 2-2 3.6-2.4 3.5-.7-.2-6.9 7.7-6.9 8.9 0 .3-1.3 2.4-2.8 4.7-1.6 2.3-4.6 7.8-6.7 12.2l-3.8 8-.9-4c-.5-2.2-1.2-4.3-1.7-4.8s-3.8-1-7.4-1.2c-7-.3-9.5.9-8.3 4 .3.9.2 1.3-.4 1s-1-.2-1 .3-1.6 2-3.5 3.3-3.6 3.3-3.7 4.4c-.2 1.1-1.4 2.2-2.8 2.6s-2 .8-1.5.8c.6.1-.1.7-1.5 1.4-1.5.8-2.5 2.1-2.5 3.4 0 1.2-.8 3.1-1.7 4.2s-1.4 2.2-1.1 2.5c.4.3-.2.6-1.1.6q-1.8 0-1.2 1.5c.3.9-.3 2.4-1.2 3.3-2.6 2.6-6.4 10.9-6.4 13.8 0 1.4-.8 2.9-1.8 3.4-1.5.8-2.9 4.3-3.4 8.5-.1.9-1.2 4.1-3.6 10-.4 1.1-1.6 3.8-2.5 6-1.3 2.8-1.5 4-.6 4.3.7.2.8.9.4 1.5-2.5 3.4-3.6 9.7-4.7 25.2-.1 1.6-.5 3.5-.9 4.2-.4.6-.3 1.4.3 1.8.9.6.8 3.8-.4 9.4-.3 1.4-.1 2.9.3 3.5 1.2 1.4 2.4 25.6 1.3 25.6s-7.5-2.4-9-3.4c-.7-.4-1.6-.5-2-.1-.7.7-.8 1.2-1.1 4-.1.9-.7 1.2-1.7.8-1.3-.5-1.5-.2-1 1.4.5 1.5 0 2.5-1.9 3.7-2.5 1.6-2.5 1.8-2 11.3.3 5.3.8 9.9 1 10.3s.7 5.4 1 11.1c.5 9 1 14.4 2 20.9.2.8 1.4 5.7 2.8 10.8 2 7.5 2.2 9.2 1 8.8-.8-.3-1.7-.6-1.9-.6-.3 0-.2-.5.2-1.1.7-1.1-1.2-2.9-3.1-2.9-.5 0-.4.4.4.9.7.5 1.1 1.5.9 2.2-.3.8-.1 2.3.5 3.4s1.2 2.9 1.2 4c.2 3 5.5 15.8 7 17 .7.6 1.9 3 2.5 5.3.7 2.3 2.1 4.9 3.2 5.8 1 1 1.8 2.2 1.8 2.8s1.1 2.8 2.5 4.8 2.5 4.2 2.5 4.8.5 1.6 1 2.3c.6.7 3.4 4.1 6.2 7.7s5.5 6.4 6 6.2c.5-.1.7.2.3.8-.8 1.3 7.7 9.8 17 17 3.9 3 10.9 9.1 15.6 13.5 10 9.4 16.5 14.9 19.9 16.7 1.4.8 4.5 2.6 6.9 4.2 2.5 1.6 6.1 3.5 8 4.3 2 .8 5 2.1 6.6 2.8 4.6 2.1 6.8 2.3 9.6.9 1.5-.7 2.9-1 3.3-.7.3.4.6.2.6-.3s5.4-.9 12-.9c10.7 0 12.1-.2 13.4-2 2.1-2.7 2-4.5-.3-4.5-1.1 0-2.1-.5-2.3-1.1s-4-1.5-8.3-1.9c-10.1-1.1-15.7-2.3-24-5.5-7.4-2.7-10.1-4.4-19.5-12.3-19.9-16.7-35-31.3-42-40.7-3.8-5.1-11.5-18.8-17-30.3-1.6-3.4-3.5-6.2-4-6.2-.6 0-.9-.4-.5-.9.3-.5.1-1.2-.4-1.5s-1.2-2.3-1.6-4.3c-.4-2.1-1.4-5.4-2.2-7.3-.9-1.9-1.6-3.8-1.5-4.1 0-.3-1-1.8-2.4-3.4-2.3-2.7-2.4-3-.7-3.6 1.5-.6 1.5-.8.2-.8-1-.1-1.6-1.1-1.7-2.9 0-1.5-.8-4.5-1.8-6.7-1.8-4.5-2.1-6.1-3-19.5-.4-5.2-.9-9.7-1.3-10-.6-.5-.7-2.6-.1-3.3.1-.1.3-2.2.5-4.7.1-2.5.3-4.9.4-5.3.2-1.5 6.5-3.5 8.2-2.6 1.2.6 1.9.4 2.4-.9.6-1.6.7-1.6 2 .1 1.4 2 2.4 1.1 3-2.6 1.8-10.8 2.3-18.3 2.1-31.1-.3-20.4 1.3-30.7 8.4-52.6 5.6-17.5 12.7-32.5 17.9-38.3 1.9-2.1 6.1-5.7 9.3-7.8 3.2-2.2 5.8-4.4 5.8-4.9 0-.6.8-1 1.8-1 2-.1 5.2-2.3 5.2-3.7 0-1.7 4.5-.7 4.8 1 .4 2.2 1.9 2.2 2.5-.1.4-1.6.5-1.6.6 0 .2 3.4 1.7 1.8 5.5-6 7-14.3 8.4-16.9 9.8-17.5.8-.3 3.8-4.5 6.6-9.4s6.5-10.7 8.2-12.8c1.6-2.1 3-4.3 3-4.9 0-.7 1.3-1.9 2.8-2.8s5-4.4 7.7-7.7c2.8-3.3 6.2-6.5 7.8-7.2 1.5-.6 2.7-1.5 2.7-2 0-.4 1.4-1.6 3-2.6 2.6-1.5 2.8-1.9 1.3-2.5-1.7-.6-1.7-.7.1-.7 1-.1 2.4.7 3.1 1.6 1 1.4.9 2-.8 3.3-1.9 1.6-1.9 1.8-.3 4.2 2.2 3.3 5 4.4 11.7 4.7 4.9.2 6.3-.2 10-2.9 2.4-1.6 5.8-4.8 7.4-7 1.7-2.1 3.5-3.9 4-4 .6 0 3.4-2.3 6.3-5 2.9-2.8 5.7-5 6.3-5 .5 0 .7-.5.4-1-.3-.6.1-1 .9-1 .9 0 1.6-.4 1.6-.8 0-.5 1.1-1.5 2.5-2.2 1.6-.8 2.5-2.2 2.5-3.6 0-1.6.5-2.2 1.3-1.8.8.3 4.5-1.5 8.2-4.1 3.7-2.5 7.2-4.5 7.6-4.5.5 0 .9-.3.9-.8 0-.4 1.4-1.3 3.1-2.1 1.8-.8 2.8-1.9 2.5-2.7s0-1.1 1-.7c.7.3 1.4 0 1.4-.7s.7-1 1.7-.6 3.5-.2 5.8-1.3c2.2-1.2 8.1-3.6 13-5.5 5-1.9 8.9-3.9 8.7-4.5-.3-1.5 1.5-1.4 2.1.1.3 1 .8 1 1.8.2.8-.6 5.6-2.8 10.7-4.9 5-2.1 9.2-4.1 9.2-4.5s1.2-.7 2.8-.8c1.5 0 5.9-1.4 9.7-3 6.5-2.7 12-4.2 17-4.8 1.1-.1 3.8-.5 6-.9 3.7-.7 3.8-.6 2 .7-1.1.9-3.7 1.8-5.7 2.2-2.1.4-4.4 1.3-5.2 2.1s-1.9 1.5-2.5 1.5-1.1.6-1.1 1.3-.8 1.3-1.7 1.4c-5.5.4-7.7 1-8.1 2.1-.5 1.5 2.1 1.5 7.3 0 2.2-.6 4.2-1.2 4.5-1.2.9-.2 7.3-2.8 11-4.4 1.9-.9 3.7-1.7 4-1.7 2-.3 9.1-3.2 15-6.1 3.9-1.9 7.2-3.4 7.4-3.4s4.6-2 9.7-4.3c5.2-2.4 10.9-5 12.7-5.7 1.7-.7 3.2-1.5 3.2-1.9 0-.3 2.7-1.7 6-3.1s6-2.8 6-3.3c0-.4.6-.7 1.3-.7 2 0 17.6-7.2 24.2-11.1 3.3-2 8.2-4.9 10.9-6.3l4.9-2.7-.7 2.8c-2 8.8-3.8 19.7-4.2 26.3-.3 4.1-.7 8.8-.9 10.5-.3 1.6-.7 6.8-1.1 11.5-.3 4.6-1 9.2-1.5 10.2-.7 1.4-.6 2 .6 2.4 1.1.4 1.2 1 .6 1.8-.6.7-.8 3.7-.5 6.7.3 2.9.6 9.4.8 14.2.1 5.5.6 9.1 1.4 9.6.6.4 1.2 2.8 1.3 5.5.2 3.4.8 5.1 2.1 6.1 1.1.7 2.1 2.5 2.2 3.9.2 1.5 1 3.4 1.8 4.4.8.9 2 3 2.6 4.5.7 1.5 1.7 2.5 2.2 2.2.6-.4 1-.3.9.2-.4 2.4.3 4.3 1.6 4.3.9 0 1.5 1 1.5 2.6 0 1.4-.4 2.3-1 1.9-1.5-.9-1.2 1.2.5 2.8.8.8 1.1 1.7.8 2-.3.4.2 2.2 1.1 4.1s1.6 4 1.6 4.8c0 1.5 2.2 7.7 3.2 9.3 2.2 3.4 3.8 48.5 1.7 48.5-.9 0-3.1 9.7-2.8 12.2.2 1.3-.2 3.2-.8 4.3-1.3 2.3-1.5 9.5-.3 9.5.5 0 1.1-1.3 1.5-2.9.4-1.9 1.1-2.8 1.9-2.5 1.4.6 2.9-3.3 1.6-4.1-.9-.6-.1-9.3 1.2-11.8.6-1.2.5-1.7-.4-1.7-.7 0-.3-.7.9-1.5 2.1-1.5 2.6-6.6.9-9.4-.5-.7-.1-1.7 1-2.5.9-.7 1.4-1.7 1.1-2.2-.3-.6-.1-1.6.4-2.4.7-1 .9 1.8.7 9-.2 5.8-.7 10.8-1.2 11.2-.5.3-.9 2.2-.8 4.2.1 1.9-.3 3.8-.7 4.1-.5.3-1.2 2.8-1.6 5.5-.4 2.8-1.1 4.8-1.6 4.4-.5-.3-.9.5-.8 1.8.1 5-1 14.5-2.1 17.3-.8 2.1-.8 3.1-.1 3.3.6.2.9.8.5 1.3-.3.5.1.9.8.9.8 0 1.9-1.3 2.5-3 1-2.7 1.3-2.8 3.7-1.7 1.7.8 2.6 2 2.6 3.4 0 1.9.6 2.3 2.9 2.3 3.6 0 9.5-2.4 13.6-5.6 1.8-1.3 3.4-2.4 3.7-2.4.8 0-.9 9.6-2.1 11.6-2.7 4.9-4 9.6-3.2 11.8.5 1.2.6 2.8.1 3.6-.4.7-.6 2.8-.5 4.6.2 1.9 0 3.6-.5 3.9s-1.9 3.9-3.1 8c-1.2 4.2-2.6 7.8-3.1 8.1-.4.3-.8 1.6-.8 3 0 1.3-.4 2.4-.8 2.4-.7 0-5.7 9.9-8 16.1-.6 1.4-2.1 3.8-3.4 5.5-1.3 1.6-3.1 4.5-3.8 6.4-.8 1.9-2 3.9-2.7 4.3s-1.3 1.2-1.3 1.8c0 .5-1.1 2.2-2.5 3.7s-3.1 3.9-3.8 5.4c-.6 1.6-1.5 2.8-1.9 2.8-.5 0-.7.3-.6.7.1.5-.3 1.8-1 3-.6 1.2-1.3 3-1.5 4-.1 1-.6 2.4-1.1 3.1-.4.7-.5 2.4-.2 3.7s.2 2.6-.2 2.9c-1.4.9-.1 6.6 1.5 6.6.8 0 2.3-2 3.3-4.4 2.6-5.6 5.8-8.4 5.1-4.4 0 .5.4.8 1 .8s.7.5.2 1.2c-.4.7-.8 1.7-1 2.3-.1.5-.9 2.8-1.7 5-1.1 3.1-1.1 4.3-.3 5.4.7.8 1.1 2.3.9 3.3-.3 1.7-.1 1.8 1.6.9 1.1-.6 2.2-1.5 2.4-2.1.1-.5 1.7-1.2 3.3-1.4 1.7-.2 3.8-.7 4.8-1.1 2.2-.9 2.2-1-.9 7.7-3.6 10.1-6.3 15.7-9 19.4-1.3 1.7-2.4 3.5-2.4 4s-1 1.6-2.2 2.4c-2.2 1.5-12.6 11-20.5 18.7-2.5 2.5-4.3 5.1-4.3 6.5-.1 2.6-1.9 5.3-3.7 5.4-.7.1-1.9.2-2.7.2-.7.1-2.4 1.2-3.8 2.5-1.3 1.2-4.1 3-6.1 3.9-2.1 1-4 2.4-4.3 3.2-.7 1.8-7.8 6.6-9.7 6.6-.8 0-2.6 1-4.1 2.1-3.3 2.6-2.2 4.5 1.7 3 2.1-.8 2.7-.8 2.7.4 0 .7-.4 1.7-1 2-.5.3-1 1.6-1 2.8.1 3.2-.5 6.1-1.3 7.4-.5.7-.3 2.2.3 3.3.8 1.4.8 2 0 2-.7 0-.9.8-.5 2.1.9 2.8-7.9 11.1-10.9 10.3-1.4-.3-3.3.6-5.6 2.6-1.9 1.6-3.8 3-4.2 3-.5 0-1.1 0-1.5.1-.5.1-6.9 3.2-14.3 6.9-7.4 3.8-14.8 7.2-16.5 7.6-1.6.4-3.4 1-4 1.4-.5.4-4.6 1.8-9 3-4.4 1.1-9.6 2.7-11.6 3.5-6.7 2.6-33.3 3.5-38.4 1.4-1.6-.7-3.4-1.3-4-1.4-.5 0-2.3-.7-4-1.4-1.6-.7-3.8-1.3-4.7-1.4-1-.1-1.8-.5-1.8-.9 0-.5-2.4-1.9-5.2-3.3-2.9-1.3-7.9-3.8-11-5.6-5.7-3.2-8.8-3.3-8.8-.4 0 1.4 1 2 7 4.1 1.2.4 1.2.6 0 1.4-.9.5-2.5.3-4.4-.8-1.7-.9-3.3-1.7-3.6-1.7-.3-.1-3.1-1.3-6.4-2.8-7.1-3.3-7.3-3.3-9.7-.4-2.5 3-2.4 4.3.9 5.6 1.5.7 4.1 2.3 5.7 3.6l3 2.5h-3.6c-1.9 0-4.4.7-5.5 1.5-1.6 1.3-1.7 1.6-.4 2.5.8.6 2.7.8 4.2.6 1.5-.3 3-.1 3.3.4s1.3.9 2.3.8c.9 0 3.5.7 5.7 1.6 2.2.8 4.8 1.5 5.7 1.6 1 0 3.2.6 5 1.4 3.4 1.5 13 4.5 16.2 5.2 1 .2 2.3.7 3 1.3.6.5 2.9 1.1 5.1 1.4s5 .9 6.3 1.2c1.3.5 2.2.3 2.2-.3s-.8-1.2-1.7-1.5c-1-.2 2.5-.2 7.7 0 16.7.7 29 .8 29 .2 0-.3 1.7-.6 3.8-.7 2.1-.2 6.3-.7 9.3-1.2 2.9-.6 6.8-1.1 8.6-1.3 1.7-.1 3.5-.5 3.9-1 .4-.4 1.9-.7 3.3-.7s5.2-1.1 8.3-2.4c3.2-1.3 5.5-2 5.2-1.5-.8 1.4 4 1 8-.6 2-.9 3.4-2 3.1-2.4-.6-1.1-1.8-.9-5.9.8-5.4 2.2-3.6.5 3.2-3.1 19.7-10.2 26.7-14.1 27.2-14.8.3-.4 1.6-1.1 2.8-1.5 2.2-.6 2.3-.5 1.8 1.7-.6 2-.5 2 .4.5.6-.9.8-2.1.5-2.6-.7-1.3 8.3-8.1 10.6-8.1 1.1 0 1.9-.5 1.9-1.1 0-.5 2.3-3.4 5-6.3 3.4-3.6 4.8-5.9 4.4-7-.7-1.9-.9-1.9-5.2-.7-3.4 1-4.1.2-1.9-2.1.8-.7 1.6-2 1.8-2.7.3-.8 2.1-1.5 4.3-1.7 6.7-.4 9-5.4 2.5-5.4-2.2 0-2.9-.5-2.9-2 0-2.1.2-2.3 8.8-9 2.8-2.3 5-4.6 4.6-5.1-.3-.5 0-.9.6-.9 1.6 0 15-12.2 15-13.6 0-.7.9-1.9 2-2.7s1.7-1.7 1.3-2c-.3-.4.1-.7.9-.7.9 0 1.9-1.2 2.2-2.6.5-1.8 1.1-2.4 2.3-2 1 .4 1.4.2 1-.8-.3-.8.1-2 .9-2.6.8-.7 1.4-1.9 1.4-2.6 0-.8.8-1.4 1.8-1.4 1.4 0 1.5-.2.2-1s-1.3-1 .2-1c1.1 0 2.1-1.4 2.9-4 .7-2.2 1.6-4 2.1-4 .4 0 .8-.9.8-1.9 0-1.1.5-2.3 1-2.6.6-.3 1-.1 1 .4 0 .6.5 1.1 1.1 1.1s.8-.7.5-1.6c-.5-1.2 1.2-3.5 5.4-7.8 3.4-3.3 5.6-6.2 5-6.4s.1-1.3 1.5-2.4c1.5-1.1 2.4-2.7 2.1-3.4-.3-.8-.1-1.4.4-1.4s.7-.7.4-1.5c-.4-.8-.2-2.1.3-2.8 1.8-2.2 2.1-5.6.7-6.8-1.2-1-2.1-.6-4.4 1.6-3.5 3.4-3.7 2.9-1-2 1.1-1.9 1.7-3.5 1.3-3.5s-.2-.5.5-1.2 1.2-1.8 1.2-2.6c0-1.2-.3-1.2-1.5-.2-1 .8-1.5.9-1.5.2 0-1.7-3.9-3.4-7.6-3.4-1.9 0-3.7-.4-4-.9-.9-1.5-3.4-1-3.4.6 0 .8-.4 1.5-.9 1.5-2 0-.5-4.4 2.1-6.3 2.9-2.2 3.6-4.3 1.6-4.9-.6-.2-.8-1-.4-1.7.6-.9 1.1-.9 2.1-.1s1.8.2 3.6-2.7c4.4-7.1 5.7-10.2 4.6-10.6-1.4-.4 1.4-6.4 5.9-12.7 1.9-2.6 3.1-4.9 2.8-5.3-.3-.3-.1-1.3.4-2.4.5-1 1.5-3 2.1-4.6.6-1.5 1.5-3.7 2-5 .5-1.2 1.4-4.5 2-7.2.5-2.8 1.5-7.3 2.1-10.2s.9-6.1.5-7.3c-.3-1.1-.3-2 .2-2s1-3.2 1.1-7c.2-4.7-.1-7-.9-7s-.9-1.4-.4-4.8c.9-5.6 1.1-7.4 2.1-17 .4-4.2 1.3-8 2.1-8.8 1.3-1.3 1.3-1.8-.2-4-1.5-2.3-1.8-2.4-3.4-1-1 .9-2.6 1.3-3.9.9-2.2-.5-3.1-2.3-1.2-2.3.6 0 1-.5 1-1.1 0-1.4-3.9-.5-9.2 2.1-3.4 1.6-3.8 1.6-3.8.2 0-.9 1-2.6 2.2-3.9s1.6-2.3 1-2.3c-.7 0-1.2-.7-1.2-1.5s.7-1.5 1.6-1.5c1 0 1.4-.5 1-1.5-.3-.8-.1-2.6.4-4 .6-1.6.6-2.5 0-2.5-1.1 0-.8-4.9.5-7 .5-.7.7-3.5.6-6.2-.1-3.1.2-4.8 1-4.8.7 0 .9-.9.6-2.1-.6-2.2.1-4.9 1.2-4.9.4 0 .7 2.7.6 6-.2 6.1.9 7.8 2.4 3.7 1-2.5.7-13.8-.7-24.9-.8-6.5-4.3-18.2-7.2-23.8-.4-.9-1.1-3.1-1.5-5s-1.7-5.2-2.8-7.3c-1.1-2.2-2.1-6.2-2.2-9.1-.4-9.3-2.5-14.8-4.5-11.6-.6.9-1.5 0-2.9-2.8-1.2-2.3-2.1-4.6-2.1-5.1s-2.1-5.3-4.6-10.6c-6-12.5-9.3-27.3-9.9-45-.4-11.5.1-18.5 1.5-18.5.4 0 .6 4.2.5 9.2-.2 5.1.1 9.7.5 10.3.4.5 1 3.5 1.3 6.5.4 3 1.5 8.1 2.7 11.3 1.1 3.2 1.9 6.1 1.7 6.5-.3.4.4 1.6 1.4 2.6 2.4 2.5 2.4 2.3-.7-11.4-2.4-10.5-2.6-13.1-2.2-29.3.3-16.2.2-17.7-1.4-17.7-1 0-2 1-2.4 2.5-.7 2.8-2.2 3.3-3 1.1-.9-2.2 2.5-16.2 5.8-24.1 3.5-8.4 7.8-20.6 7.8-22.1 0-1.6-6.6-3.4-7.8-2.2-1.3 1.3-3.5 0-2.6-1.4.4-.6 0-1.4-.7-1.9-1-.6-1.1-.9-.1-.9.6 0 1.2-.7 1.2-1.5s.5-1.5 1-1.5c.6 0 1-.5 1-1 0-1.6-2.7-1.2-3.4.5M409 41c0 .5-.4 1-1 1-.5 0-1-.5-1-1 0-.6.5-1 1-1 .6 0 1 .4 1 1m49 33.4c0 1.1-1.9 1.5-2.5.6-.3-.5.1-1 .9-1 .9 0 1.6.2 1.6.4m-112 11c-.6.8-1.9 1.2-2.7.9-1.4-.6-1.4-.8.3-1.4 3-1.2 3.7-1 2.4.5M174 151c-.6 1.1-1.3 2-1.5 2-.3 0-.5-.9-.5-2s.7-2 1.5-2c1.3 0 1.4.4.5 2m288.5 18.8c-.5.5-2.9-4.7-3.9-8.8-.3-1.4.5-.1 1.9 2.9s2.3 5.6 2 5.9M174 163.1c0 .6-.4.7-1 .4-.5-.3-1-1.1-1-1.6 0-.6.5-.7 1-.4.6.3 1 1.1 1 1.6m-38.9 3.6c-1.3 2.4-12.4 14.1-11.9 12.7.3-1.1 11.9-14.4 12.6-14.4.1 0-.2.8-.7 1.7M475 168c0 1.1-.2 2-.4 2s-.6-.9-.9-2-.1-2 .4-2 .9.9.9 2m-9.9 7.8c.8 4 .4 4-1.6.2-1.8-3.5-1.9-4.3-.3-3.8.7.3 1.5 1.9 1.9 3.6M108.3 205c-.3 1.1-1 2.3-1.6 2.7-.5.3-.8.2-.5-.3s.8-1.7 1.1-2.7c.9-2.4 1.6-2.2 1 .3m-2.3 5.4c0 .2-.8 1-1.7 1.7-1.6 1.3-1.7 1.2-.4-.4s2.1-2.1 2.1-1.3m362 1.6c0 1.1-.2 2-.4 2s-.6-.9-.9-2-.1-2 .4-2 .9.9.9 2m1 6.7c0 .7-.4 1.3-.9 1.3s-.8-1.2-.8-2.6c0-1.8.2-2.2.8-1.3.5.8.9 2 .9 2.6m-375.8 7.7c.8 1.2-.1 3.6-1.4 3.6-.5 0-2.1.9-3.5 2s-3.3 2-4.3 2c-.9 0-2.2 1-2.8 2.2-.8 1.8-1.1 1.9-1.1.6-.1-.9.3-1.9.8-2.2s1.2-1.8 1.6-3.3c.3-1.6 1.8-4.3 3.2-6.1 2.5-3.3 2.5-3.3 4.7-1.5 1.1 1 2.4 2.2 2.8 2.7m391.2 127.2c-2 5.9-4.4 9.8-4.4 7.1 0-1.8 5.2-12.9 5.7-12.3.2.2-.4 2.5-1.3 5.2M26.9 365.7c0 .5-.4 1.7-.8 2.8-.7 1.7-.8 1.7-1.3-.8-.4-1.9-.1-2.7.8-2.7.8 0 1.4.3 1.3.7m446.3 25c-.6.3-1 .9-.7 1.4.4.5-.2.6-1.1.2-1.6-.6-1.5-.7.1-2 1-.7 2.1-1 2.4-.7.3.4 0 .9-.7 1.1M30.5 444c.7 2.6 4.6 11.3 11.6 25.5 4.6 9.3 1.4 5.8-4-4.5-2-3.7-4.7-8.7-6.1-11.1-3.1-5.6-5.1-10.6-5.7-14.4l-.4-3 2 2.5c1.1 1.4 2.3 3.6 2.6 5m406.4 24.3c-.2.1-1.2.9-2.2 1.6-1.5 1.2-1.7 1.2-1.1-.3.3-.9 1.3-1.6 2.2-1.6.8 0 1.3.1 1.1.3m-4.4 9.7c-.3.5-1.2 1-1.8 1-.7 0-.6-.4.3-1 1.9-1.2 2.3-1.2 1.5 0M399 505c0 .5-.5 1-1.1 1-.5 0-.7-.5-.4-1 .3-.6.8-1 1.1-1 .2 0 .4.4.4 1m-1 2.4c0 .3-.4.8-1 1.1-.5.3-1 .1-1-.4 0-.6.5-1.1 1-1.1.6 0 1 .2 1 .4m1.4 29.1c-1.1.8-3.9 2.5-6.4 3.8-2.5 1.4-7 3.9-10 5.6-5.8 3.2-8 3.8-8 2 0-.5.5-.7 1.1-.4.6.4 1.7-.1 2.4-1.1.7-1.1 3-2.7 5.2-3.8 2.1-1 4.5-2.2 5.3-2.6 3-1.4 6.5-3.5 9-5.3 1.6-1.2 2.6-1.5 2.8-.7.2.6-.4 1.8-1.4 2.5M249 556.6c0 .2-.7.4-1.5.4s-1.5-.4-1.5-1c0-.5.7-.7 1.5-.4.8.4 1.5.8 1.5 1m106.6 5c-2.3 1.7-3.6 1.8-3.6.4 0-1.2 4.2-3.1 5-2.3.3.3-.4 1.1-1.4 1.9M84.5 230c-.3.5-.1 1 .4 1 .6 0 1.1-.5 1.1-1 0-.6-.2-1-.4-1-.3 0-.8.4-1.1 1m347-204c-.3.5-.2 1 .4 1 .5 0 1.3-.5 1.6-1 .3-.6.2-1-.4-1-.5 0-1.3.4-1.6 1m-5.5 3.1c0 .5.5.7 1 .4.6-.3 1-.8 1-1.1 0-.2-.4-.4-1-.4-.5 0-1 .5-1 1.1m3.8-.4c.7.3 1.6.2 1.9-.1.4-.3-.2-.6-1.3-.5-1.1 0-1.4.3-.6.6m27.5 33.8c-2.1 2-2.1 3.5-.1 3.5.5 0 .6-.5.3-1-.3-.6.1-1 1-1s1.3-.5 1-1c-.3-.6-.1-1 .4-1 .6 0 1.1-.5 1.1-1 0-1.5-1.3-1-3.7 1.5m-152.5 38.2c.7.3 1.6.2 1.9-.1.4-.3-.2-.6-1.3-.5-1.1 0-1.4.3-.6.6M299 102c0 .5.4 1 .9 1 .6 0 1.3-.5 1.6-1 .3-.6-.1-1-.9-1-.9 0-1.6.4-1.6 1m84.7 16.7c-.9 2-1.8 2.7-3.4 2.5s-2.7.7-4.5 3.7c-1.3 2.2-4.7 6.5-7.6 9.6-2.9 3-5.2 6-5.2 6.5s-1.8 2.8-4 5.2-4.6 5.5-5.2 7c-.7 1.6-1.6 2.8-1.9 2.8-.4 0-2.3 2.7-4.4 6s-4.2 6-4.6 6c-.5 0-.9.5-.9 1.1 0 1.2-6 10.3-7.2 10.7-.4.2-.8 1-.8 1.8s-.5 1.4-1 1.4c-.6 0-2.2 2.3-3.4 5.1-1.3 2.8-3.4 5.7-4.5 6.5-1.2.9-2.1 2.1-2.1 2.9 0 .7-.7 2.1-1.6 2.9-1.8 1.9-8.4 11.5-8.4 12.5-.1.3-1.4 2.2-3 4.1-1.7 1.9-3 3.9-3 4.5-.1.5-1.4 2.6-3 4.5-1.7 1.9-3 3.8-3 4.3 0 .4-1.1 2.3-2.5 4.1s-2.5 3.5-2.5 3.9c0 .3-2 3.6-4.5 7.4-4.6 7-5.6 9.5-3 7.3 1-.9.8.1-.7 2.8-1.2 2.3-2.3 4-2.6 3.8-.2-.2.2-1.4.8-2.6.9-1.6.9-2.5 0-3.5-.7-.8-1-1.8-.7-2.2.4-.6-.3-11.3-1.5-23.3 0-.8-.4-1.7-.7-2-1.4-1.1-2.7-7.7-2.6-12.8.1-3-.3-5.2-.9-5.2s-.5-.5.2-1.2c1.5-1.5 1.6-3.2.2-2.3-.5.3-1 .2-1-.4 0-.5.5-1.3 1.1-1.7.8-.5.6-1-.5-1.6-1.4-.8-1.5-1.3-.5-2.4.7-.8 1.1-3.7 1-6.4-.1-2.9.3-5 .9-5s1-1.2.9-2.8c-.1-1.5.6-5.4 1.5-8.7s1.9-7.4 2.1-9.1c.3-1.7.9-4.2 1.4-5.5.7-1.9 1.9-8.4 2.6-14.4 0-.6.5-2.7.9-4.7 1.4-6.4.1-6.3-3.2.3-4.5 9.3-14.3 35.8-14.7 39.9-.1 1.9-.6 4.4-1.1 5.4-.4 1.1-.8 3.8-.8 6-.1 2.3-.5 4.4-1 4.7-.5.4-.5 1.2-.1 1.9 1 1.6 1.1 15.3.1 16.9-.4.6-.4 1.6-.1 2.1.4.6.8 2.5 1 4.3 2.3 24.5 2.4 26.7 1.1 35-.7 4.3-.9 8-.4 8.3s.5 1 .2 1.6c-.4.6-1.1 2.7-1.6 4.7s-1.1 4.5-1.4 5.6-.7 4.2-.9 7c-.2 2.7-.4 5.3-.4 5.7-.1.4-.7.5-1.5.2-1.6-.6-7.6 6.8-7.6 9.3 0 .7-.4 1.3-1 1.3-1.2 0-5.8 9.5-6.6 13.8-.4 1.8-1 3.2-1.5 3.2s-.9.5-.9 1.1c0 .7-.7 1.7-1.5 2.3-1.8 1.3-8.5 16.2-8.5 18.8 0 1-.4 1.8-.9 1.8s-.8 1.1-.8 2.4c0 1.4-.8 3.2-1.7 4.1s-1.6 2.4-1.6 3.3c0 1-.7 2.7-1.5 3.9-.9 1.2-2.5 5.1-3.5 8.5-3.5 11-3.4 10.9-5.5 2.6-1.6-6.2-4.3-13.9-5.5-15.3-1.4-1.7-6.5-14.9-6.2-16.3.2-.6-.2-1.2-.7-1.2-.6 0-.8-.7-.5-1.5s-.5-3.6-1.9-6.2c-1.3-2.6-3.3-6.8-4.3-9.3s-2.3-5.2-2.9-6c-1.7-2.2-4.2-8-5-11.5-.4-1.7-1.8-6.6-3-11-2.1-6.9-3.1-12.5-5-27-.2-1.7-.7-6.4-1.1-10.5-.8-8.9-2.2-13.6-2.3-7.7-.1 6.5-1.7 3.2-1.9-4-.2-6.4-.7-12.3-1.6-19.6-.3-1.8-.5-3.8-.5-4.5-.1-.7-.5-1.1-.9-.8-.5.3-1.5 4.3-2.2 9-1.1 6.9-1.1 8.8 0 10.1.9 1.1.9 1.5 0 1.5-.7 0-1 1.2-.9 3.3.2 1.8-.1 3.8-.5 4.6-.5.7-.3 2.3.5 3.7.9 1.8 1 2.7.2 3.5s-.8 2-.1 4c.5 1.6.8 3.5.5 4.3-.3.7-.1 1.8.5 2.4.5.5 1.2 3.8 1.5 7.3.2 3.5.8 8 1.2 9.9s.6 4.1.4 4.7c-.5 1.4-2.4 1.8-2.1.5.3-1.5-1.5-6.2-2.4-6.2-.5 0-.7.6-.4 1.2.2.7 1 3.1 1.6 5.3.7 2.2 1.5 4.7 1.7 5.5.3.8.7 3 1 4.7.2 1.8 1.7 6.2 3.4 9.8 3.5 7.7 6 14.5 5.3 14.5s3.5 5.9 5.8 8.2c.9.9 2.2 3.6 2.8 5.9 1.2 4.3 1.3 4.6 5 11.8 1.3 2.4 1.8 4.1 1.1 3.7-1.3-.8-.8 2 1.5 8.7.8 2.1 1.3 4.1 1.3 4.5-.1.4 0 .9.1 1.2s.4 2.1.5 4 .6 5.1 1 7 .9 4.6 1.1 6c.7 5.9 1.7 15.7 1.8 18.2.1 1.4.4 2.9.7 3.3 1.1 1-.2 13.5-1.7 16.3-.8 1.5-1.4 3.3-1.4 4 0 1.6-3.7 14.7-5 17.7-.8 1.9-1.7 6.2-2.4 11.1-.1 1.1-.5 2.5-.9 3.1s-.9 2.4-1.2 4c-.2 1.5-1.3 7.3-2.5 12.8-1.1 5.5-2.2 11.3-2.4 13-.2 1.6-.4 3.4-.5 3.9-.1 1.2-1.4-.1-1.7-1.7-1-6-11.9-23.1-22-34.8-1.7-2-3.5-4.3-4-5.2-.5-.8-1.5-1.7-2.3-1.9-1.6-.4-6.1-4.2-6.1-5.2 0-.4-1.2-1.9-2.7-3.4-2.6-2.5-2.6-2.6-2.1-.4.5 1.9.4 2.1-.8 1.1-.7-.6-1.1-1.5-.9-2 .6-.8-2.4-4.9-3.6-4.9-.4 0-3.9-3.1-7.8-7-3.9-3.8-7.1-6.6-7.1-6.2s-.9-1.1-2.1-3.2c-1.1-2.1-2.9-4.7-3.9-5.8s-2.4-3.3-3-4.9c-.7-1.6-1.6-2.9-2.1-2.9s-.9-1.1-.9-2.4c0-1.4-.4-2.7-.9-3-.4-.3-1.8-3.6-3-7.3-1.3-3.7-2.8-8.2-3.6-9.8-.7-1.7-2.4-6.4-3.8-10.5-3.3-9.5-5.1-14.2-5.8-15.5-.4-.6-1.4-3.6-2.4-6.8-1-3.1-2.1-5.7-2.6-5.7-.4 0-1.4-1.8-2-4.1-1.4-4.3-3.3-5.9-5.1-4.1-1.3 1.3 4.2 19.1 8.7 28.6 1.3 2.8 2.1 5.4 1.9 5.8-.3.5.3 3.7 1.5 7.1 3.8 11.7 5.1 16 4.7 16.4-.2.2-1-1.3-1.9-3.4-3.9-9.8-8.8-19.3-9.6-18.8-1.3.8 1.1 9.5 4.9 18 1 2.2 2.4 5.7 3 7.7s2.2 5.3 3.6 7.3c1.3 2 2.4 3.9 2.4 4.2s1.6 2.1 3.5 4 3.5 4.1 3.5 4.9c0 .9.5 1.2 1.2.8s.8-.3.4.4c-.7 1.1 6.3 10.8 10.7 14.9 1.3 1.2 3.5 3.8 4.8 5.7 1.3 2 3.2 3.9 4.2 4.2.9.3 1.7.9 1.7 1.3 0 .5 1.3 2.2 3 3.9 1.6 1.8 3 3.6 3 4.2 0 .5.3 1 .8 1 .4 0 2.7 2.7 5.2 6 2.4 3.3 5 6 5.7 6s1.3.6 1.3 1.3c0 .8 1.7 3.8 3.8 6.8 10.9 15.7 19.2 33.4 20.6 43.8.4 3 1.3 6.9 2 8.6.9 2.1 1 3.7.4 4.8-.5.9-.7 4.1-.4 7.1.4 4.6.2 5.4-1.1 4.9-1.2-.5-1.4.6-1.4 6.3.1 8.2-.1 11.4-.9 11.4-.3 0-.6 2.6-.7 5.8-.2 3.1-.4 6.8-.6 8.2s0 3.3.5 4.2.4 1.9-.2 2.3c-1 .6-1.2 9.5-.1 9.5.3 0 .5 1.5.5 3.2-.1 1.8.3 4.1.8 5 .5 1.2.5 1.8-.2 1.8-.6 0-.9 1.9-.8 4.5 0 2.4.5 4.2 1 3.9.9-.6.5 2.8-.7 5.9-.4.9-.4 2.5 0 3.5.9 1.8 1.4 6.5 1.7 14.9.1 2.9.6 5.3 1.1 5.3s.6.9.2 2c-.3 1-.2 3.5.4 5.5.5 2.1.6 3.5 0 3.5-.5 0-.9.7-.9 1.5s.5 1.5 1.2 1.5c.9 0 .9.3.1 1.1-.7.7-.8 1.8-.3 2.8 1.1 2 3.3 14.7 3.2 18.3-.1 1.6.3 2.8.8 2.8s.7 1.2.6 2.7c-.2 1.6.3 3.7 1 4.8s1.5 4.5 1.8 7.5c1.3 13.4 8.1 31.8 11.3 30.6 1.2-.5 1.4-.1 1 1.4-.3 1.1-.1 2.3.4 2.6s.9.1.9-.5c0-.5 1.2-.4 2.8.5 3.4 1.8 4.8 1.8 5.5-.1.5-1.2 1.6-1.3 5.2-.4 1.7.4 4.5-1.2 4.5-2.7 0-.8.5-1.4 1-1.4.6 0 1-.5 1-1.1s.6-1.7 1.2-2.4c4-4.5 4.3-5.2 4.4-11.8 0-3.7-.5-7.9-1.2-9.3-.7-1.3-1.1-2.4-.9-2.4.3 0 0-1.2-.6-2.8-.6-1.5-1.3-4.3-1.5-6.2s-3.6-12.9-7.4-24.3c-3.9-11.5-7-21.6-7-22.5 0-1-.9-4.4-1.9-7.7-1.2-3.8-1.5-6.2-.9-6.6.7-.4.6-1.4-.1-2.8-.7-1.2-1-3.9-.7-6.1.2-2.2 0-4.2-.4-4.5-.5-.3-.5-1.6 0-3s.6-2.5.2-2.5c-.7 0-1.7-32.6-1.2-37.5 0-.6.2-5.1.5-10 .2-5 .6-10.5.9-12.3.4-2 .2-3.2-.5-3.2-.6 0-.3-.7.5-1.6 1.8-1.7 2.1-3.4.6-3.4-.6 0-.6-.9-.1-2.3.5-1.3 1.1-4.4 1.4-6.9.6-6.2 2.6-8.8 11.4-15 20.2-14 34.7-20.3 58.8-25.4 13.8-2.9 14.9-3.2 15.3-4.2.2-.6 1-.8 1.8-.5s1.4 0 1.4-.6c0-.8.6-.9 1.8-.2 1.2.6 3.4.2 7.6-1.5 3.3-1.3 6.5-2.4 7.2-2.4.8 0 3.3-.9 5.6-1.9 6.4-2.9 25.8-11 32.1-13.5 2.3-.9 2.7-1.5 2.2-3.6-.4-1.4-.4-2.2 0-1.9.3.4 1.8-.4 3.2-1.7s2.9-2.4 3.3-2.4c.5 0 4.4-2.4 8.7-5.4 4.4-2.9 9-5.7 10.1-6.1 1.2-.3 2.2-1.4 2.2-2.3 0-1.5.2-1.5 1-.2s1 1.2 1-.3c0-1 .7-2 1.5-2.3.8-.4 1.5-1.3 1.5-2.1 0-.9.6-1.3 1.5-.9q1.5.6 1.5-1.5c0-1.1 1-2.3 2.3-2.8 2.2-.9 6-5.4 8.4-10 2.1-3.8 1.5-3.7-2.9.8-3.7 3.7-7.6 6.6-17.3 13.1-11.6 7.8-15.7 10.3-27.2 16.6-7.3 3.9-15.1 7.9-17.4 8.8-2.3 1-5.1 2.3-6.2 3.1-1.1.7-2.5 1.1-3.3.8-.7-.3-2.1.2-2.9 1.1-.9.9-2.3 1.6-3.2 1.6-.8 0-2.7.6-4.1 1.4-5.6 2.9-11.1 4.8-12.1 4.2-.6-.4-4.8 0-9.3.9-4.6.9-10 1.8-12.1 2s-4.4.8-5 1.3c-.7.5-2.1.8-3.1.6-1.1-.1-2.8.1-3.7.7-1.1.6-2 .5-2.4-.1-.4-.7-1.2-.7-2.5 0-1 .5-3 1-4.4 1s-2.7.4-3 .9-1.6 1.1-2.8 1.4c-6.1 1.4-14.3 3.9-15.2 4.6-.6.5-2.8 1.4-4.8 2-2.1.7-3.8 1.7-3.8 2.2s-.5.9-1.1.9-1.7.6-2.4 1.2c-2.9 2.6-4.1 3.3-6 3.6-1.1.2-2.9 1.2-4 2.1-1.1 1-2.8 2.1-3.9 2.5-1.6.5-1.8.3-1.2-2.1.3-1.6 1.1-6.6 1.8-11.3.6-4.7 1.5-8.7 1.8-9 .4-.3 1-2.3 1.4-4.5 1.3-7.5 4.7-21 7.4-29 2-6.3 3.5-8.9 6.8-12 5.3-5.1 20.1-18.6 23.4-21.4 2-1.6 2.2-2 .8-2.1-1.2 0-1.5-.5-1.1-1.6.5-1.3.7-1.3 1.5-.2.7 1 1.2.8 2.7-1 1.1-1.2 2.3-2.2 2.8-2.2s1.5-.9 2.3-2 3-2.3 5-2.6c1.9-.4 4.6-1.2 6-1.9 2.2-1.1 5-2.3 13.5-5.5 1.1-.4 4-1.5 6.5-2.5 2.5-.9 6.3-2.5 8.5-3.6 2.2-1 8.7-3.5 14.5-5.5s11.2-4.3 12.1-5.1c.8-.7 2.4-1.3 3.3-1.3 2.2 0 19-7.9 19.4-9.1.2-.5.8-.9 1.4-.9 1.4 0 12-6.5 15.9-9.8 1.8-1.5 6.8-5.9 11.1-9.7 4.3-3.9 10.5-9.2 13.6-11.8 12.3-10.3 19.2-16.9 20.5-19.7 1.2-2.4 1.2-2.8.1-2.3-.8.3-1.4 1-1.4 1.7 0 1.6-3.9 4.8-5 4.1-.4-.3-2.8 1.1-5.2 3-2.3 1.9-5.6 4.2-7.3 5.1-1.6.9-3.3 2.2-3.7 2.8-.5.8-.8.7-.8-.2 0-.7 3.7-5.2 8.3-10 9-9.4 12.2-13.8 10.8-14.7-.5-.3-3.1 1.5-5.8 4-2.6 2.5-5.1 4.5-5.4 4.5s-1.2 1.1-1.9 2.5-2 2.5-2.7 2.5c-.8 0-4 2.4-7.1 5.3-14.7 13.7-38.3 30.9-48.7 35.4-7.9 3.4-16.9 6.8-31.8 11.8-7.7 2.5-14.9 5.2-16 5.9-1.2.8-3.8 1.9-5.9 2.5-2 .7-3.9 1.9-4.3 2.9-.5 1.4-.8 1.4-1.5.2-.7-1.1-1.5-.9-4.7 1.2-2.1 1.4-4.8 2.8-6.1 3.2-1.2.4-2.2 1.2-2.2 1.7s-.7.9-1.5.9c-2.6 0-14.6 6.5-21 11.4-3.3 2.4-6.1 4.1-6.3 3.7-.1-.4 2-6.8 4.8-14.2s5.2-14.3 5.2-15.4c.1-1.1.9-2.9 1.8-4 2.3-2.7 8.7-15.2 10.5-20.5.6-1.7 5.2-11.5 9.5-20.3 2.7-5.6 5-10.9 5-11.8s.6-2.2 1.3-2.8c.8-.6 2-2.9 2.7-5 1.1-3.5 5.6-8.8 7-8.3.3.1 2.3-1.3 4.5-3.1 4.9-3.9 8.6-6.7 19.5-14.2 4.7-3.2 8.8-6.3 9.2-6.9s1.1-1 1.5-.9c.8.2 3.8-.4 7.6-1.4.9-.2 1.5-.9 1.2-1.4-.4-.5.1-1 .9-1 1.6-.1 2.8-.4 4.4-.9.4-.1 1.2-.3 1.7-.4 2.9-.4 5.5-1.9 5.5-3.1 0-.8.7-1.1 2-.8 1.2.3 2.9-.2 4-1.2 1-.9 2.3-1.5 2.7-1.2.5.3 3.5-.8 6.8-2.4s6.3-2.9 6.8-2.9c1.3 0 16.9-12 20-15.4s3.5-5.1 1-4.2c-1.5.5-1.5.4.1-.9 1.1-.8 2.3-1.5 2.8-1.5.4 0 .8-.6.8-1.4 0-.7 1.2-2.2 2.8-3.2 4.2-2.7 21.1-20.6 20.6-21.8-.2-.6 1.4-3.1 3.6-5.5 8.9-9.5 1.2-5.5-10 5.3-7.7 7.4-17.7 15.7-28.3 23.5-5.4 4-8.6 7-8.5 8 .2 1-.5 1.7-1.9 1.9-1.3.2-4.2 2.1-6.5 4.3-4.3 4-6 5.1-3.8 2.4.7-.9 1-1.8.7-2.1-.5-.6-8.1 3-10.6 4.9-.7.6-1.8 1.2-2.5 1.3-4.1.6-14.1 4.2-20 7.1-15.9 7.9-17.6 8.8-17.6 9.9 0 .7-.8 1.1-1.7 1-1 0-1.7.4-1.6 1.1.2.7-.3 1-1.1.7-.7-.3-3 .2-5.1 1-4.9 2.1-5 2-3.1-.9.9-1.3 1.8-3.2 2-4.2.6-3 3.3-8.6 6.1-12.3 2.3-3.2 2.4-3.5.8-4.2-1.6-.6-1.5-.7.3-.7 1.5-.1 2.4-.9 2.8-2.6.3-1.3 1.7-3.5 3.1-4.9s2.5-3.5 2.5-4.8c0-1.8.2-2 1-.8 1.2 1.9 2.2.8 1.4-1.4-.4-1-1.3-1.5-2.2-1.1-1.3.5-1.3.3.1-1.7 1-1.6 2.4-2.2 4.4-2.1 2.4.2 2.5.1 1-.8-1.4-.8-1.6-1.4-.7-2.4.7-.8.9-1.9.5-2.5s0-1.9.8-2.8c2.1-2.4 12.7-18.1 12.7-18.7 0-.4 1.4-2 3-3.8 1.7-1.8 3.3-4.3 3.6-5.7.4-1.4 1.8-3.6 3.3-5 3.6-3.4 8.3-10.9 7.6-12-.6-.9 2.9-5 4.3-5 .4 0 1.2-1 1.8-2.3 2.4-5 5-9.1 7.7-12.1 6.7-7.5 11.1-13.6 10.4-14.3-.4-.3-1.6.6-2.8 2-1.1 1.5-2.6 2.7-3.4 2.7-.7 0-1.6.6-1.8 1.2-.3.8-.6.8-.6.2-.1-.6 1-2.6 2.3-4.5 1.4-1.9 3.6-5.3 5.1-7.7s4.1-5.7 5.8-7.4c3.3-3 6.7-7.7 6.7-9.1 0-1.8-2.2-.4-3.3 2M364 150.6c0 .8-.5 1.2-1 .9-.6-.4-.8-1.1-.5-1.6.9-1.4 1.5-1.1 1.5.7M263 298.9c0 .6-.4 1.3-1 1.6-.5.3-1-.1-1-.9 0-.9.5-1.6 1-1.6.6 0 1 .4 1 .9m-3.5 7.3c-4.3 8.6-6 11.8-6.6 11.8s4.4-10.6 6.4-13.8c1.6-2.4 1.7-1.1.2 2m13.8 2.3c-.3.9-.8 1.4-1 1.1-.3-.3-.2-.9.2-1.5.9-1.6 1.5-1.3.8.4m-2.3 6.4c0 .6-.5 1.3-1.1 1.7-.6.3-.9 1.4-.6 2.3.2 1.1-.1 1.8-1 1.8s-1.1-.6-.7-1.6c.3-.9.9-2.4 1.1-3.4.6-1.8 2.3-2.4 2.3-.8m-19.3 7.6c-.4.8-1.1 1.5-1.7 1.5s-.6-.7.2-2c1.4-2.2 2.4-1.9 1.5.5m138.7 2.9c-.3.8-1.3 1.7-2.2 2.1-1.3.5-1.3.2.3-1.5 2.1-2.4 2.6-2.5 1.9-.6m-141.4 2c0 .3-.4.8-1 1.1-.5.3-1 .1-1-.4 0-.6.5-1.1 1-1.1.6 0 1 .2 1 .4m15 1.4c0 .5-.9 2.7-2 5-1.1 2.2-2 4.6-2 5.2 0 .5-.3 1-.7 1-.5 0-.9 1.1-.9 2.4-.1 1.4-1.6 4.6-3.3 7.1s-3.1 5.7-3.1 6.9c0 1.3-.7 2.7-1.6 3s-1.4 1.3-1.1 2.1c.4.9.1 1.2-.9.8-.7-.3-1.4-.6-1.4-.7 0-1.7 6.9-15.1 7.6-14.9.6.2 1.1-1 1.2-2.8 0-1.7.7-3.8 1.5-4.8 1.5-1.7 3.2-6.1 2.9-7.4-.3-.9 2-3.6 3.1-3.7.4 0 .7.4.7.8m118 5.7c-.7.9-1.5 1.3-1.8 1-.3-.2.1-1.1.8-2s1.5-1.3 1.8-1c.3.2-.1 1.1-.8 2m-16.6 13.9c-.3.8-1.2 1.2-2 .9s-1.4 0-1.4.6-.9 1.1-1.9 1.1c-1.1 0-2.7.7-3.6 1.6s-1.8 1.4-2.1 1.1.7-1.3 2.3-2.3c1.5-.9 3.7-2.3 4.8-3 2.7-1.7 4.6-1.7 3.9 0m-123.3 5.9c-1 .9-1.1.8-.5-.6.3-1 .9-1.5 1.2-1.2s0 1.1-.7 1.8M239 362c-1.1 2-3 2.8-3 1.2 0-1.1 2.2-3.2 3.2-3.2.5 0 .4.9-.2 2m97 0c-2.4 1.5-3.7 1.1-1.6-.5 1.1-.8 2.2-1.2 2.5-.9s-.1.9-.9 1.4m-88 1.9c0 .6-.5 1.3-1.1 1.6-.6.4-.8 1.3-.5 2.1s0 1.4-.6 1.4-.8 1.1-.4 3c.3 1.7.1 3-.4 3-.6 0-1 .7-1 1.5s-.4 1.5-.9 1.5c-.8 0-1.8 3.4-2.4 9-.4 3.3-2.5 7-3.9 7-.6 0-.8.9-.5 2.1.3 1.3-.2 2.8-1.4 4-1 1-1.6 2.5-1.3 3.2.3.8-.6 2.1-2.1 3.1l-2.6 1.7 1.4-2.8c.8-1.5 3.1-7.8 5.2-13.8 2-6.1 4.3-11.9 4.9-13 1.3-2 3.9-9.1 4.1-11 .3-3.1 3.5-6.3 3.5-3.6m83.8.3c-.3.7-2.1 1.6-4.2 2-2 .4-5 1.5-6.6 2.3-3.1 1.6-6 2-6 .7 0-.9 12.8-6 15.3-6.1 1.1-.1 1.7.4 1.5 1.1m-18.2 6.6c-.8 1.3-6.6 3.3-6.6 2.3 0-.8 6.3-4.1 6.9-3.5.1.1 0 .7-.3 1.2m-79.6 3.7c-.7.8-1.7 1.2-2.2.9-.6-.4-.5-1 .3-1.5 2.2-1.4 3.3-1 1.9.6m-2 4.5c-.6 1.1-1.2 2-1.4 2s-.2-.9.1-2 .9-2 1.5-2c.5 0 .4.9-.2 2m60 1c-.8.5-1.9 1-2.5 1-.5 0-.3-.5.5-1s2-1 2.5-1c.6 0 .3.5-.5 1m-63.7 9.8c-.3 1.2-.9 1.9-1.4 1.6s-.4-1.4.2-2.5c1.3-2.6 2-2.1 1.2.9m-3.8 44.1c1 1.7-3 8.9-4.3 7.6-.2-.1.2-2.1.8-4.4 1-4 2.3-5.1 3.5-3.2m-3.5 9.6c0 .3-.7 2.2-1.5 4.2-.8 1.9-1.5 5.1-1.5 6.9 0 1.9-.5 3.4-1.1 3.4-.7 0-.9-1.3-.4-3.8 1-6 2.8-11.2 3.7-11.2.4 0 .8.2.8.5m-4.4 19.2c-1.1 1.1-1.9-.6-1.1-2.4.8-1.7.8-1.7 1.2 0 .3 1 .2 2.1-.1 2.4m-2.3 9.5c-.8 4.6-1.3 4.8-1.3.5 0-2.1.4-3.7 1-3.7.5 0 .7 1.4.3 3.2m-2.3 13.3c-1.6 4.2-2 2.6-.7-2.5.8-2.8 1.3-3.7 1.5-2.4.2 1.1-.2 3.3-.8 4.9M208 688c0 .5-.5 1-1.1 1-.5 0-.7-.5-.4-1 .3-.6.8-1 1.1-1 .2 0 .4.4.4 1m-3 25.1c0 .5-.7.9-1.5.9-1.5 0-2-1.2-.9-2.3.8-.8 2.4.1 2.4 1.4M464.5 133c-.8 1.4.3 3 2.1 3 1.6 0 1.6-.2.8-2.4-.7-1.8-2-2.1-2.9-.6m-87 4.1c-.4.6-.5 1.2-.2 1.5.2.3.7-.2 1-1.1.7-1.7.1-2-.8-.4m90 .9c-.3.5-.1 1 .4 1 .6 0 1.1-.5 1.1-1 0-.6-.2-1-.4-1-.3 0-.8.4-1.1 1m5.2 19c.3 1.1.7 2 .9 2s.4-.9.4-2-.4-2-.9-2-.7.9-.4 2M322 222.9c0 2.5.6 2.7 1.3.6.4-.8.2-1.7-.3-2-.6-.4-1 .3-1 1.4M488 250c0 .5.5 1 1.1 1 .5 0 .7-.5.4-1-.3-.6-.8-1-1.1-1-.2 0-.4.4-.4 1m-313.9 21.6c0 1.1.3 1.4.6.6.3-.7.2-1.6-.1-1.9-.3-.4-.6.2-.5 1.3m.9 4.4c0 .5.5 1 1.1 1 .5 0 .7-.5.4-1-.3-.6-.8-1-1.1-1-.2 0-.4.4-.4 1M32 322c0 1.6.2 3 .4 3s.6-1.4.8-3c.3-1.7.1-3-.4-3-.4 0-.8 1.3-.8 3m-1 10c0 .5.5 1 1.1 1 .5 0 .7-.5.4-1-.3-.6-.8-1-1.1-1-.2 0-.4.4-.4 1m-18 74.7c0 .5.5 1.5 1 2.3.8 1.2 1 1.1 1-.8 0-1.2-.4-2.2-1-2.2-.5 0-1 .3-1 .7m1.4 7.9c.3.9.6 1.8.6 2 0 .3.5.2 1.1-.2.9-.5 1 .1.5 2-.8 3.1 1 3.6 1.9.5.5-1.4 0-2.7-1.4-4-2.5-2.3-3.5-2.4-2.7-.3m2.3 8.1c-.7 1.1 1.1 5.3 2.2 5.3 1.9 0 2-1.8.2-3.9-1.1-1.2-2.1-1.8-2.4-1.4M378 524c0 1.6 3.5 2.9 5.1 1.9 1.2-.8 1.2-1-.1-1.9-1.9-1.3-5-1.3-5 0m23.5 23c-.3.5-.1 1 .4 1 .6 0 1.1-.5 1.1-1 0-.6-.2-1-.4-1-.3 0-.8.4-1.1 1M381 560.1c0 .5.5.7 1 .4.6-.3 1-.8 1-1.1 0-.2-.4-.4-1-.4-.5 0-1 .5-1 1.1m-9 3.9c-.8.5-1.1 1.2-.7 1.6s1.3.2 1.9-.4c1.5-1.5.7-2.4-1.2-1.2m-30.5 12.7c-5.4 1.9-5.8 2.7-1 1.8 2.2-.4 4.2-1 4.5-1.4.3-.5 1.2-1.1 2-1.4 3.5-1.3-1.6-.4-5.5 1m-61.5 4c0 1.2 5.5 2.3 11.3 2.3 2 0 3.7-.5 3.7-1 0-.6-1-1-2.2-1-1.3 0-4.7-.3-7.5-.6-3.3-.4-5.3-.3-5.3.3m21.5 2.3c.3.5 1 1 1.6 1 .5 0 .9-.5.9-1 0-.6-.7-1-1.6-1-.8 0-1.2.4-.9 1"/></svg>