<svg fill="#00E676" xmlns="http://www.w3.org/2000/svg" width="1365.333" height="1365.333" viewBox="0 0 1024 1024"><path d="M508.1 138.9c-1.9 1.5-2.7 3.5-3.7 9.7-1.7 10.4-1.7 19.2.1 41 1.7 21.6 1.2 29.8-4 59.9-3.5 20.2-3.7 21.6-3.1 38 .6 19 1.9 29.2 4.1 33.5 1.8 3.6 5.9 5.8 11.9 6.6 6.2.9 9.1-.1 10.5-3.5 1.8-4.1 1.6-22.3-.4-37.6-1.8-14-1.5-23.7 1.1-40.5 3.7-23.5 3.6-36.1-.6-66.5-1-7.7-2.2-17.6-2.5-22-1.1-13.4-3.3-20.2-6.1-19.1-.7.3-1.6.1-1.9-.4q-1.35-2.25-5.4.9M519 201c0 .5-.4 1-1 1-.5 0-1-.5-1-1 0-.6.5-1 1-1 .6 0 1 .4 1 1m.4 12.6c1 2.5.1 2.7-1.9.4-1.5-1.7-1.6-2-.3-2 .9 0 1.9.7 2.2 1.6m0 5.5c-.3.5-1 .7-1.5.3-.5-.3-.7-1-.3-1.5.3-.5 1-.7 1.5-.3.5.3.7 1 .3 1.5m-1 9.4c-.4.8-1 1.3-1.5 1-.4-.3-.6-1.2-.3-2 .4-.8 1-1.3 1.5-1 .4.3.6 1.2.3 2m-2.4 12.4c0 .6-.4 1.3-1 1.6-.5.3-1-.1-1-.9 0-.9.5-1.6 1-1.6.6 0 1 .4 1 .9M695.5 193.3c-5.8 6.1-14.1 19-22 34.2-8.9 17.2-15.6 27-27.8 41-5.6 6.3-12.9 14.6-16.1 18.3-8 9.1-18.6 25.4-25.2 38.7-7.6 15.4-7.3 20 1.6 27.1 4.5 3.6 9.1 4.4 11.3 2.1 4.3-4.5 8.7-11.4 16.9-27.3 10.2-19.5 14-25.1 26.2-38.9 13.6-15.5 22.3-29.7 31.1-50.5 1.5-3.6 6-13.2 10.1-21.3 8.7-17.7 9.5-20.4 6.4-24.7-3.3-4.6-7.2-4.2-12.5 1.3m-24 65.7c.3.5.2 1-.4 1-.5 0-1.3-.5-1.6-1-.3-.6-.2-1 .4-1 .5 0 1.3.4 1.6 1m-2 5c-.6.9-.9.9-1.6-.1-1-1.7 0-3.4 1.3-2.1.6.6.7 1.6.3 2.2m-6.5 7.5c-.7.8-2.2 1.4-3.4 1.4-2-.1-2-.2-.1-.6 1.1-.3 2.4-.9 3-1.4 1.5-1.4 1.9-1 .5.6m-8.5 8.5c.3.5-.1 1-1 1s-1.3-.5-1-1c.3-.6.8-1 1-1s.7.4 1 1M350 219.2c-8.8 3.3-8.2 10.5 2.2 25.7 6 8.8 16.2 29.7 20.8 42.6 1.8 4.9 4.3 12.1 5.7 15.8 1.3 3.8 3.4 8.5 4.5 10.5 9.3 16.7 11.6 20.4 15.3 25.7 5.1 7.1 11.1 13 14.3 14 1.5.4 3.2 0 5-1.2 1.5-1 3.8-2 5.1-2.3s3.3-1.7 4.4-3.2c1.8-2.4 1.9-3.1.8-7.5-1.3-5.2-7.8-16.2-14.4-24.5-6.9-8.6-9.1-12.6-16.7-29.9-3.9-9-8.7-19.3-10.6-22.8-3-5.4-14.6-22.5-19-28.1-.7-.8-3.4-4.4-6.1-7.9-5.2-7-7.5-8.3-11.3-6.9m48 96.2c0 .3-.4.8-1 1.1-.5.3-1 .1-1-.4 0-.6.5-1.1 1-1.1.6 0 1 .2 1 .4M191.8 316.6c-3 1.6-4.5 6.3-2.9 9.3 1.3 2.3 9.8 9.6 15.6 13.2 9.8 6.2 12.7 7.9 23.5 13.4 19.1 9.6 34.8 20.8 46.5 33 5.3 5.6 26.1 22.5 27.6 22.5.5 0 4.1 2.1 8.1 4.7 4 2.5 11.6 6.7 16.8 9.2 13.8 6.6 17.8 6.2 25.3-2.5 3.7-4.4 3.9-8.8.4-12-4.1-3.8-15.2-10.6-28.8-17.6-14.6-7.6-26.5-15.8-39.8-27.6-15.2-13.3-22.1-17.4-49.8-29.8-8.1-3.6-19.3-8.8-24.8-11.5-11.6-5.7-14-6.2-17.7-4.3M248 348c0 .5-.2 1-.4 1-.3 0-.8-.5-1.1-1-.3-.6-.1-1 .4-1 .6 0 1.1.4 1.1 1m15 7.4c0 .3-.4.8-1 1.1-.5.3-1 .1-1-.4 0-.6.5-1.1 1-1.1.6 0 1 .2 1 .4m5.7 7.2c-.3.3-1.2.4-1.9.1-.8-.3-.5-.6.6-.6 1.1-.1 1.7.2 1.3.5m11.7 10.6c-.3.4-.9.8-1.5.8-.5 0-.9-.4-.9-.8 0-.5.7-.9 1.5-.9s1.2.4.9.9M790.5 344.9c-2.2 1.1-6.2 3.5-9 5.4-15.2 10.6-29.7 17.5-54.7 26.2-18.1 6.3-41.5 19.5-51 28.8-5.7 5.5-6.7 8.6-4.2 12.5 1 1.5 2.3 4 2.9 5.7 2.9 8.7 13.4 5.6 33.8-9.9 9.4-7.2 16.3-10.9 36.8-19.6 17.5-7.4 17.7-7.6 36.3-20.9 20.6-14.7 23.6-17.4 23.6-21.6 0-2.5-.8-4-3.1-5.9-3.6-3.1-6-3.2-11.4-.7m-81.7 53.7c0 1.7-.3 2.2-.8 1.3-.5-.6-.6-1.8-.3-2.6.8-1.9 1.1-1.6 1.1 1.3M492 358.1c-7.2 1.2-17 3.6-23.5 5.9-3.3 1.2-7.3 2.5-9 3-7.6 2.1-13.2 4.9-19.3 9.7-3.7 2.9-9.8 7.4-13.5 10-24.5 17.2-37.9 31-48.2 49.8-1.5 2.7-3.5 6.1-4.5 7.5-3.4 4.9-9.8 18.1-11.3 23.2-3 10.4-3.9 14.8-3.5 16.6.3 1.1-.1 3-.8 4.3-1.4 2.6-1.9 9.1-.7 10.3 1.1 1 .3 8-1 8.8-.7.4-.7 1.1.2 2.2s1.1 2.9.7 5.5c-.3 2.2-.1 5.2.4 6.7 1 2.6 2.3 13.1 1.3 10.6-.2-.6-.9-1.2-1.4-1.2-.4 0-.6.7-.3 1.5.4.8 1.2 1.5 2 1.5 1.8 0 1.8 1.5-.1 4.4-1.4 2.1-1.4 2.3 1.1 3.5 2.5 1.1 2.5 1.3 1 3-1.9 2-2 3.1-.5 3.1.5 0 .7-.5.4-1-.3-.6-.2-1 .4-1s1.3 1.2 1.7 2.7c.3 1.6.9 3.9 1.4 5.3 1.6 4.9 2 8 1 8-.5 0-1 .7-1 1.5s.7 1.5 1.6 1.5c1.1 0 1.5.8 1.3 2.7-.3 2.6 4.6 13.7 7.4 17.2.7.8 1 2.4.9 3.6-.2 1.3.2 2.6.7 3 .6.3 1.1 1.5 1.1 2.5 0 1.1 1 3 2.3 4.3 5.7 6.1 7.9 8.8 10 12.5 2.2 3.9 9 10.4 17.7 17.2 7.2 5.6 15.5 11 16.9 11 .8 0 2.9 1.3 4.8 3 1.8 1.6 4.1 3 4.9 3 .9 0 3.3 1.5 5.4 3.3 5.1 4.4 16.9 10.2 18.2 8.9.6-.6 1.8-.1 3.3 1.4 1.3 1.3 3.4 2.4 4.7 2.4s3.7.9 5.3 2c1.7 1.1 4.5 2 6.4 2s5 .5 6.8 1.2c2.8 1 3.6 1 4.2-.1.7-1.1 1-1.1 1.5 0s.7 1.1 1.2.1c.7-1.5 3.5-1.6 3.2-.1-.2.6.7 1.3 1.9 1.5 1.4.2 2.2-.1 2-.8-.3-1.7 10-1.8 13.4-.2 1.5.7 2.9 1.1 3.1.9.3-.3 6.3-.8 13.4-1.1 7.6-.3 14.5-1.2 16.9-2.1 2.2-.8 4.9-1.5 6-1.4 4.1.1 18.8-4.1 26.8-7.6 8.8-3.9 20.7-10.9 20.7-12.3 0-.5 1.2-1.5 2.7-2.2s6.7-6 11.7-11.6c5-5.7 11.6-12.4 14.6-14.9 3-2.4 6.4-6.1 7.5-8.1 2.6-4.9 5.4-9 8.3-12.6 1.3-1.6 3.8-5.6 5.5-8.9 1.8-3.3 4.2-7.8 5.4-10.1 4.8-9 11.4-30.8 9.8-32.4-.2-.3 0-1.1.6-1.8.6-.8.9-2 .6-2.9-.4-.8-.2-1.7.3-2 .9-.6.6-13.8-.5-19.8-.4-1.9-.8-5.9-1-8.8-.1-3-.6-6.5-.9-7.9-.4-1.4-1-5.3-1.3-8.8-.3-3.4-1-6.2-1.6-6.2-.5 0-.7-1.3-.5-3 .2-1.6 0-3.1-.5-3.3-.8-.2-2.4-6.6-3-12.2-.1-1.1-.5-2.3-.9-2.6-.5-.3-1-1.8-1.2-3.5-.4-2.8-8.1-18.4-11.6-23.4-1-1.4-2.1-3.6-2.5-5-1.8-5.9-9.7-19.4-15.4-26.4-3.4-4.2-6.6-7.6-7-7.6-.5 0-1.1-.9-1.4-2s-1.6-2.4-2.9-2.9c-1.2-.5-3.3-1.9-4.6-3.1-3.3-3.1-20.8-13-23-13-1.1 0-2.5-.7-3.2-1.5s-2.1-1.5-3.1-1.5c-1.1 0-4.4-.9-7.4-1.9-3-1.1-5.5-1.7-5.5-1.5 0 .3-1.3-.4-2.9-1.5-1.6-1.2-4.5-2.1-6.4-2.1s-4.8-.7-6.3-1.5c-1.6-.8-4-1.5-5.4-1.5s-4.7-.7-7.4-1.5-6.8-1.4-9-1.3c-2.3 0-5.2-.5-6.6-1.2-2.7-1.5-23.7-2.1-31-.9m19 9.9c0 .5-.4 1-1 1-.5 0-1-.5-1-1 0-.6.5-1 1-1 .6 0 1 .4 1 1m.8 11.4c.6.3 1.3.2 1.7-.4 1-1.5 8.1-1.2 20.8 1 15.2 2.6 22.6 5 36.3 11.6 19.4 9.5 40.1 27.1 50.9 43.4 7.2 10.9 15.3 28.1 18.5 39 1.2 4.1 2.9 9.7 3.7 12.5 1.3 3.9 1.6 9.1 1.6 23.6 0 16-.3 19.6-2.1 25-1.1 3.5-2.9 10-4 14.5-5.1 20.4-21.1 47.2-34.6 57.7-6.4 5-14.8 11-28.1 20-19.9 13.5-39.7 19.4-62 18.4-15.1-.6-26.1-2.9-45.5-9.3-18.8-6.2-32.7-12.8-38.5-18.3-2.2-2.1-6.1-5.5-8.8-7.6-4.7-3.7-13.5-15.4-18.9-25-9.6-17.1-14.8-32.9-18.9-57.5-.6-3.6-1.5-7.2-1.9-8-1.1-2.3.6-28.8 2.4-35 4.9-17.8 12.2-33.6 22.4-48.7 5.8-8.5 21.7-24.6 29.9-30.2 4.1-2.7 15.7-8.5 19.3-9.6 1.4-.4 6.1-2.4 10.5-4.5 7.5-3.5 15.2-6 25.3-8.1 2.4-.5 5-1.5 5.8-2.4 1.7-1.7 4.4-2 4.4-.5 0 .5.5 1 1.1 1s.9-.6.6-1.4-.1-1.7.6-1.9c1.6-.6 6.1-.2 7.5.7m85.5 14.1c-.3.9-.8 1.4-1 1.1-.3-.3-.2-.9.2-1.5.9-1.6 1.5-1.3.8.4M404 415c0 .5-.2 1-.4 1-.3 0-.8-.5-1.1-1-.3-.6-.1-1 .4-1 .6 0 1.1.4 1.1 1m.5 11c-.3.5-1 1-1.6 1-.5 0-.9-.5-.9-1 0-.6.7-1 1.6-1 .8 0 1.2.4.9 1m-2.5 4c0 .5-.4 1-1 1-.5 0-1-.5-1-1 0-.6.5-1 1-1 .6 0 1 .4 1 1m-2.4 4.1c.8 1.4-1.8 3.1-3 1.9-.9-.9 0-3 1.4-3 .5 0 1.2.5 1.6 1.1m-6.1.9c.8 1.2-1.2 4-2.8 4-.8 0-.8-.3 0-1.1.6-.6.9-1.8.6-2.5-.6-1.6 1.3-1.9 2.2-.4m-5.8 6.3c1.1-.4 1.4-.2.9.5-.4.8.1 1.5 1.4 2 1.9.7 2 1 .7 2.1-1.3 1-1.6.8-2.2-.9-.5-1.5-1-1.8-1.9-1.1s-1.2.3-1.3-1.7c-.1-1.5.1-2.2.3-1.5.3.7 1.2.9 2.1.6m-2.7 10.5c0 1.3-.3 1.2-2-.3-1.1-1-1.7-2.2-1.4-2.7.8-1.2 3.4 1.1 3.4 3m-7.6 14.7c.3.9-.4 2.1-2 3.2-2.2 1.4-2.7 1.5-3.4.2-1.4-2.5-1.2-3.4 1.2-4.1 3.5-.9 3.5-.9 4.2.7m4.9 1.2c-.7.2-1.9.2-2.5 0-.7-.3-.2-.5 1.2-.5s1.9.2 1.3.5m-1.7 7c-.7.7-2.6-.7-2.6-1.9 0-.6.6-.6 1.5.2.9.7 1.3 1.5 1.1 1.7m-2.1 6.3c.3.5.1 1-.4 1-.6 0-1.1-.5-1.1-1 0-.6.2-1 .4-1 .3 0 .8.4 1.1 1m-2.1 2.5c1.9 1.5 1.9 1.5-.1 1.5-2.8 0-5.3-1-5.3-2.1 0-1.4 3.3-1 5.4.6m-5.9 41.5c-.3.5-1.6 1-2.8.9-2.1 0-2.1-.1-.2-.9 2.8-1.2 3.7-1.2 3 0m2.9 13.6c.3.8.2 1.2-.4.9s-1-1-1-1.6c0-1.4.7-1.1 1.4.7m4.1 4.2c-.3.4-1 0-1.5-.8-.6-.9-.5-1.7.3-2.2 1.3-.8 2.4 1.9 1.2 3m276.5 4.4c0 .5-.7.3-1.5-.6-.8-.8-1.5-1.8-1.5-2.2 0-.3.7-.1 1.5.6s1.5 1.7 1.5 2.2m-275.9 5.1c-1 .9-1.1.8-.5-.6.3-1 .9-1.5 1.2-1.2s0 1.1-.7 1.8m1.5 4.1c.8.9 1 1.7.5 2.1-.6.3-1.5-.4-2.1-1.5-1.2-2.3-.5-2.6 1.6-.6m3 4.6c0 2.3-1.1 2.7-1.9.6-.3-.8-.1-1.7.6-2 .7-.2 1.2-.5 1.2-.5.1-.1.1.8.1 1.9m-4.3 1c.3 1.1.1 2-.4 2s-.9-.9-.9-2 .2-2 .4-2 .6.9.9 2m5.8 2.3c-1 .9-1.1.8-.5-.6.3-1 .9-1.5 1.2-1.2s0 1.1-.7 1.8m263.6-.7c-.3.3-1.2.4-1.9.1-.8-.3-.5-.6.6-.6 1.1-.1 1.7.2 1.3.5m-261.1 2.9c-.3.8-.1 1.5.5 1.5s.7.5.4 1.1c-.5.6-1.2.4-2-.8-1.4-1.9-1.1-3.3.7-3.3.5 0 .8.7.4 1.5m14.3 34.9c-.9.8-1 .7-.5-.7.3-1 .7-2.4.7-3 .1-.7.3-.4.6.7.3 1-.1 2.3-.8 3m2.6 4.6c.3.5.1 1-.4 1-.6 0-1.1-.5-1.1-1 0-.6.2-1 .4-1 .3 0 .8.4 1.1 1m3.5.4c0 .3-.4.8-1 1.1-.5.3-1 .1-1-.4 0-.6.5-1.1 1-1.1.6 0 1 .2 1 .4m52 37.6c0 .5-.5 1-1.1 1-.5 0-.7-.5-.4-1 .3-.6.8-1 1.1-1 .2 0 .4.4.4 1m110 1c0 .5-.5 1-1.1 1-.5 0-.7-.5-.4-1 .3-.6.8-1 1.1-1 .2 0 .4.4.4 1m-107.3 7.6c-.3.3-1.2.4-1.9.1-.8-.3-.5-.6.6-.6 1.1-.1 1.7.2 1.3.5m57.3 3.8c0 .2-.7.6-1.5 1-.8.3-1.5.1-1.5-.4 0-.6.7-1 1.5-1s1.5.2 1.5.4m-31.3 7.2c-.3.3-1.2.4-1.9.1-.8-.3-.5-.6.6-.6 1.1-.1 1.7.2 1.3.5M214.5 496.7c-8.3.3-23.5 1.9-36 3.9-4.9.8-11.9 1.7-15.5 2-11.6.9-20.1 2.4-22.5 4-5.3 3.5-3.7 11 2.9 13.2 4.7 1.5 34.9 1.7 46.1.2 18-2.3 36.9-1 61 4.3 8.7 1.9 13 2.2 34 2.2 37.8 0 42.6-1.9 43.6-17.4.4-4.8.1-5.5-2.3-7.4-3.7-2.8-17.8-3.4-33.3-1.3-16.3 2.2-26.1 2-44.4-.8-17.3-2.7-23.2-3.2-33.6-2.9m3 8.2c.3.5 0 1.3-.6 1.7-.7.4-.9.3-.5-.4.3-.5 0-1.3-.6-1.5-.9-.4-1-.6-.1-.6.6-.1 1.4.3 1.8.8M233 507c0 .5-.4 1-1 1-.5 0-1-.5-1-1 0-.6.5-1 1-1 .6 0 1 .4 1 1m-6 .6c0 .8-1.9 1.3-2.4.6-.3-.5.1-.9.9-.9s1.5.2 1.5.3M716.5 498c-15.5 1.7-18.7 4-20.4 15-1 6.2-.9 6.6 1.3 8.8 3.3 3.3 14.8 4 32.3 1.8 15-1.8 30.8-2 40.3-.5 31.5 4.9 39 5 70 .9 12.4-1.7 26.1-3.5 30.5-4 10.4-1.3 14.2-2.8 15.3-6 2.2-6.2.1-9.4-6.9-10.9-7.5-1.6-31.6-1.3-47.4.6-12 1.4-15.9 1.5-27.5.4-7.4-.6-18.9-2.3-25.5-3.7-10.1-2.2-15.2-2.6-33-2.9-11.5-.2-24.6 0-29 .5m76 18c.3.5.1 1-.4 1-.6 0-1.1-.5-1.1-1 0-.6.2-1 .4-1 .3 0 .8.4 1.1 1"/><path d="M360 550.5c0 1.8 1.9 4 2.6 3.2.4-.4 0-1.5-.9-2.4-.9-1-1.7-1.3-1.7-.8M362.5 559c.4.6 1.1.8 1.6.5 1.4-.9 1.1-1.5-.7-1.5-.8 0-1.2.5-.9 1M338.5 596.4c-5.8 1.6-9.6 3.8-22.3 13.3-11.3 8.4-20.1 13-38.7 20.4-14 5.6-22.6 10.5-37.3 21-22.5 16.2-23.9 17.8-20.7 23.9 3.3 6.4 10.4 5.3 24.4-3.9 13.5-9 27.4-15.4 48.1-22.5 26.9-9.3 57.2-27.4 61-36.6 1.2-2.8 1.1-3.4-.9-6-1.1-1.6-2.1-3.5-2.1-4.2 0-2.3-2.8-5.5-5.2-6-1.3-.2-4.1.1-6.3.6m-22.8 29.8c-.3.8-.6.5-.6-.6-.1-1.1.2-1.7.5-1.3.3.3.4 1.2.1 1.9M672.9 602.9c-10.2 10.4-5.8 15.5 28 33.3 10.7 5.6 21.6 13.1 28.8 19.9 9 8.4 17.8 15.4 26.5 21.1 8.5 5.6 10.8 6.7 34.2 17.5 6.6 3 13.6 6.5 15.5 7.8 12.8 8 22.7 10.7 23.8 6.5.3-1.1 1.2-2 1.9-2 .8 0 1.4-1 1.4-2.5 0-5.4-16.8-19.2-36-29.7-3.6-1.9-9.2-5-12.5-6.8-10.8-5.9-20.5-13.2-33.7-25.4-18.4-17-21.7-19.6-35.8-28.5-16.3-10.4-28.2-16.1-33.3-16.1-3.4 0-4.6.7-8.8 4.9M750 660c0 .5-.2 1-.4 1-.3 0-.8-.5-1.1-1-.3-.6-.1-1 .4-1 .6 0 1.1.4 1.1 1m3.5 3.8c-.8.8-2.5-1-1.9-2q.6-.9 1.5.3c.4.7.6 1.5.4 1.7m3.5.3c0 .6-.4.7-1 .4-.5-.3-1-1.1-1-1.6 0-.6.5-.7 1-.4.6.3 1 1.1 1 1.6m5 4c0 1.4-2.9 1.7-4 .4-.8-1-.5-1.3 1.5-1.1 1.4 0 2.5.4 2.5.7M405.3 669.2c-5.2 5.7-7.9 9.9-16.3 25.8-9.3 17.6-13.8 24.3-26 38.5-12.5 14.5-18.7 24.5-29.1 46.9-5.1 11-11 23.1-13.1 26.9-4.3 7.6-7.1 15.4-6.2 17.7.5 1.5 6.8 6 8.5 6 4.1 0 19.3-21.2 29.7-41.3 8.5-16.4 15.3-26.4 27.4-39.6 21.2-23.3 28.3-33.2 38.1-52.7 8.3-16.8 8.3-20-.3-27.3-5.9-5-8.6-5.2-12.7-.9M363 750.4c0 .2-.7.6-1.5 1-.8.3-1.5.1-1.5-.4 0-.6.7-1 1.5-1s1.5.2 1.5.4m-4 6.6c0 .5-.4 1-.9 1-.6 0-1.3-.5-1.6-1-.3-.6.1-1 .9-1 .9 0 1.6.4 1.6 1m-3 2c0 .5-.2 1-.4 1-.3 0-.8-.5-1.1-1-.3-.6-.1-1 .4-1 .6 0 1.1.4 1.1 1m-2.2 5.5c-.3.3-.9-.2-1.2-1.2-.6-1.4-.5-1.5.5-.6.7.7 1 1.5.7 1.8M606.2 671.1c-1.2.5-2.2 1.3-2.2 1.9 0 .5-1 1-2.2 1-2.6.1-5 1.7-6.5 4.4-2.5 4.5 2.3 15.3 13.5 30.1 7.8 10.4 10.1 14.8 20.3 39.1 6.5 15.3 15.5 30 32.1 52.1 5.3 7 9.2 8.2 14.2 4.2 2.2-1.7 2.6-2.9 2.6-6.8 0-4.2-.8-6-7.1-15.7-3.9-6-8.4-13.5-10-16.6-4.3-8.5-11.3-26.2-14.4-36.2-2.7-8.8-12.7-29.4-19.3-39.6-5.3-8.3-12.9-16.7-16-17.8-1.5-.5-3.7-.6-5-.1M502.8 696.2c-2.5 1.9-4.5 11.2-4.2 19.3.1 3.8.8 12.7 1.5 19.7 1.4 14.8.8 29.4-2.1 46.3-2.8 16.9-2.7 33.4.3 57.5 1.4 10.7 2.8 23.4 3.2 28.2.7 10.3 1.8 14.4 4.5 17.3 2.6 2.8 8.5 2.3 10.6-1 2.6-3.9 3.7-18.7 2.8-35.5-.5-8.5-.9-23.6-.8-33.5.1-15.5.5-20.4 3.2-35 4.1-23 4.5-26.6 4.3-44.2-.1-15.9-2.2-31.2-4.6-35-2.3-3.4-15.7-6.4-18.7-4.1M508 804c0 .5-.2 1-.4 1-.3 0-.8-.5-1.1-1-.3-.6-.1-1 .4-1 .6 0 1.1.4 1.1 1m-1 2.4c0 .2-.7.6-1.5 1-.8.3-1.5.1-1.5-.4 0-.6.7-1 1.5-1s1.5.2 1.5.4m.5 5.6c.3.5.1 1-.4 1-.6 0-1.1-.5-1.1-1 0-.6.2-1 .4-1 .3 0 .8.4 1.1 1m-2.1 9.5c-.4.8-.8 1.5-1 1.5s-.4-.7-.4-1.5.4-1.5 1-1.5c.5 0 .7.7.4 1.5"/></svg>