<svg xmlns="http://www.w3.org/2000/svg" width="1254.667" height="1034.667" viewBox="0 0 941 776"><path fill="#00E676" d="M528.5 14.7c-68.4 4.4-146.6 34.4-200.1 76.8-72.3 57.4-124.7 135.3-157.9 235-6.7 20.1-10.9 35.1-19.1 68-7.3 29.2-12.5 47.6-18.2 64.5-15.8 46.7-35.3 77.4-64.9 102.2-4.6 3.8-8.3 7.6-8.3 8.3 0 2.2 6.9 1.9 14.2-.6 20.7-6.9 45.9-24.5 63.9-44.4 28.7-31.9 44-65.5 61-134.4 4.4-17.9 10.1-40.9 12.6-51.1 11-44.7 30.3-93.9 50.9-129.6 29.7-51.6 71.3-95 119.4-124.6 28.7-17.6 63-32.3 93.2-39.7 22.3-5.5 33-6.6 66.3-6.5 32.5.1 47 1.3 86.1 7.5 20.9 3.3 32 3.5 33.7.8 1.8-2.8-.1-6.6-4.5-9.2-13.2-7.7-43.6-16.8-67.2-20.2-18.6-2.7-44.5-3.9-61.1-2.8M563 52.1c-5.3.9-8 2.3-6.8 3.4.3.4 4.9 1 10.3 1.5 30.2 2.9 58.3 11.1 88 25.6 25.5 12.5 43.2 25 62.1 43.8 18.9 19 29.9 36.5 35.1 55.8 1.9 7 2.3 23.5.9 33.4-.8 5.9-.8 6.2 1.6 7.8 5 3.3 11.5-2.2 14.5-12.2 4.8-16.2-.9-42.1-14.3-64.4-10.4-17.4-29.5-38.3-46.6-51.1-28.6-21.3-66.6-37.6-100.8-43.2-10.4-1.6-34.9-1.9-44-.4m168 26.7c-4.8 1.5-3.6 3.8 3.2 6.1 15 5 25 12.7 43.3 33.4 4 4.5 5.7 5.7 8.1 5.7 6.4 0 10.4-6.4 8.5-13.7-4.5-16.8-26.9-30.8-50.9-31.8-5.3-.2-10.8-.1-12.2.3M540.2 126c-6.9 1.6-6.9 4.9-.1 6.9 10.7 3.2 20.2 7.6 30.3 14.1 12.2 7.8 15.2 8.5 19.3 4.4 7.2-7.2-4.5-18.1-24.9-23.3-8.9-2.3-20.2-3.3-24.6-2.1m-68.6 16.6c-23 4.2-51 17.2-73.8 34.5-9.8 7.5-31.2 28.5-39 38.4-29.2 37.3-48.3 83.3-54.4 131-2.2 17.6-2.3 47.2 0 63.5 3.2 23.5 10.4 48.4 19.6 67.5 5.4 11.4 12.7 22.8 14 22 .5-.3-.6-4.1-2.5-8.5-8.4-19.7-16.2-50.3-18.5-72.9-7.9-78.6 23.1-161.7 81.1-217.6 27.3-26.3 59.6-43.7 97.4-52.2 20.9-4.7-.7-9.9-23.9-5.7m185.7 24.1c-2.4.9-1.3 2.1 6.5 7.6 11.1 7.8 20.7 20.4 26.3 34.7 3.1 8 6.7 12 10.7 12 3.7 0 7.2-3.9 7.2-8.1 0-10.1-13.2-28.3-27.3-37.8-8.7-5.9-19.9-9.9-23.4-8.4m-148.2 4.9c-10.8 1.8-29.5 8-40 13.3-19 9.6-31.6 18.7-49 35.6-40.7 39.5-67 91.5-73.1 144.4-1.8 15.5-.8 47.6 2 62.1 12.6 66.5 59.4 126.1 118.1 150.8 9.6 4.1 16.2 6.1 14.4 4.4-.5-.5-5.6-3.7-11.2-7.1-39.9-24.3-71.6-61.5-87.6-102.6-5.4-13.8-5.3-14.9.3-4.5 17.5 32.5 43.4 61.7 76 85.7 40.9 30.2 78 44.3 116.5 44.3 19.5 0 41.5-4.3 42.3-8.2.2-1.3-1.5-1.7-10-2.2-53.2-3.6-106.6-29.3-148.8-71.5-20.4-20.4-34.8-41-44.8-63.6-27.7-62.8-24.4-131.8 8.7-183.3 8-12.3 24.3-29.3 34.3-35.6 3-1.9 2.9-1.6-1.9 4.1-15.4 18.6-28.9 44-35.8 67.8-5 17.3-6.7 30.3-6.8 51.5-.1 24 2.1 38.4 9.4 60.3 10.2 31.3 26.8 58.4 50.3 82.6 43 44.1 105 73.1 156.6 73.1 22.3 0 35.8-3.8 64.5-18 35.4-17.6 55.6-24.8 77-27.6 14.6-1.9 25.3-1 51.2 4.2 19.4 3.8 25 4.2 26 1.8 1.9-5.1-27.4-19.3-48.7-23.5-9.3-1.9-37.1-1.6-49.5.5-5.5.9-20.3 4.1-33 7.1-47.5 11.1-61.1 13-90.4 12.2-15.6-.3-23.2-1-31.5-2.6-42.5-8.6-82.6-33.3-110.7-68.4-34.5-42.9-44.7-97.4-27.8-148.7 3.9-11.9 12.1-28.2 19-38 12.2-17.3 31.3-33.8 49.4-42.6 17.1-8.3 39.5-12.4 56.2-10.4 11.7 1.5 15.6 2.5 23.6 6.7 17.3 9.1 28.7 30.1 28.7 53.1 0 10.5.8 14 3.6 15.9 7.5 4.9 18.1-7.6 24.3-28.5 3.6-12 3.6-12.2 6-12.2 2.3 0 5.8 4.5 9.9 12.7 13 25.7 8.6 59-10.3 77.8-3.3 3.3-7.7 7.3-9.7 8.8-7 5.2-5.8 11.1 2.9 14.2 7.4 2.7 27.1 3.2 37 1 22.3-4.9 39.3-18.8 50.3-41 11.1-22.4 12.1-44.2 2.8-61.7-3.8-7.1-11-14.1-14.1-13.6-2.6.4-2.6 1.7.2 11.3 4.5 15.1 3.5 36.2-2.6 51.4-7.4 18.8-22.8 33.8-40.2 39.1-7.5 2.4-11.4 2.5-13.1.5-1-1.2-.4-2.6 3.5-7.7 16.2-21.5 21.1-51.1 13.4-79.8-4.2-15.6-16.7-37.3-29.8-51.3-6.1-6.6-18.2-16.2-24.3-19.3-2.7-1.3-6.5-2.6-8.6-2.7-5.4-.3-5.4 2.6.2 12.1 6.2 10.6 9.6 21.3 9.6 29.9 0 12.5-3 12.5-8.4-.1-11.5-26.8-26.3-42.5-50.9-54.1-21.9-10.3-50.8-14-75.6-9.9m281.3 55.9c-.3.8 1.4 4 3.9 7.2 6.9 8.9 10.6 17.2 13.7 31.2 2.5 11 3.2 12.9 5.9 15.3 3.5 3.1 5.9 3.5 10 1.3 6.8-3.5 7.9-15.5 2.6-27-5-10.7-21.9-25.5-32.6-28.5-2.3-.7-3.1-.5-3.5.5M247.6 390.2c-9.2 14.1-12.6 47.2-7.7 75.3 3.7 20.9 10.9 38.8 20.5 51.4 10.7 13.9 23.2 21.9 46 29.7 13.7 4.7 14 2.6 1-8.1-11.4-9.5-25.5-24.7-32.5-35.4-12.2-18.3-21.2-42.1-24.5-64.2-1.6-11.3-1.5-31.5.2-45.7.7-5.7-.5-6.9-3-3m-40.5 160.4c-19.1 3.3-42.1 13.1-82.1 35.1-43.9 24.1-58.4 29.8-91.9 35.9-21.9 4-24.1 5.3-14.2 8.7 9.9 3.3 23.7 4.9 37.1 4.4 19.9-.8 28.4-3.6 83-26.7 30.2-12.7 42.5-17.1 56.5-20 26.6-5.5 51.4-4.5 76.9 3.1 12.9 3.9 29.5 11.6 63.3 29.7 62.5 33.4 80.1 41.2 108.8 48.7 20.4 5.4 29.8 6.6 54.7 7.2 26.4.7 41.5-.5 62.8-4.7 31.7-6.3 47.5-12.6 106.2-42.3 50.5-25.6 62.6-29.2 97.3-29.2 22.7 0 24.7.2 59 7.5 9.9 2.1 23 4.6 29 5.6 14.8 2.3 42.6 2.3 55.4 0 13.1-2.3 21.1-6 18.4-8.7-.4-.4-8.4-1.5-17.7-2.4-9.3-.8-20-2-24-2.6-9.9-1.5-27.7-6.9-43.1-12.9-30.8-12.1-41.7-16-53-18.6-10.9-2.6-13.7-2.8-30.5-2.9-21.5 0-29.2 1.3-49.6 8-15.8 5.2-28.9 11.3-60.8 28.5-47.7 25.6-76.1 35.4-114.1 39.1-17.1 1.7-46.9.7-62.4-2.1-33.7-5.9-59.5-16-110.1-42.8-54.2-28.8-76.5-38.5-101.5-44.3-12.1-2.7-41.1-3.5-53.4-1.3m25.6 84.5c-23.3 2-39.1 7.4-76 25.6-39.4 19.5-51.3 23.3-79.5 25.3-6.8.4-12.6 1.1-13 1.5-1.6 1.5 2.1 4.2 8.6 6.2 10.9 3.4 25.9 4.7 39.4 3.3 19.4-1.9 31.1-4.9 56.2-14.4 29.1-11.1 42.6-13.9 67.1-13.9 31.1 0 51.1 6.6 93 30.8 32.1 18.4 44.3 24.2 67 31.4 17.4 5.6 32 8.2 49.7 8.8 24.8.9 48.8-3.1 73.4-12.3 17-6.3 36.4-16.7 36.4-19.5 0-1.4-4-1.1-16.2 1.5-19 4-28.5 5-48.8 5-20.7.1-30.6-1-49-5-27.5-6.1-50.7-15.9-87.7-37.1-30.2-17.4-38.4-21.6-51.8-26.9-15.2-5.9-27.1-8.9-40.9-10.3-12-1.2-14.8-1.2-27.9 0m514.2 3c-30.6 4.5-61.6 20.3-107.7 55.2-57 43-83.7 55.2-133.7 61.2-11.8 1.4-15.8 2.5-14.3 4 3.1 3.2 42.5 3.9 59.3 1.1 21.4-3.6 41.1-10.1 60-19.9 9.5-4.9 33.2-20.4 62-40.3 34.4-23.9 54.7-33.2 82.5-38 7.3-1.2 13.3-1.5 26-1.1 18.1.6 23 1.4 55.5 8.9 35.1 8.1 41.2 6.9 19.5-3.9-32.5-16.1-52.7-23.8-69.9-26.7-10-1.7-29.6-1.9-39.2-.5"/></svg>