<!-- Icon: Trust Experience --><svg fill="#FFFFFF" xmlns="http://www.w3.org/2000/svg" width="450.667" height="526.667" viewBox="0 0 338 395"><path d="M187 13.5c0 .8-.9 2.4-2 3.5-2.8 2.8-2.6 6.6.5 8.6 2.3 1.5 2.7 1.5 5 0 3.1-2 3.3-5.8.5-8.6-1.1-1.1-2-2.7-2-3.5s-.4-1.5-1-1.5c-.5 0-1 .7-1 1.5m2.8 4.7c2.8 2.8-.3 8.3-3.3 5.8-.8-.7-1.5-2-1.5-2.9 0-1.7 1.8-4.1 3-4.1.3 0 1.1.5 1.8 1.2m-33.5 4.9c-30.2 6.3-55.1 20.1-76 42.3C71.9 74.3 62 88.2 57 97.9c-6.5 13-14 38.4-14 47.5 0 4.4 1.8 2.8 2.5-2.2 4.4-31.1 17.2-57 39-78.8 5.5-5.5 13.2-12.4 17-15.2 9.3-6.9 30.8-17.5 42-20.7 10-2.9 24-5.5 29.1-5.5 1.8 0 3.6-.5 3.9-1 1-1.6-10.1-1-20.2 1.1m49-.4c.4.6 5 2.1 10.4 3.3 41.9 9.7 78.2 41.5 94.4 82.9 4.3 11 8.9 29.1 8.9 35.3 0 2.6.4 3.8 1.4 3.8 1.7 0 1.5-2.4-1.5-17.4-8.4-41.1-36.4-77.3-74.5-96.5-13.9-7-41.3-14.9-39.1-11.4M187 30.9c0 2-3.2 3.7-4.9 2.6-.5-.3-1.2-.1-1.6.5s.8 1 2.9 1c3.4 0 3.6.2 3.6 3.5 0 1.9.5 3.5 1 3.5.6 0 1-1.5 1-3.4 0-3.3.2-3.5 3.8-3.9l3.7-.4-3.7-.1c-3.3-.2-3.8-.5-3.8-2.7 0-1.4-.4-2.5-1-2.5-.5 0-1 .9-1 1.9m0 17.4c0 4.1-3.1 7.3-6.7 6.9-5.1-.7-7.2 5.1-3.3 9.3 1.2 1.3 2.1 3.9 2.3 6.5.3 3.9 0 4.9-2.5 7.2-1.6 1.5-3.3 4.2-3.9 6-1.1 4-1.2 10.8-.1 10.8s3.5-8.7 2.8-9.9c-.4-.5.5-2.2 1.9-3.8l2.4-2.8.1 4.3c.1 11.7-7.8 42.4-11.9 46.5-.6.6-1.1 1.5-1.1 2.1 0 .5-1.2 2.5-2.6 4.4-2 2.6-2.9 3.1-3.5 2.1-1.4-2.3-1.1-5.9.5-5.3s3-1.1 2.1-2.6c-.5-.8-1.1-.8-2 0s-1.4.7-1.8-.4c-.4-.9.1-1.7 1.2-2.1 2.1-.6 6.4-6.2 5.7-7.4-.3-.5.2-2.4 1.1-4.2 2-4 6.4-19.2 5.7-19.8-1-1-2.3 1.8-5.4 11.7-2 6.5-3.9 10.6-5.1 11.2-2.7 1.5-3.1 0-2.8-9.8.2-6.3-.2-9.7-1.4-12.5-.9-2-2-3.7-2.4-3.7-1.2 0-4.4 8.5-4.2 11.1.1 1.3.1 5.2.1 8.6-.2 6.3-.2 6.3-3.2 6.3-4 0-3.8 1.8.5 6l3.4 3.3-2 2.9c-1.3 1.7-1.8 3.6-1.4 4.6.6 1.6.8 1.5 2.1-.2.8-1.1 1.4-2.7 1.5-3.5 0-.9.6.6 1.4 3.4 1.5 5.5 1.3 5.8-4.2 7.4-6.5 1.8-14.3-2.2-16.3-8.4-1.1-3.4-1-3.7 2.4-7.2 2-2.1 3.6-4.1 3.6-4.5s-1.6-.8-3.5-.8H133v-9c0-6.2-.5-10-1.5-12-.9-1.7-1.8-3-2-3s-1.2 1.5-2.1 3.2c-1.1 2.2-1.8 6.2-2 11.8l-.2 8.5-3.1.3c-1.7.2-3.1.8-3.1 1.4 0 1.1 5.8 6.8 7 6.8.4 0 1.1 1.2 1.5 2.7 1.7 6.9 10.1 15.3 15.1 15.3 2.1 0 2.3.4 2 3.7-.2 2.1-.9 5.7-1.6 8.1-1.3 4-1.2 4.4.8 6.5l2.2 2.1 2.1-2c1.9-1.9 1.9-2.5.8-6.5-.6-2.4-1.3-5.9-1.5-7.7-.2-2.6.1-3.2 1.7-3.2 1.1 0 3.9-.9 6.4-2.1 4.8-2.3 7.1-1.9 5.6 1-.5.9-1.2 3.5-1.5 5.7-.3 2.1-.9 5.5-1.2 7.5-.7 4.2 1.6 7 4.4 5.2 3-1.8 2.8-7.6-.4-10.7-.8-.9-1.1-1.6-.5-1.6s1.1-1.6 1.1-3.6c0-2.9.3-3.5 1.6-3 3.6 1.4 10.4-7.4 13.8-17.7.3-1 1-1.5 1.6-1.2 1.3.8.1 8.3-1.8 11.3-.8 1.2-1.2 2.5-.9 2.9.4.3 0 2.1-.8 4-.8 2-1.5 4.5-1.5 5.7-.1 1.7-.5 1.4-2.3-1.6-2.4-4.2-3.4-4.6-4.4-2.1-.4 1 .1 2.2 1.3 3.2 1 .9 2.7 3 3.6 4.7 1.6 2.8 1.6 3.3-.5 9.1-2.1 6-2.1 6.2-.3 8.2 2.6 2.8 5.4 2.6 6.8-.4.9-2.1.8-3.7-.6-8.2-1.8-5.7-1.8-5.7.3-7.4 2.2-1.8 2.8-7.3 1.2-11.4-.5-1.1-.2-3 .6-4.5.7-1.4 1.3-3.5 1.3-4.7s.3-2.8.6-3.7c.5-1.3.9-1.2 2.5.8 2.3 3 2.5 11.2.4 17.1-1.9 5.2-1.9 8.9 0 10.5 2.2 1.8 1.9 4.4-1.5 11-1.6 3.3-3 6.2-3 6.5s1.3.5 2.8.5c3.1 0 6.2 2.6 6.2 5.2 0 3-9.3 9.8-13.3 9.8-1.7 0-5-5.8-4.3-7.6.6-1.7-.5-1.9-2.1-.3-1.5 1.5.6 5.9 4.2 8.7 3.4 2.7 7.3 1.4 12.7-4 3.4-3.4 3.9-3.6 3.3-1.6-2.2 7.4-11.8 15.9-25.7 22.8-4.3 2.1-9.7 5.2-12.2 6.9-5.3 3.7-21.6 18.9-21.6 20.2 0 2.1 2.6.5 8.6-5.3 5.1-4.9 6.7-5.9 7.4-4.8.5.9.5 1.9-.2 2.7-1.6 2 0 2.9 2.3 1.5 1.6-1.1 3.1-1 8 .3 3.4.8 6.3 1.5 6.5 1.5.3 0 0 .9-.6 2.1-1.8 3.2-.2 3.6 2.3.5 3.5-4.4 21.8-8.7 22.9-5.4.3.7 2-.3 4.3-2.6 5.2-5.2 21.6-13 25.6-12.2 2.7.5 2.8.4 2.3-2.4-.5-2.2.4-4.9 4.1-11.7 2.6-4.8 5.9-10.4 7.4-12.3s3.1-5.1 3.4-7c.7-3.7 5.5-13.9 8.4-17.8 1.6-2.3 1.6-2.4-.7-2-2.7.3-6.7 7.2-9.7 16.8-1 3-3.2 7.7-5 10.4-1.7 2.7-5.1 8.8-7.5 13.6l-4.3 8.7-6.3 2.6-6.4 2.6 4.9-5.2c5.3-5.6 12.4-17.9 16.9-29 1.5-4 4.1-8.3 6.1-10.2 2.2-2.1 3-3.6 2.3-4-2.2-1.3-8.4 7-12.9 17.2-4.9 11.3-9.1 18-17.3 27.8-7.7 9.2-12.3 12.1-20.2 12.8-3.4.3-8.8 1.6-12 2.8-5.6 2-6 2.1-11.5.5-3.2-.9-6.7-1.6-7.8-1.6-1.4 0-2.4-.8-2.9-2.2-.9-3 3.3-6.4 15.7-12.8 17-8.7 27.9-18.8 27.9-25.8 0-1.3.9-3.5 2-4.9 2.7-3.4 2.5-5.1-1-11.8-3.4-6.5-3.7-8.6-1.4-12 1.1-1.7 1.4-3.5 1-5.7-.4-1.8-1.1-6.7-1.6-10.8-.7-6-.6-7.8.6-9.1.8-.8 1.4-2.1 1.4-2.7 0-.7.4-1.2 1-1.2.9 0 3 6.2 3 9.2 0 .9.4 1.8 1 2s.6 1.8 0 4.3c-.8 3.7-.3 6.6.7 3.7.7-2 2.3-.3 2.3 2.5 0 2.2-.2 2.4-1.5 1.3-2.5-2.1-3-.2-.6 2.4l2.2 2.3-2.1 5.4c-2.6 6.9-2.5 8.1.5 10.9 2.4 2.3 2.5 2.3 4.5.5 3.1-2.8 3.3-5 .9-11.7-1.7-4.4-2-6.3-1.1-6.6.7-.2 1.2-.9 1.2-1.6s1.4-2.5 3-4.1c1.7-1.6 3-3.5 3-4.2s1.1-1.3 2.4-1.3c2 0 2.5.6 2.8 3.5.2 2-.2 4.9-.9 6.6-1.8 4.3-1.6 7.3.5 9.3 1.8 1.5 2 1.5 3.5-.2 2-2.2 2.2-5.4.6-8.5-.7-1.2-1.2-3.5-1.1-5.1 0-1.6-.4-3.8-1-4.9-1.1-2.2-1.7-2.2 8.4.4 4.3 1.1 4.7 1.5 4.2 3.6-.4 1.3-.2 2.3.4 2.3.7 0 .5 1.1-.4 2.7-1.9 3.7-1.8 8.7.2 10.4 3.6 3 6.8-3.2 4.5-9-.5-1.4-1.1-4.1-1.3-5.9-.3-3.1 0-3.5 3.7-4.8 2.2-.7 5.5-2.9 7.3-4.9 1.9-2 3.6-3.4 4-3.1.3.3-.3 3-1.3 6-1.6 4.5-1.6 5.7-.6 7 1.8 2.1 3.4 2 5.6-.4 1.6-1.8 1.6-2.2.1-6-.9-2.2-1.6-5.2-1.6-6.6s-.4-2.3-.9-2c-.4.3-.3-1.2.3-3.4.5-2.2 1.4-4 1.8-4 1.4 0 6.8-5.3 6.8-6.7 0-.8-1.2-1.3-3-1.3-3 0-3-.1-3.2-5.8 0-3.1 0-6.6.1-7.6.1-2-3-10.6-3.9-10.6s-4.2 8.8-4 10.7c.1 1 .2 4.4.1 7.5-.1 5.7-.2 5.8-2.9 5.8-4.5 0-4.5 1-.3 4.9l4 3.7-1.9 4.2q-3.75 8.25-13.5 8.1c-8.1-.1-8.4-.4-6.4-6.9 1-3 1.8-4.5 1.8-3.4.1 1.2.8 2.7 1.6 3.4 1.2 1 1.5.9 1.5-.8 0-3.1-1.1-5.2-2.6-5.2-2.2 0-1.7-1 2.8-4.9 4.5-4.1 4.5-6.4 0-5.9l-2.7.3-.5-11c-.5-10.3-1.8-15.5-4-15.5-1.1 0-4.2 8.2-4 10.6.1 1.1.2 5.2.1 9.1-.1 6.6-.3 7.3-2.1 7.3-1.1 0-2.5-1.2-3.4-2.8-3-5.8-7.8-22.7-7.8-27 .1-5.1-.8-7.4-4.9-11.7-3.9-4.2-4.5-11.1-1.2-13.8 4.4-3.5 2.1-10.6-2.9-9.4-3.3.9-6.6-2.1-7-6.2-.4-4.7-2.8-5.4-2.8-.8m3.5 8.5c-.3.3-1.4.6-2.5.7-1.6.1-1.7-.2-.9-1.7.8-1.6 1.3-1.7 2.5-.7.8.6 1.2 1.4.9 1.7m-10.8 2.4c0 1.3.4 3.2.8 4.3.8 1.8.7 1.9-.8.6-1.7-1.3-2.3-5.2-1-6.4 1-1 1.1-.9 1 1.5m20.3.8c0 .4-.9 1.8-2.1 3.1-2 2.3-2.1 1.8-.3-2.6 1.1-2.8-1.2-1.5-3 1.7-1.9 3.1-1.9 3.1-2.8.9-1-2.8-.3-4.1 2.2-4.1 1 0 2.2-.5 2.5-1 .7-1.1 3.5.5 3.5 2m-14.2 1.8c.4 2.6-2.2 3.1-3.2.6-1-2.6-.7-3.6 1.2-3.2.9.2 1.8 1.3 2 2.6M190 67c0 .5-.4 1-1 1-.5 0-1-.5-1-1 0-.6.5-1 1-1 .6 0 1 .4 1 1m0 3c1.2.8 1.2 1-.5 1-1.1 0-2.7-.5-3.5-1-1.2-.8-1.2-1 .5-1 1.1 0 2.7.5 3.5 1m5.7 3.1c.1 1.7.8 3.8 1.4 4.5 1 1.2.9 1.3-.5.8-2.4-.9-4-5.3-2.5-7 1.5-1.8 1.4-1.9 1.6 1.7m-11.7-.7c0 2.2-1.1 4.6-2.1 4.6-.6 0-.6-.7-.1-1.8.5-.9.7-2.3.5-3-.3-.6 0-1.2.6-1.2s1.1.6 1.1 1.4m6.2 3.1c.4 1.9.1 2.5-1.3 2.5-1.7 0-2-1.4-1-4.8.1-.1.5-.2 1-.2s1.1 1.1 1.3 2.5m-4.7 14.3c0 4.8-.9 13.6-1.9 19.5-1.8 9.8-2.2 11-4.6 12.2-1.5.8-3.7 3.5-4.9 6.2-5.5 11.4-6.9 13.8-8.5 14.1-2.5.5-1.9-1.9 1.3-5.9 3.6-4.3 7.1-12.6 10.5-24.4 3.1-10.8 6-27.1 5.2-29.2-.9-2.1.4-3.7 1.7-2.4.7.7 1.2 4.8 1.2 9.9m10-7.3c.6 2.7.8 4.5 1.3 10.5.1 1.1.7 2 1.3 2 .8 0 .9-2.3.4-7.8l-.7-7.7 2.6 2.4c1.4 1.3 2.5 3.3 2.5 4.5-.1 2.3 2.5 14.9 4.2 20.6 2.3 7.6 7.3 16.7 10 18.6 2.4 1.6 2.9 2.6 2.9 6 0 2.2-.6 4.9-1.4 5.9-1.2 1.7-1.5 1.6-4.4-2.6-1.8-2.4-3.5-4.9-4-5.4-.5-.6-1.1-1.9-1.4-3-.4-1.1-1.5-4.3-2.7-7-2.3-5.9-4.6-13.5-5.5-18.8-.4-2-1.1-3.7-1.6-3.7-1.4 0-1.2 2.3.5 9.4 3.2 12.6 7.7 23 13.1 30 1.9 2.5 3.1 4.6 2.5 4.6-2.9 0-4.7-2.1-8.2-9.7-3.2-7-4.4-8.6-7.2-9.8-3.3-1.3-3.3-1.4-5.1-12.7-1.1-6.2-2.3-12-2.7-12.9-.5-.9-.3-4.5.2-8 1.8-10.2 2.2-11 3.4-5.4m-5.5 1.1c0 1.3-.4 2.4-1 2.4-.5 0-1-1.4-1-3.1s.4-2.8 1-2.4c.6.3 1 1.7 1 3.1m-32 19.1c0 1.4-.6 2.3-1.5 2.3-1.5 0-2.2-5-.8-6.3.9-1 2.3 1.4 2.3 4m67-.5c0 2.1-1.9 3.3-3.1 2.1-.6-.6-.6-2 .1-3.9.9-2.2 1.3-2.5 2-1.4.6.8 1 2.3 1 3.2m-94 5c0 1-.7 1.8-1.5 1.8-1.6 0-1.9-1.7-.9-4.5.5-1.3.8-1.4 1.5-.3.5.7.9 2.1.9 3m120 1.2c-1.7 1.7-2.9-.6-1.8-3.4l1-2.5.9 2.4c.6 1.6.6 2.8-.1 3.5m-64.6 5.5c-.3 3.9-1.1 7.1-1.6 7.1s-.7-1.2-.4-2.8c.3-1.5.8-4.9 1.2-7.5 1-7.3 1.6-4.9.8 3.2m7.5 7c.1.9-.2 1.1-.8.5-.5-.5-1.1-4.3-1.5-8.4l-.5-7.5 1.4 7c.8 3.8 1.4 7.7 1.4 8.4m-36.1-7.2c-.4 8.1-2.8 8.5-2.8.4 0-4.8.3-6.1 1.5-6.1 1.3 0 1.5 1.1 1.3 5.7m67.2-.3c0 3.9-.4 5.5-1.5 6-1.2.4-1.5-.5-1.5-5.4 0-4.7.3-6 1.5-6 1.1 0 1.5 1.3 1.5 5.4m-94.2 3.9c.2 3.7 0 4.7-1.2 4.7s-1.6-1.2-1.6-5.1c0-6.6 2.4-6.2 2.8.4M251 117c0 2.7-.4 5-1 5-.5 0-1-2.3-1-5 0-2.8.5-5 1-5 .6 0 1 2.2 1 5m-61-1c0 1.6-.4 3-1 3-.5 0-1-1.4-1-3 0-1.7.5-3 1-3 .6 0 1 1.3 1 3m-29.5 8c-3.7 2.5-5.3 2.5-8.5 0l-2.5-2h14zm30 1.2c-.8 3.4-1.3 4.4-1.9 3.7-.2-.2-.6-1.9-.9-3.7-.6-2.8-.4-3.2 1.4-3.2s2 .4 1.4 3.2m37.2-1.2c-3.2 2.5-5.5 2.5-8.7 0l-2.5-2h13.8zm-92.7.8c0 3.5-7.7 4.3-10.5 1.2-1.8-2-1.7-2 4.3-2 3.4 0 6.2.4 6.2.8m119.5 1.2c-1 1.1-3 2-4.5 2s-3.5-.9-4.5-2c-1.8-2-1.7-2 4.5-2s6.3 0 4.5 2m-70.5 2.1c0 .6-.4.7-1 .4-.5-.3-1-1.1-1-1.6 0-.6.5-.7 1-.4.6.3 1 1.1 1 1.6m10.6.5c-.4.9-.9 1.5-1.1 1.2-.3-.3-.3-1.3.1-2.2s.9-1.5 1.1-1.2c.3.3.3 1.3-.1 2.2m7.5 4.1c1.2 3.1 3.8 7.6 5.7 10.1 2.4 3.2 3.1 4.7 2.3 5.5s-1.1.7-1.1-.2c0-1.1-.3-1.1-1.4-.1-.8.6-1.3 1.7-1 2.4s-.2 1.9-1.1 2.6c-1.3 1-1.5.9-1.5-.7 0-1.1-1.1-5.6-2.5-9.9-3.1-9.7-4.1-15.4-2.7-15.4.5 0 2 2.5 3.3 5.7m-44.3 2.3c.1 2.3 0 2.3-.8.5-.5-1.1-.8-3.4-.8-5 0-2.9 0-2.9.8-.5.4 1.4.8 3.6.8 5m66.1-5.3c-.1 1-.5 2.9-.9 4.3-.6 2-.8 1.7-.6-1.7 0-2.4.4-4.3.9-4.3.4 0 .7.8.6 1.7m-92.5 3.9c1.9 7.4 8.7 11.8 17 11.1 2.8-.2 6.2-.7 7.6-1.1 1.4-.3.5.3-1.9 1.5-9.5 4.6-21-1.5-24.6-13-.4-1.5-.3-2.1.3-1.7.5.3 1.3 1.8 1.6 3.2M191 131c1.3.9 1.3 1 0 1-.8 0-2.2-.5-3-1-1.3-.9-1.3-1 0-1 .8 0 2.2.5 3 1m57.1 4.8c-4.9 9.7-17.4 14.1-24.7 8.8-1.5-1.2-1-1.2 2.8.1 10 3.2 18.6-1.8 22.4-13.2.3-1.1.8-1.5 1.1-.8.2.6-.5 2.9-1.6 5.1M190 134c0 .5-.4 1-.9 1-.6 0-1.3-.5-1.6-1-.3-.6.1-1 .9-1 .9 0 1.6.4 1.6 1m-18.6 6c-1 1.6-2.4 3.2-3.1 3.4-.8.3-.1-1 1.4-2.9 3.4-4.3 4-4.5 1.7-.5m-7 4c1.9.8 2 .9.2.9-2.3.1-6.6-3.6-6.6-5.7 0-.9.8-.4 2.1 1.2 1.2 1.5 3.1 3.2 4.3 3.6m49.6-.7c1.1.3 3.1-.3 4.5-1.5 1.7-1.3 2.3-1.5 1.9-.5-.3.8-1.5 2-2.8 2.7-1.9 1-2.9.9-5.4-.4-1.7-.9-3.7-2.6-4.3-3.9-1.1-2-.9-1.9 1.5.4 1.5 1.5 3.5 2.9 4.6 3.2m38 5.7c0 1-.4 2.2-1 2.5-.6.4-1-.7-1-2.5s.4-2.9 1-2.5c.6.3 1 1.5 1 2.5m-73.3 6.7c-1.5 2-2.6 1.5-2-1 1-4.7 1.5-5.3 2.3-2.7.4 1.4.2 3.1-.3 3.7m12.2-.1c.1.6-1 1.1-2.3 1.1-2.4 0-2.4 0-.8-3.4s1.7-3.4 2.3-1.2c.4 1.3.7 2.9.8 3.5m-28 7.1c.1.7-.6 1.3-1.4 1.3-1.6 0-1.9-1.7-.8-4.6.6-1.6.7-1.6 1.4.2.4 1 .8 2.5.8 3.1m27.1-3.6c0 1.5-1.8 1.9-2.3.6-.3-.8.1-1.4.9-1.4s1.4.4 1.4.8m29.6 4.5c-1.1 2.9-3 0-2.1-3.3.7-2.7.7-2.8 1.7-.6.6 1.2.8 3 .4 3.9m15.3-.4c.1 1-.6 1.8-1.4 1.8-1.6 0-1.8-1.2-.8-4.9.6-2.3.7-2.3 1.4-.5.4 1 .8 2.7.8 3.6M147 162c0 2.8-1.3 4-2.4 2.2-.7-1.2.5-5.2 1.5-5.2.5 0 .9 1.3.9 3m30.3 9.7c-.7 1.7-3 1.7-3.6 0-.2-.6.1-2.5.6-4.2l1.1-3 1.2 3c.6 1.6 1 3.5.7 4.2m27.4-3.2c.9 2.7.8 3.7-.3 4.6-2.3 1.9-3.8-.3-3-4.5.9-4.5 2-4.6 3.3-.1M193 178.7c0 .7-.4 1.3-1 1.3-.5 0-1-.4-1-.9 0-.4-1.3-1.2-3-1.7l-2.9-.9 2-3.3 2.1-3.2 1.9 3.7c1 2 1.9 4.3 1.9 5m1 3.8c0 .8-.4 1.5-1 1.5-.5 0-1-.7-1-1.5s.5-1.5 1-1.5c.6 0 1 .7 1 1.5m20-56.5c0 .5.5 1 1 1 .6 0 1-.5 1-1 0-.6-.4-1-1-1-.5 0-1 .4-1 1m2.2 5.2c.6 1.8 2.8 2.1 2.8.4 0-.9-.7-1.6-1.6-1.6s-1.4.5-1.2 1.2M63 115.7c-3.5 9.2-6.9 23.7-7.6 32.4-.5 6-1 7.9-2 7.5-.7-.3-1.6-.1-1.9.4-.4.6.3 1 1.4 1 1.9 0 2.1.6 2.1 5.4 0 6.9 1.7 19.3 3.6 26.9 1.8 7 7.5 23 8 22.4.2-.2-1.2-4.9-3.1-10.4-4.4-13.2-6.5-24.4-6.5-35.4V157h4.7c5.7 0 5.1-1.1-.8-1.4l-4.3-.2.2-5.5c.4-8.3 2.9-20.6 6.2-30.4 3.4-10 3.4-12.8 0-3.8m241.1 9.8c-.1.5.5 4.4 1.3 8.5s1.6 10.6 1.8 14.5l.3 7-5 .6-5 .6 5.4.1 5.4.2-.7 8.7c-.4 4.8-1.6 12.8-2.6 17.8-1.1 4.9-2.2 10.1-2.5 11.5-.2 1.4.4-.2 1.5-3.5 2.5-7.2 5-22 5-29.3 0-5 .1-5.2 2.8-5.3l2.7-.1-2.5-.7c-2-.5-2.6-1.4-2.8-4.1-.7-10.2-4.8-31.2-5.1-26.5m-180.5 7c-.7 1.8.3 4.7 1.5 4.3.5-.2.9-.6.9-1.1V133c0-2.3-1.5-2.7-2.4-.5m130 .1c-1 2.5-.7 3.4.9 3.4.8 0 1.5-.9 1.5-1.9 0-2.6-1.6-3.5-2.4-1.5m-126.6 7c0 .9-.8 3.8-1.7 6.5-1.7 4.8-1.7 4.9.5 7.1l2.2 2.2 2.2-2.2c2.2-2.2 2.2-2.3.5-7.1-.9-2.7-1.7-5.6-1.7-6.5s-.4-1.6-1-1.6c-.5 0-1 .7-1 1.6m2.4 11.5c-.3.5-.9.9-1.5.9-1.1 0-1.2-4.3-.2-5.4.9-.9 2.5 3.3 1.7 4.5m-88.7 1.7c-2.2 2.4-2.1 4.5.1 6.5 2.5 2.3 4.8 2.1 6.6-.4 1.6-2.3 1.2-4.7-1.2-6.7-2.2-1.7-3.6-1.5-5.5.6m5.1 2.6c.5 2.4-1 3.8-3.1 3-1.7-.6-2.3-3.5-1-4.8 1.2-1.2 3.8-.1 4.1 1.8M318 153c-1.1 1.1-2 2.6-2 3.3 0 1.8 3.2 4.7 5.1 4.7 4 0 5.5-7.1 2-9-2.6-1.3-2.8-1.3-5.1 1m4.9 1.9c1.6 2.8-1.4 5.1-3.6 2.8-1.3-1.3-1.4-1.9-.3-3.1 1.7-2.1 2.7-2 3.9.3m-66.2-1.2c-1.3 1.2-.7 2.3 1.2 2.3 2.7 0 3.3 1.3 2.1 4.4-1.1 3.1-3 3.4-3.7.6-1.2-4.4-3.9-1.6-4.9 5-.9 6.5-.7 9 1.1 11 1.1 1.2 1 2.6-.7 8-1.1 3.6-2.4 6.6-2.9 6.8s-.9 1.1-.9 2.1c0 .9-2.5 8.4-5.5 16.6-8 21.4-7.2 19.9-9.1 18-2.2-2.1-3.2-1-1.1 1.3 1.5 1.6 1.4 1.9-1.6 4.3-1.8 1.4-10.4 7.2-19.2 13s-18.4 12.6-21.3 15.2c-5.4 4.9-10.1 7.7-12.5 7.7-2.1 0-12 3.2-13.1 4.2-1.5 1.2 1.3 1 9.4-.7 8.8-1.8 9.9-2.4 17.9-9.2 3.5-3 11.6-8.8 18-13s14.9-9.8 19-12.5c6.9-4.7 10-5.3 8.6-1.7-.3.8-6 5.7-12.7 10.9-6.6 5.2-16.1 13.8-21.1 19-8.6 9-13.2 13-15.1 13-.4 0 .2-.9 1.5-2.1 2.1-1.8 2.1-2 .4-1.4-1.1.4-2.8 1-3.8 1.2-1 .3-1.6 1.1-1.4 1.7.2.7-7.3 3.1-20.2 6.4-27.7 7-45.3 12.7-49.4 16-3 2.5-9.7 9.5-17.5 18.6l-3.3 3.8-3.8-2.6c-10.4-7.2-25.7-25.9-30.9-37.9l-2.1-4.7 3.8-4.4c2.2-2.5 6.1-7.4 8.7-11 2.7-3.6 5.4-6.6 6-6.6.7 0 1.5-1.7 1.9-3.8 1.1-5.7 7.1-16.4 13-23 3-3.2 9.1-8.4 13.7-11.4 10.4-6.9 10.6-7 23.7-12.3 5.9-2.4 13.9-6.2 17.7-8.6 7.2-4.5 25.8-13.9 27.5-13.9.5 0 .9-.7.9-1.5s-.4-1.5-.9-1.5c-1.6 0-23.6 10.9-29.8 14.9-3.5 2.1-9.3 5.1-13 6.6-19.8 8-34.4 17.1-43.1 27-2.3 2.6-6.7 9.7-9.7 15.8-5.6 11-7.7 14.2-14.8 22.9-3 3.8-4.4 4.7-6.1 4.2-1.5-.3-3 .4-5.1 2.6-1.6 1.6-3.9 3-5.1 3-2.8 0-36.1 36.7-34.7 38.1.6.6 6.6-5.3 16.3-16.1l15.3-17.1 2.4 7.4c5.6 17.8 26.3 41.8 46.5 54l5.8 3.4-14.5 16.4C71.3 379 68.4 383 70.8 383c.7 0 11.2-11.7 29-32.1 2.9-3.4 3.3-4.4 3.1-9.2-.2-4.2.3-6 2-8.4 2.3-3 2.3-3.1.6-9.1l-1.7-6.1 5.2-6c6.9-7.9 10.7-10.4 22-13.9 13-4.1 37.5-10.8 48.8-13.2 10.2-2.2 15.6-4.5 18.7-8 1.8-2 20-14.4 30.7-20.9 4.9-2.9 7.6-6.4 8.4-11 .4-2 1.8-5 3-6.7 1.7-2.2 3.7-9 7.4-25 5.6-24.1 9.4-38 13.5-49.4l2.7-7.4-2.2-1.8c-2.3-1.9-4.2-2.3-5.3-1.1m1.3 11.7c0 2.3-3 8.6-4 8.6-1.1 0-1.3-2.4-.4-6.9.5-2.1 1.2-3.1 2.5-3.1 1.1 0 1.9.6 1.9 1.4m-14.5 56c-2.7 11.5-3.9 14.2-5.1 11.1-.6-1.5 6.6-23.9 7.4-23 .2.2-.8 5.6-2.3 11.9m-9.7 26.3c-.8 1.7-5.7 5.7-12.8 10.6-14 9.4-16.8 10.9-11.5 6.2 7.5-6.8 24.8-20.6 25.2-20.1.3.2-.1 1.7-.9 3.3M62 293.2c5.8 9.2 11.5 16.1 19 23.2 7.2 6.7 18.3 14.6 20.8 14.6.6 0 1.2.4 1.2.8 0 1-8.3 9.2-9.3 9.2-1.9 0-13-8.5-19.8-15.1-9.2-9.1-16.5-18.9-21.3-28.4-5.3-10.6-5.5-12.5-1.5-17.5l3.3-4.1 2.1 6c1.2 3.3 3.7 8.3 5.5 11.3m40.9 32c1.4 3.8 1.1 4.2-2.3 2.7-2.8-1.3-3.3-2.8-1.4-4.7 1.8-1.8 2.5-1.5 3.7 2m-2.6 16.8c.6 2.4-.3 3.2-2.3 2-1.1-.7-1.1-1.1-.1-2.4 1.7-2 1.8-2 2.4.4m145-181.5c-.3.9-.3 1.9.1 2.2.7.8 5.6-1.7 5.6-2.9 0-1.5-5-.8-5.7.7M43 167.8c0 12.4 6.7 36.8 14.1 51.6C62 229 68.9 239.9 71.5 242c2.3 1.8 2 1.2-3.5-7-11.3-16.7-19.7-40-22.2-61.3-1.2-9.7-2.8-13.1-2.8-5.9m276.7-3.2c-.4.4-.7 2.6-.7 4.9 0 7.1-2.9 21.4-6.5 32.2-6.9 20.7-18.4 39.2-34 54.9-20 20.2-40.8 31.2-70 37.4-6.3 1.3-7.9 1.9-5.3 1.9 5.3.1 24.9-5.2 34.6-9.3 45-19.3 77.6-63.4 83.1-112.2.9-8.2.5-11.4-1.2-9.8m-163.2 33.1c1 1.6 2.5 3.7 3.2 4.8 1.4 1.9 1.5 1.9.7-.5-.9-3.3-3.4-7-4.6-7-.6 0-.2 1.2.7 2.7M152 199c0 .5.5 1 1.1 1 .5 0 .7-.5.4-1-.3-.6-.8-1-1.1-1-.2 0-.4.4-.4 1m145.3 9.5c-1.7 4.1-2.7 7.3-2.3 7 .9-.6 6.2-13.6 5.7-14.1-.2-.2-1.7 3-3.4 7.1m-69.1 22.6c.2.7 1 1.5 1.7 1.7.8.3 1.2-.1.9-.9-.2-.7-1-1.5-1.7-1.7-.8-.3-1.2.1-.9.9m53.7 4.6c-4.6 6.1-6 8.8-2.3 4.4 3.2-3.8 6.8-9.1 6.2-9.1-.2 0-2 2.1-3.9 4.7M250 266.9c-4.3 3.2-18.9 10.2-27.4 13.1-4.4 1.6-7.6 2.9-6.9 2.9 1.9.2 18.5-5.9 24.3-9 6.4-3.2 15-8.9 13.5-8.9-.5.1-2.1.9-3.5 1.9M208 284c-2 .6-2.1.8-.5.8 1.1 0 3.1-.4 4.5-.8 2-.6 2.1-.8.5-.8-1.1 0-3.1.4-4.5.8m-106 9.9c0 1.5 7.7 5 10.8 5.1 3.3 0 1.9-1.6-3.1-3.3-2.3-.8-5-1.8-5.9-2.2-1.1-.4-1.8-.3-1.8.4m82.5 12.5c-1.7 3.2-1.8 3.6-.2 6s1.6 2.7-.8 6.2c-3.2 4.7-3.2 5.6.7 10l3.2 3.6 2.8-3.1c3.3-3.7 3.5-6.4.7-11-1.9-3.2-1.9-3.4-.2-4.7 1-.7 1.3-1.4.6-1.4-.6 0-.9-.9-.6-2.1.6-2.3-1.5-6.9-3.2-6.9-.7 0-2 1.5-3 3.4m4.5 3.2c0 1.5-.6 2.4-1.5 2.4-2.1 0-3-2.7-1.5-4.5 1.6-1.9 3-1 3 2.1m2 14c0 1.1-.9 2.9-2 3.9-4.2 3.8-6.9-3.6-3.4-9.1l1.7-2.5 1.8 2.8c1.1 1.5 1.9 3.7 1.9 4.9m-17.8-12.4c-1.8.5-3.5 1.5-3.9 2.3-.8 2.2-8.2 1.9-12-.5-1.8-1.1-3.3-1.5-3.3-1 0 2 6.5 5 10.6 5 3.6 0 4.3.3 4.8 2.5.5 1.8 1.3 2.5 3.1 2.5 1.4 0 2.5-.5 2.5-1 0-.6-.9-1-2-1-2.9 0-2.8-5.5.1-7 2.5-1.4 5.3-.5 4.6 1.5-.5 1.2-.2 1.2 1.8.3 1.4-.6 2.5-1.4 2.5-1.7 0-1.5-5.7-2.7-8.8-1.9m22.4.3c-2.7 2-1.2 3.2 1.9 1.5 2.1-1.1 2.7-1.1 4.4.4 1.6 1.4 1.8 2.9 1.2 7 0 .4-1 .6-2.1.3-2.4-.6-2.7.8-.4 1.7 2.1.8 4.4-1.1 4.4-3.5 0-1.6.8-1.9 4.3-1.9 4.2 0 10.7-3 10.7-5 0-.5-1.5-.1-3.2 1-3.8 2.3-11.3 2.7-12.5.6-.8-1.4-4.6-3.6-6-3.6-.4 0-1.7.7-2.7 1.5M71 349c-2.6 2.6-2.6 8.1-.2 10.3 2.8 2.5 8.7 2.2 10.6-.5 3.6-5.1.5-11.8-5.4-11.8-1.7 0-3.9.9-5 2m8 2c1.1 1.1 2 2.3 2 2.8 0 1.8-3.3 5.2-5 5.2s-5-3.4-5-5.2c0-1.1 3.8-4.8 5-4.8.6 0 1.9.9 3 2m-4.8 2.1c.2.7 1 1.5 1.7 1.7.8.3 1.2-.1.9-.9-.2-.7-1-1.5-1.7-1.7-.8-.3-1.2.1-.9.9"/></svg>