<!-- Icon: Trust Installation --><svg fill="#FFFFFF" xmlns="http://www.w3.org/2000/svg" width="429.333" height="608" viewBox="0 0 322 456"><path d="M210 15.8c0 3.2-.7 4.7-3.2 7.3-1.8 1.7-3.4 2.7-3.6 2-.5-1.5-4.5-1.4-6 .1-2.9 2.9.1 11.6 4.1 11.9.7 0 3.1.3 5.4.5l4.2.5.4-6.3.3-6.3.2 6.4.2 6.3 3.5-.4c1.9-.2 3.5 0 3.5.4s-3.8.8-8.5.8c-7.7 0-10.2.8-7.5 2.5 1.7 1 1.1 6.1-.9 8.7-1.1 1.3-1.9 3.3-1.8 4.3.1 1.2-.6 2.1-2.2 2.5-4.8 1.1-8 9.1-5.7 14.2.6 1.3.4 1.8-.8 1.8-1.7 0-2 1.4-1.7 6.7.3 3.6-5.2 26.4-7.9 33.3-2.7 6.8-10.8 23.3-12.2 25-.7.8-2.1 2.1-3 2.9-1.6 1.2-1.8 1-1.8-2.3 0-2 .5-3.6 1.1-3.6 1.5 0 7.9-6.5 7.9-8 0-.5-1.8-1-4-1h-4.1l.2-12.4c.1-10.5-.2-13.1-1.9-17-1.2-2.5-2.5-4.6-2.9-4.6-2 0-5.4 12-4.4 15.5.2.5.3 4.9.2 9.7l-.1 8.8h-4c-2.6 0-4 .4-4 1.3 0 1.6 6.2 7.7 7.8 7.7.7 0 1.2.4 1.2 1 0 .5-.7 1-1.5 1-.9 0-1.7 1.4-2.1 3.7-.3 2.1-1.2 4.8-2 5.9-1.2 2-1.1 2.2.8 2.7 1.2.4 2.8-.2 4.1-1.3 2-1.9 2-1.9 4.4 3.1 1.2 2.8 2.3 5.3 2.3 5.4 0 .2-1.9.7-4.3 1-9.2 1.4-17-3-21.3-11.8-2.7-5.6-3.1-8.7-1.1-8.7 1.6 0 7.7-6.2 7.7-7.8 0-.7-1.4-1.2-3.4-1.2h-3.4l-.4-7.1c-.3-6.7-.1-7.3 2.4-9.4 1.5-1.3 3.7-4.4 5-6.9l2.2-4.6-2.3-4.5c-2.8-5.7-4.2-6.3-8.8-3.9-4.3 2.3-6.3 5.1-7.8 11-1 4-2 5.1-10.6 11.4-12.2 9.1-14.2 9.6-24.5 6.7-6.9-2-7.9-2.6-8.2-4.7-.2-2.1.2-2.5 2.5-2.7 3.6-.2 5.9-3.2 6.7-8.7.4-2.5 1.1-4.8 1.7-5.1.5-.4.3-1.7-.5-3.3-.7-1.5-1.6-4.6-2-7-.6-3.9-.4-4.3 1.9-5.4 3.2-1.4 2.9-4.2-.6-4.6-1.5-.2-3.2-1.4-4.3-3.2-1.8-3.1-8.3-7.3-12.8-8.4-4.3-1-11.3 1.3-15.6 5-5.5 4.7-7.4 9.1-7.1 16.7.1 3.4 0 6.9-.2 7.7-.2.9.4 1.6 1.8 1.8 1.2.2 2.6 1.5 3.3 3.2.6 1.5 2.2 3.8 3.6 5.1q4.2 3.9.9 3.9c-.9 0-1.9.9-2.3 1.9-.4 1.1-2.3 3-4.2 4.3-7.9 5.2-9.6 14.9-6.4 35.3 1.8 11.7 2.1 30.1.5 36.5-.6 2.5-1.1 6.4-1.1 8.7v4.3H37.1c-13.1 0-14.2.1-16.6 2.2-1.4 1.3-2.9 3.9-3.3 5.8s-.7 27.2-.7 56.2V319l2.6 2.5c2.3 2.3 4.1 2.8 16.5 4.4 12.8 1.6 13.9 1.9 14.2 3.8.2 1.6 2.7 3.5 8.5 6.7 4.5 2.4 12.6 6.9 18 9.9l9.7 5.4-13.6 7.9c-22.7 13.2-22.4 13-22.4 16.1 0 1.6.4 3.3.8 4C51.6 381 83.5 399 85 399c3 0-.7 2.6-15.6 11-9.2 5.2-17.2 10.2-17.8 11.2-.9 1.5-2.5 1.8-9.8 1.8-8.9 0-11.8 1.1-11.8 4.6 0 .8-.4 1.4-.8 1.4-2 0-5.2 4.3-5.2 7 0 3-.1 3-5.5 3-4.2 0-5.5.3-5.5 1.5 0 1.3 10.5 1.5 91.2 1.3 71.8-.2 91.2-.6 91.6-1.6.3-.9-1.3-1.2-5.6-1.2h-6l-.7-3.8c-.6-3.9-4.5-8.6-9.2-11-1.2-.7-5.5-1.2-9.7-1.2-6.4 0-7.9-.3-10-2.3-1.3-1.2-9.2-6-17.5-10.6s-15.4-8.7-15.6-9.2c-.3-.4 5.9-4.2 13.7-8.5 21.8-11.8 22-11.9 21.6-15.7-.4-3.7-2.5-5.3-23.2-16.7-7.5-4.1-13.6-7.7-13.6-8s7.5-4.5 16.8-9.4c20.6-11 21.2-11.3 21.2-13 0-1.5 5-2.1 24-3.2 13-.7 17.6-1.7 19-4.4 1.4-2.5 1.4-103.5 0-106-1.2-2.2-6.3-4.2-25.5-10l-13.9-4.2-31.1-.3-31-.3-.8-5.8c-.4-3.3-.7-8.3-.6-11.2 0-2.8.1-6.7.1-8.5 0-1.7-.3-9.3-.7-16.8l-.8-13.7 7.4-.7c7.8-.7 9.8-1.6 15.9-7.1 3.2-3 3.9-3.2 5-1.9.7.8 1.8 1.5 2.4 1.5 1.8 0 4.9 10.9 3.5 12.6-.6.7-.8 1.7-.5 2.2.3.6-.1 2.9-.9 5.2-2 5.8-1.9 8.3.6 10.6 2.1 1.9 2.1 1.8 4-.5 2.3-2.8 2.4-4.1.4-8.8-.8-1.9-1.5-4.6-1.5-6 0-2.1.5-1.8 5.4 3.1 4 4.1 6.6 5.9 10 6.8l4.6 1.2-.4 5.1c-.2 2.7-1.1 7.2-2 10-1.5 4.7-1.5 5.2.2 7.4 2.5 3.4 3.4 3.4 5.6.4 1.7-2.3 1.8-3 .6-7.2-.7-2.5-1.2-6.1-1.2-7.9 0-1.7-.3-3.2-.8-3.2-.4 0-.6-.8-.3-1.8.3-1.2 2.1-2.1 5.6-2.9 2.9-.6 6.1-1.4 7.2-1.7s2.6-.2 3.4.3c1.1.7 1 1.5-.4 4.4-.9 2-1.4 4-1.1 4.5s-.3 3.5-1.4 6.7l-1.9 5.7 2.1 2.9c2.7 3.6 3.2 3.6 5.7 0 2-2.8 2-3 .3-8.3-2.1-6.2-1.8-13.4.5-14.2.9-.4 2.5.4 3.9 1.9 1.3 1.4 2.8 2.5 3.4 2.5.5 0 1 1.1 1 2.4q0 3.6 4.8 3.6c1.2 0 1.1-.5-.8-2.5-1.3-1.4-1.8-2.5-1.2-2.5q2.4 0-.3-3.6c-1.2-1.5-1.6-1.6-2.3-.6-.7 1.1-1.2 1-2.6-.4-1.7-1.6-1.7-1.8.1-2.7 5.8-3.1 10.9-10 15.1-20.8 2.4-6 3-6.8 4.1-5.5 1.5 1.8.5 6.9-4 20.5-2.8 8.5-5.8 13.6-4.5 7.6 1.1-5.2 1.1-5.8-.1-6.2-1-.4-1.3 1.9-1.3 9.4 0 5.4-.4 10.5-1 11.3-.5.9-.5 1.9.2 2.7.8 1 .3 3.6-1.8 9.8l-2.8 8.4 2.9 3.1c1.6 1.6 3.4 3 3.9 3 .6 0 2.3-1.6 3.9-3.5l2.8-3.5-3-7.7c-2.2-5.5-2.7-8-2-8.9.6-.7.8-2.6.4-4.2-.5-2.6-.3-3 1.9-3.6 4-1 4.9-3.8 3.5-10.2-1.1-4.7-1-6.2.3-10.2.9-2.6 2.2-7.2 2.9-10.2 1.2-5.5 2.4-8 3.9-8 .5 0 .6.9.3 2-.4 1.3.1 2.6 1.2 3.4 1.6 1.1 1.7 2.4 1.3 9.7-.4 4.6-1.3 10.6-2.3 13.2-1.7 5-1.3 7.6 2.1 15.2.7 1.6 1.4 4.1 1.6 5.4.4 3.6 2.8 3.9 2.8.4 0-1.6.4-3.3 1-3.9.5-.5 1.8-3.4 2.8-6.4 1.9-5.3 1.9-5.7.1-11-1-3-1.9-9.2-2.1-13.7-.3-7.1 0-8.4 1.6-9.6 1.2-.9 1.7-2.1 1.4-3.5-.4-1.4-.2-1.9.7-1.5.7.2 1.9 2.8 2.5 5.6 1.7 7.1 3.9 13.9 5.2 15.4.8 1 .6 3-.6 7.4-1.6 5.5-1.6 6.2-.2 8.5.9 1.3 2.6 2.6 3.9 2.9 1.9.5 2.2 1.2 2.1 5.3 0 2.6-1.1 8-2.4 12l-2.4 7.3 3.2 3.1 3.2 3.2 3-2.9c3.6-3.5 3.7-4.5.5-13.2-1.8-5-2.1-7.1-1.3-8 .8-1 .8-2.1-.1-4-.9-2.1-.9-2.8.1-3.4.9-.6.9-1.3 0-3.1-.6-1.3-1.3-4.8-1.4-7.8-.2-3.3-.7-5.3-1.3-5-.5.3-.9 1.8-.7 3.5l.2 3-1.5-2.5c-.8-1.5-1.2-3.6-.9-5.3.4-1.9.1-2.9-1-3.3-.9-.3-2.3-3.2-3.2-6.3-.8-3.1-2-6.7-2.5-8.1-.8-1.9-.7-2.7.7-3.7 1.2-.9 1.5-2 1.1-4.3-1-4.5.1-3.6 1.3 1.2.6 2.4 1.9 6.1 2.9 8.3s2.1 5.2 2.5 6.8c.3 1.5 3.5 5.6 6.9 9.1 6.1 6.2 6.2 6.5 4.6 8.5-2.2 2.7-3.2 2.7-2.4.1.9-2.8-.9-2.5-2.9.5s-2.1 4.1-.1 2.5c1.2-1 1.6-.9 2.2.5.4 1.2 0 2.3-1.2 3.1-1 .8-1.6 1.7-1.2 2 1 1 3.7-.4 4.4-2.3.3-1 1.2-2.5 1.8-3.3.7-.8 1.5-2.3 1.6-3.4.3-1.5 1.4-1.8 6.4-1.9l6-.1-.1 6.4c0 3.6-.7 8.6-1.4 11.2-1.3 4.3-1.2 4.9.5 6.8 2.4 2.7 4.1 2.5 6.1-.6 1.6-2.4 1.6-2.9-.3-8.3-1.4-4.3-1.7-6.3-.9-8 .6-1.5.6-2.5-.1-2.9-.5-.4-1.3-2-1.7-3.6-.6-2.5-.5-2.8 1.1-2.1 3.4 1.4 10.7 2.5 12.6 1.9 1.8-.6 1.9-.3 1.3 2.6-.3 1.8-.2 3.8.4 4.5.7.8.2 3.1-1.4 7.3l-2.4 6 2.8 2.7 2.7 2.6 2.2-2.7c2.6-3.3 2.6-3.2.1-9.5-1.3-3.4-1.6-5.7-1-6.8.5-1 .5-2.3-.1-3.2-1.6-2.6-1-3.6 3.3-4.8 2.8-.9 6.2-3.3 10.4-7.5 7.2-7.2 8.6-6.5 5.2 2.8-1.9 5.2-2 5.7-.4 8.1 2 3.1 2.7 3.1 5.4.2l2.2-2.3-1.9-5.8c-1-3.2-1.7-6.6-1.4-7.7s-.1-2.1-1-2.5c-1.3-.5-1.3-1.1.1-5.5.9-2.7 2.1-4.9 2.6-4.9 1.3 0 7.6-6.7 7.6-8 0-.6-1.8-1-4-1h-4l-.2-8.3c0-4.5 0-9.5.1-11.1.3-2.8-2.3-11.2-3.9-13-.5-.4-1.8 1.3-2.9 3.9-1.7 4-2.1 6.8-2.1 16.6V128h-3.9c-2.2 0-4.2.4-4.5.9s1.4 2.7 3.9 5c5 4.6 5.4 6.4 2.6 12-4.1 7.9-13.2 13-21 11.7-4.9-.8-5.4-1.7-3-6.6l2.1-4.3 2.2 2.7c2.1 2.7 2.2 2.8 3.9.8 1.8-1.9 1.8-2.3.1-8.1-.9-3.4-2-6.1-2.4-6.1s-1 1.8-1.4 3.9c-.3 2.2-1.1 4.3-1.8 4.7-.8.5-.9.2-.5-1 .4-1 .7-3.3.7-5.2 0-2.3.6-3.7 1.6-4.1 1.8-.7 8.3-7.4 8.4-8.6 0-.4-1.8-.7-4-.7h-4l-.2-9.3c-.1-5 0-10.8.1-12.7.2-3.3-3.7-15-5-15-.4 0-1.6 2.4-2.7 5.2-1.7 4.3-2.1 7.7-2.2 17.7 0 6.8-.3 12.8-.6 13.3-.4.6-2 .8-3.6.6-1.6-.3-3.1-.1-3.4.4-.7 1.1 5.3 8.1 7.8 9 1.9.8 2.1 2.9.9 8.3l-.7 3-1.8-2.8c-1.1-1.6-2.5-2.6-3.2-2.3-6.2 2.4-24.7-45.7-24.1-62.7 0-2.1-.3-4.1-.9-4.5-.5-.4-.9-3-.9-5.9 0-4.1-.5-5.7-2.4-7.7-1.4-1.4-3.3-2.6-4.4-2.6-1.5 0-1.8-.5-1.5-2.5.4-1.7-.1-2.9-1.8-4.2-2.5-1.9-3.4-7.6-1.4-8.8.6-.3 1-1.2 1-2 0-.7 1.4-2.7 3-4.3 3.5-3.5 3.9-7.1 1-9.7-1.4-1.2-2.8-1.6-4.9-1.2-2.5.5-3.3.2-5-2.1-1.1-1.5-2.1-4.3-2.3-6.2-.5-5-2.8-5.1-2.8-.2m3.1 7.2c2.8 1.5 2.3 2.7-.9 2.2-3-.4-6.2 2.1-4.2 3.3 1.2.8 1.4 6.5.1 6.5-1.1 0-2.1-2.5-2.1-5.2 0-1.6 3.7-7.5 4.8-7.7.2-.1 1.2.4 2.3.9m-9.5 7.6c1.6 3.9 1.8 5.7.3 3.1-.5-.9-1.4-1.7-1.9-1.7s-.7.8-.3 1.7c.6 1.6.4 1.6-1.5-.1-2.4-2.1-2.9-6.2-.9-6.9 1.8-.7 2.8.2 4.3 3.9m20.4-3.1c1.3 1.6.4 5.9-1.1 4.9-.6-.3-1.9.2-3 1.2-1.9 1.7-1.9 1.6-.8-1.7.6-1.9 1.2-4 1.5-4.7.5-1.6 1.9-1.5 3.4.3m-6.7 3.6c-.3 1-1.1 2.4-1.9 3-1.2.9-1.4.5-1.4-2.4 0-1.9.6-3.7 1.3-4 1.6-.5 2.6 1.1 2 3.4m-.3 10.8c0 1-9.8.6-10.8-.4-.3-.3 2-.5 5.1-.5 3.2 0 5.7.4 5.7.9m-6 4.1c0-1 .3-1.1 1.1-.3s.8 1.6 0 3c-.6 1.1-1.1 1.3-1.1.5 0-2.3-2.3-.8-2.7 1.8-.4 2.9-2.1 5-3.9 5-2.1 0-1.7-3.4.6-5.5 1.2-1 1.8-2.5 1.5-3.3-.9-2.4.6-3.4 2.6-1.6 1.4 1.3 1.9 1.4 1.9.4m6 .9c0 1 .9 3 2 4.4s2 3 2 3.6c0 2-3.5 1.2-4.9-1.2-1.9-2.9-2.1-8.7-.4-8.7.7 0 1.3.8 1.3 1.9m-2 9.2c0 .6-.4.7-1 .4-.5-.3-1-1.1-1-1.6 0-.6.5-.7 1-.4.6.3 1 1.1 1 1.6m-5-.7c0 .3-.4.8-1 1.1-.5.3-1 .1-1-.4 0-.6.5-1.1 1-1.1.6 0 1 .2 1 .4m-4.5 12.1c.9 5.5-3 35-5.9 45.2-1.9 6.7-3.1 9-6.2 12.1l-3.9 3.7 1.8-6c1-3.3 2.3-6.8 2.8-7.7 1.1-2.2 1.2-8.8 0-8.8-.4 0-1.1 2-1.4 4.5-.9 6-3.8 14.9-7 21.1-2.7 5-3.6 4.8-1.6-.3 1.9-4.6 5.9-22.7 5.9-26.2 0-4.1-2.1 1.5-4 10.4-1.2 5.5-3 12.6-4.1 15.8-1 3.1-1.9 6.5-1.9 7.5 0 2.6-7.7 14.2-9.5 14.2-1.9 0-5-6.2-4.2-8.4.8-2.1 2.7-2.1 2.7 0 0 .9.6 1.4 1.3 1.1 1.3-.5 1.3-.9.2-4.2q-.75-2.1.3-.6c.7 1 1.3.6 2.6-1.9.9-1.8 1.6-3.8 1.6-4.5 0-.6 1.7-4.5 3.7-8.6s5.2-11.7 7-16.9 3.3-8.7 3.3-7.8c0 1 .5 1.8 1 1.8 1.3 0 1.3-4.7.1-5.2-.6-.2-.4-2.8.5-6.3.7-3.3 1.4-7.6 1.4-9.6 0-2.4.5-3.9 1.5-4.3 1.3-.4 1.4-1.8 1-6.8-.7-7.3.8-11.1 4.4-11.6 2-.3 2.1-.1 1.2 1.7-.6 1.1-1.1 4.4-1.1 7.5 0 3-.5 5.8-1.1 6.1-.5.4-.8 1.9-.5 3.3.5 2.4-.9 13.3-3 22.9-.4 2.1-.3 3.3.4 3.3 1.2 0 2.4-3 2.8-7 .1-1.4.8-5.4 1.4-9s1.5-11.2 2-17 1-11.2 1-12c.2-2.3 2.8 4 3.5 8.5m3.5-3.1c0 2.4-.3 2.7-1 1.6-.5-.8-1-2.5-1-3.8 0-1.2-.4-2.2-1-2.2-.5 0-1-.5-1-1.2 0-.6.9-.3 2 .7 1.2 1.1 2 3.1 2 4.9m3.4 7.6c.3 9 .2 12.2-.4 9.5-.9-4.1-1.4-24.2-.5-23.4.2.3.6 6.5.9 13.9m3.9-10.8c-.8 4.5-2.3 5.9-2.3 2.2 0-2.5 1.5-5.4 2.7-5.4.1 0 0 1.5-.4 3.2m6.2 1.5c.3 2.7.6 6.8.5 9.3 0 4.6.7 10.3 1.7 13 .3.8.6 2.2.7 3 .7 7.8 2 15 2.7 15 1.3 0 1.2-1.7-1-17.5-3.7-27-3.7-28.9.3-25 2 2.1 2.8 6.9 2.2 13.2-.3 2.9-.2 5.3.3 5.3 1 0 3.3 13.4 3.2 18.3-.1 2.8.5 4.7 2.4 6.8 1.4 1.7 2.5 3.6 2.5 4.3 0 2.1 8.9 23.8 10.5 25.6.8.9 1.5 2.2 1.5 2.9 0 1.7 6.6 7.5 9.3 8.1 2.8.7 3.3 4 1 6.8l-1.8 2.2-5.9-5.7c-9.7-9.5-11.2-12.8-15.1-34.2-.8-4.7-1.7-8.7-2-8.9-1.2-1.2-.3 7.6 1.5 16 2.4 10.4 2.2 14.5-.2 7.8-2.7-7.4-6.8-21-6.8-22.6 0-.8-.5-1.4-1.1-1.4-1.4 0-.3 6.9 1.8 11 .8 1.6 1.7 4.6 2 6.6l.6 3.7-2.6-1.9c-1.5-1-3-3-3.3-4.4s-1.4-5-2.4-8c-3.2-9.1-4.8-16.9-6.1-28.5-1.1-10.7-.9-22.1.5-24.4 1.4-2.2 2.4-1 3.1 3.6M81.3 71.4c3 1.2 8.7 6.8 8.7 8.5 0 .4-2.6 1.9-5.7 3.5-4.4 2.2-5.4 3-4.2 3.8 1.1.8 1 .9-.5.4-1-.4-2.5-.1-3.3.6C74.8 89.4 60.2 96 59 96c-.8 0-.9-1.1-1.1-8.4-.2-6 1.8-10.2 6.4-13.7 5.3-3.9 11.5-4.8 17-2.5m134.4 4.3c-.3 1-.5.4-.5-1.2 0-1.7.2-2.4.5-1.8.2.7.2 2.1 0 3M95 81.5c0 .6-8.7 4.5-9.8 4.5-.9-.1 8-4.9 9.1-5 .4 0 .7.2.7.5m114.5 20.9c-.4 10.2-1.1 18.6-1.6 18.6s-.9.9-.9 2c0 2.3-1.3 2.6-2.8.7-.7-.9-.6-3.3.4-8.2 1.4-6.4 4.4-28 4.4-31.4 0-.8.3-1.2.6-.8.3.3.3 8.9-.1 19.1M91 89.7c.1 1.6.7 3.9 1.4 5.2.8 1.5 1 3.1.5 4-.4.9-1.1 3.7-1.4 6.3-.5 4-1 4.9-3.1 5.4-1.4.4-3.7.1-5.1-.5-2.2-1-2.4-.9-1.9.4.3.8.9 2.2 1.2 3.1.5 1.1.2 1.5-.7 1.2-11.7-3.3-13.9-4.2-13.9-5.9 0-1 .9-2.1 2.1-2.4 1.1-.4 2.4-1.8 3-3.2.8-2 1.2-2.3 2.4-1.3.8.6 2 .8 2.6.4.9-.5.8-1-.3-1.8-.8-.6-1.7-1.9-2.1-2.9-.5-1.5-.2-1.7 2-1.5 2.1.3 2.8-.3 3.7-3.1.8-2.1 2.3-3.8 4.1-4.6 4.5-2 5.5-1.8 5.5 1.2M217.3 105c2.8 15.7 2.9 17.6 1.3 18.9-1.1 1-1.7.6-3-2s-1.6-6.4-1.5-19.3c.1-11.9.4-14.8.9-11.1.5 2.7 1.5 8.8 2.3 13.5m.4-12.8c-.3.7-.5.2-.5-1.2s.2-1.9.5-1.3c.2.7.2 1.9 0 2.5M79 92.5c0 1.7-.2 1.8-2.5.9-1.3-.5-1.4-.8-.3-1.5 1.9-1.3 2.8-1.1 2.8.6m61.3 1.2c-.7.3-2.3 1.3-3.5 2.3-2.8 2.4-.7 2.6 2.7.4 2.8-1.9 3.4-.8.8 1.3-1.6 1.2-1.5 1.3 1.2.7 2.3-.4 2.7-.3 1.5.5-1 .8-1.2 1.3-.4 1.8 1.4 1-.6 6.1-3.6 8.8-2.5 2.3-4.7 1.4-6.8-2.7-1.8-3.8.4-9.6 4.7-12.5 1.9-1.3 3.7-2 4-1.7.3.4 0 .9-.6 1.1m-67.6 1.1c-1 1-1.7 3.3-1.7 5.1 0 2.4-.6 3.4-2.6 4.3-2.4 1.1-2.9 1-5-1.7-1.3-1.7-2.2-3.4-2.1-4 .3-.9 10.2-5.4 12.1-5.5.5 0 .2.8-.7 1.8m196.4 3.1c.8 2.8.8 4.4.1 5.7-.7 1.2-1.2 1.4-1.2.5 0-1-.3-1.1-1.4-.2-2.2 1.8-3-1.9-1.5-6.8 1.4-4.7 2.4-4.5 4 .8M164 104.2c0 1.5-.4 3-1 3.3-.5.3-1 .2-1-.4s-.7-.8-1.5-.5c-1.9.8-2.1-4.3-.3-8.2l1.2-2.7 1.3 2.9c.7 1.6 1.2 4.1 1.3 5.6m-90.3-5c-.3.8-.6.5-.6-.6-.1-1.1.2-1.7.5-1.3.3.3.4 1.2.1 1.9m146 4c-.3.7-.5.2-.5-1.2s.2-1.9.5-1.3c.2.7.2 1.9 0 2.5m80.3 4.4c0 1.6-.6 2.1-2.5 2.1-2.8 0-3.3-2.5-1.4-7.4l1.1-2.8 1.4 3c.7 1.6 1.3 4 1.4 5.1m-75 12.6c0 1-.6 1.8-1.4 1.8-1.6 0-2.2-2.4-3.1-11.5l-.6-6 2.5 7c1.4 3.8 2.5 7.8 2.6 8.7m-13.3-4c-.2 1.8-.4.6-.4-2.7s.2-4.8.4-3.3.2 4.2 0 6m57.3.4c0 8.3-.1 8.5-2.2 8.2s-2.3-.9-2.6-8.6c-.3-8.2-.3-8.2 2.3-8.2 2.5 0 2.5.1 2.5 8.6m-136.6-4.8c2.3 2.5 2.5 3.1 1.2 4.1-1.1 1-1.8.6-3.6-1.9-1.2-1.6-1.8-3.4-1.5-4 .8-1.3.8-1.4 3.9 1.8m31.6 6.8c0 7.2-.1 7.4-2.5 7.4s-2.5-.2-2.5-7.4c0-6.3.3-7.5 1.8-7.9 2.9-.6 3.2.1 3.2 7.9m-33.7-1.3c1.9 1.9 1.8 2.4-2.5 7.9-2.1 2.7-3.3 3.5-5 3-1.8-.4-2-.2-1.6 1.5.8 2.9-6.4 9.8-11.7 11.2-2.2.6-9.9 1.1-17.2 1.1-12.5 0-13.3-.1-14.7-2.2q-2.85-4.05-.3-8.4c4.1-7.1 4.1-7 .8-3.9-4.5 4.4-5.1 9.2-1.6 13.3 1.8 2.2 3.6 3.2 5.4 3.2 1.6 0 4.8.3 7.3.6l4.5.6.7 12c.4 6.6.9 14.1 1.3 16.6l.6 4.5-3.5-.6c-2-.3-5.3.1-7.4.8-2.2.8-5.9 1.4-8.4 1.4-4.3.1-19.6-3.2-20.8-4.3-.3-.4-.4-3.2-.3-6.4s-.5-10.1-1.4-15.3c-2-11.4-2.3-24.6-.5-27.9.7-1.4 2.4-3.7 3.8-5.3 2.2-2.3 3.4-2.7 7.7-2.7 2.8 0 5.6.5 6.3 1.2s3.6 1.1 7.2.9c3.7-.1 6 .2 6 .8s.9 1.1 2 1.1 5.2.9 9.1 1.9c3.8 1.1 7.6 1.8 8.4 1.5.7-.3 1.8.4 2.5 1.5.6 1.2 1.5 2.1 2.1 2.1s.5-.8-.2-2.2c-1-1.9-.8-2.4 1.7-4.2 1.6-1.2 5.6-4.2 8.9-6.7 5.9-4.6 6-4.6 7.5-2.5.8 1.1 2.3 2.9 3.3 3.9m72.2-1.6c-.4 2.7-1.1 5.2-1.7 5.8-.7.7-.8.1-.4-1.9.4-1.5 1-4.1 1.3-5.7.9-4.7 1.6-3.3.8 1.8m97.3 5c.3 7.2.3 7.3-2.3 7.3-2.5 0-2.5-.1-2.5-7.6 0-7.2.1-7.5 2.3-7.2 2 .3 2.2.9 2.5 7.5m-223.3-5.3c1.9.8 3.5 1.7 3.5 1.9 0 .6-15.1-2.1-15.8-2.8-1.2-1.2 9.1-.4 12.3.9M135 124c0 3.6-.2 4-2.6 4h-2.5l2.2-4c1.3-2.2 2.4-4 2.6-4s.3 1.8.3 4m78-.8c0 .6.6 1.9 1.4 2.7 2.1 2.5.2 8.3-2.6 7.9-3.2-.5-4.4-6-2.1-9.3 1.9-2.6 3.3-3.2 3.3-1.3m16.2 2.5c.9.5 7.4 10.4 7.9 12 .2.7 3.9 5.2 8.1 10.2 5.9 6.8 7.4 9.1 6.2 9.5-3.7 1.4-12.9-5.8-15.7-12.3-.6-1.4-1.5-2.8-1.8-3.1-.4-.3-2-3.7-3.6-7.5-1.8-4.4-3.8-7.4-5.1-8-3.1-1.4-2.7-2.7.6-1.9 1.5.4 3 .9 3.4 1.1m-29.7.8c-2.2.8-4 1.5-4.1 1.5 0 0-.6 1.9-1.3 4.2-3.3 11.1-13.2 25.8-17.5 25.8-2.7 0-2.4-1.4 1.4-5.9 2.1-2.5 6-8.4 8.5-13.1 6.6-11.9 8.6-13.8 14.5-13.9 2 0 1.6.3-1.5 1.4m21.1 0c-1.1.8-2.2 1.2-2.5.9-.6-.6 1.9-2.4 3.4-2.4.6.1.1.7-.9 1.5m53.2 3.2c-3.6 3.6-10.1 3.5-13.8-.2l-2.5-2.5h19zm-105.9.8c-3.4 3.5-9.6 3.8-12.7.7-1.2-1.2-2.2-2.4-2.2-2.7s3.9-.5 8.7-.5h8.8zm34.9-1.3c1 1 1.5 1 2.1 0s1-.8 1.4.7c.3 1.5-.1 2.5-1.5 3.2-2.8 1.5-4.8.4-4.8-2.6 0-2.7.9-3.2 2.8-1.3m19.9 1.3c.8 2.2-.2 2.8-3.2 2.1-3.9-1-3-2.8 1.8-3.5.4 0 1 .6 1.4 1.4m-87.1.5c5.3 0 5.4 0 3.7 2-2 2.3-9 2.8-12.4.9-1.7-.8-1.8-1.3-.8-2.5.7-.8 1.9-1.2 2.6-.9.8.3 3.9.5 6.9.5m168.3 2.1c-3.1 3.1-10.1 3.1-12.9.1l-2-2.1 8.2-.3c4.6-.2 8.5-.2 8.6-.1.2.1-.6 1.1-1.9 2.4m-35.9 5.3c0 5.6-3.2 13.7-7 17.7-4 4.2-7.4 5.4-12.3 4.5-3.6-.7-11-6.4-12.9-9.9-.6-1.2.9-.1 3.4 2.5 6.2 6.3 11.2 7.8 16.9 5.2 3.4-1.5 4.7-2.9 6.6-7.1 1.4-2.9 2.7-7.8 3-10.8.6-6 2.3-7.6 2.3-2.1m-105 2.4c0 7.4 4.3 15.1 10 17.9 2.4 1.3 3.9 2.3 3.2 2.3-3.7 0-9.3-4.3-11.7-9-2.8-5.5-4.5-16-2.6-16 .7 0 1.1 1.9 1.1 4.8m21.6-2.1c-.8 1.6-2.2 3.7-3.1 4.8-1.3 1.6-1.3 1.4.2-1.5 1-1.9 2.2-4.1 2.7-4.8 1.5-2.2 1.7-1.3.2 1.5m30.9-1.7c.9 1.5-3.7 2.9-5.8 1.8-1-.5-1.5-1.3-1.2-1.9.8-1.2 6.2-1.2 7 .1m26.9 3.2 2.7 4.3-3-3.5c-2.7-3.2-3.8-5-2.7-5 .2 0 1.5 1.9 3 4.2M134 140c0 6.3 8.5 16.7 15.7 19.1 3.5 1.1 11.5.9 14.6-.5 1-.5 1.7-.4 1.7.3 0 .5-1.8 1.5-4.1 2.1-7.8 2.1-18.9-2.1-24.2-9.2-4.9-6.5-7.4-13.8-4.7-13.8.6 0 1 .9 1 2m25 1.1c0 2.8-2.5 6.8-3.6 5.7-.6-.7.6-3.8 1.6-3.8.4 0 .5-1.1.2-2.5-.2-1.5 0-2.5.7-2.5.6 0 1.1 1.4 1.1 3.1m140-2.6c0 .3-.9 2.5-2.1 4.9-2.3 5.1-8.1 12.1-11.2 13.8-1.3.6-.7-.4 1.6-2.6 4.3-4.3 7.7-10.4 7.7-14.1 0-1.8.5-2.5 2-2.5 1.1 0 2 .2 2 .5m-84.6 24.9c1.6 4.7 1.6 5.2-.1 9.9l-1.8 5.1-.6-4c-.6-3.5-.7-3.6-1.4-1.5-.7 2.2-.8 2.1-2-1.3-1.1-3.2-1-4.3.6-8.6 1.2-3.1 2-7.9 2.1-12.8l.1-7.7.7 8c.3 4.4 1.4 10.2 2.4 12.9m60.1-18.4c.7 2.3-.2 4.3-1.6 3.5-1.2-.8-1.2-5.5 0-5.5.5 0 1.2.9 1.6 2m-18.9 9.2c.3.5.4 1.1.2 1.3-.2.3-2.9-2.1-5.9-5.2l-5.4-5.7 5.2 4.3c2.9 2.4 5.6 4.7 5.9 5.3m-78.6-3.9c0 .2-1.5 1.6-3.2 3.3l-3.3 2.9 2.9-3.3c2.8-3 3.6-3.7 3.6-2.9m10 3c0 .2-1.2 1.4-2.7 2.8l-2.8 2.4 2.4-2.8c2.3-2.5 3.1-3.2 3.1-2.4m113.8 11.1c-1 1.9-1.1 1.9-2.4.2-.9-1.4-1-2.5-.1-4.9l1.1-3.2 1.2 3c.8 2.1.9 3.6.2 4.9m-167.4-2.9c.3 1.1.1 2.7-.4 3.5-1.6 2.5-3.3-.3-2.5-4 .7-3.3 1.8-3.1 2.9.5m47.1-2.5c-.3.5-1.2 1-1.8 1-.7 0-.6-.4.3-1 1.9-1.2 2.3-1.2 1.5 0m89 1.8c-.7.7-7.5-.8-7.5-1.7 0-.5 1.8-.3 4 .2 2.2.6 3.7 1.3 3.5 1.5m-37.5 9.4c0 2.3-1.8 3.2-3.5 1.8-1.5-1.3-2.1-8.1-.8-9.4.8-.8 4.2 5.2 4.3 7.6m-34.5-4.2c.5 2.5.2 3.4-1.7 4.9-2.9 2.4-3.5.8-1.8-4.4 1.4-4.3 2.6-4.5 3.5-.5m-25.3 19.2c-2.8 2.8-4.1-2-1.9-6.9l1.2-2.7.9 4.2c.6 2.9.6 4.6-.2 5.4m88.7 0c-1 1.9-1.2 1.9-2.7.5-1.3-1.4-1.4-2.2-.2-5.9l1.3-4.3 1.3 3.8c1 2.9 1.1 4.4.3 5.9m17-.6c-2.7 3.3-4.5-.3-2.8-5.5l1.2-3.6 1.4 3.9c1 2.9 1 4.2.2 5.2m-122.4-4c.7 4.2-.6 6.4-2.9 4.5-1.1-.9-1.2-1.9-.3-4.6 1.3-4.5 2.3-4.4 3.2.1m36.2-1.4c-.3.8-.6.5-.6-.6-.1-1.1.2-1.7.5-1.3.3.3.4 1.2.1 1.9M59 179c.8.5 1.1 1.2.8 1.6-1 .9-3.8-.3-3.8-1.6 0-1.2 1-1.3 3 0m36.3 2c-.4.5-3 1.2-5.8 1.6-4.5.6-4.9.5-3.7-.9.8-.9 3-1.7 5-1.9 4.2-.4 5.8.1 4.5 1.2m-19.9.9c7.1.6 8.5.9 6.3 1.5-4.1 1.2-18.9-.6-19.5-2.3-.3-1 .2-1.1 1.8-.6 1.2.4 6.4 1 11.4 1.4m-9.6 3.2c6.1 1.1 21.7.7 27-.7 1.9-.5 2.2-.3 2.2 2.1 0 2.3-.3 2.5-1.4 1.6-.9-.8-1.6-.8-2-.2-.4.5.3 1.6 1.5 2.4 1.7 1.3 3.8 6.6 3.9 10.2 0 1.3-42.6 2-43.3.8-.5-.9.9-13.5 1.9-16.5.3-1.2 1.2-1.7 2.2-1.4.9.3 4.5 1 8 1.7m169.3 15.3-2.2 2.1-1.8-2.4c-1.9-2.5-1.7-3.9 1.5-12.1.4-.9 1.4.7 2.6 4.4l2 5.8zm-41.6-7.3c1.7 5 1.7 5.2-.4 7.2-2.1 2.1-2.1 2.1-3.6.2-.9-1.3-1.2-3.1-.9-5 .8-3.7 2.2-7.5 2.8-7.5.2 0 1.2 2.3 2.1 5.1M180 209.9c9.1 2.9 17.1 5.8 17.7 6.5 1.7 1.5 2.6 28.7 1.4 40.6-.7 7-.8 4.4-1-14.6-.1-26.1.2-25.2-8.3-27.3-5.7-1.3-7.1-1.4-6.3-.2.3.5 3 1.7 6 2.6l5.5 1.6v22.5c0 17.8-.3 22.5-1.3 22.1-.7-.2-7.4-1.5-15-2.8l-13.7-2.4v-24.7c0-24.3 0-24.7-2.2-26.2-1.9-1.4-10.7-1.6-69.5-1.6-64.2 0-67.4.1-69 1.8-1 1-2.3 2.7-2.9 3.8-1.7 2.9-2.8 1-1.2-2.2 2.6-5.6.7-5.4 74.8-5.1l68.5.3zM101.2 222c3.3 16.6 4.3 25.5 3.4 31.4l-.7 4.6H85.3l-.6-5.8c-.3-3.5-2.6-10.9-6-19.6-4.8-12-6.1-14.4-9.9-17.7-4.7-4.2-5.8-4.6-5.8-2.5 0 .8 1.8 2.7 4 4.3 3.3 2.3 4.4 4.1 6.8 10.7 2.7 7.4 2.8 8.2 1.7 13.5-.7 3.1-1.8 8.2-2.4 11.3l-1.2 5.8h-10c-11.3 0-12-.6-6.8-6.5 1.8-2 2.8-3.9 2.5-4.3-.4-.4-1.3.1-2 1.1-2 2.6-2.6 2-1.5-1.5.5-1.8.9-9.3.9-16.5 0-7.4.4-13.3.9-13.3s1.1.6 1.4 1.2c.2.7.8 1 1.2.5.5-.4-.1-2.1-1.3-3.7s-2.2-3.8-2.2-5c0-2 .4-2 21.8-1.8l21.7.3zm51.2-12.2c-.1.7-.2 11.8-.2 24.7L152 258h-45l.6-5.8c.6-5.3-3-31.1-5.5-39.9-.5-1.7-.8-3.3-.6-3.5s11.7-.3 25.7-.2c18.9 0 25.3.3 25.2 1.2m9.4 24.1c.2 22.9.1 25.3-1.4 24.7-.8-.3-2.4-.6-3.5-.6-1.8 0-1.9-1-1.9-23.2 0-20.3.2-23.4 1.7-25 .9-1 2.4-1.7 3.2-1.6 1.4.3 1.6 3.6 1.9 25.7M52.4 212.1c1.5 7.4-.2 36.3-2.4 42.6l-1.2 3.3H24v-23.3c0-16.8.3-23.6 1.2-24.5.8-.8 5.3-1.2 13.9-1.2h12.7zM21 238.5c0 15-.4 23.5-1 23.5s-1-8.3-1-22.8c0-20.1.3-24.2 1.7-24.2.2 0 .3 10.6.3 23.5m60.8 13.2.5 6.3h-7.4l.6-3.8c.4-2 1.1-6.2 1.7-9.2l1-5.4 1.5 2.9c.9 1.6 1.8 5.7 2.1 9.2m21 9c-1 .2-2.8.2-4 0-1.3-.2-.5-.4 1.7-.4 2.2-.1 3.2.1 2.3.4m38.5 0c-6.2.2-16.5.2-23 0-6.5-.1-1.4-.3 11.2-.3 12.7 0 18 .2 11.8.3m20.7.3c0 .5-.2 1-.4 1-.3 0-.8-.5-1.1-1-.3-.6-.1-1 .4-1 .6 0 1.1.4 1.1 1m-133.7.7c-.7.2-2.1.2-3 0-1-.3-.4-.5 1.2-.5 1.7 0 2.4.2 1.8.5m17 0c-.7.2-2.1.2-3 0-1-.3-.4-.5 1.2-.5 1.7 0 2.4.2 1.8.5m124 0c-.7.2-1.9.2-2.5 0-.7-.3-.2-.5 1.2-.5s1.9.2 1.3.5m-99.6 2.7c.2.2-.4 2.2-1.2 4.7-2.6 7.6-5.7 23.2-5.6 27.6.2 3.8-.1 4.2-2.8 4.8-1.7.4-5.5.3-8.6 0-4.1-.6-5.5-1.1-5.5-2.4 0-2.3 3.9-33.4 4.4-34.7.3-.7 3.7-.9 9.7-.6 5.2.2 9.5.5 9.6.6m33.6 2.1c-.1 1.6-.4 9.7-.7 18l-.4 15-3.3 1.2c-1.9.7-5.5 1.2-8 1.2l-4.6.1-.6-9.8c-.4-5.3-.7-14.1-.7-19.5v-9.8l9.3.3 9.2.3zM152 285v22h-16.9c-12.3 0-17.7-.4-19.8-1.4-1.5-.7-4.1-2-5.7-2.7-4.5-2.1-5.4-7.9-4-25.3.6-7.8 1.2-14.2 1.2-14.4.1-.1 10.3-.2 22.7-.2H152zm10 0v22h-7v-44h7zm33 4v20.5l-15-1.4-15-1.5v-43.3l15 2.6 15 2.6zm-174-3c0 14-.4 22-1 22s-1-8-1-22 .4-22 1-22 1 8 1 22m26.6-19.8c-1 3.6-4.4 33.9-4.2 37.8l.1 3.5-9.7.3-9.8.4V264h12.1c12.1 0 12.1 0 11.5 2.2m34.9 17.3c.4 10.7 1.1 19.8 1.6 20.1s.9 1.2.9 2c0 2.2-8.9 1.8-14.6-.6l-4.7-2 .5-8.8c.3-4.8 1.8-13.5 3.4-19.5l2.8-10.7h9.4zm116.6 7.6-.8 19.4-.1-21.5c0-12.6.3-20.6.8-19.4.4 1.1.5 10.8.1 21.5m-94.2 12.3c.9.8 3.2 1.9 5.1 2.4 2.8.8 1 1-9.2 1.1-10.8.1-12.8-.1-12.8-1.4 0-1.1 1.3-1.5 5.3-1.5 2.8 0 5.9-.5 6.7-1 2.1-1.3 3.1-1.2 4.9.4m-50.3 1.1c1.1.3 3.4.1 5-.3 2-.6 3.9-.3 6.3.9l3.4 1.8-11.3.3c-6.1.2-11.4-.1-11.7-.5-1.2-2 .7-3.7 3.4-3.2 1.6.4 3.7.8 4.9 1m127.2 6.2 17.2 1.7v4.2c0 6.1-1.2 6.4-15.6 4.4-20.6-2.9-19.4-2.5-19.4-7 0-2.2-.4-4-1-4-.5 0-1 1.7-1 3.8v3.9l-27.2.6c-14.9.4-38.9.7-53.2.7-24.4 0-52.8 1.3-56.8 2.6-2.8.9-5.8-3-5.8-7.6v-4l40.8-.3c22.4-.1 55.1-.3 72.7-.5 24.1-.2 36.2.2 49.3 1.5m-6.3 11.7 8 1.2-11.5.6c-16.3.9-117.4 1.1-127.1.2-5.5-.4-7.7-1-7-1.7 1-1 119.7-2.8 126.6-2 1.7.2 6.6 1 11 1.7m-121.1 6.2c.9 2.2.8 2.4-.9 1.8-.8-.4-1.5-1.2-1.5-2 0-1.9 1.6-1.8 2.4.2m24 10.3c8 4.5 14.6 8.5 14.6 8.9s-.9 1.3-2 2c-1.8 1.1-2.5 1-4.8-.6-1.5-1-9-5.4-16.6-9.7-11.8-6.7-13.6-8-11.8-8.6 1.2-.5 2.2-1.6 2.2-2.6 0-1.5.2-1.4 1.9.3 1 1.1 8.4 5.7 16.5 10.3m-5.1-10.8c.7.1-.1.4-1.8.8-3.8.9-6.8.1-3.9-1 1-.4 2.5-.6 3.2-.3.8.2 1.9.5 2.5.5m56.3-.2c-.8 1.3-52.6 1.6-52.6.3 0-.4 12-.9 26.6-1 19-.3 26.4-.1 26 .7m10 .8c1.2 1.7 1.3 1.7 1.9 0 .7-1.8 3.5-2.4 3.5-.7 0 1.9-3.8 3.1-5.9 1.8-2.4-1.4-3.9-.4-2.3 1.5.9 1-2 3-14.1 9.8-17.1 9.5-18.2 10.9-12.5 15.2 1.8 1.3 10.6 6.4 19.6 11.2 8.9 4.8 16.1 9.2 15.9 9.8-.1.5-7.9 5.2-17.2 10.3-12 6.6-17.5 10.1-18.6 12.1-2.3 4.1-7.2 6.7-9.9 5.3-1.7-.9-4.2.1-16.8 7.1-8.6 4.8-16 9.6-17.7 11.7-2.4 2.7-3.6 3.3-5.3 2.8-2.2-.7-3.1-2.6-1.2-2.6.6 0 1 .4 1 1 0 .5.5 1 1 1 1.6 0 1.2-2.6-.6-4.1-1.2-1-2-1-3.5-.1-2.6 1.6-3.4 1.5-1.9-.3.7-.8 1.7-1.5 2.2-1.5.6 0 2.2-.8 3.6-1.9 3.3-2.3 23.5-13.6 39.2-21.8 6.3-3.4 16.8-9 23.2-12.6 10.4-5.7 11.8-6.3 13.1-4.9 2 1.9 4.7.9 4.7-1.8 0-2.6-2.7-3.7-5.1-2.2-1.7 1.1-9.5-2.8-32.9-16.8-.8-.5-3.6-1.8-6.2-3-2.7-1.2-4.8-2.5-4.8-2.8 0-.4 6.6-4.3 14.7-8.7 8-4.4 18-9.9 22.2-12.2 8.8-4.8 8.9-4.9 10.7-2.6m15.2 0c-.2 1.3-1.4 1.9-4.1 2.1-3.9.3-4 .3-3.1-2.2.4-1 1.8-1.6 4.1-1.6 2.7 0 3.4.4 3.1 1.7M88 337.2c6 3.5 10.9 6.7 11 7.1.1 2.5-4.3 1.1-14.9-4.9-6.7-3.7-12.1-7.1-12.1-7.6 0-2.2 6.1-.2 16 5.4m33.5-4.6c-.5.2-5 2.6-9.8 5.4l-8.9 4.9-9.6-5.4-9.7-5.4 19-.3c17.6-.3 21.6-.1 19 .8m11.6 8.9c-8.5 4.7-16 8.5-16.6 8.5-3.5 0-1.3-1.9 8.3-7.3 17.1-9.5 17.5-9.7 20.7-9.7 2.4 0-.2 1.8-12.4 8.5M113.5 352c-.3.5-1 1-1.6 1-.5 0-.9-.5-.9-1 0-.6.7-1 1.6-1 .8 0 1.2.4.9 1m-22.1 2.9c2 2.3 2.5 1.9-12.9 10.6-6.6 3.7-13.3 7.7-14.9 8.8l-2.9 2 2.3 1.9c1.2 1 8.8 5.5 16.7 10 14.2 7.9 14.5 8.2 12 9.4-2.7 1.5-2 1.8-25.7-11.6-15-8.5-15.7-9.2-11.8-12.3 2.3-1.9 33.8-20.4 34.9-20.6.3-.1 1.3.7 2.3 1.8m42.9 8.5c7.6 4.4 15.1 8.8 16.7 9.6 3.5 1.8 4.1 5.5 1 6.5-2.9.9-4.3-.4-3.7-3.4.5-2.3.1-2.8-2.6-3.7-1.8-.5-9.9-4.5-18.1-8.8-13.3-7.1-14.7-8-13.1-9.2 2.1-1.6 1.1-2 19.8 9m-35.8-4.8c2 .8-.6 2.6-15.3 10.8-7 3.9-11.1 5.6-13 5.4-2.3-.3-.5-1.6 11.3-8.5 15.1-8.8 14.5-8.6 17-7.7m18.1 10.1c12.1 7 13.3 7.9 11.7 9.1-2.9 2.1-24 13.2-25.2 13.2-1.1 0-27.3-14.2-26.8-14.6.4-.3 26.2-15.3 26.5-15.4.1 0 6.3 3.5 13.8 7.7m-30 16.5c7.4 4 13.4 7.6 13.4 8s-.8.9-1.8 1.2c-1.2.4-6.6-2.1-15.3-7-15.6-8.9-16.3-9.4-12.5-9.4 1.7 0 8.6 3.1 16.2 7.2M149 382c0 .5-.5 1-1.1 1-.5 0-7.5 3.7-15.5 8.1-9.5 5.3-14.9 7.8-15.6 7.1-1-1 23.5-15 28.7-16.3 1.7-.4 3.1-.7 3.3-.8.1-.1.2.3.2.9m-35 18c-2 1.3-3.3 1.3-2.5 0 .3-.6 1.4-1 2.3-1 1.5 0 1.5.2.2 1m17.1 9.6c24 13.8 22.6 12.8 20.4 13.3-1.1.2-3.5 1.7-5.4 3.3-3.1 2.8-3.4 2.8-5.2 1.2-2.1-1.9-2.2-2.3-1-4.3.8-1.2 1.3-1.1 3 1 1.5 1.8 2.2 2.1 3.1 1.3 2.2-2.2.7-4.9-3-5.2-1.9-.2-4.6-1.2-6-2.1-1.4-1-7.2-4.4-13-7.6s-10.7-6-11-6.2c-.6-.5 2.2-2.3 3.6-2.3.6 0 7.2 3.4 14.5 7.6m-7.5 3.2c13.2 7.3 16.4 10.2 12.1 11-1 .2-8.3-3.3-16.3-7.9-14-7.9-14.5-8.3-12.3-9.5 1.3-.7 2.5-1.3 2.5-1.4.1 0 6.4 3.5 14 7.8m-23.6-5.3c0 1.2-26.4 16.5-28.6 16.5-3 0-1.2-2 4.9-5.4 18.8-10.5 23.7-12.8 23.7-11.1m15.9 9.2 12 6.8-6.7.7c-7 .8-43.4.6-42.6-.2 1.3-1.2 23.1-13.8 24.1-13.9.7-.1 6.7 2.9 13.2 6.6m-59.4 11c1.8 2 2.4 4 2.5 7.1 0 3.9-.2 4.3-2.2 4-1.5-.2-2.2-.9-2-1.9.1-.9-.2-2.9-.8-4.3-.9-2.6-1.1-2.6-11-2.6-7.5 0-10-.3-10-1.3 0-2.9 2.5-3.7 11.7-3.7 9 0 9.5.1 11.8 2.7M174 427l3.5 1.9-7 .2c-20.3.4-23.5 1.3-23.5 7.1 0 2.1-.5 2.8-2 2.8-1.6 0-2-.7-2-3.3 0-2.5.8-3.9 3.7-6.2 5.2-4.2 5.8-4.4 15.3-4.4 6.5 0 9.3.4 12 1.9m-35.5 1c2.4.9 2.6 1.4 2.3 5.8l-.3 4.7-39.3.3-39.2.2v-4.5c0-7.4 0-7.4 39.7-7.5 20.6 0 35.2.4 36.8 1m-107.4 7.2c-.4 2-1.4 3.4-2.4 3.6-2.4.5-2.4-5.3 0-6.7 2.5-1.4 3.1-.6 2.4 3.1m149.9.7c0 2.7-.1 2.7-6.9 2.9l-6.9.2-.4-3.5-.4-3.4 6.1-.3c6.9-.3 8.5.4 8.5 4.1m-129.2-.2.3 3.3h-9.5c-8.9 0-9.6-.1-9.6-2 0-1.8.7-2 8.5-2 8.3 0 11.6-1.4 5.3-2.3-2.7-.4-2.5-.4.7-.3 3.8.1 4 .3 4.3 3.3m112.3-.5c.4 1.5.4 2.9.1 3.2s-3.6.6-7.4.6H150v-2.8c0-1.6.3-3.2.7-3.6s3.4-.6 6.7-.4c5.5.3 6 .5 6.7 3M68 73.2c-4.2 2.2-8.9 7.2-7.8 8.3.3.3 2.3-1.2 4.5-3.4 4.6-4.6 9.8-6 15-4.2 4.4 1.6 5.4.7 1.4-1.3-4.1-2.2-7.9-2-13.1.6M211.2 167c0 1.9.2 2.7.5 1.7.2-.9.2-2.5 0-3.5-.3-.9-.5-.1-.5 1.8m-45.7 41c-.8 1.2 6.1 4.5 11.9 5.6 5.4 1 3.9-1-2.7-3.4-2.8-1.1-5.9-2.3-6.8-2.7-1-.3-2-.1-2.4.5M100 351.9c0 3.2 1.3 3.9 4 2.1 1.8-1.1.3-4.3-2.4-4.8-1.2-.3-1.6.4-1.6 2.7m-.6 47.6c-.4.9 0 2.3.9 3.2 2.1 2.1 4.9.9 4.5-1.9s-4.5-3.8-5.4-1.3m3.6 1.5c0 .5-.2 1-.4 1-.3 0-.8-.5-1.1-1-.3-.6-.1-1 .4-1 .6 0 1.1.4 1.1 1m-46.7-27.3c-1.7.6-1.7 3.8 0 5.2 1 .8 1.7.7 2.5-.1 2.6-2.6.7-6.2-2.5-5.1M126 142.6c-.9 2.2-.8 3.1.4 4.3.9.8 1.9 1.2 2.3.8.3-.4.2-1.2-.5-1.9s-.8-1.7-.2-2.9c.7-1.1.7-2 0-2.4-.6-.3-1.5.6-2 2.1m176-.7c.9 1.7.9 2.6-.1 3.7-.9 1.1-.8 1.4.5 1.4s1.7-.7 1.4-3.2c-.2-1.7-.9-3.3-1.6-3.6-1.1-.3-1.2 0-.2 1.7m-91.3 46.7c-.4.4-.7 2-.7 3.5s-1.4 6.4-3.1 10.7l-3.1 8 3.3 4.6c1.9 2.5 3.9 4.5 4.5 4.6.6 0 2.5-2.1 4.4-4.6l3.3-4.6-3.2-8.5c-1.8-4.6-3-9-2.8-9.8.7-1.6-1.6-4.9-2.6-3.9m4.3 18c1.1 3.6 1 4.5-.5 6.8-2.1 3.2-3.1 3.3-5.6.3-2-2.4-1.8-5.2.8-11.5 1.3-3.2 1.5-3.3 2.8-1.6.7 1.1 1.8 3.8 2.5 6m-2.5 5.5c-.4.6-.5 1.2-.2 1.5.2.3.7-.2 1-1.1.7-1.7.1-2-.8-.4"/></svg>