<!-- Icon: Trust Quality --><svg fill="#FFFFFF" xmlns="http://www.w3.org/2000/svg" width="490.667" height="488" viewBox="0 0 368 366"><path d="M101.1 27.2c-3.3 9-5 15-4.6 16.5.4 1.9.1 2.3-1.9 2.3-2.3 0-5.6 2.3-5.6 3.9 0 1 4.8 5.3 8.3 7.5l2.8 1.7L98 62c-2.6 3.7-2.5 5.9.5 10 3.2 4.3 3.2 6.7 0 8.2-1.3.6-2.7 1.9-3 2.8-.3 1-4.4 4.6-9.1 8.1s-9.3 7.1-10.1 7.9c-.9.8-2.6 2-3.7 2.5-3.4 1.7-3.3 6.1.3 9.4l3.1 2.9v84.5l-2.2-2c-3.5-3.1-6.5-4.4-10.7-4.5-4.6 0-10.5 1.8-12.1 3.8-1.8 2.1-2.7 1.7-3.3-1.6-.4-1.6-2.1-4.6-4-6.6-2.6-2.9-4.2-3.7-8-4.1-4.3-.5-4.9-.3-8.2 3-1.9 1.9-3.5 4.4-3.5 5.6 0 3.3 2.1 6.8 4.8 8 2.2 1 3 .9 5.4-.9l2.8-2.1v5.4c0 11.4-7.7 20.8-17.8 21.7-6.4.6-8.6 3-2.7 3 2.9 0 4.5.8 7.2 3.5 3.1 3.1 3.4 3.9 3.1 8.2-.2 3.8-.6 4.7-2 4.5-.9-.1-1.9.2-2.3.8-.3.5-2.4 1-4.6 1-2.8 0-3.9.4-3.9 1.5 0 2 6.9 2 9.6 0 2.5-1.9 3.4-1.9 3.4 0 0 2-4 3.5-9.6 3.5-3.4 0-4.4.4-4.4 1.6 0 1.3 1 1.5 5.8 1.2 3.1-.2 6.3-.6 7-.9.9-.3 2.1 2 3.6 6.8 4.5 13.7 12.1 23.5 25.3 31.9 8.1 5.3 10 7.7 8.8 11.3-.3 1 .1 2.3.9 3 2 1.7 5.1-.1 7.6-4.2s2.5-7.4 0-11.5c-1.1-1.8-2-3.4-2-3.6s2.2-.6 4.9-1c4.4-.6 15.8-6.7 17.4-9.4.4-.5 2.5 0 5.2 1.2 3.4 1.6 4.5 2.7 4.5 4.3 0 1.3.9 2.8 2 3.5 2.7 1.7 2.6 2.4-1.9 8.8-2.6 3.8-5.3 10-8.6 19.9-2.6 8-4.9 15-5.1 15.6-.5 1.2 16.2 23.4 18.2 24.2 1.5.6 1.8.3 12.8-14.1l6.9-9-5.2-15.8c-3.5-10.6-6.3-17.6-8.6-20.9-3.8-5.3-4.3-7.4-2-8.3.9-.3 1.5-1.8 1.5-3.5 0-2.5.5-3 3-3.6 3.3-.7 9.6-6.6 13.7-12.7 1.3-2 3.5-3.9 4.8-4.2s2.6-1.5 3-2.6c1.1-3.5-1.2-5.8-9.7-9.6-5.8-2.6-5.7-5.6.5-12.4 10.4-11.4 10.7-12 10.7-23.8 0-8.9.2-10.3 1.5-9.8 10.5 4 16.5 5.1 28 5.1 12.3-.1 15.8-.9 32.3-7.6 3.2-1.4 3.4-1.3 6.6 2.6 3.3 3.9 3.3 3.9 1.6 6.9-1 1.7-2.4 4.9-3 7.1-.7 2.2-2.6 6.1-4.2 8.6-3.5 5.7-3.5 8.2-.2 10.8 3.6 2.9 9.8 2.7 15.1-.3l4.1-2.4-1 2.9c-.5 1.6-.8 8.1-.6 14.5l.3 11.6 4.3 3.7c2.3 2 4.2 4.2 4.2 4.9 0 2 4.7 10.8 7.7 14.4 1.6 1.8 3.6 4.9 4.7 6.9 1 2.1 3.5 5.4 5.6 7.4 3.4 3.3 5.2 4.1 14.2 6.2 5.7 1.4 11.8 2.6 13.5 2.7 2.6.1 4.7 1.6 10 6.8 9.6 9.4 15 12.5 28.3 16.2 3.2.9 8 3.5 11.5 6.1 3.3 2.5 6.3 4.5 6.7 4.5 2.1 0 .3-2.4-4.9-6.5-4.4-3.4-8.2-5.3-15.3-7.5-10.8-3.3-18-7.8-25.7-15.8-5.1-5.2-5.2-5.5-4.6-10.1.5-4.2.2-5.1-2.3-8.2-2.1-2.4-2.8-4.2-2.6-6.2.3-2.7.7-2.4 6.1 5 9 12.3 22.3 21.4 33.5 22.9 6.2.9 6-1-.1-2.6-9.2-2.2-17.5-7.1-24.8-14.6-6.4-6.4-16.3-20.9-15.1-22.1.2-.2 1.4 0 2.5.7 3 1.6 2.7-.6-.4-2.6-1.4-.9-5-5.2-8.1-9.6-3.9-5.6-7.5-9.4-12.1-12.6-17.9-12.8-22.6-16.6-26.7-21.8-5.4-6.9-6.9-10.9-2.2-5.9 3.3 3.4 7.4 5.2 10.1 4.2 1.8-.8 7.5-8.6 7.5-10.4 0-.8-1.4-2.8-3.1-4.4-8-7.4 4.3.7 21 14 12.5 10 20 14.5 28.5 17 7.8 2.4 9.9 2.6 9.4.9-.2-.6-3.5-2-7.2-3-10.7-2.9-10.8-3-9-8 .8-2.3 2.5-6.1 3.8-8.5 1.4-2.3 2.1-4.5 1.6-4.8-1.3-.8-5.7 6.1-7.6 11.7l-1.6 4.8-5.9-4.1c-3.2-2.3-5.9-4.6-5.9-5.2 0-.5.7-.4 1.5.3 2.2 1.8 3.1.4 1.2-1.8-2.8-3-3-7.3-.7-11.7 1.1-2.1 2-4.3 2-4.7 0-1.8-1.7-.6-3.4 2.3-1.7 2.8-2.1 3-5.5 2.4-2-.3-6.4-1.9-9.8-3.5-6-2.8-6.2-2.9-6.5-7.1-.4-6-2.8-6.4-2.8-.5 0 2.4-.5 4.8-1.2 5.2s-3.9-2.3-8.3-6.9c-5.9-6.4-7.5-7.5-9.6-7.1-2.7.6 10.5-6 16.2-8.1 3.2-1.2 4.8-1 16.8 2.1 7.3 1.9 13.7 3.6 14.2 3.9.5.4 7.7 2.4 16 4.5s16 4.7 17.2 5.7c2.6 2.3 11.2 15.6 27.6 42.8 15.6 25.7 20.1 32.5 21.9 32.5 1.9 0 1.4-1.4-2.1-6.1-1.9-2.4-6.9-10.3-11.2-17.4-14.9-24.9-28.8-47-32.1-51.1-3.8-4.8-5.3-5.4-19.4-8.9-5.8-1.5-17.4-4.6-25.8-7.1-8.4-2.4-17-4.4-19.2-4.4-2.5 0-7.1 1.6-13.4 4.6-5.2 2.6-10.2 4.4-11 4.1s-2.2-2-3.1-3.6c-1.5-3-1.4-3.2 1.9-7.6 8.4-11 12.6-24 12.6-39.1 0-15.5-3.6-25.8-13.6-39.1-19-24.9-52.5-32.2-81.6-17.6-10.3 5.2-10.7 5.1-18.4-2.4-5.7-5.6-6.2-7.6-3-11.4 3-3.5 3.3-6.5 1-9.7-1.6-2.4-2.1-1.8 6.4-9.2 3.1-2.8 2.4-5.3-1.8-6.6-2.8-.9-3.5-1.6-3.3-3.5.3-2.9-8.9-29.1-10.4-29.6-.5-.2-3.3 6-6.2 13.9m13.7 17c-.7 1.5-2.2 1.8-7.8 1.8-6.4 0-7-.2-7.5-2.3-.4-1.3.7-5.9 2.5-11.1 5.6-15.9 4.6-15.7 9.5-2.1 3 8.5 4 12.5 3.3 13.7M121 49c1.3.8 1.2 1.2-.7 3.1-1.7 1.7-3.7 2.3-9.6 2.7-4.2.2-9.2.1-11.2-.2-3.9-.8-8-4-7-5.6.8-1.3 26.5-1.3 28.5 0m-7.5 9c-.8 1.3-9.5 1.3-11.5 0-1-.7.5-1 5.3-1 4.3 0 6.6.4 6.2 1m-2.8 3.2c3.4 1.5 4.3 2.6 4.3 5.5 0 2.4-4.6 7.3-6.8 7.3-2.7 0-8.1-3.2-8.7-5.1-1-3.1.5-6 3.8-7.4 4-1.8 4-1.8 7.4-.3m-.7 15.9c0 .7-.8 1.8-1.7 2.5-1.6 1.2-1.6 1.3-.1.8 1.8-.6 7.8 2.1 7.8 3.6 0 1.1-8.6 1.2-14.5.2l-4-.8 3.3-1.4c2.2-1.1 3.2-2.2 3.2-3.7 0-1.9.6-2.3 3-2.3 1.7 0 3 .5 3 1.1m70.2 5.3c21.4 4.6 38.6 19.8 45.8 40.6 5.2 15.1 4.9 28.2-1.1 42.6-8.3 19.9-23.2 32.8-43.9 38-9.3 2.4-25.1 1.5-34.2-1.9-21.6-7.9-37.1-26.2-41.5-49-3.2-17.2 1.6-35.4 13-48.9 14.7-17.5 39.6-26.1 61.9-21.4m-58.9 7.1c2 1.4 3.7 2.8 3.7 3.1 0 .7-4.3 4.3-5.1 4.4-.3 0-1.2-1.8-1.9-4s-1.7-4-2.2-4c-1.4 0-.9 2.3 1.2 5.8 3.3 5.4 1.8 6.2-11.6 6.2H94l2.6-5.1c1.4-2.8 2.3-5.3 2.1-5.5-.4-.5-6.3 7.8-6.9 9.7-.2.6-3.1.9-6.5.7l-6.2-.3 8.5-6.8 8.6-6.7h10.7c9.7 0 11 .2 14.4 2.5m-7.3 14.3c0 .2-.5 1.2-1 2.2-1 1.8-2.4 2-20.5 2s-19.5-.2-19.5-1.9c0-1 .2-2 .5-2.3.6-.6 40.5-.5 40.5 0M93 112c0 .6-1.6 4.2-3.6 8.1l-3.5 7.1-3.1-5.8c-1.7-3.3-3.7-6.9-4.4-8.2L77 111h8c4.8 0 8 .4 8 1m16-.7c0 .8-5.2 13.3-5.8 13.8-.4.4-1.7 1-2.8 1.3-1.9.6-2.2.2-2.8-3.8-.4-2.5-1.2-4.8-1.7-5.2-.7-.4-.8.6-.5 2.8 1.3 8.1 1.3 8.2-2.4 9.5-2.7.9-3 1.2-1.2 1.2l2.2.1v41.9c0 29.5-.3 42.2-1.1 42.7-.6.3-2-.2-3.1-1.3-2.2-2.2-2.3-7.9-1.9-59.7.2-19.7 0-25.1-1.1-25.7-.7-.5-.8-.9-.3-.9.6 0 2.5-2.7 4.3-6 1.9-3.3 3.8-6 4.3-6 1.3 0 1.1-3.8-.3-4.2-.7-.3 2.3-.5 6.5-.6s7.7-.1 7.7.1m-26.6 14.2 3.7 6.9L86 156c0 12.9-.3 31.1-.7 40.3-.6 16.3-.7 16.9-3.3 20.2l-2.7 3.4-.6-8.7c-.7-9.1-.9-93.8-.3-93.1.2.2 2 3.5 4 7.4m19.5 8.6c-2.3 14.5 2.6 33 12.7 47.1l3.3 4.7-.4 13.2-.4 13.2-4.4 4.5c-4.9 4.9-4.9 4.9-11.7-.1l-4.5-3.4v-82.6l3-1.7c1.7-1 3.1-1.7 3.2-1.6s-.2 3.1-.8 6.7m-62.6 53.1c4.5 2.4 7.5 9.6 5.8 14.1-.6 1.4-.6 2.8-.1 3.3.6.6.3 2-.5 3.4-2.5 4.4-2.8 5.1-2.2 5.6.3.4 1.6-.4 2.9-1.6 5.9-5.6 14.3-6.2 20.5-1.4 5.6 4.3 5.5 13-.2 15.6-4.4 2-9.4-1.9-8-6.3.8-2.5 4.5-2.4 5.2.1.7 2.6 2.3 2.6 2.3.1 0-1.1-1.1-2.9-2.5-4-2.4-1.8-2.8-1.9-6.3-.4-7.8 3.1-11.9 9.3-12.3 18.3-.1 1.9-.6 4.9-1.2 6.7-2.5 7.4 4.7 23 13.2 28.6 8.9 5.9 20.5 5.8 28.1-.2l3.5-2.8 1.9 2.4c2.2 2.9 1.7 4.4-2.6 7.6-12 9.1-32.4 6.7-40.8-4.8-1.4-1.9-2.8-3.5-3.2-3.5-1.9 0-.4 2.4 4.6 7.3 4 4 7.2 6.2 12.5 8.2 7.8 3.1 11.1 6.7 11.1 12.1-.1 2.7-.2 2.7-1.5-1-1.4-4-5-8.4-6-7.4-.3.3.4 1.7 1.5 3.1s2.3 3.9 2.6 5.6c.4 1.7 1.1 3.1 1.6 3.1.6 0 .5.7-.2 1.5-1.3 1.6-3.5 2.1-2.5.6.3-.5-.3-2.6-1.2-4.6-1.3-2.7-3.6-4.7-8.6-7.7-17.1-10-26.8-26.6-27-46.3-.1-10.4 1.1-15 6.1-25.5 4.5-9.3 5.1-18 1.6-22.7-2.2-2.9-5.4-3.7-6.1-1.6-.3.7.3 1.3 1.2 1.3 2.1 0 1.6 3.4-.6 3.8-2.3.4-4.9-2.5-4.9-5.4 0-5.2 6.9-8.1 12.3-5.2m83.9 3.5c2.7 2.6 2.8 3 2.8 13.4 0 8.4-.3 10.9-1.5 11.9s-1.9 1-2.8.1c-1.8-1.8-3.7-28.1-2-28.1.4 0 2 1.2 3.5 2.7m95.2 3.5 3.9 5.1-4.3 4-4.3 4.1-2.4-3c-1.4-1.6-3.5-4.1-4.8-5.5l-2.3-2.5 4.5-3.7c2.5-2 4.9-3.7 5.2-3.6.3 0 2.4 2.3 4.5 5.1M68.3 196c.4.4-1.7 1.2-4.7 1.9s-6 1.9-6.6 2.7c-.7.7-1.8 1.4-2.4 1.4-.7 0-2.3 1.1-3.6 2.5l-2.4 2.6-.8-2.2c-1.8-4.7 8.6-11.2 16.2-10.1 1.9.2 3.9.8 4.3 1.2m66.7 13.2c0 5.4-.2 9.8-.4 9.8s-1.8-1.9-3.5-4.2c-2.8-3.8-3.1-4.9-3.1-12V195l3.5 2.2 3.5 2.3zm-62-8.7c0 3.4-5.5 6.6-9.5 5.5-.5-.2-3-.6-5.5-1l-4.5-.6 3-1.4c9.9-4.3 16.5-5.3 16.5-2.5m157.9 2c3.6 4.2 3.8 4.9 1.1 4-1.1-.3-3.5.1-5.4 1-4.4 2.1-7 7.3-6.3 12.8l.5 4-3.8-5.4c-2.2-3-4-5.9-4-6.4 0-1 13-13.4 14.1-13.5.4 0 2.1 1.6 3.8 3.5M81.7 230.1c2.8 3.5 6.4 7.7 8.1 9.2 3.6 3.5 3.3 7.2-.7 8.2-1.4.4-3.4 1.4-4.4 2.2-.9.9-2.7 2.1-4 2.7-3.2 1.7-3.5 6.3-.5 7.5 1.3.5 3 1.6 3.7 2.5 1.2 1.4 1.1 2-.5 3.8-6.1 6.8-19.9 6.3-28.4-1-8.1-6.8-11.7-18.3-8.4-26.7 1.3-3.6 1.5-5.1.7-6.4-2-3.2 3.3-12.1 7.1-12.1.3 0 .6 1 .6 2.2 0 3.4 3.8 6.8 7.7 6.8 9.3 0 12.7-8.5 7.1-17.8-1.5-2.5-1.6-3.2-.6-3.2.8 0 2.5-1.2 3.9-2.6l2.4-2.6.5 10.4.5 10.4zm154.6-17.6c2.5 1.9 4.7 4 5 4.7 1 2.8-4.4 9.8-7.6 9.8-1.1 0-3.7-1.8-5.9-4-4.7-5-5.1-8.9-1.2-11.9 3.6-2.8 4.4-2.7 9.7 1.4m13.8.9c2.4 1.4 6.9 3.2 9.9 4 5.4 1.6 5.5 1.7 5.8 5.6.3 4.2-.7 5-2.8 2.5-.7-.8-4.7-4.1-8.9-7.2-11.2-8.3-12-9.3-4-4.9M91.5 218c.7 0 1.8-.7 2.5-1.5 1.8-2.2 3-.9 2.1 2.3-1.1 3.6.2 13 2.3 17s2 5.1-.3 4.5c-1.5-.4-2.3-2.4-3.7-9.1-1-4.8-2.3-9.2-2.9-9.7-.7-.6-2.2-2.8-3.4-5-2.2-3.9-2.2-4-.1-1.3 1.2 1.6 2.7 2.8 3.5 2.8M220 228c0 2.9-10.9 8.5-14.6 7.6-4.4-1.1-4.8-4.1-1.6-9.9 1.6-2.9 3.5-6.9 4.2-9l1.2-3.8 5.4 7.2c3 4 5.4 7.5 5.4 7.9m-99.6-11.1c1.8 1.9 1.1 3.1-2.7 4.4-1 .4-1.6 1.1-1.3 1.6.4.5-.5 4.6-1.9 9l-2.6 8.1h-4.7c-4.6 0-4.8-.1-6.6-4.3-3.7-8.3-4.2-17.7-1-17.7.7 0 2.8 1.3 4.6 2.9l3.3 2.9 5-4.4c2.8-2.4 5.3-4.4 5.6-4.4s1.3.8 2.3 1.9m11.8 9.1c-4.6 6.3-11.4 14-12.3 14-.4 0-.2-1.2.6-2.8 2.8-5.8 5.5-13.9 5.5-16.8 0-5.2 1.9-5.8 5.6-1.6l3.2 3.7zm-43.6-4.8c1.5 2.9 3.5 8.3 4.4 12.1l1.7 6.8-2.5-2.3c-1.4-1.3-4.9-5.2-7.8-8.7l-5.4-6.5 3.2-3.3c1.8-1.8 3.3-3.3 3.5-3.3.1 0 1.5 2.4 2.9 5.2m35.9 0c-2.6 8.3-6.9 18-8.6 18.8-2.5 1.4-2.4.8.7-8.6 2.4-7.4 5.6-12.4 7.6-12.4.5 0 .6 1 .3 2.2m-95.2 5.5c-.8 2.1-1.6 3.9-1.7 4 0 .1-1.1-.7-2.3-1.7l-2.3-1.8 3.3-2c4.5-2.8 4.8-2.7 3 1.5m199.4 12.6c3.5 5 4.7 7.3 3.7 7.5-2.8.7-1.2 1.9 5.5 4 12.1 3.9 19.7 11.3 18.7 18.1-.8 5.2-2.6 6.3-2.6 1.7 0-2.9-.7-4.5-2.5-6.2-3.1-2.9-7.2-4.1-8.8-2.5-.8.8-.5 1.1 1.1 1.1 1.3 0 3.6.7 5.2 1.5 2.3 1.2 3 2.2 3 4.6 0 3.9-2 4.6-7.6 2.4-4.4-1.7-4.6-1.9-4.2-5.2l.4-3.6-1.8 2.3c-1 1.2-1.5 2.7-1.1 3.3.8 1.3-3 .4-9-2.2-6.7-2.9-8.2-5.7-8.2-16 0-9.1 1.2-18.1 2.3-18 .4 0 3 3.2 5.9 7.2M245 248c13.8 9.2 21.4 17.2 24.5 26.1 1.5 4 1.4 4.2-.2 2.7-1-.9-3.7-2.4-6-3.3-4-1.6-4.3-2-4.3-5.7 0-7.4-3.7-11.8-14.6-17.2-5.2-2.6-7.8-4.5-10-7.8-4.8-7.1-4.9-7.5-.3-3.2 2.4 2.3 7.3 6.1 10.9 8.4m-125.2-2.8c-.3 2.2-.6 2.3-12.3 2.3-6.6 0-12.3-.1-12.7-.3-.3-.1-.4-1.1-.1-2.2.5-1.9 1.4-2 13-2 12.3 0 12.4 0 12.1 2.2m7.2 5.8c1 .6-5.5 1-19.3 1-13.6 0-20.6-.3-20.2-1 .8-1.3 37.5-1.3 39.5 0m6.5 5c0 1.3-3.6 1.5-25.5 1.8-14 .1-26.1 0-26.8-.3-1.2-.4-1.2-.8-.2-2 1.9-2.3 52.5-1.8 52.5.5m-37 7.2.8 2.3.4-2.3c.4-2.1.9-2.2 10.3-2.2h9.9l-1 3c-.6 1.6-.9 3.7-.6 4.7.4 2 .2 2.4 2.9-5 .9-2.3 1.6-2.7 5-2.7h3.9l-3.9 5.2c-6.3 8.7-15 11.7-24.1 8.4-2-.7-5.7-3.8-8.9-7.4l-5.5-6.2h5.1c4.3 0 5.1.3 5.7 2.2m159 12.5c2.9-1.4 3.5-1.4 7.1.3 5.6 2.5 8.8 6.3 8.8 10.5 0 1.9-.5 4-1.2 4.7-.9.9-1.2.5-1.2-2 0-4.5-3.8-8.2-8.4-8.2-4.1 0-6.6 2.2-6.6 5.7 0 2.5-.1 2.5-5.2 1.9-6.5-.9-9.8-2.6-13-6.8-2.4-3.1-6.8-11.1-6.8-12.2 0-.3 5.2 1.3 11.6 3.5 11.2 4 11.8 4.1 14.9 2.6m-146.1 3.9c.7 1.9-.1 3.4-1.9 3.4s-2.8-1.7-2.1-3.5c.7-2 3.2-1.9 4 .1m155.1 4.6c1.9.9 2.5 1.9 2.5 4.4 0 1.8-.3 3.5-.7 3.7-1.8.9-10.2-2.5-10.8-4.4-1.4-4.2 3.5-6.2 9-3.7M251 292c9.1 1.6 14 3.1 14 4.5 0 .6 1.5 1.5 3.3 2 2.7.8 3.3 1.5 3.5 4.3.3 3.1.2 3.3-2 2.7-8.5-2.6-10.9-5.1-7-7.5 1.1-.8 1.2-1 .2-.7-.8.2-1.9 1.4-2.5 2.6-.9 2-1.5 2.2-5.3 1.7-5.3-.7-7.4-2.1-11.4-7.6-2.6-3.5-2.8-4.1-1.2-3.7 1 .3 4.8 1.1 8.4 1.7m-146.5 4.2c-.9 4.3-1.5 5.2-2.7 4-.5-.5-.2-2.1.9-4 2.3-4 2.6-4 1.8 0m8.5 2.5c0 3-1.7 1.8-2.7-2l-1.1-4.1 1.9 2.4c1 1.4 1.9 3 1.9 3.7m162-2.6c1.3 2.3 1.3 7.6.1 8.4-.5.3-1.1-.9-1.3-2.7-.2-2.6-1-3.7-3.5-4.9-3.2-1.6-3.2-1.6-1-2.6 2.7-1.2 4.4-.7 5.7 1.8m-166.1 4.1c.1 1.2-.6 1.8-2 1.8-2.1 0-2.1.1-.1-6.5.5-1.8.6-1.8 1.3.5.4 1.4.7 3.3.8 4.2m10 14.8c1.6 5.3 3.3 10.4 3.7 11.4.7 1.7.5 1.7-2.5.1-1.8-.9-3.4-2.1-3.5-2.8-.2-.7-1.4-5.4-2.6-10.5-1.8-7.7-2-9.5-.9-10.8 1.2-1.4 1.4-1.4 2 .7.4 1.3 2.1 6.7 3.8 11.9m-16.7-12.4c1.1 1-5.1 21.9-6.9 23.1-2.2 1.7-3.6 1.7-3.1 0 .3-.6 2-6.3 3.9-12.5 3-10.1 4.4-12.4 6.1-10.6m10 11.4c1.5 5.8 2.5 11.3 2.2 12.3s-1.7 2.5-3 3.4c-1.8 1.1-2.2 1.8-1.3 2.4 1 .6.9 2.1-.6 6.8-1 3.4-2.1 6.1-2.5 6.1-.3 0-1.5-2.9-2.7-6.5l-2.1-6.5h2.1c2-.1 2-.2-.5-1.6-4.7-2.5-4.9-4.1-2.2-15 3.2-12.9 3-12.6 5.6-12.2 1.9.3 2.6 1.8 5 10.8m-10.4 23c1.8 5.1 3.1 9.5 2.9 9.7-.5.4-11.5-14.1-12.3-16-.5-1.4 3.2-3.8 5.1-3.3.6.1 2.5 4.4 4.3 9.6m17.7-8.8c1.4.6 2.5 1.6 2.5 2.2-.1 1.3-13 18.2-13 16.9 0-2.1 6.8-20.3 7.6-20.3.2 0 1.5.5 2.9 1.2M159 88.1c-16.9 2.4-32.8 13.1-41.1 27.4-5.7 9.8-7.2 16.3-6.7 29.3.5 13.9 2.7 20.3 10.8 31.2 16.6 22.4 46.5 29.3 71 16.4 18.1-9.5 30-29.3 30-49.8-.1-9.9-1.2-15.3-5.1-23.1-6.3-12.8-17.5-23.2-30.5-28.3-4.5-1.8-18.5-4.4-21.7-4.1-.7.1-3.7.5-6.7 1m26.2 5.4c16.3 5.5 28.9 19.1 33.4 35.9 1.6 6 1.8 19.3.3 25.6-2.7 11.9-11.2 24.1-21.8 31.5-9.6 6.7-17.4 9-30.3 9-5.9 0-11.2-.5-11.7-1-.7-.7-.2-2.8 1.5-6.5 7.2-15.5 16.4-36.9 16.4-38.2 0-.8-1.8-9.3-4-18.8s-4-17.9-4-18.7-1.3-3.1-2.9-5.1c-4.1-5.3-8.7-14-7.8-14.8 3-3 20.6-2.4 30.9 1.1M153.5 96c2.1 4.1 1.9 5.1-.5 1.5-1.1-1.7-2-3.3-2-3.8 0-1.5 1-.6 2.5 2.3m-1.8 2.2c1.7 2.4 4.7 6 6.7 8.1 2.8 3.1 3.3 4.2 2.3 5.2-.6.7-3.4 4.5-6.1 8.4-2.8 3.9-5.1 6.9-5.2 6.8s-2.4-3.4-5.2-7.4c-4.8-6.7-5.1-7.5-5.3-14l-.3-6.8 4-2.2c2.1-1.3 4.4-2.3 5-2.3s2.4 1.9 4.1 4.2m-15.5 6.1-.4 4.2-3.8-.3c-4.5-.5-4.4-1.6.7-5.5 2-1.5 3.7-2.7 3.7-2.7.1 0 0 1.9-.2 4.3m-4.3 6.7h3.8l-4.6 8.9-4.5 8.9-1.9-4.2c-1.1-2.2-2.3-4.9-2.8-5.8-1.3-2.5-1.1-3.2 1.2-6.2 1.3-1.6 2.7-2.5 3.6-2.2.8.3 3.2.6 5.2.6m35.1 20.9c2.2 9.6 3.9 17.5 3.8 17.6-.2.1-3.2 2.2-6.8 4.7-8.7 6-11.1 7.3-10.4 5.4.3-.8-.2-2.8-1-4.5-1.2-2.2-1.6-5.9-1.6-13.9v-10.8l5.7-8.8c3.2-4.9 5.8-8.4 6-8 .1.5 2.1 8.7 4.3 18.3m-23.1-9.7 5.1 7.2v10.9c0 10.2-.2 11.6-4.4 23.8-6 17.2-6.5 18-6.6 9.9 0-5.6.3-6.7 2.1-7.8 1.2-.7 1.8-1.6 1.5-1.9s-1.2 0-2.1.7c-1.3 1.1-1.5-1.5-1.5-24.4 0-14.1.2-25.6.4-25.6.3 0 2.7 3.2 5.5 7.2m-8.4 28.3c0 19-.2 34.5-.5 34.5s-2-1.3-3.8-2.8l-3.4-2.8.1-24.8.2-24.8 3.5-6.9c1.9-3.8 3.5-6.9 3.7-6.9.1 0 .2 15.5.2 34.5M122 123.7c1.3 2.7 2.6 5.6 3.1 6.5 1.2 2.4 1.2 44.8 0 44.8-1.3 0-5.5-7-5.3-8.9.6-7.8-.1-39.7-.9-41.8-.9-2.4-.6-5.3.5-5.3.3 0 1.4 2.1 2.6 4.7m-3.8 23.1c.2 9.4 0 16.8-.3 16.6-1.5-.9-4.1-13.3-4.2-19.8-.2-8.5 2.1-19.3 3.4-15.9.4 1.2.9 9.8 1.1 19.1m45.6 20.1c-6.1 14.3-7.8 16-7.8 8.1 0-1.9-.4-5.1-1-6.9-.7-2.4-.6-3.9.2-4.8 1.3-1.7 14.1-11.3 14.5-11 .1.2-2.5 6.7-5.9 14.6m-12.3-7.3c.2 2.2.9 6.3 1.4 9.3 1.4 7 1.4 14.7 0 17.3-.8 1.5-.8 1.9 0 1.4 1.4-.9 1.4-.4.1 2.8-1.2 3.3-2.8 3.2-9.6 0-4.6-2.2-5.4-2.9-5.4-5.4 0-1.5.7-3.3 1.5-4 .8-.6 2.4-3.7 3.5-6.8 5.5-14.9 7.3-19.3 7.7-18.9.2.3.6 2.2.8 4.3m44.6 16.8c-1.3 1.4-4.8 3.7-7.7 5.3-5.8 3-7.1 4.9-2.6 3.8 5-1.2 15.7-8.9 14.6-10.6-.8-1.4-1.9-1-4.3 1.5M41 223.6c-7.1 11.3-6.6 25.9 1.4 38 9 13.5 28.8 20.3 38.7 13.3 3.6-2.5 3.2-3.8-.4-1.4-1.4.9-5 1.9-8.1 2.2-4.9.5-6.3.2-13-3-8.7-4.1-14-9.2-18.1-17.3-2.6-5.2-3-6.9-2.9-13.9 0-6.6.6-9.3 3.1-15.3 1.7-3.9 2.9-7.2 2.7-7.2-.3 0-1.8 2.1-3.4 4.6M278 75.8c0 17.8.7 17.2-20.8 17.2-10.1 0-16.2.4-16.2 1s6.1 1 16.3 1c22.1 0 20.7-1.5 20.7 23.3 0 11.8.4 18.7 1 18.7s1-6.9 1-18.8c0-24.4-.9-23.2 18.9-23.2 8.7 0 14.1-.4 14.1-1s-5.4-1-14.2-1c-13.7 0-14.4-.1-16.5-2.4-2.1-2.2-2.3-3.3-2.3-15 0-7.7-.4-12.6-1-12.6s-1 4.9-1 12.8m3.6 18.2c0 1.4-.7 2-2.3 2s-2.3-.6-2.3-2 .7-2 2.3-2 2.3.6 2.3 2m-3.6 0c0 .5.5 1 1.1 1 .5 0 .7-.5.4-1-.3-.6-.8-1-1.1-1-.2 0-.4.4-.4 1m-22 33.8c0 10.9-1.1 13.2-6.3 13.2-1.5 0-2.7.4-2.7 1 0 .5 1.4 1 3.1 1 4.4 0 5.8 2.4 5.9 9.8 0 4 .4 6.1 1 5.7.6-.3 1-3.4 1-6.9 0-6.9 1-8.6 5.2-8.6 1.5 0 2.8-.5 2.8-1 0-.6-1.2-1-2.6-1-4.5 0-5.4-2-5.4-12.4 0-5.2-.4-9.8-1-10.1-.6-.4-1 2.9-1 9.3m2 13.6c0 .8-.4 1.8-1 2.1-.5.3-1-.3-1-1.4 0-1.2.5-2.1 1-2.1.6 0 1 .6 1 1.4m-6 91.1c-4.2 6-3.3 6.9.9.9 1.8-2.5 3.1-4.8 2.8-5-.3-.3-1.9 1.5-3.7 4.1M15 230c0 .5.8 1 1.9 1 1 0 2.4.7 3.1 1.5s2 1.5 2.9 1.5c1.2-.1.9-.7-1.2-2.5-2.8-2.5-6.7-3.4-6.7-1.5m240.7 5.3-1.9 3.2 2.6-2.4c2.6-2.4 3.3-4.1 1.9-4.1-.5 0-1.6 1.5-2.6 3.3m-92.9 17.3c-.5.4-.8 3.2-.8 6.1 0 7.3-1.8 9.1-9.5 9.6l-6 .3 6 .2c9.2.3 9.4.6 9.7 21.3.2 9.4.6 17.3 1.1 17.6.4.2.7-7.4.7-17 0-23-1.5-21.5 22-22l17.5-.3-17.5-.2c-20.7-.2-21.1-.5-22-10.5-.3-3.3-.8-5.5-1.2-5.1m.2 14.4c0 .5-.5 1-1.1 1-.5 0-.7-.5-.4-1 .3-.6.8-1 1.1-1 .2 0 .4.4.4 1m2.5 0c.3.5.1 1-.4 1-.6 0-1.1-.5-1.1-1 0-.6.2-1 .4-1 .3 0 .8.4 1.1 1m.5 2.4c0 .3-.4.8-1 1.1-.5.3-1 .1-1-.4 0-.6.5-1.1 1-1.1.6 0 1 .2 1 .4"/></svg>