<!-- Icon: Trust Warranty --><svg fill="#FFFFFF" xmlns="http://www.w3.org/2000/svg" width="417.333" height="561.333" viewBox="0 0 313 421"><path d="M146 19.6C112.5 45 70.8 61 24.2 66.2l-11.3 1.2.4 76.6c.3 72.9.4 77.1 2.5 89.8 9.4 57.4 33.6 101 75.3 135.7 20.2 16.9 58.7 39.3 65.5 38.2 3.9-.7 22.6-9.8 34.3-16.9 14.1-8.5 31.7-22.4 44-34.8 34.5-34.4 53.4-72.9 60.8-124 1.4-9.7 1.7-23.4 2-88.1l.4-76.7-7.3-.7c-12.7-1.2-34.9-5.3-47.9-8.9-29.9-8.2-53.8-19.8-77-37.3-5.4-4-10.1-7.3-10.6-7.2-.4 0-4.6 3-9.3 6.5m15.8 1.1c28.4 23.1 72.2 41 115.3 46.8 6.3.9 12.9 1.8 14.7 2.1l3.3.5-.4 76.2c-.4 83.2-.5 84.1-6.7 110.2-13.1 55-46.7 99.8-98.9 131.9-11.2 6.9-30.6 16.6-33.2 16.6-3 0-18.3-7.4-31.3-15.2-46.2-27.6-79.5-67.4-95.4-113.8-12.1-35.5-14.4-60.8-14-154.2l.3-51.7 4.5-.6c53.9-6.7 92.7-21.1 127.5-47.4 4.4-3.3 8.1-6.1 8.3-6.1.1 0 2.8 2.1 6 4.7m-20.2 14.4c-17.1 11.7-37 21.5-57.6 28.3-16.7 5.5-40.5 10.9-53.7 12.2l-7.3.7V141c0 63.9.4 75.6 3.6 95 8.1 49.5 32.1 92.8 68.2 123.1 16.9 14.1 43.9 31.4 56.5 36.3l4.6 1.7 8.4-3.9c57.9-27.1 101.3-77.8 115.6-134.7 7.1-28.8 8.3-46 7.9-122.5l-.3-59.4-12.5-1.8c-15.2-2.1-37.3-7.6-52.9-13-20.2-7-49.5-22.5-61.6-32.6-2.2-1.7-4.4-3.2-5-3.1-.5 0-6.8 4.1-13.9 9m16.6-4.4c1 .9 2.6 2.1 3.6 2.7s5.6 3.6 10.3 6.7c23.5 15.8 51.7 27.2 83.2 33.8 11.9 2.5 26.8 5.1 29.2 5.1.4 0 .5 31.2.2 69.2-.4 73.4-.8 79.8-5.7 102-13 58.3-51.1 106.4-108 136.5-16 8.4-14.3 8.2-25.8 2.5-28.2-14.2-56.7-36.7-74.4-58.8-24.6-30.8-38.8-66.7-43.3-109.3-1.1-10.4-1.5-28.8-1.5-77.7V79.3l10.6-1.7c40.8-6.3 78.5-20.5 107.4-40.5 6.3-4.4 11.7-8 11.9-8 .3-.1 1.3.6 2.3 1.6m-3.6 17c-.3 2.1-1.1 5.5-1.6 7.6-1 3.3-1.3 3.6-3 2.7-4.7-2.5-8.5 4.2-5.6 9.8.8 1.6 2.6 3.6 3.9 4.5 5.3 3.5 3.7 22.7-1.9 22.7-1.2 0-3.3.9-4.8 2.1-3.7 2.9-3.7 10.4-.1 14.7 1.4 1.7 2.1 3.2 1.5 3.4-.8.2-.8 1.2 0 3.3 1 2.5.8 3.1-1 4.5-4 3-6 7.2-6 12.7 0 4 .4 5.3 1.5 5.3 2.2 0 3.6-3.5 3.7-9 0-3.8.6-5.5 2.4-7.5 1.3-1.4 2.4-3.8 2.4-5.3s.4-2.2.8-1.6c1 1-.3 19.3-1.8 26.4-5.6 26.4-8.8 38-10.6 38-2.2 0-8.9 6.6-12.5 12.1-1.7 2.7-3.4 4.8-3.6 4.5-.2-.2 1.1-2.8 3.1-5.8 4.5-6.7 9.9-21 13.7-35.8 3.1-12.4 3.4-15 1.9-15-.9 0-1.8 2.9-4 13-.6 3-2.3 8.9-3.6 13l-2.4 7.5h-4.7l-4.8-.1-.6-17.9c-.4-13.9-.9-18.9-2.2-21.8-1-2-2.1-3.7-2.5-3.7-.5 0-1.8 2.4-3 5.3-2 4.6-2.2 7.1-2.2 21.5V175h-4.4c-2.5 0-4.7.3-4.9.7-.6.9 7.7 10.3 9 10.3.5 0 1.4 2.8 2 6.2.6 3.5 1.4 7 1.7 7.9.5 1.2-.8 2.6-4.6 5.2-7 4.7-11.7 6-19.4 5.5-5-.3-7.2-1-10.6-3.4-5.8-4-9.9-10.2-10.5-15.6-.5-4.3-.3-4.6 4.7-9.5 6.1-5.7 6-7.8 0-7l-3.8.5-.4-16.2c-.4-13.3-.8-17-2.5-21.1-1.1-2.7-2.5-5.1-3-5.2-.6-.2-2 2.2-3.1 5.3-1.9 4.8-2.2 7.6-2.2 21V175h-4.4c-2.5 0-4.8.5-5.2 1.1-.7 1.2 7.4 9.9 9.3 9.9.7 0 1.3.7 1.3 1.5s-.7 1.5-1.6 1.5c-1.9 0-4.4 2.4-4.4 4.3 0 .7-1.1 4.1-2.5 7.5s-2.5 6.7-2.5 7.4 1.4 2.9 3 4.8l3 3.5 3-3.3c3.6-3.9 3.7-5.5.5-13.3-2.4-6-2.4-6-.4-8 1.4-1.4 2.1-1.6 2.3-.7.2.7.9 3.3 1.6 5.8.6 2.5 2.6 6.8 4.4 9.5 2.6 3.9 3.2 5.8 2.8 8.3-.2 1.8-.8 3.5-1.3 3.7-.4.3-.4 1.6.2 2.9.9 1.8.5 3.9-1.7 10l-2.7 7.7 3.4 3.5 3.4 3.5 2.8-3.2c2.5-2.7 2.8-3.7 2.2-6.8-.4-2-1.5-5.5-2.5-7.9-1.6-3.5-1.7-4.7-.8-6.2.7-1.1.9-2.3.5-2.7-.5-.4-1.2-.1-1.7.7-.8 1.3-1 1.2-1-.2 0-.9.5-2.9 1-4.3l1-2.6 2.9 2.1c3.8 2.6 10.5 5 14.3 5 3.4 0 4.6 2.2 2.8 5.5-1.4 2.7-.7 4.5 2 4.5s3.4-1.8 2-4.5c-1.8-3.4-.7-5.2 3.7-6 3.9-.6 11.4-4.6 16.4-8.6 2.5-2 2.8-2 5.3-.4 2.9 1.9 3.2 4.1 1.1 6.9-1.3 1.7-1.3 2.2.1 3.8 1.2 1.2 1.4 2.1.7 3-.6.7-2 4.2-3.1 7.7-2.3 6.9-2.1 8 2.2 12l2.6 2.5 3-2.9c3.7-3.5 3.8-6.2.6-14.9-1.6-4.6-2-6.8-1.3-7.5.8-.8.7-2.1-.1-4.4-1.6-4.4-1.5-4.7.8-4.7 4.5 0 12.3-10.3 15.4-20.3.8-2.5 3.3-2.1 5.2.8 1.6 2.5 1.6 2.7-.5 4.6-2.8 2.6-2.7 3.6 1 7 2.8 2.6 2.9 3 1.6 5.1-1 1.5-1.2 3-.7 4.3.8 2.1 1.5 1.2 2.2-2.9.6-3.7 2.4-2.6 3.6 2.1.7 2.7 1.7 6.2 2.1 7.9.6 2.3.2 4.7-1.6 9.5-5 13.3-5 12-.7 18.2 2.2 3.1 4.1 5.6 4.4 5.7 1.1 0 8-10 8-11.7s-4.2-14.3-5.5-16.4c-1.2-1.9 3.4-18.4 5.1-18.4 1.8 0 1.9 8.1.2 13.4-2.4 7.4-2.3 9.5.7 11.1 2.3 1.2 2.8 1.2 4.6-.6 1.9-2 1.9-2.2.3-7-.9-2.7-1.6-6.9-1.5-9.2.1-2.6-.4-5.4-1.3-6.8-2.1-3-2-3.2.7-3.6 3-.4 3.7-5.6 1-7.5-1.6-1.2-1.6-1.6-.3-4 2.2-3.8 3.7-3.9 4.5-.1.4 1.8 1.7 5.3 2.8 7.8s2.1 6.1 2.2 8.2c.4 4.9 2.6 10.8 4.1 10.8 2.3 0 2.3-1.6-.1-6.6-1.3-2.7-2.2-5-2-5.2.1-.2 1.8.6 3.6 1.7 1.9 1.2 4.2 2.1 5.1 2.1 2.6 0 3 1.6 1.4 4.8-1.1 2.2-1.2 3.2-.3 4.1.8.8.4 3.2-1.7 9.6l-2.8 8.4 3.2 4.1 3.3 4.1 2.9-2.8c1.6-1.5 3.1-3.7 3.4-4.9.5-2.1-1.5-9.6-3.8-14.2-.9-1.8-.9-2.8.1-4.4.9-1.5 1-2.3.2-3.1-1.8-1.8-1.2-5.5 1.1-7.1 2-1.4 2.4-1.4 5.2.9 4.4 3.5 11.9 7.4 16.3 8.3 4.3.9 5.4 3.3 2.8 6.2-2.1 2.3-1.2 4 2.1 4 2.8 0 4.3-2.5 2.5-4.3-2.9-2.9-.3-5.6 5.5-5.7 1.2 0 4.8-1.3 8-3 3.2-1.6 5.9-2.8 6-2.7s.6 1.2 1.3 2.4c1.3 2.5 1.5 4.4.2 2.4-.5-.7-1.4-1-2-.6-.9.5-.8 1.3.4 3.1 1.2 1.9 1.3 2.9.4 4.5-.6 1.2-1.9 4.5-2.9 7.5l-1.9 5.4 3.1 3.6 3.1 3.5 2.8-2.7c1.6-1.5 2.9-3.7 2.9-4.9 0-2.4-2.8-11.4-4.2-13.1-.5-.7-.2-2.2.6-3.8 1.2-2.4 1.2-3.1 0-5.4-1.9-3.6-1.9-3.5 2.1-8.7 1.9-2.5 4-6.5 4.6-8.8 1.5-5.2 2-5.8 3.8-4.8 1.1.7 1 1.9-.8 7-2.8 8-2.7 9.2 1 12.7l3 2.9 3.1-3.4c3.4-3.8 3.4-6-.3-13.9-1.2-2.6-2.1-5.3-2-6 .3-1.6-1.7-4.2-3.1-4.2-.6 0-.8.7-.5 1.4q.6 1.5-.9.9c-2.3-.9-1.6-4 1.5-6 3.8-2.4 8.4-8 7.6-9.3-.3-.5-2.6-1-5.1-1H257v-15.9c0-13.9-.3-16.5-2.1-21-1.2-2.8-2.5-5.1-2.9-5.1s-1.6 1.9-2.6 4.2c-1.5 3.4-2 7.7-2.4 21.3l-.5 17-2.5.1c-7.7.2-7.5-.1-2.8 5.4 2.4 2.7 4.9 5 5.6 5 1.1 0 1.2 1 .7 4.2-1.8 11.3-8.9 18.6-20.2 20.8-6.6 1.2-13-.4-20.2-5l-5.9-3.9 1.4-4.7c.8-2.6 1.4-6.2 1.4-8.1 0-2 .5-3.3 1.3-3.3.7 0 3.3-2 5.7-4.5 5-5.1 4.6-6.5-2.2-6.5H205v-16.4c0-14.4-.3-16.9-2.1-21.5-1.2-2.8-2.5-5.1-2.9-5.1s-1.7 2.3-2.9 5.1c-1.8 4.6-2.1 7.1-2.1 21.4v16.3l-4.6.4c-3.4.2-4.8-.1-5.4-1.2-1.5-2.8-4.8-13.4-7-22.8-2.1-8.6-4-12-4-7 0 5.6 8.9 33.2 13.5 42.2l2.6 4.9-4-4c-2.1-2.3-5.3-4.4-6.9-4.8-3.3-.7-3.9-1.6-5.3-8.9-1.5-8.2-3-12.7-3.8-12.2-.5.3-.5 2.3-.1 4.3.5 2.1 1.3 6.2 1.9 9.1.6 3 1.3 5.8 1.6 6.3.4.5.2.9-.4.9s-1.3-1.7-1.6-3.8c-.4-2-1.1-5.1-1.6-6.7-.5-1.7-1.1-6.2-1.3-10-.3-3.9-1.2-11.5-2-17-1.9-12.9-2.5-33.8-.7-27.5.8 2.9 2.6 2.5 2.7-.6 0-1.1 1-3.1 2.2-4.5 2.8-2.9 3.6-6 2.8-10.1-.8-4.2-3.3-6.8-6.5-6.8-6 0-8.9-18.3-3.5-22.4 2.8-2.1 5.4-6.6 5.4-9.5 0-3-2.9-5.3-6-4.9-2.6.4-2.8.1-3.9-4.6-.6-2.8-1.2-6-1.3-7-.5-3.5-2.5-2.8-3.2 1.1m4.4 14c0 1.7.8 1.6 2.7-.2 2.1-2.1 3.7-1.4 4.1 1.9.3 2-.5 3.4-2.8 5.6-1.8 1.7-3.6 3-4.1 3s-.9-2.6-.9-5.8c0-6.5-.6-7.8-2.8-5.9-1.3 1-1.4.9-.3-1.1 1.2-2.3 1.3-2.3 2.6-.5.8 1 1.5 2.4 1.5 3m-7.1 0c2.6 1.5 3.1 2.4 3.1 5.5 0 4.3-.9 5.2-4.3 3.9-2.8-1.1-5.2-6.1-4.2-9 .8-2.6 1.5-2.6 5.4-.4m2.6 12.3c.3.5.1 1-.4 1-.6 0-1.1-.5-1.1-1 0-.6.2-1 .4-1 .3 0 .8.4 1.1 1m3.3 6.2c-.4 5.2-2.3 6-3.2 1.3-.8-4-.2-5.5 2-5.5 1.2 0 1.4 1 1.2 4.2m1.1 8.7c.9 1.6.6 2-1.5 2.5-3.4.9-4.7 0-3.4-2.5 1.4-2.4 3.6-2.4 4.9 0m-4.5 5c.6 1-3.1 4.7-4 3.9-.6-.7 1.7-4.8 2.8-4.8.4 0 .9.4 1.2.9m7.4 1.9c.3 1.8 1 2.2 3.6 2.2 5.8 0 7.3 4.5 3.5 10.6-2.6 4.3-4.9 4.5-4.9.3 0-4.4 1.7-7.1 4.1-6.4 2.3.8 2.5-.7.3-2.6-1.2-1-2-1-3.4-.2-1.4 1-2.2.7-4.4-1.6-3-3.1-3.4-5.4-.8-4.9.9.2 1.8 1.3 2 2.6m-4.3 11.6c-.4 4.7-1.1 8.4-1.5 8.1-.9-.6-1.3-16.2-.4-17.6.4-.7 1-.7 1.6-.1s.7 4.3.3 9.6m-8.5-7.9c0 1.2-.3 1.3-1.9.3-1.5-.9-2.3-.9-3.5.1-1.5 1.3-2.3.2-.9-1.2 1.3-1.4 6.3-.7 6.3.8m3.8 8.2c-.4 4.9-2.4 5.3-3.7.7-.9-3.2-.8-4.1.7-5.5 2.2-2.1 3.4-.3 3 4.8m8.3 3c-.8 1.4-1 .7-1.1-3.3 0-2.8.3-5.4.8-5.8 1.1-1.2 1.4 7.2.3 9.1m-14.7-4c.3 2.5.3 4.9 0 5.2-.9.9-5.4-4.8-5.4-6.9 0-1.6 1-2.3 4.1-2.9.4 0 .9 2 1.3 4.6M161 118c1.2.7 1.1 1-.5 1.6-2.8 1-3.5 2.5-2.8 5.3.4 1.7.2 2.2-.8 1.9-.8-.2-1.5-1.7-1.7-3.1-.2-1.5-1.3-3.2-2.4-3.8-1.7-.9-1.8-1.3-.7-2 1.8-1.1 7-1.1 8.9.1m-8.4 30.5c-.3 11.5-.6 22.8-.6 25-.1 2.2-.1 6.1-.1 8.6 0 4.8-1.6 12.4-1.8 8.2-.1-1.2-1.7-3.5-3.7-5.2-3.7-2.9-3.7-3-2.5-7.5 1.4-5.6 1.5-11.9.1-11.1-.5.3-1 1.6-1 2.9 0 3.1-3.2 13.4-3.7 12-.2-.7 1.2-7.4 3.2-15 3.2-12.3 6.9-32 6.3-34.1-.1-.4.2-3.2.6-6.2l.8-5.4 1.5 3.3c1.1 2.7 1.3 7.7.9 24.5m9.7-21.6c-.7 2.8 5.7 51.7 7.1 54 .3.4-1.5 2.9-3.9 5.5-2.5 2.5-4.5 4.5-4.5 4.4 0-.2-.3-13.8-.7-30.4-.6-29-.3-35.4 1.6-35.4.5 0 .7.8.4 1.9m-4.2 47.1c.3 2 0 2.5-1.6 2.5-1.7 0-2-.6-1.8-3.5.1-1.9.5-12.5 1-23.5l.8-20 .6 21c.4 11.5.8 22.1 1 23.5m-19.4-39.8c-.3.7-.5.2-.5-1.2s.2-1.9.5-1.3c.2.7.2 1.9 0 2.5m-23.8 25 .1 15.8h-6.1l.3-16.3c.2-10.7.8-17.2 1.7-19.2l1.3-3 1.3 3.5c.9 2.3 1.4 8.9 1.4 19.2m87-17.8c.6 2.5 1.1 11 1.1 19V175h-2.4c-3.4 0-3.8-2.8-3.2-19.3.7-19 2.2-23.5 4.5-14.3M62.8 158.2l.4 16.8H57l.3-15.8c.3-16.9 1.7-23.7 4-19.7.8 1.3 1.3 8.3 1.5 18.7m191.1-16.1c1.1 3.2 1.6 32.1.6 33.1-.3.3-1.7.3-3 0l-2.5-.4V160c0-13.6 1-21 3-21 .4 0 1.3 1.4 1.9 3.1M68.2 181c-2.7 2.4-4.2 3-7.9 3-3.6 0-5.2-.6-8-3l-3.4-3h22.5zm51.3 0c-2.4 2.5-3.7 3-7.5 3s-5.1-.5-7.5-3l-2.9-3h20.8zm38.4 4.7c.1 2.3.6 5.3 1.2 6.7.9 1.9.9 2.9 0 4-1.4 1.6.4 2.6 4.9 2.6 1.6 0 3.2.4 3.5 1 .3.5-.3 1-1.4 1-1.2 0-2.1.4-2.1.9 0 2.4-3.4 4.1-8 4.1-3.9 0-5.4-.5-7.9-2.9-3.1-2.9-4-5.1-2.1-5.1.6 0 1 .7 1 1.5 0 1.3.4 1.3 3.4-.1 2.5-1.2 3.3-2.3 3.3-4.3.1-5.4 1.2-15.1 1.9-16.3 1.1-1.7 2.2 1.8 2.3 6.9m36.4-.4c1.3.4 1.7 1.6 1.7 5.2 0 2.9-.4 4.4-1 4-1.2-.7-6.4-10.8-7.5-14.5-.6-2.1-.3-1.9 2.1 1.2 1.6 2 3.7 3.9 4.7 4.1M208 181c-4.8 4.2-10.6 4.2-15.2 0l-3.2-3h10.9l11 .1zm52.2 0c-2.6 2.5-4.1 3-8 3-4.1 0-5.3-.5-7.7-3l-2.9-3h11l10.9.1zm-138.8 6.1c-3.1 6.2-3.8 7.1-4.5 5.4-1.3-3.3-1-6.5.5-6.5.8 0 2.7-1.5 4.3-3.3 1.5-1.9 2.9-3.3 3.1-3.1.2.1-1.3 3.5-3.4 7.5m23.7.7c1.5 1.5 3 3.8 3.4 5.2.6 2.2.4 2.1-1.4-.7-2.8-4.5-7.4-6.7-12.5-5.9-4 .6-4 .5-1.6-.9 3.4-2.1 8.9-1 12.1 2.3m38.3.3c2.5 2.2 4.6 4.8 4.6 5.8 0 .9 1.1 3.2 2.5 5.1 2.7 3.7 2 6-2 6-2.8 0-4.8-2.3-7.5-8.4-2.6-6.1-2.2-7.4 1.2-4.7 3.7 3 5.6 2.6 2.7-.5-7.1-7.6-14.4-6.9-20.1 2-1.7 2.7-1.9 2.8-1.2.6 1-3.6 4.3-8 6.8-9 4.7-1.9 8.2-1.1 13 3.1m-69.1 4.4c.7 6.8 3.4 12.5 6.8 14.4 4 2.2 7.5-.8 12-10.4 4.2-8.8 5.1-8.8 1.8 0-3.8 10.3-9.3 14.6-15.3 12.1-2.4-1-3.8-2.6-5.4-6.3-2.4-5.7-3.7-12.5-2.8-14.8 1.1-2.9 2.3-.7 2.9 5m-51.9-1.2c2.1 13.6 15.4 23.8 29.2 22.4 5.4-.6 14.3-4.5 18.1-8 2.5-2.3 4.3-1.6 2.7 1.1-1.9 2.9-10.5 8.2-16.2 9.8-14.3 4.2-29.8-3.9-35.2-18.3-2.4-6.3-2.6-11.3-.6-11.3.9 0 1.6 1.6 2 4.3m138.3 1.1c-.7 7-4.5 14.7-8 16.4s-8.3.3-12-3.6c-2.6-2.7-7.4-15.8-6.2-17 .3-.3.9.5 1.2 1.8 1.3 4.8 6.9 14.5 9.6 16.4 2.7 2 2.8 2 6.1.2 4-2.1 6.2-6.4 7.1-13.9.9-7.4 3-7.6 2.2-.3m53.3-4c0 .8-.9 4.4-2.1 8.1-2.4 8-7.8 14.4-15.4 18.3-4.2 2.2-6.3 2.7-13 2.7s-8.9-.4-13.5-2.7c-6.1-3-11.6-8-10.6-9.7.4-.6 2.8.5 6.1 2.8 6.8 4.8 12.9 6.5 20.3 5.8 6.8-.6 12.4-3.2 16.9-7.9 3.9-4.1 7.2-11.2 7.3-15.6 0-2.5.4-3.2 2-3.2 1.1 0 2 .6 2 1.4m-122.5 6.2c-1.9 5-6 10.4-7.9 10.4-.7 0-2-.6-3.1-1.3-1.7-1.3-1.6-1.7 2.5-7.1 4.3-5.7 9.2-9.4 9.9-7.4.2.5-.5 3-1.4 5.4m61.4 1.1c1.2 1.8 1.8 3.3 1.2 3.3-1 0-4.1-5-4.1-6.6 0-.8 0-.9 2.9 3.3m-139.5 8c1.5 4.2 1.5 4.9 0 7.1-1.5 2.3-1.6 2.3-3.5.6-1-.9-1.9-2.4-1.9-3.2 0-2.4 2.3-9.2 3.1-9.2.4 0 1.4 2.1 2.3 4.7m209.9.8c1.4 3.8 1.4 4.2-.4 6.5l-1.9 2.5-1.9-2.3c-1.6-1.8-1.8-2.8-.9-5.5.5-1.7 1.2-4 1.5-5 .7-2.3 1.6-1.3 3.6 3.8M159 209.6c0 1.2-2.1 4.4-2.9 4.4-.4 0-1.3-1.1-1.9-2.5-1.1-2.4-1-2.5 1.8-2.5 1.7 0 3 .3 3 .6m-2.3 9.6c-.3.7-.5.2-.5-1.2s.2-1.9.5-1.3c.2.7.2 1.9 0 2.5m-34.7-.6c0 .8-.4 1.2-1 .9-.5-.3-1-1-1-1.6 0-.5.5-.9 1-.9.6 0 1 .7 1 1.6m70.5-.7c.3.5.1 1.2-.5 1.6-.5.3-1-.1-1-.9 0-1.8.6-2.1 1.5-.7m-25.1 8.3c.7 3.7-.5 5.6-2.3 3.4-1.2-1.4-.5-6.6.9-6.6.4 0 1 1.4 1.4 3.2M91 227c0 .5-.5 1-1.1 1-.5 0-.7-.5-.4-1 .3-.6.8-1 1.1-1 .2 0 .4.4.4 1m32.3 5.7c1.4 5.2 1.4 5.8-.1 7.9-2.2 3-2.8 3-4.7 0-1.5-2.2-1.5-2.9 0-8 .9-3.1 2-5.6 2.4-5.6s1.5 2.6 2.4 5.7m71.7 4.4c0 1.4-.8 3.3-1.8 4.3-1.8 1.5-2 1.5-3.6-.3-1.7-1.8-1.7-2.2 0-8.2l1.8-6.3 1.8 3.9c.9 2.2 1.8 5.2 1.8 6.6m-126.6-3.4c1.6 4.6 1.5 4.8-.4 6.8-2.1 2-2.1 2-3.6 0-.8-1.1-1.2-3-.9-4.2.8-3.3 2.4-7.3 2.9-7.3.2 0 1.1 2.1 2 4.7m179-.1c1.2 3.6 1.3 4.9.3 6.5-.6 1-1.6 1.9-2.2 1.9s-1.6-.9-2.2-1.9c-1-1.6-.9-2.9.3-6.5.9-2.5 1.7-4.6 1.9-4.6s1 2.1 1.9 4.6m-87.3 3.3c1.6 4.7 1.6 5-.2 8-1 1.7-2.1 3.1-2.4 3.1s-.5-3.9-.5-8.7c0-4.7.3-8.3.7-8 .3.4 1.4 2.9 2.4 5.6m-5.1 3.2v8.2l-2-2.6c-1.1-1.4-2-3.1-2-3.8 0-1.5 3.1-9.9 3.6-9.9.2 0 .4 3.7.4 8.1M166.5 122c-.3.5.6 1.7 2 2.6 2.2 1.4 2.5 2.3 2.5 7.3 0 5.9 1.8 10 3.8 8.7 1.7-1 1.5-9.1-.2-12.4-1.3-2.4-5.9-7.2-7-7.2-.3 0-.7.4-1.1 1m7.2 12.2c-.3.7-.5.2-.5-1.2s.2-1.9.5-1.3c.2.7.2 1.9 0 2.5m-42.6 77.1c-.5 1.4-1.3 4.1-1.6 6.1-.6 3.2-.5 3.6 1.3 3.6 3.4 0 5.6-8.6 2.7-11-1.2-1-1.6-.8-2.4 1.3m12.8 11.6c-1.9 5.8-2 7.2-1 8.5 1.9 2.3 4.8 2 6.6-.8 1.5-2.2 1.4-2.9-.2-8.5-1-3.3-2.1-6.1-2.5-6.1s-1.7 3.1-2.9 6.9m3.9 4.8c-.4 3.4-2.8 4.3-2.8 1.1 0-1.3.3-3.4.7-4.7.5-2 .7-2.1 1.5-.7.5.9.8 2.8.6 4.3M89 233.2c0 1.3-.4 2.8-.9 3.3-.4.6-1.8 3.8-2.9 7.2l-2 6.2 3.4 3.8 3.4 3.8 3-3.3c3.6-3.8 3.7-5.1.9-12.8-1.1-3.2-2.2-6.8-2.2-7.8-.3-2.9-2.7-3.2-2.7-.4m3.4 11.2c1.3 4.3 1.3 5.1-.1 7.2-1.9 3-2.4 3-4.6-.1-1.7-2.4-1.7-2.8-.1-8 1-3 2.1-5.2 2.6-4.7.4.4 1.4 2.9 2.2 5.6m128.1-11.2c-.2.7-1.6 4.8-3 9l-2.7 7.7 2.7 3.5c1.5 2 3.3 3.6 4 3.6 1.7 0 6.5-5.7 6.5-7.6 0-.8-1.2-5.1-2.6-9.4-2.5-7.6-3.9-9.6-4.9-6.8m3.8 11.3c1.4 4.8 1.3 5.2-.5 7.5l-1.9 2.3-2.1-2.1c-2.1-2.1-2.1-2.1-.3-8.2 1-3.3 2.2-5.7 2.6-5.3s1.4 3.1 2.2 5.8M178 263c-.9.5-10 1-21.5 1-11 0-20.5.4-21.2.8-1.3.8-4.9 44.9-3.8 46 .3.4 5.9.7 12.4.7 11.3 0 11.9.1 16.7 3 6.7 4.1 9.4 9.5 9.4 18.8 0 12.9-7.8 21.7-19.3 21.7-3.7 0-10.6-3.4-15.6-7.7-5-4.2-6.3-3.6-8.6 4-1.4 4.9-1.4 5.2.6 7.3 4.6 4.9 19 7.6 29.1 5.5 23.8-5 37.7-27.6 29-47.3-4.3-9.8-12.4-15.9-24.3-18.4-6.7-1.4-9.1-1.4-16.9.2l-2.5.5.7-8.3c.3-4.6.7-9.1.7-10 .1-1.6 1.9-1.8 18.9-2l18.7-.3 1.2-4.9c2.1-8.5 2.1-11.1-.2-11.4-1.1-.1-2.7.2-3.5.8m1.5 7.2-1.1 5.3-19.1.3-19.1.2-.6 9.8c-.4 5.3-.8 11.2-1.1 12.9-.4 3.7-.7 3.7 8.7 2.2 26.6-4.1 44.8 17.6 34.6 41.3-2.7 6.4-11.1 14-18.6 16.9-11 4.2-26.8 3.3-33.1-1.8-1.9-1.6-2-2.2-1.1-5.6 1.3-4.4 2.8-4.7 6.1-1.1 5.8 6.2 15.9 8.8 23.4 6 5.4-2.1 11.7-8.9 13.3-14.4 1.9-6.4 1.5-15.9-.9-20.9-4.6-9.4-14.2-13.8-28.7-13.1l-8.4.5.6-6.1c.3-3.4.8-10.6 1.1-16.1s.8-12.1 1.1-14.8l.6-4.7 19.1-.1c10.6 0 20.1-.4 21.2-.9 3.2-1.4 3.3-1.3 2 4.2"/></svg>