<svg xmlns="http://www.w3.org/2000/svg" width="1440" height="1377.333" viewBox="0 0 1080 1033"><path fill="#FF3D00" d="M540.6 15.1c-.3 1.3-1.2 15.6-2 31.7L537.1 76l-3.5 3.1c-5.9 5.1-6.1 12-.5 18.3 4.1 4.8 3.7 8.5-1.1 10.1-4.2 1.4-5.2 4.7-2.1 6.7 1.8 1.1 2.1 2.3 2.1 7.4 0 5.5-.3 6.4-2.5 7.8-1.9 1.2-2.5 2.5-2.5 5.1 0 6.5-2.1 13.7-4.1 14.2-1.1.3-2.2 1.5-2.5 2.8-.5 2-1.4 2.3-11.2 3.3-5.9.6-10.8 1-10.9.8-.1-.1-.6-4.2-.9-9-.4-5.3-1.2-9-1.9-9.2-1.4-.6-29.2 3.4-57.5 8.2-16.1 2.7-21.2 3.9-24.1 5.8-4 2.7-6.5 7.1-7.5 13.4-.4 2.3-1.2 4.2-1.8 4.2-2.6 0-35.9 17.3-46.8 24.3-63.3 40.6-112.6 105.3-135.8 178.2-9.9 31.1-13.1 52-13.7 90-.4 25.9-.7 29.2-2.3 31-2.8 3.2-3.7 5.6-4.5 11.5-.6 4.9-1.1 5.8-4.6 8.2-2.1 1.5-5.1 4.6-6.6 6.9-2.4 3.6-2.8 5.3-2.8 10.8.1 8.1 2 12.1 8.1 16.4l4.4 3.1v21.2l-5.7 1.8c-9 2.9-18.7 8.1-22.1 12.1-2.7 3-3.2 4.4-3.2 8.5s.5 5.5 3 8.3c2.5 3 3 4.3 3 8.9v5.5l-8.6 4.2c-12.4 6.2-15.2 12-9.5 20 1.2 1.6 2.1 3.6 2.1 4.6 0 4.9 8 13.2 15.7 16.1l4.3 1.7v8.8c0 4.8-.5 9.1-1 9.4-1.3.8-1.3 6.2 0 7s1.3 8.5 0 8.5c-1.6 0-4 5.6-4 9.3 0 3.9 2.8 8 6.8 9.9 2.1 1 2.8 2.2 3 4.8.1 1.9.2 50.7.1 108.5-.1 88.3-.3 105.3-1.5 106.6-.8.8-1.4 2.2-1.4 3 0 2-2 3.9-4.1 3.9-1 0-2.5 1-3.3 2.2-1.6 2.2-1.6 2.2-1.6-.9 0-2.2-.8-3.8-2.7-5.2-2.3-1.9-2.8-2-4.3-.6-.9.8-2 1.5-2.3 1.5-.4 0-.7-4.7-.7-10.5 0-8.2.3-10.7 1.4-11.1 2-.8 5.2-11.2 3.9-12.5-.6-.6-3-1.3-5.4-1.6s-5.3-1.4-6.4-2.5-3.5-2.8-5.3-3.9l-3.4-2 2.6-2.5c7.4-7.5 4.9-20.2-4.9-24.5-13-5.7-25.1 8.1-18.5 21.1 1.1 2.1 2.8 4.4 3.7 4.9 1.6.9 1.6 1.2.3 2.1-.8.5-2.2 1-3.1 1s-2.8 1.4-4.2 3c-2.3 2.5-3.5 3-7.3 3h-4.7l.6 5.2c.4 2.9 1.6 6.5 2.7 8 1.7 2.4 2 4.2 2 14.7 0 11.5-1.1 16.3-2.4 10.1-.4-2-1.1-3-2.4-3-2.1 0-6.2 4-6.2 6 0 .8-1.4-.2-3.1-2.3-2-2.4-3.9-3.7-5.4-3.7-2.9 0-4.9 3.2-4.2 6.6.3 1.8 0 2.4-1.3 2.4-2.3 0-4.2 2.4-3.4 4.3.5 1.3 0 1.5-2.8 1.1-1.8-.3-3.9-.1-4.7.5-2 1.3-.5 5.9 3.1 9.3 2 1.9 2.5 2.8 1.5 2.8-3.3 0-6.7 2.3-6.7 4.5 0 2 1.5 3.2 6.5 5 1.9.7 1.8.8-.5 1.4-1.8.5-2.6 1.6-3 3.6l-.5 2.9-2.3-2.8c-1.2-1.6-2.2-3.2-2.2-3.7 0-1.7-4.2-2-6-.4-1.1 1-2.6 1.4-4.2 1-1.7-.4-3.1-.1-4.2 1-1.6 1.6-1.5 1.9.3 5l1.9 3.3-3 .6c-2.6.5-3 1-2.6 3.1.5 2.3.2 2.5-3.2 2.5-7 0-7.4 4.9-.8 9l3.1 1.8-4 1.1c-4.4 1.2-6.9 3.4-5.8 5.1.4.6-1.6 1-5.7 1.1-19.4.4-29.3 1.4-29.3 2.9 0 1.3 9.2 1.6 74.5 2.1 41 .4 112.5 1.3 159 2 113 1.7 475.3 1.7 588.5 0 47.3-.8 119.1-1.6 159.5-2 64.4-.5 73.5-.8 73.5-2.1 0-1.5-9.8-2.5-29.1-2.9-5.1-.1-6.2-.4-6-1.8.1-1.6-2.6-3.5-6.7-4.7-1.4-.5-1.1-1.1 2-4 3.2-2.9 3.6-3.8 2.7-5.3-.6-1-2.7-2-5-2.3-3.4-.4-3.9-.8-3.9-3 0-1.9-.6-2.6-2.9-3l-2.8-.5 2.1-1.9c3.7-3.4 1.6-8.5-3-7.3-1.3.3-2.8-.2-4-1.4-2.5-2.5-4.8-1.4-7.8 3.6-2.4 4.1-4.1 4.5-4.1.9 0-1.7-.6-2.8-2-3.1-2.5-.7-2.6-2.3-.2-2.3 2.1 0 6.2-2.7 6.2-4.1 0-1.8-4-4.9-6.4-4.9-2.3 0-2.3-.1 1.1-3.5 2.6-2.6 3.4-4.1 3.1-6.2-.3-2.6-.6-2.8-4.9-2.7-4.5.2-4.5.1-4.1-2.7.4-2.4.1-2.9-1.6-2.9s-2.1-.7-2.4-3.6c-.4-4.7-2.7-6.3-6.3-4.4-1.5.8-3.2 2.5-3.9 3.8l-1.3 2.4-2.1-3.6c-2.2-3.7-4.8-4.6-7-2.4-.7.7-1.2 2-1.2 3.1 0 1-.4 1.5-1 1.2-.6-.4-1-5.7-1-12.6 0-10.5.3-12.3 2-14.7 1.1-1.5 2.3-5 2.6-7.8l.6-5.1-4.9-.5c-3.5-.3-5.6-1.2-7.5-3.1-1.5-1.5-3.3-2.7-4.1-2.7s-2-.7-2.7-1.5c-.8-1-.9-1.5-.1-1.5.6 0 2.3-1.8 3.7-4 2.3-3.4 2.6-4.8 2.2-9.5-.4-4.6-1-6.1-3.8-9.1-5.5-5.5-12.2-6.4-18.9-2.3-7 4.3-8.6 16-3 22.3l3 3.5-4 2c-2.2 1.2-4.2 3-4.6 4.1-.5 1.4-1.5 2-3.8 2-4.4 0-7.5 1-8.1 2.5-.7 2 2.4 11.6 4 12.2 1.1.4 1.4 2.9 1.4 10.9V939l-2.5-1.6c-2.3-1.5-2.5-1.5-5 1-1.4 1.4-2.5 3.5-2.5 4.8-.1 2.1-.2 2.1-1.3.6-.7-.9-2.4-1.8-3.7-2-1.6-.2-3.1-1.7-4.7-4.8l-2.3-4.4.2-108 .3-108.1 3.7-1.7c4.6-2.2 6.8-5.3 6.8-9.6 0-3.6-2.5-9.2-4-9.2-1.3 0-1.3-7.7 0-8.5.6-.3 1-1.9 1-3.5s-.4-3.2-1-3.5c-.5-.3-1-4.6-1-9.5v-8.8l3.4-1.2c8.5-2.8 16.6-10.6 16.6-16.1 0-1.2 1-3.3 2.1-4.5 1.2-1.3 2.3-4.1 2.6-6.6.7-5.9-2.6-9.7-12.3-14.4l-7.4-3.5v-5.4c0-4.1.6-6.3 2.5-9.1 3.3-4.9 3.4-11.7.2-16.5-2.4-3.6-12.7-9.4-22.7-12.7l-5.5-1.9-.3-10.4-.3-10.5 4.7-3.4c6.2-4.4 8.8-10.1 8.2-18-.5-6.6-3.4-11.4-9.8-15.9-3.4-2.3-3.9-3.2-4.5-8.3-.4-3.6-1.7-7.3-3.5-10.1l-2.8-4.4-.5-27.9c-.4-21.4-1-31.1-2.6-41.9-7.2-47.1-25.4-93.4-53-134.3-11.8-17.6-24-32.2-41.6-49.7-19.7-19.8-36.4-33.1-57-45.6-10.9-6.6-34.7-18.6-40.2-20.3-1.6-.5-2.3-1.8-2.8-4.9-1-5.7-4.3-11.4-8.1-13.8-2.1-1.3-10-3.1-23.5-5.4-23.2-4-53.4-8.5-56.5-8.5-2 0-2.2.7-2.9 9.6l-.7 9.6-3.2-.6c-1.7-.2-6.6-.8-10.8-1.2-6.9-.6-7.7-.8-8.2-2.9-.3-1.3-1.5-2.6-2.5-3-1.6-.5-2.2-2.2-3.2-9.7-1-6.9-1.7-9.2-3-9.5-1.2-.3-1.8-2.1-2.3-6.6-.6-5.9-.5-6.3 2-8.3 3.4-2.8 2.8-5.4-1.6-6.9-2.7-.9-3.6-1.8-4.1-4.4-.5-2.5-.3-3.4 1.2-4.2 2.9-1.5 4.9-6.3 4.9-11.5 0-4.2-.4-5.1-3.9-8.3l-3.9-3.6-1.7-31c-.9-17-1.8-31.2-2-31.4s-.6.7-.9 2m5.7 69.1c.9 1.1 1.7 2.9 1.7 3.9 0 2.7-3.6 5.9-6.7 5.9-6.2 0-8.5-7.1-3.6-10.9 3-2.4 5.8-2 8.6 1.1m3.1 54c.4 2.9 1 6.3 1.3 7.5.5 2.3.4 2.3-9.2 2.3h-9.7l.7-6.8c.4-3.7.9-7 1.2-7.5.2-.4 3.7-.7 7.7-.7h7.3zm-62.4 7.1c0 .2-.9 3-2 6.3-6 17.4-13.3 54.5-17.4 88.4-6.3 51.9-8.6 102.1-8.6 185.6v56.1l-16.7.7c-25.6 1-54 2.5-61.6 3.2l-6.9.6.4-2.7c.7-6 1.9-6.3 41.3-8.2l36-1.8.6-63.5c.6-61.9 1.4-83.4 4.5-122.5 4.1-53.6 11.1-95.1 21-126.6 1.4-4.4 2.3-8.3 2.1-8.5-.6-.6-39.2 5.5-42 6.6-3.5 1.4-.3 1.1 17.8-1.5 9.4-1.4 17.7-2.5 18.6-2.5 1.4 0 1.2 1.5-1.7 10.7-1.9 5.8-3.4 11.2-3.4 11.9s-.4 1.6-1 1.9c-.5.3-8.7 1.5-18.2 2.5-9.5 1.1-19.4 2.2-22.1 2.6l-4.7.7 1.6-3.9c.9-2.2 3.1-7 5-10.8s3.3-7 3.1-7.2c-.8-.8-3.7 3.4-7.5 11.1-13.8 27.7-26.3 82.8-32.7 144-3.4 33.5-4.7 58.4-5.2 105.5-.4 34.1-.9 48.7-1.7 49.2-.6.4-2 .8-3 .8-1.8 0-1.9-1.3-1.3-47.8.6-47.6 1.4-64.9 4.2-96.2 5.9-64.2 19.3-124.5 34.5-155.1 1.6-3.3 5.1-8.7 7.8-11.8 2.6-3.1 5.4-6.6 6.2-7.8 1.5-2 4-2.5 49-9.6 1.4-.2 2.8-.5 3.3-.6.4 0 .7.1.7.2m136.5 4.3c21.3 3.4 23.1 3.8 25 6.2 1.1 1.4 4 4.8 6.3 7.6 5.8 6.8 10.2 15.7 15.7 31.7 10.9 31.8 20.3 80 25 127.4 3.2 33.2 3.7 43.4 4.2 96.8l.6 54.8-2.9-.4-2.9-.4-.6-54.4c-.6-53.1-1.3-68.6-4.5-99.4-6.8-66.9-21.9-130.9-36-152.1-4.9-7.4-6.3-6.8-2 .8 1.9 3.5 4.4 8.7 5.6 11.7l2.1 5.3-3.3-.6c-1.8-.3-12.1-1.5-22.8-2.7-10.7-1.1-19.5-2.1-19.6-2.2s-1.7-5.7-3.6-12.5c-2.9-10.3-3.2-12.2-1.9-12.2.9 0 9 1.1 18.1 2.5s17.6 2.5 19 2.4c5.6-.1-1.9-1.9-18.5-4.4-9.3-1.4-18.7-2.8-20.7-3.1-2.1-.3-3.8-.2-3.8.4 0 .5 1.6 6.2 3.5 12.8 8 27.1 14 62.3 17.5 101.4 4.1 47 5.2 74.6 5.9 142.5l.6 64 16.5.7c9.1.3 25.5 1.2 36.5 1.8 19.4 1.1 20.1 1.3 22.8 3.8 1.5 1.4 2.7 3.4 2.7 4.5 0 1.8-.5 1.9-7.2 1.3-11.4-1-38.5-2.4-58.9-3.2l-18.6-.7-.6-63.6c-1-98.1-4.7-156.7-13.3-209.1-4.1-25.2-10.3-52.7-13.9-62.2-.6-1.5-.3-1.7 2.1-1.3 1.6.2 13.3 2.1 25.9 4.1m-72.1 1.3c1.6.3 3.1 1 3.3 1.6s-4.8 1-13.7 1-13.9-.4-13.7-1c.7-1.9 17.4-3.1 24.1-1.6m-125 5.6c-1.5 2.3-8.2 5.1-10.6 4.3-1.9-.7 2.7-5 6.2-5.8 5.9-1.4 6.2-1.3 4.4 1.5m238.4 1.2c1.3 1.4 2.1 2.7 1.9 2.9-.2.3-2.2.2-4.5-.2-2.8-.4-4.6-1.5-6.2-3.6l-2.2-3 4.3.7c2.8.4 5.2 1.6 6.7 3.2m-85.5 1.9 3.7.6v5.4c0 5.1-.1 5.4-2.2 4.9-13.2-3.1-65.4-3.1-79.4 0-1.9.4-2.2-.1-2.7-4.8-.2-2.8-.4-5.3-.3-5.4 1.7-1.9 70.2-2.5 80.9-.7m-88.4 21.9c0 .5-.5-.1-1-1.4s-1.2-2.1-1.5-1.8c-1.5 1.5-8.3 45.8-11.3 73.7-5.1 46.7-9 118.4-9.2 169.7 0 13.2-.4 23.5-1 23.8-2 1.3-.5-101.5 2.1-140.5 3.3-49.1 9.6-98.3 15.6-122 3.4-13.1 3.5-13.2 5-7.5.8 2.7 1.3 5.4 1.3 6m-79-3.3c-1.8 3.5-4 8.7-5 11.7-1.1 3-4.3 8.3-7.4 12.2-17.6 21.8-35.2 55.8-46.6 89.9-14.4 43.4-21.5 88.7-22.1 141.7l-.3 22.1-6.5.7c-8.7.9-28.7 3.4-32.7 4l-3.3.6v-14.8c0-39.1 6-82.5 16.1-117 20.7-70.9 61-130 105.4-154.5 2.8-1.5 5.1-2.8 5.3-2.8.1 0-1.2 2.8-2.9 6.2m164.4-4.6c5.7.6 5.7.6 5.7 4v3.4l-7.2-.7c-9.5-1-56-1-66.5 0l-8.3.7v-6.8l10.8-.7c5.9-.3 11.6-.8 12.7-1 2.8-.5 45.7.4 52.8 1.1m21.3 11.9c3.2 15.5 7 38.7 8.9 55.5.8 7.4 1.7 15.7 2.1 18.4.4 4.3.3 4.8-1 3.7-.8-.7-1.7-3.1-2-5.4-3.7-28.9-5.3-40.4-8.2-58.2-1.9-11.5-3.4-21.1-3.4-21.2 0-.2-.4-.3-1-.3-.5 0-1 .7-1 1.7 0 .9-.3 1.4-.6 1.1s0-2.5.7-4.7c.7-2.3 1.6-3.8 2.1-3.3s2 6.2 3.4 12.7m78.5-8.7c21.1 12.4 42.5 34.3 61.2 62.7 9.2 14.1 24.7 45 31 62 16.1 43.6 24.7 93 24.7 142.7 0 14.4-.2 15.8-1.7 15.7-1 0-10.4-1-21-2.2l-19.1-2.2-.6-26c-1-47.6-6.2-84.7-17.1-123-11.4-39.9-30.7-79.3-51.1-104.5-3.5-4.4-6.2-9.1-8-14-1.4-4.1-3.5-9.2-4.5-11.3-1.1-2-1.6-3.7-1.2-3.7.5 0 3.8 1.7 7.4 3.8m-287.6 8.5c-14.6 11.6-32.4 31.7-45 50.7-37.1 56.2-56.2 122-58.3 200.9l-.7 24.4-16.5 2.8c-9.1 1.5-17.1 2.8-17.9 2.9-2.8 0 .6-52.9 4.9-77.1 5.9-32.6 16.1-63.3 30.5-92.1 23.2-46.1 60.3-87.9 98.9-111.4 8.4-5.2 9.5-5.5 4.1-1.1m194.3-1.2c8 1.1 9.2 1.5 9.2 3.2s-.5 1.9-4.2 1.3c-22.9-3.3-57.5-3.8-81.7-1.2-8.4.9-15.6 1.4-15.9 1.2-.2-.3-.2-1.2.1-1.9.4-1 3.8-1.8 11.9-2.6 6.2-.6 12.7-1.3 14.3-1.5 6.6-.9 57.6.3 66.3 1.5m127.7 11.1c64.6 45.9 109 127.4 118.9 218.3 1.9 17.3 3.3 53.5 2 53.5-.5 0-6.5-1.1-13.4-2.4s-14.6-2.7-17.2-3l-4.8-.7v-17.3c0-87-26.6-171.2-72-227.3-7.5-9.4-23.6-25.7-31-31.6l-3.5-2.8 5 2.7c2.8 1.5 10 6.2 16 10.6M467 183.7c0 .4-1.3 7.2-3 15.2-3.3 16.3-6.3 36-8.2 54l-1.2 12-4.1.5c-2.2.3-11.9 1-21.5 1.6s-19.6 1.3-22.2 1.7c-3.7.4-4.8.2-4.8-.8 0-2.5 6-31.2 9.1-43.4 3.4-13.6 9.4-33.3 10.8-35.5 1.3-1.9 45.1-7.1 45.1-5.3m177.3 2.3c8.2 1 15.2 2.2 15.7 2.6 1.4 1.5 8 23.3 11.5 37.9 3.4 13.8 8.8 41.5 8.3 42.1-.2.1-5.5-.2-11.8-.7-6.3-.4-17.9-1.3-25.8-1.7-7.8-.5-14.5-1.1-14.7-1.4-.3-.3-1.6-9.7-3-20.9-2.6-20.9-6.3-43.5-8.9-54.7l-1.5-6.4 7.7.7c4.2.4 14.4 1.5 22.5 2.5M370 193.4c0 .2-3.4 2.7-7.4 5.5-13.8 9.5-27.5 22.9-43.6 42.4-29.7 35.9-50.1 77.1-61.9 124.8-6.9 27.7-9.7 49.1-10.9 81.8l-.7 20.3-7 1.8c-3.8 1-8.3 2.3-9.9 2.9l-2.9 1.2.6-21.8c1.7-64.6 22.5-128.4 59.8-183.3 15.9-23.4 38.4-44.9 70.8-67.4 12-8.3 13.1-9 13.1-8.2m357.5 9.9c29.5 20.5 56.2 46.7 70.7 69.2 23.2 36.3 39.3 74.7 48.8 116.3 4.9 21.6 7 38.8 7.7 62.9l.6 22.1-5.9-1.8c-3.2-1.1-7.8-2.4-10.1-3l-4.3-1.1v-11.7c0-31.2-4.2-65-11.5-92.8-14.8-56.2-40.3-102.5-77.4-140.6-7.4-7.7-17.8-17.2-23.1-21.1-16.1-11.9-13.8-11.2 4.5 1.6m-149 .1c15.3 2.1 16.2 2.4 16.8 4.8.6 2 .3 2-4.6 1.4-22.8-3-30.6-3.5-48.2-3.6-18.4 0-38.6 1.5-51 3.9-2.7.5-5.1.8-5.2.7s0-1.1.3-2.3c.5-1.8 2-2.3 11.2-3.7 5.9-.9 15-2.1 20.2-2.6 13-1.2 47.1-.4 60.5 1.4M399.9 211C383.6 263.5 372 356.3 372 435.6v17.1l-17.2 1.2c-9.5.7-18.3 1.5-19.5 1.8-2.3.5-2.3.4-2.3-10.8 0-15.8 1.7-45.7 3.6-62.4 6.5-58.5 23.3-112.2 47.9-153.5 5.7-9.6 16.6-25.3 17.1-24.7.2.2-.6 3.2-1.7 6.7m285.7-.5c40.1 56.2 62.3 138.2 62.4 229.9v14.9l-8.2-.7c-4.6-.3-13.3-.9-19.4-1.2l-11.1-.7-.6-36.6c-1-63.5-5.7-109.3-17.1-166.1-3.1-15.2-9-38.9-11.1-44.3-1.4-3.3.4-1.6 5.1 4.8m-96.1 44.9c6.8 3.2 13.7 10.7 17.6 19.1 4.5 9.5 5.2 20.8 1.7 27.5-1.8 3.5-3.1 4.8-6.1 5.7-8.8 2.9-21.4-3.8-29.4-15.9-10-14.9-9.2-31.6 1.7-37 4.7-2.4 8.5-2.2 14.5.6m-135.8 18.8c-2.5 24.6-4.5 64.5-5.4 104.8l-.6 31-3.1.4c-1.7.3-10.7.8-20.1 1.1-9.3.3-21 .8-25.9 1.2l-8.9.6.7-20.9c.9-26.3 2.1-45.4 4.6-70.9 1.9-19.4 5.8-48.6 6.5-49.4.3-.3 24.2-2.2 42.5-3.4 3-.2 6.6-.4 7.9-.5 2.3-.2 2.4-.1 1.8 6m202.8-4.2c7.7.6 16.3 1.3 19.1 1.6l5.1.5 2.6 19.7c4.6 33.7 6.1 53.8 8.2 106.1l.6 15.4-7.8-.6c-4.3-.4-16.1-.9-26.3-1.2-10.2-.4-20-.8-21.7-1.1l-3.3-.5v-18.2c0-29.7-3.5-103.7-5.6-119.1l-.7-4.8 7.9.6c4.3.4 14.2 1.1 21.9 1.6M565 290.5c3.8 8 13.4 18.1 20.3 21.4 2.6 1.3 7.1 2.7 10 3.2l5.2.8-6-.5c-3.3-.3-6.9-.6-8-.7-1.3-.1-3.9 1.9-7.7 6l-5.7 6.1-4.3-2.7c-9.6-6.1-17.9-18.6-20-30.1-1.3-7.5-.6-9.3 6.2-17.5l5.5-6.7.6 7c.5 4.7 1.7 9.1 3.9 13.7m-289.5-9.1c-7.2 11-21.2 38.1-26.8 52.1-16.9 41.4-25.7 84.2-25.7 124.6v16.5l-3.5 1.7c-2 .9-4.1 1.7-4.7 1.7-1.5 0-.4-33.2 1.7-49.8 6.5-51.8 25.7-100.8 57.1-145.9 3.6-5.1 6.7-9.3 6.9-9.3.3 0-2 3.8-5 8.4m526.6-6.7c1.3 1.6 1.2 1.7-.3.4-1-.7-1.8-1.5-1.8-1.7 0-.8.8-.3 2.1 1.3m7.2 10.2c37.9 55 57.5 117.1 57.7 182 0 10.4-.1 11.3-1.7 10.6-1-.4-3-1.1-4.4-1.7l-2.6-.9-.6-22.2c-.6-22.4-1.1-27.5-4.8-49.2-6.8-39.4-24.2-85.8-44.3-117.8-3-4.8-5.3-8.7-5.1-8.7s2.8 3.6 5.8 7.9m-263 4.6c-1.9 9.5 8.9 28.8 20.2 36.3l4.5 3-7.5 8c-4.1 4.4-7.5 8.3-7.5 8.6 0 1.1 8.5 4.6 13.3 5.5 3.9.8 3.9.9 1 1-6.3.2-13.6-3.5-22-11.3-9-8.4-13.7-16.2-15.4-25.1-1.7-9.1-.6-12.3 6.7-20.9 3.6-4.2 6.7-7.6 6.8-7.6.2 0 .1 1.1-.1 2.5m-19.7 25.8c0 6 .6 8.4 3.3 14.1 4.2 8.8 14.3 19.2 22.7 23.4 6.6 3.4 17.2 5.7 21.3 4.7 2-.5-.2 2.2-8.9 11-6.3 6.3-11.6 11.1-11.8 10.6s3.7-5.2 8.7-10.3l8.9-9.3-6.1-1.1c-3.4-.7-8.3-2.2-11-3.5l-4.7-2.3-4.3 4.2-4.2 4.1-4-1.4c-5.4-1.9-10.2-1.8-15 .4-8.1 3.7-13.4 11.7-13.5 20.3 0 2.7-.4 4.8-.8 4.8-1.4 0-8.1-9.5-10.8-15.5-3.3-7.1-4.4-18.7-2.3-22.7.8-1.4 8.4-10.7 16.9-20.6 8.5-10 15.5-18.2 15.5-18.2s0 3.3.1 7.3m87.3 30.3c1.1 30.9 1.5 101.2.7 100.3-.2-.2-.9-20-1.5-43.9-.7-23.9-1.6-53.2-2.1-65-1-20.6-.7-26.2 1-24.4.5.5 1.3 15.3 1.9 33m-12.7-14.8c-8.6 9.6-20.8 21.2-22.3 21.2-.8 0 5.1-6.7 13.1-14.8 14.5-15 20.4-19 9.2-6.4m-15.7 2.1c5.2.7 5.4.9 1.9 1-4.5.1-14-2.4-14.9-4-.4-.5 1-.3 3.2.6 2.1.9 6.5 2 9.8 2.4m-96 24.9c0 7 .4 8.6 3.7 15.4 2.5 5 6 9.9 10.3 14.3 3.6 3.6 6.5 7.1 6.5 7.6 0 .6-2.3 3.4-5 6.3-5.7 6-5.7 5.9 3 10.1 3.6 1.8 4.5 2.4 2.5 2-6.6-1.4-18.8-11.2-24.4-19.7-6.8-10-10.1-25.1-6.9-31.1.8-1.6 9.8-12.7 10.2-12.7.1 0 .1 3.5.1 7.8m52.1 7.8c9.1 6.7 10 26.3 1.5 33.8-2.6 2.4-2.7.8-.2-3.6 3.3-5.4 4.3-12.3 3-18.7-.9-4.7-1.9-6.4-5.9-10.3-5-4.8-4.1-5.4 1.6-1.2m-11.1-1.2c10.9 4.6 12.6 24.4 2.8 32.5-3.9 3.2-3.2 4.5 1.6 3.1l3.1-.9v13c0 9.5-.3 13.1-1.2 13.4-.7.2-4.1.6-7.5.8l-6.3.5v-24.6l-4.3-4.4c-6.4-6.7-8.2-14.3-5.2-22.9 1.8-5.1 4.9-8.6 9-10.5 3.8-1.7 3.9-1.7 8 0m42.4 15.1c2.7 9.8.2 19.5-7 26.7l-4.9 4.9v7.9c0 6.4-.3 8-1.5 8s-1.5-1.6-1.5-8.3c0-8.1.1-8.2 3-9.9 4-2.3 8.6-9.8 10.1-16.4 1.2-5.3.8-10-1.6-18.4-.7-2.4-.7-2.4.8-.5.8 1.1 2 3.8 2.6 6m-4.4 3.4c1 7.6-2.9 18.9-7.2 20.5-1.5.6-1.6.5-.1-1.1 4.7-5.4 6.7-16.3 4.5-24.8-.7-2.7-.6-2.8.7-1.2.8 1 1.7 4 2.1 6.6m-83.2 27.8c6.3 6.1 6.8 7.8 1.2 4.3-4.1-2.5-10.7-10.8-13-16.3-2.7-6.4-1.6-6.4 2.2.1 2.1 3.5 6.4 8.8 9.6 11.9m56.6 4c-.1 10.5-.2 11.2-1 6.3s-.3-18 .7-18c.2 0 .3 5.3.3 11.7m-23.9-1.2c0 .8-.7 1.5-1.5 1.5-2.6 0-1.8-2 1.3-2.9.1-.1.2.6.2 1.4m-70 28V470h-2.2c-5.3 0-44.8 2-50 2.5l-5.8.6v-56.9l9.3-.7c5-.3 17.8-1 28.2-1.4 10.5-.4 19.3-.9 19.8-.9.4-.1.7 12.6.7 28.3m211-27c8 .3 18.7.8 23.8 1.2l9.2.6v27.8c0 15.3-.3 27.9-.7 28.1-.5.2-13.7-.3-29.5-1.1l-28.8-1.4v-56.8l5.8.5c3.1.3 12.2.8 20.2 1.1M508.8 424c-4.3 4.9-5.8 6-8.4 6-3.5 0-8.4-3.3-8.4-5.6 0-1 1-.5 3.1 1.5 1.7 1.7 3.9 3.1 4.9 3.1s4-2.5 6.6-5.5c2.7-3 5.5-5.5 6.2-5.5s-1.1 2.7-4 6m-9.8-3.5q2.4 1.35.9 1.5c-.8 0-2.4-.7-3.5-1.5-2.4-1.8-.7-1.9 2.6 0m65.8 11.1c1.5.4 2.2 1.4 2.2 3.1 0 2.4-.2 2.5-4.6 1.8-5.7-.8-37.3-.8-43 .1-4 .6-4.1.5-3.7-2 .4-2.1 1.2-2.6 5.2-3.1 2.5-.4 5.3-.8 6.1-1 2.3-.6 35.2.3 37.8 1.1m4 10c3.6.6 4.2 1 4.2 3.1v2.4l-31.5-.2-31.5-.2v-2.3c0-2.1.6-2.3 7.8-2.9 4.2-.3 8.4-.8 9.2-1 2.1-.6 36.7.4 41.8 1.1m32.5 10.1c10.7.6 10.7.6 10.7 3.2v2.6H469v-2.7c0-2.7.1-2.7 7.3-3.1 13.9-.6 114.5-.7 125 0M372 459.9v2.9l-10.2.7c-61.8 4-117.8 12.9-141.6 22.4-6.4 2.6-6.2 2.5-6.2.2 0-3 4.1-5.5 14.3-8.9 19.3-6.4 60.5-13.3 103.2-17.2 11.6-1.1 22.8-2.1 25-2.3s6.6-.4 9.8-.5c5.7-.2 5.7-.2 5.7 2.7m386.5.6c40.9 4.2 71.2 9.4 91 15.6 13.8 4.3 17.5 6.3 17.5 9.4 0 3 .3 3-5.7.4-20.9-8.9-70.1-17.2-129-21.6l-23.3-1.7v-5.9l13.3.7c7.2.4 23.6 1.8 36.2 3.1m-159.2 1.2 12.7.6V473H469v-10.9l9.3-.4c18.4-.6 108.5-.7 121 0M372 470.5c0 3.8-4.4 11.5-6.6 11.5-5 0-42.7 3.5-60.3 5.6-43.1 5.1-77.1 11.9-93.6 18.8l-3.8 1.6.5-4.5c.3-2.5 1.3-5.6 2.2-7 3.2-4.9 18.9-11.1 39.1-15.5 24.3-5.2 92-13.3 116.3-13.9l6.2-.1zm366.5-2c58.6 4.7 105.5 13 123.3 21.7 7.8 3.8 11.2 8.1 11.2 14v3.9l-3-1.6c-4.7-2.4-25.4-8.1-39.6-10.9-27.9-5.4-69.7-10.6-106.6-13.2-8-.5-9.8-.9-10.3-2.4-.3-.9-1.4-2.5-2.5-3.5-1.3-1.2-2-3.1-2-5.7V467h5.3c2.9 0 13.8.7 24.2 1.5M598.8 477H611v5H469.9l.3-2.3c.3-2.2.4-2.2 23.3-2.8 12.7-.3 38.8-.5 58-.3 19.3.2 40.5.4 47.3.4M367 486.9c0 1.6-.9 2-6.2 2.5-3.5.3-14.4 1.3-24.3 2.1-65.5 5.8-117.7 15.9-135.5 26.2-4.3 2.5-4.4 2.5-2.5.4 11.1-12.6 61-23.6 140.6-31 26.8-2.5 27.9-2.5 27.9-.2m244 .3v2.3h-70.5c-63.6 0-70.5-.2-70.5-1.6 0-.9.3-1.9.7-2.2.3-.4 32.1-.7 70.5-.7H611zm126.2-.7c80 7.1 132.5 18.2 144.2 30.4 2.5 2.6 2.3 2.5-5.2-1.1-17.4-8.4-54-16.1-104.2-21.7-15.6-1.8-23.7-2.5-50.7-4.7-6.3-.5-7.3-.8-7.3-2.5 0-2.4.6-2.4 23.2-.4m-358.8 7.6c1.2 1-3 1.6-21.9 2.9-34.9 2.4-82.9 8.4-108 13.5-22.8 4.6-42.5 11.3-50 17.1-4 3-4.5 3.2-4.5 1.4 0-6.8 20.9-15.4 53-21.9 26.4-5.4 67.9-10.8 107-14 11-.9 22.9-.4 24.4 1m369.6 1c41.9 3.9 77.6 9.2 101 15.2 24.1 6.2 38 12.8 38 18.2v2.6l-2.2-2.2c-6.3-6-30.3-14.2-56.7-19.3-24.7-4.8-68.3-10.2-102.1-12.6-20.2-1.4-24.4-2-23.4-3 2.3-2.2 12.3-2 45.4 1.1M637.5 502c131.6 5.3 219 18.2 236.8 34.8 4.3 4.1 3.3 5.5-1.5 2.3-20.1-13.4-81.8-23.8-174.8-29.6-42.7-2.6-70-3.5-128-4.2-142.1-1.5-269.3 7-330.3 22.1-14.6 3.7-27.3 8.6-31.7 12.2-3.4 2.9-4 3-3.3.4 1.7-6.5 20.7-14 50.5-19.9 53.5-10.6 129-16.8 238.3-19.5 22.3-.6 118.9.4 144 1.4m-13.7 7.6 9.2.7V546h-4.4c-3.2 0-16.5-4.2-45.6-14.5-22.7-8-41.7-14.5-42.3-14.5-.9 0-8.7 2.7-63.7 22.1-12.3 4.3-21.1 6.9-23.7 6.9H449l-.2-11.3c-.1-6.1-.3-14.1-.4-17.7l-.2-6.5 8.7-.6c12.5-.8 156.1-1 166.9-.3M446 524.2c0 7.9-.3 15.9-.6 18l-.6 3.6-13.2.6c-7.2.3-18.2.7-24.3.9l-11.3.3V512l5.3-.1c2.8-.1 11.1-.5 18.2-.8 7.2-.4 16-.8 19.8-.9l6.7-.2zm229.3-12.5 10.7.6-.2 17.6-.3 17.6-12-.3c-6.6-.1-17.7-.5-24.7-.8l-12.8-.7v-36l14.3.7c7.8.3 19 .9 25 1.3M392 530v18h-8c-8 0-8.1 0-11.1-3.5-1.7-1.9-4.8-4-6.8-4.6-5.4-1.6-12.4 1.5-14.8 6.5-1.2 2.5-2.3 3.6-3.9 3.6-1.2 0-3.6.3-5.3.6l-3.1.6v-17.6c0-15.1.2-17.6 1.5-17.6.9 0 10.2-.7 20.8-1.5 10.5-.8 21.7-1.6 24.7-1.8s5.6-.4 5.8-.5c.1-.1.2 7.9.2 17.8m329-15.5c10.8.8 20.1 1.5 20.8 1.5.9 0 1.2 4.5 1.2 17.6v17.6l-5.7-.7c-3.2-.4-5.8-.8-5.8-.8 0-.1-.7-1.6-1.6-3.2-.9-1.7-3.7-4-6.3-5.4-4.2-2.1-5.2-2.2-8.6-1.2-2.1.6-5.2 2.7-6.9 4.6-3 3.5-3.1 3.5-11.1 3.5h-8v-35.9l6.3.5c3.4.2 15 1.1 25.7 1.9m58.3 5.5 9.7 1.2v34l-3.7-.6c-2.1-.3-9.6-1-16.8-1.6-7.1-.6-15.4-1.3-18.2-1.6l-5.3-.5v-16.8c0-9.2.2-17 .5-17.3.5-.4 13.9.8 33.8 3.2M336 534c0 9.3-.1 17-.2 17-1.9 0-35.6 3.2-39 3.6l-4.8.7v-34l15.8-1.7c8.6-1 16.4-1.9 17.2-2.1.8-.1 3.6-.3 6.3-.4l4.7-.1zm237.5-1.2c11 3.9 27.5 9.7 36.6 13l16.6 6 35.9 1.1c19.7.6 37.1 1.1 38.5 1.1 2.1 0 2.8.7 3.7 3.6l1.1 3.7-6.7-.6c-3.7-.4-21.3-.9-39.2-1.3l-32.5-.6-9-3.3c-4.9-1.8-24.5-8.8-43.5-15.4l-34.5-12L518 536c-12.4 4.4-29 10.3-37 13.1s-17.4 6.1-21 7.4c-6.1 2.2-8.5 2.4-37.8 2.9-17.2.4-34.7.9-38.9 1.3l-7.5.6.7-3.4c.4-1.9.8-3.5.9-3.6s17.3-.7 38.1-1.3l38-1.1 26-9.2c14.3-5 33.9-11.8 43.5-15.2l17.5-6.2 6.5 2.3c3.6 1.2 15.5 5.4 26.5 9.2M289 538.5c0 12.4-.3 16.7-1.2 16.9-.7.2-9.4 1.4-19.3 2.6-9.9 1.3-18.6 2.5-19.2 2.7-1 .4-1.3-3.1-1.3-15.6 0-12 .3-16.3 1.3-16.6 1.7-.7 34.7-6.3 37.5-6.4 2.2-.1 2.2-.1 2.2 16.4m528.3-12.8 15.7 2.7v16.4c0 15.1-.1 16.3-1.7 15.8-2.5-.7-22.3-3.5-31.3-4.4l-7.5-.7-.3-16.9-.2-16.9 4.7.6c2.7.4 11.9 1.9 20.6 3.4m-572.5 20-.3 15.7-10.4 1.8c-5.7 1-10.5 1.7-10.8 1.5-.2-.2-.6-6.7-1-14.5l-.6-14 8.9-2.7c4.9-1.5 9.4-2.8 9.9-3 4.5-1.5 4.6-1.4 4.3 15.2m604.7-12.9 9 2.7.3 14.8c.2 12.2 0 14.7-1.2 14.7s-11.7-1.9-19.3-3.6c-2.3-.4-2.3-.7-2.3-15.9 0-18.2-1.2-17.1 13.5-12.7m-303.3 5.1c2.9 1.1 18.4 6.6 34.3 12.2 16 5.6 31.4 11 34.3 12.1l5.2 1.9V588H461v-23.7l7.3-2.6c6.4-2.4 61.7-21.9 69.2-24.5 1.7-.6 3.1-1.1 3.2-1.1.1-.1 2.6.8 5.5 1.8M220 551.4c0 13.6-.1 14.5-2 15-1.1.3-2.9.9-4 1.2-2 .5-2.1.2-1.8-13.3l.3-13.8 3.5-1.7c1.9-1 3.6-1.8 3.8-1.8.1 0 .2 6.5.2 14.4m645.5-12.7 3.5 1.7v27.4l-4-1-4-1v-14.4c0-7.9.2-14.4.5-14.4.2 0 2 .8 4 1.7M209 556c0 10.9-.2 13-1.5 13-1.2 0-1.5-1.9-1.5-11.5 0-7.9.4-12 1.3-13 .6-.8 1.3-1.4 1.5-1.5.1 0 .2 5.8.2 13m666 1.1c0 9.9-.3 11.9-1.5 11.9-1.3 0-1.5-2.1-1.5-13.1 0-11.6.2-13 1.5-11.9 1.2 1 1.5 3.8 1.5 13.1m-506.1-10.5c4.7 6 .8 12.8-6.9 12.2-10.9-.8-10-14.8.9-14.8 3.1 0 4.4.6 6 2.6M724 546c5.3 5.3 2.6 12.3-5 12.8-7.7.6-11.6-6.2-6.9-12.2 2.6-3.3 8.8-3.7 11.9-.6m-375 9.9c0 .5.3 1.6.6 2.5.5 1.2 0 1.6-1.8 1.6-1.3 0-2.9.5-3.5 1.1-.5.5-7 1.5-14.4 2-74.7 5.4-133.8 17-151.9 29.9l-3 2.1v-2.7c0-14.3 58.7-28.4 149-35.8 20.8-1.7 25-1.8 25-.7m406.7.6c57.9 4.7 96 10.6 123.3 19.1 18.1 5.7 27 11 27 16.1 0 1.3-.2 2.3-.5 2.3-.2 0-2.5-1.3-5.1-2.9-19-12.1-75.4-22.6-149.8-28.1-7.1-.5-13.4-1.4-13.9-1.9-.6-.6-2.2-1.1-3.5-1.1-1.8 0-2.3-.4-1.8-1.6.3-.9.6-2 .6-2.5 0-1.2 1.6-1.2 23.7.6m-370.9 18.7.3 12.8h-2.6c-2.5 0-2.5-.1-2.5-7.8-.1-4.2-.5-9.7-1-12.2-1-5.4-.6-6.2 2.8-5.8l2.7.3zm317.7-10.5c-.4 1-.9 6.6-1.2 12.5-.6 10.5-.6 10.8-2.9 10.8-2.4 0-2.4 0-2.4-12.5V563h3.6c3 0 3.5.3 2.9 1.7m-328.7.5c3.2 3.2 1.4 3.8-12.3 3.8-7.4 0-13.5-.4-13.5-.9s1-1.6 2.3-2.4c2.8-2 21.6-2.4 23.5-.5m356.7.4c1.4.9 2.5 2 2.5 2.5s-6.1.9-13.5.9-13.5-.2-13.5-.5.6-1.4 1.2-2.5c1.1-1.8 2.4-2 11.1-2 7.3 0 10.4.4 12.2 1.6m-275.7 10.9-.3 11.5H439v-23h16.1zm184.1-10.9 3.1.6V588h-16v-10.8c0-6 .3-11.2.7-11.5.8-.9 8.1-.9 12.2-.1M434 577v11h-44v-20.9l14.3-.4c7.8-.1 17.7-.4 22-.5l7.7-.2zm246.8-10H691v21h-44v-10.3c0-5.7.3-10.7.8-11.2.4-.4 5.7-.5 11.7-.1 6.1.3 15.6.6 21.3.6M341 578v9h-5.2c-2.9.1-11.5.7-19 1.3l-13.8 1.3v-8.8c0-8.4.1-8.8 2.3-8.9 1.2 0 9-.6 17.2-1.3 8.3-.8 15.8-1.4 16.8-1.5 1.5-.1 1.7.9 1.7 8.9m423.4-7c6.5.5 12.1 1.2 12.5 1.5.3.4.8 4.3 1 8.7l.3 8.1-8.8-.7c-4.9-.3-13.5-.9-19.1-1.3l-10.3-.6v-17.6l6.3.5c3.4.2 11.5.9 18.1 1.4m-464.6 11.6-.3 8.9-4.5.7c-2.5.3 1.1.4 8 0 20.5-1 20.5-1 20.5 1.3 0 1.9-1.1 2.1-15.9 3.2-47.7 3.7-109.7 13-125.1 18.9-1.4.6-1.6-.3-1.4-7.5l.2-8.2 3.6-2.5 3.6-2.4.3 8.1.3 8.1 2.6-.7c1.4-.3 4-1.3 5.7-2.1l3.1-1.4-3.7.5-3.8.6v-7.6c0-8.2 0-8.2 7.5-10.1l2.5-.6v8.1c0 4.7-.4 8.1-1 8.1-.5 0-1 .5-1 1.1s.7.8 1.7.5c6-2.3 53.8-10.3 76.1-12.7l11.2-1.2v-20.6l4.3-.3c2.3-.2 4.6 0 5 .3s.7 4.6.5 9.5m487.8-9.6h3.5l-.2 10.2-.2 10.3 15.4 1.7c28.5 3.3 72.6 11.1 80.1 14.2 6.2 2.6 6.3 2.5 6-6.5l-.4-8 4.1 2.1 4.1 2v16.9l-6.7-2c-21.4-6.2-81.4-14.8-120.8-17.4-13.9-.9-15.5-1.3-15.5-3.6 0-2 .4-2.1 9.8-1.4 5.3.3 10.8.8 12.2 1.1l2.5.5-.3-10.7c-.4-9.7-.2-10.6 1.3-10 .9.3 3.2.6 5.1.6M375 580.5v7.5h-26v-15h26zm357 0v7.5h-26v-15h26zm-445 2v8.4l-3.2.5c-1.8.3-7.8 1-13.3 1.6s-11.5 1.4-13.2 1.7l-3.3.5v-17.1l4.3-.6c9.6-1.5 23.4-3.2 26-3.4l2.7-.1zm522.5-7c19.4 2.5 17.5 1.3 17.5 11.1 0 8.2-.1 8.4-2.2 7.9-1.8-.4-28.6-3.5-30.4-3.5-.2 0-.4-3.8-.4-8.5 0-9.9-1.7-9.2 15.5-7M250 587.4c0 8.9-.4 9.6-5.3 9.6-2.1 0-2.2-.3-1.9-8.3.4-8.5 1-9.7 5-9.7 2.1 0 2.2.4 2.2 8.4m587.8.8c.1 4.9-.1 8.8-.6 8.8s-2.4-.3-4.1-.6l-3.1-.7v-16.8l3.8.3 3.7.3zM239 589.4v8.3l-6.9 1.2c-3.9.6-7.5 1.1-8 1.1-.7 0-1.1-3-1.1-8 0-7.4.1-8 2.3-8.4 5.9-1.3 11.3-2.4 12.5-2.5.9-.1 1.2 2.2 1.2 8.3m612.5-7.1 6 1.3.3 8.3c.3 8.2.3 8.3-2 7.8-1.3-.3-4.1-.8-6.3-1.2-9.2-1.4-8.5-.6-8.5-9.5 0-9.2-.4-8.9 10.5-6.7m-632.3 9.2c.1 3.6.2 7.3.2 8.2.1 1.2-1.4 2-5.4 2.9-3 .7-5.8 1.3-6.2 1.4-.5 0-.8-3.6-.8-8v-7.9l4.8-1.5c7.3-2.3 7.2-2.3 7.4 4.9m649.6-5 5.2 1.6v8c0 7.4-.1 8-1.9 7.4-1-.3-3.9-.9-6.2-1.3l-4.4-.8-.3-8.2c-.4-9.3-.6-9.1 7.6-6.7m19 13.9.3 7.7-2.8-.7c-7.4-1.8-7.3-1.6-7.3-10.4v-8l4.8 1.9 4.7 1.9zm-137.8-5c0 1.4-.3 3.1-.6 4-.6 1.5-19.9 1.6-209 1.6-166 0-208.4-.3-208.4-1.3 0-.6-.3-2.2-.6-3.4-.5-1.9-.1-2.2 3.3-2.6 2.1-.2 96.4-.4 209.6-.5L750 593zm-424.6 6.8c.3 1.3.6 2.8.6 3.4 0 .7-6.8 1.7-18.7 2.8-75.7 6.8-119.3 14.8-139.1 25.6-5.7 3.1-7.1 2.9-7.2-1.1-.1-6.9 24.4-14.9 68.4-22.4 20.7-3.5 70.7-9.1 92.2-10.3 2.5-.2 3.3.3 3.8 2m465.1.4c52.9 4.8 95.7 12.5 117.3 21 11 4.4 14.9 8.2 12.3 12.2-.6 1-2.2.6-7.2-2.2-19.3-10.5-71.3-20.1-137.3-25.1-11-.9-20.2-1.7-20.4-2-.2-.2-.1-1.8.3-3.5l.7-3.2 9.2.7c5 .3 16.3 1.3 25.1 2.1m-93.2 2.3c48 .1 48.7.1 48.7 2.1s-.7 2-205.5 2c-204.7 0-205.5 0-205.5-2s.8-2 98.3-2.2c90.4-.3 125-.3 264 .1M328 611.4c0 .2.2 1.1.5 1.9.5 1.1-1.4 1.5-10.2 2.1-29.4 1.8-73.2 6.9-95.3 11.1-28.6 5.4-45.9 10.8-53.3 16.6-3.1 2.5-3.8 2.8-4.3 1.4-3-7.6 28.4-17.8 77.1-24.9 32-4.7 85.5-9.8 85.5-8.2m443.6.6c6 .6 16.1 1.5 22.4 2.1 43 3.9 83 10.8 103.1 17.7 14.3 5 18.9 7.8 18.9 11.9 0 2.8-.5 2.9-3.3.2-11.9-11.5-71.7-23.3-142.7-28-9.6-.7-17.6-1.3-17.8-1.4-.1-.1 0-1 .4-1.9.7-1.9 3.6-2 19-.6m-421.1 4.8c-.6.7-3.5-1.8-3.5-3.1 0-.5.9-.2 2 .8s1.8 2 1.5 2.3m10.5-.6c0 .6-.7.5-1.5-.2s-1.5-1.7-1.5-2.2c0-.6.7-.5 1.5.2s1.5 1.7 1.5 2.2m11 .1c0 .5-.4.5-1 .2-.5-.3-1-1.4-1-2.3 0-1.5.2-1.5 1-.2.5.8 1 1.9 1 2.3m10.4-1.7c1 2.5-.1 2.9-1.4.5-.6-1.2-.7-2.1-.1-2.1.5 0 1.2.7 1.5 1.6m9.6.4c.6 1.1.7 2 .2 2-.6 0-1.2-.9-1.5-2s-.3-2-.1-2 .8.9 1.4 2m10 1.3c0 .5-.4.5-1 .2-.5-.3-1-1.4-1-2.3 0-1.5.2-1.5 1-.2.5.8 1 1.9 1 2.3m10.4-1.7c.8 2.1.8 2.4-.3 2.4-.5 0-1.1-.9-1.4-2-.6-2.4.8-2.7 1.7-.4m10.3 1.6c-.3.7-.5.2-.5-1.2s.2-1.9.5-1.3c.2.7.2 1.9 0 2.5M435 615c0 1.1-.4 2-1 2-.5 0-1-.9-1-2s.5-2 1-2c.6 0 1 .9 1 2m12 1.2c0 .5-.4.8-1 .8-.5 0-1-1-1-2.3 0-1.8.2-1.9 1-.7.5.8 1 1.8 1 2.2m11.3-1.2c.3 1.1.1 2-.4 2s-.9-.9-.9-2 .2-2 .4-2 .6.9.9 2m12 0c.3 1.1.1 2-.4 2s-.9-.9-.9-2 .2-2 .4-2 .6.9.9 2m11.7 0c0 1.1-.4 2-1 2-.5 0-1-.9-1-2s.5-2 1-2c.6 0 1 .9 1 2m11 0c0 1.1-.4 2-1 2-.5 0-1-.9-1-2s.5-2 1-2c.6 0 1 .9 1 2m12 0c0 1.1-.4 2-1 2-.5 0-1-.9-1-2s.5-2 1-2c.6 0 1 .9 1 2m12.3 0c.3 1.3 0 2-.9 2-.8 0-1.4-.9-1.4-2s.4-2 .9-2 1.1.9 1.4 2m11.7.6c0 .8-.4 1.4-1 1.4-.5 0-1-.9-1-2.1 0-1.1.5-1.7 1-1.4.6.3 1 1.3 1 2.1m12-.6c0 1.1-.4 2-1 2-.5 0-1-.9-1-2s.5-2 1-2c.6 0 1 .9 1 2m13 0c0 1.1-.4 2-1 2-.5 0-1-.9-1-2s.5-2 1-2c.6 0 1 .9 1 2m11.7 1.2c-.3.7-.5.2-.5-1.2s.2-1.9.5-1.3c.2.7.2 1.9 0 2.5m11 0c-.3.7-.5.2-.5-1.2s.2-1.9.5-1.3c.2.7.2 1.9 0 2.5m10 0c-.3.7-.5.2-.5-1.2s.2-1.9.5-1.3c.2.7.2 1.9 0 2.5m11.3-2.5c0 .5-.5 1.5-1 2.3-.8 1.2-1 1.1-1-.8 0-1.2.5-2.2 1-2.2.6 0 1 .3 1 .7m8.7 1.5c-.3.8-.6.5-.6-.6-.1-1.1.2-1.7.5-1.3.3.3.4 1.2.1 1.9m8.4.1c-1 .9-1.1.8-.5-.6.3-1 .9-1.5 1.2-1.2s0 1.1-.7 1.8m10.1.9c-.9.9-1.2.7-1.2-1.2s.3-2.1 1.2-1.2.9 1.5 0 2.4m11.8-1.8c0 .8-.4 1.8-1 2.1-.5.3-1-.3-1-1.4 0-1.2.5-2.1 1-2.1.6 0 1 .6 1 1.4m10.6 1.2c-.4.9-.9 1.5-1.1 1.2-.3-.3-.3-1.3.1-2.2s.9-1.5 1.1-1.2c.3.3.3 1.3-.1 2.2m11.5.7c-.8.8-1.1.7-1.1-.4 0-2 1.3-3.4 1.8-1.9.3.7-.1 1.7-.7 2.3m11.9-1.9c0 .8-.4 1.8-1 2.1-.5.3-1-.3-1-1.4 0-1.2.5-2.1 1-2.1.6 0 1 .6 1 1.4m9.1 1.9c-.8.8-1.1.7-1.1-.4 0-2 1.3-3.4 1.8-1.9.3.7-.1 1.7-.7 2.3m10.9-2.6c0 .5-.5 1.5-1 2.3-.8 1.2-1 1.1-1-.8 0-1.2.5-2.2 1-2.2.6 0 1 .3 1 .7m9.6 3c-1.1 1.1-1.7-.4-.9-2.3.7-1.8.8-1.8 1.1-.1.2 1 .1 2.1-.2 2.4m11.2-2c-.2.9-.8 1.8-1.5 2-.7.3-.9-.3-.6-1.6.6-2.5 2.6-2.8 2.1-.4m10.2.4c-.7 1.1-1.4 1.8-1.7 1.5-.8-.8.5-3.6 1.7-3.6.7 0 .7.6 0 2.1m12-1.2c0 1.3-2.9 3.5-3.7 2.8-.7-.8 1.5-3.7 2.8-3.7.5 0 .9.4.9.9m31 6.4c0 .2-1 1.2-2.1 2.3-2.2 1.9-2.2 1.9-.8-.4 1.2-1.9 2.9-3 2.9-1.9m-455.6 3.6c-.2.3-1.2-.3-2.2-1.3-1.6-1.7-1.6-1.8.5-.5 1.2.7 2 1.5 1.7 1.8m9.7-1.2c1.3 1.6 1.2 1.7-.3.4-1.7-1.3-2.2-2.1-1.4-2.1.2 0 1 .8 1.7 1.7m406.7-.8 4.3.1-.3 10.5-.3 10.5-189 .1-189 .1-.3-10.5-.3-10.6 9.8-.3c7.8-.2 348.8-.1 365.1.1m49.7.1c-.3.5-1.6 1.5-2.8 2.1-2.2 1.2-2.2 1.2-.3-1 1.9-2.1 4.3-3 3.1-1.1m-476.9 3.1c.4.8.1.8-1.4 0-1.2-.6-2.4-1.6-2.8-2.2-.4-.8-.1-.8 1.4 0 1.2.6 2.4 1.6 2.8 2.2m487.1-1.1c-1.4 1.1-2.9 2-3.4 2-1-.1 3.9-3.9 5.1-4 .5 0-.3.9-1.7 2m-499.2 2.8c-.3.3-1.6-.5-2.8-1.7l-2.2-2.3 2.8 1.7c1.5 1 2.5 2 2.2 2.3m512-2.8c-.3.5-1.6 1.5-2.8 2.1-2.2 1.2-2.2 1.2-.3-1 1.9-2.1 4.3-3 3.1-1.1m-524.4 1.7c1.3 1.6 1.2 1.7-.3.4-1.7-1.3-2.2-2.1-1.4-2.1.2 0 1 .8 1.7 1.7m533.9-.2c-.7.8-1.7 1.5-2.3 1.5s-.2-.7.9-1.5c2.5-1.9 3-1.9 1.4 0m-542 3.1c0 .2-1.1-.2-2.5-.8s-2.5-1.5-2.5-2 1.1-.1 2.5.8 2.5 1.8 2.5 2m554-2.6c-.8.6-2.4 1.5-3.5 2.1-1.6.8-1.5.6.4-1 1.3-1.2 2.8-2.1 3.5-2.1.6 0 .4.5-.4 1m-565 3.6c0 .2-.9 0-2-.6s-2-1.3-2-1.6c0-.2.9 0 2 .6s2 1.3 2 1.6m85.9-1.7c.8.5-2.1 1.1-8 1.5-80 5.8-124 12.7-144.4 22.6-6.9 3.3-8.4 3.2-2.8-.3 13.2-8.3 53.1-16 109.8-21.2 37.5-3.4 43.5-3.8 45.4-2.6m421.6.6c11 .8 22.3 1.7 25 2 46 4.5 64.1 7.3 89 13.6 9.1 2.3 22.5 8.2 22.5 9.9 0 .6-1.9 0-4.2-1.4-12.3-7-44.4-13.7-89.9-18.6-17.9-1.9-56.5-5-63.1-5-2.5 0-2.9-.3-1.8-1 1.8-1.2-1.1-1.3 22.5.5m67.5 0c-3.3 1.9-4.9 1.9-2.4 0 1-.8 2.6-1.4 3.4-1.4.9 0 .4.6-1 1.4m-585.1 2.1c1.4 1.2-1.9.1-3.5-1.2-1.8-1.4-1.8-1.4.6-.3 1.4.6 2.7 1.3 2.9 1.5m97.6 5.6c.3 1.8.4 6.4.3 10.3l-.4 7-4.4.2c-67 3.4-125.3 12.2-151.2 22.8-1.6.7-1.8-.1-1.8-8.8 0-8.8.2-9.7 2.3-11.2 6.8-4.8 39.6-12.5 69.7-16.4 23.1-3 64.2-6.7 77.7-7l7.2-.1zm422-2.2c60.9 4.4 105.6 11.7 124.8 20.3l6.7 3v9.9c0 9.1-.2 10-1.7 9.3-23-9.4-57.9-15.5-116.5-20.5-13-1.1-26.3-2-29.5-2-10.6 0-10.3.2-10.3-11.1V633h6.3c3.4 0 12.5.5 20.2 1m-40 13.6 5.5.7v7.2l-189.5.1-189.5.1V652c0-2 .3-4 .6-4.3.9-.9 365.7-.9 372.9-.1M342 659.3c0 4.7-2.3 5.4-21.5 6.6-59.8 3.8-115.1 12.7-131.7 21.2-4.9 2.5-5 2.5-4.6-1.4.3-2.8 1-3.5 5.8-5.9 18.5-9 72-17.3 142.5-22.1 2.8-.2 6-.4 7.3-.5 1.7-.2 2.2.3 2.2 2.1m417.5-.8c51.8 3.4 98.1 10.1 121.6 17.6 12.6 4 15.9 6 15.9 9.8v2.9l-7.4-2.9c-22.1-8.5-66-15.6-122.7-19.5-21.6-1.5-24.7-2-26.6-3.7-1.3-1.1-2.3-2.9-2.3-4 0-1.7.6-1.8 6.3-1.3 3.4.3 10.3.8 15.2 1.1m-378.9 4.9c6.2 3.7 8.1 10.2 4.3 15-2.5 3.2-7 3.5-9.9.6-2.2-2.2-2.5-4.2-1-7.1 1.3-2.3 5.5-2.5 6.4-.3.9 2.3-.3 3.7-1.9 2.4-2.1-1.7-3.1.9-1.1 2.8 2.3 2.3 5 .5 5.4-3.6.2-2.1-.4-3.6-1.9-5.1-2.1-1.9-3.5-2.1-16.5-2.1-12.8 0-14.4.2-16.8 2.1-4.1 3.2-3.2 9.9 1.5 9.9 1.8 0 3.3-2.6 2.3-4.1-.4-.6-1.1-.6-1.9.1-1.6 1.4-2.8-.1-1.9-2.5 1-2.6 5.7-1.5 6.8 1.7 1.4 4-1.4 7.8-5.8 7.8-8.7 0-9.8-13-1.3-16.1 1.9-.7 3.3-1.7 3.1-2.3-.3-.8 3.9-1.1 13.3-1.1 11.6.1 14.3.4 16.9 1.9m59.9.1c5.7 4.4 6.9 11.2 2.8 15.7-3.5 3.9-11.3.7-11.3-4.6 0-2.8 3.5-5.7 5.6-4.9s1.8 4.5-.3 4.1c-2.3-.4-2.3 2.1-.1 3.5 2.3 1.5 4.8-.8 4.8-4.3 0-1.9-.9-3.6-2.6-4.9-2.4-1.9-4-2.1-17.1-2.1-13.9 0-14.5.1-16.8 2.5-2.8 2.7-3.1 5.2-1.2 7.9 1.8 2.5 5.1 1.7 5.5-1.3.3-1.8 0-2.2-1.2-1.8-2.2.9-3.1-1.2-1.3-3 4-4 8 4.5 4 8.9-3.4 3.8-11 1-11.4-4.2-.3-5.2.2-6.4 4.1-10.2l4.1-3.8h14.5c14 0 14.7.1 17.9 2.5m235-.4c4.6 2.7 6.9 7.1 6 11.5-1.6 9-14.2 8.3-13.3-.8.3-2.9.6-3.3 3.3-3.3 2.1 0 3.1.5 3.3 1.8.3 1.3-.2 1.7-1.5 1.5-1.2-.2-1.8.3-1.8 1.7 0 3.3 4.7 2.7 5.9-.8.8-2.2.6-3.2-1.1-5.5l-2-2.7-15-.3c-13.9-.2-15.2-.1-17.6 1.8-3.1 2.5-3.5 6-.8 8.4 2.2 2 5.1 1.1 5.1-1.6 0-1.4-.5-1.8-1.5-1.5-2.1.9-3-1.2-1.3-2.9 1.9-1.9 4.7-.8 5.4 2.1.9 3.6.1 5.8-2.7 7.4-9.1 5.1-14.8-10.3-5.8-15.6 1.6-1 2.9-2.1 2.9-2.5s6.5-.8 14.4-.8c13 0 14.9.2 18.1 2.1m55.5-.4c0 .7.6 1.3 1.4 1.3.7 0 2.5 1.1 4 2.5 2 1.9 2.6 3.3 2.6 6.6 0 5.3-2.2 7.9-6.6 7.9s-7.2-3.8-5.8-7.8c1.1-3.2 5.8-4.3 6.8-1.7.9 2.4-.3 3.8-2 2.4-1.9-1.5-2.8-.6-1.9 2 .7 2.3 3.4 2.8 5.3.9s1.4-5.9-1-8.5c-2-2.2-2.8-2.3-16.4-2.3-7.8 0-15 .3-15.9.6-.8.4-2.3 2-3.1 3.6-1.4 2.7-1.4 3.2.1 5.4 1.8 2.7 3.7 3.1 5.5.9 1.3-1.6.5-3.7-1.3-3.3-.7.2-1.3 0-1.4-.5-.8-2.1 0-2.8 2.5-2.5 2.3.2 2.8.8 3 3.6.6 6.5-5.7 9.5-10.5 5-4.2-3.9-2.6-10.9 3.6-15.1 3-2 4.4-2.2 17.2-2.2 10.4 0 13.9.3 13.9 1.2m-336 3.7c0 1.5-2 4.4-2 2.9 0-.6-.2-1.8-.5-2.6-.4-.8 0-1.4 1-1.4.8 0 1.5.5 1.5 1.1m294-.7c0 1-2 4-2 3.1 0-.3-.3-1.3-.6-2.2-.4-1.1-.1-1.6 1-1.6.9 0 1.6.3 1.6.7m-59.5 2c-3.4 8.3-2.2 14.4 3.7 19.7l4.3 3.8-.3 115.1-.4 115.1-2.9 4.1c-1.9 2.6-2.7 4.8-2.3 5.8.3 1 .1 1.7-.5 1.7s-2.2 1.8-3.6 4c-2.1 3.3-2.5 5.2-2.5 11.6 0 6.6-.2 7.5-1.7 7.2-2.3-.4-2.3 1.5-2.9-98.2-.3-54.6-.1-82.3.6-83 .5-.5 1-2.9 1-5.2 0-2.4.5-4.6 1-4.9.6-.3 1-2.4 1-4.6 0-3.1-.4-3.9-1.9-3.9-1.6 0-1.9-1.1-2.5-7.4-1-10.7-3-17.9-8-28.1-7.9-16.1-20.5-28.8-35.9-36.4-12.6-6.1-19-7.5-34.7-7.6-11.1 0-14.9.4-21.4 2.3-32 9.2-55.7 37.6-58.3 69.9-.5 6.3-.8 7.2-2.7 7.5-1.6.2-2.2 1.1-2.4 3.7-.2 1.8.1 3.8.7 4.4s1.1 3 1.1 5.3c0 2.4.4 4.6 1 4.9 1 .6.5 130.1-.6 164.2-.6 16.1-.7 17.3-2.5 17.3-1.7 0-1.9-.8-1.9-8.3 0-6.4-.4-8.9-2-11.4-1.1-1.8-2.4-3.3-3-3.3-.5 0-1-1-1-2.3s-1.1-3.8-2.5-5.7l-2.5-3.4V805.9l.1-115.7 3.4-2.1c4.8-2.8 6.8-7.2 6.2-13.5-.2-2.8-.8-5.9-1.2-6.9-.7-1.6 3.9-1.7 89-1.7s89.7.1 89 1.7m-200.8 2.8c-.6 1.6-11.7 1.9-11.7.3 0-.9 1.7-1.3 6-1.3 3.6 0 5.9.4 5.7 1m-58.7.5c0 .6-2.7 1-6 1s-6-.4-6-1 2.7-1 6-1 6 .4 6 1m294.5 0c-.3.5-3 1-6 1s-5.7-.5-6-1c-.4-.6 1.8-1 6-1s6.4.4 6 1m58.5 0c0 .6-2.7 1-6 1s-6-.4-6-1 2.7-1 6-1 6 .4 6 1m-387.2 4.2c.1 4.7 2.3 8.3 7 11.3 2.6 1.6 3.1 2.5 2.6 4.7-.3 1.4 0 2.9.6 3.3.7.4.8 33.9.4 113.8l-.7 113.2-2.8 3c-1.6 1.7-2.9 4.1-2.9 5.2 0 1.3-.8 2.4-1.9 2.8-1.1.3-2.2 1.2-2.5 2-.4 1.3-4.1 1.5-21.7 1.5-20.9 0-76.8 1.6-84.3 2.4l-3.9.4.7-117.6c.7-113.6.8-117.8 2.7-121 1-1.8 1.9-5 1.9-7s.3-5.4.6-7.4c.6-3.4 1-3.8 5.3-4.7 15.5-3.4 73-9.7 91.2-10l7.7-.1zm455.5-1.2c20.5 1.9 42.3 4.8 52.3 7l5.1 1.1.7 7.6c.3 4.4 1.3 8.7 2.2 10.2 1.5 2.2 1.7 13.4 2.2 120.3l.5 117.8h-5.9c-3.2 0-18-.4-32.9-1-14.8-.5-36.8-1-48.8-1.2-14.2-.2-22.1-.7-22.5-1.4-.4-.6-1.5-1.3-2.4-1.7-1-.3-1.8-1.6-1.8-2.8s-1.3-3.7-3-5.6l-3-3.4V809.7c0-61.2.3-113.5.6-116.2.5-4.2 1.1-5.4 3.5-6.7 3.9-2.3 6.9-7.5 6.9-12.2v-3.9l12.8.7c7 .4 22.1 1.6 33.5 2.6m-425 3.7c-1.3.2-3.3.2-4.5 0-1.3-.2-.3-.4 2.2-.4s3.5.2 2.3.4m59 0c-1.3.2-3.5.2-5 0-1.6-.2-.5-.4 2.2-.4 2.8 0 4 .2 2.8.4m236 0c-1.3.2-3.5.2-5 0-1.6-.2-.5-.4 2.2-.4 2.8 0 4 .2 2.8.4m57 0c-1.3.2-3.3.2-4.5 0-1.3-.2-.3-.4 2.2-.4s3.5.2 2.3.4m-317 9.3c2.4 1.5 3 2.6 3.2 5.7.2 2.1-.2 54.6-.7 116.8l-1 112.9-2.5 3.7c-1.4 2.1-2.2 4.3-1.8 4.9s-.1 2-1.1 3.1c-1.2 1.4-1.9 4.1-2.2 8.5-.5 8-2.2 8.5-2.2.6 0-5-.4-6.2-2.5-8.2-1.4-1.3-2.3-3-2-3.8.3-.7-.2-2.6-1-4.2-1.3-2.6-1.5-17.6-1.5-119.5V690.9l3.5-3.1c1.9-1.6 3.8-4.2 4.2-5.6l.6-2.5 2 2.8c1.1 1.5 3.4 3.6 5 4.5m159-4.5c30.5 8.1 52.8 34.9 55.4 66.7l.6 6.8h-8l-.6-7.3c-1.5-19.7-14.9-40.7-32.5-51-26.9-15.8-60.9-11.3-82.8 10.8-12 12.2-16.6 22.2-19.9 43.7-.6 3.5-.8 3.8-4 3.8H465v-4.8c0-8.5 2.8-18.4 8.1-29.2 4.5-9.1 6.4-11.7 14.3-19.5 6.9-6.9 11-10.1 17.1-13.2 9-4.6 16.4-7.2 23.9-8.4 7.2-1.1 25-.3 31.9 1.6m130.9 5.8 3.3 2.8-.3 116.7c-.3 100-.6 117-1.9 119-.8 1.3-1.3 3.1-1.1 4.2.2 1-.7 2.9-1.9 4.2-1.6 1.6-2.3 3.8-2.5 7.7-.2 3.2-.8 5.6-1.5 5.9-1 .3-1.3-1.5-1.3-6.6 0-5-.4-7.3-1.5-8.2-.8-.7-1.5-2.3-1.5-3.7 0-1.3-.9-3.6-2-5.1-2-2.7-2.1-4.6-2.9-116.2-.6-75.1-.5-113.9.1-114.7.6-.7.8-2.4.4-3.7-.5-1.9-.1-2.5 1.9-3 1.3-.3 3.7-2.2 5.2-4.1l2.8-3.5.7 2.8c.4 1.5 2.2 4 4 5.5m-258-3c5.6 4.7 5 5.5-3.3 4.4-4.5-.7-9.4-.7-13.5 0-5.8.8-6.4.7-6.4-.8 0-1 .9-2.1 2-2.4s2.5-1.5 3-2.5c2.2-4.1 12.5-3.4 18.2 1.3m-59.2-.1c5.8 4.8 5.2 5.6-2.8 4.6-4-.6-9.7-.6-13.5 0-4.3.5-6.7.5-6.7-.1s1.7-2.5 3.8-4.3c3.3-2.9 4.4-3.3 9.5-3.4 5.1 0 6.3.4 9.7 3.2m293.8-.2c5.1 4.7 4.4 5.8-3.4 4.7-4.1-.6-9.2-.6-13.5 0-5.4.7-6.9.6-6.9-.4 0-.7 1.3-1.9 2.8-2.7 1.6-.8 3.4-2.2 4.1-3 1-1.2 3.1-1.6 7.5-1.6 5.3.1 6.5.4 9.4 3m57.8-.1c3.5 3.1 5.3 6.7 3 5.8-3.1-1.2-15.4-1.7-20.3-.9-6.4 1.1-6.7.2-1.5-4.4 3.3-3 4.3-3.3 9.7-3.3 5.2 0 6.4.3 9.1 2.8m-509.3 1.2c4.4 1.2 7.7 4.1 7.7 6.7 0 1.6-.6 1.7-5.2 1.2-2.9-.3-5.8-.9-6.4-1.2-1.4-.9-13.6 2.4-14.1 3.7-.1.5 1.1 1.8 2.7 2.7 3.1 1.8 3.9 4.9 2 7.8-.9 1.3-1.2 1.2-2.6-.5-.8-1.1-2.2-1.9-3-1.7-.9.2-2-1.1-2.9-3.2-1.4-3.4-1.6-3.5-4.3-2.4-1.5.7-3.1 1.5-3.7 2-.5.4-1.7.8-2.6.8-2.7 0-4.4 2.7-2.9 4.5 1.7 2.1 2.9 1.9 3.9-.7.5-1.3 1-1.7 1.4-1.1.8 1.3-1.9 4.3-3.8 4.3-.8 0-1.9-.9-2.5-2-1.2-2.3-.4-4.4 3.3-7.9 1.4-1.3 2.3-2.9 2.1-3.6-.7-1.8 1.6-2.9 13.9-7 11.5-3.8 11.8-3.9 17-2.4m664.2 2c12.3 3.8 15.5 5.4 15.5 7.7 0 1 1.4 2.9 3 4.4 1.7 1.4 3 3.5 3 4.6 0 2.6-2.4 4.5-4.9 3.7-2-.6-3.7-3.5-2-3.5.5 0 1.2.7 1.5 1.5.8 2 3 1.9 3.8-.2.6-1.5-.6-3.7-2.2-3.8-.4-.1-2.6-1.1-5-2.3-4.3-2.3-6.2-2.2-6.2.2 0 .7-1.7 2.9-3.7 5-3.4 3.4-3.8 3.6-5 2-2.6-3.6-.5-9.4 3.4-9.4 3.4 0 .2-2.5-5.3-4.2-4.4-1.3-6.6-1.5-8.8-.8-1.6.6-4.9 1-7.3 1-4.1 0-4.4-.2-3.8-2.3 1-3 1.5-3.4 6-5.1 5.7-2.1 6.9-2 18 1.5M561 695.6c10.6 3.5 17.1 7.7 25.5 16.5 10.4 10.9 16 23.1 17.9 39.1.5 4.6.5 4.8-1.9 4.8-2.2 0-2.5-.5-2.5-3.3 0-5.5-2.8-14.7-7.1-23.6-5.7-11.6-13.8-19.5-26.2-25.6-17.6-8.6-35-8.6-52.6.1-17.7 8.7-33.1 31.4-33.1 48.8 0 3.2-.3 3.6-2.6 3.6-2.5 0-2.5-.1-1.8-5.8 1.8-15.4 7.8-27.5 18.9-38.8 10.8-11 20.6-15.8 38.5-18.8 5.6-1 19.8.6 27 3m-186.6-1.7 2.8.6.6 114 .5 114H351l.1-81.5c.1-44.8.5-96.1.8-114l.6-32.5 3-.6c3.9-.8 15.2-.8 18.9 0m57.7-.3 3.6.6.7 18.7c.3 10.2.6 61.5.6 114v95.3l-14.5-.1h-14.6l.1-47.8c0-26.3.5-73.5 1-104.8.5-31.4.9-61.1 1-66.2v-9.2l2.8-.4c4.5-.7 15.4-.7 19.3-.1m238 1.1c.5.5 1.2 47.1 1.6 114.3l.6 113.5h-29.9l.4-68c.2-37.4.7-88.7 1-114l.7-46 3-.7c4.1-.9 21.4-.3 22.6.9m58 0c.5.5 1 49.6 1.1 114.3l.3 113.5H703v-79.6c0-43.8.3-95.1.7-114.2l.6-34.6 3.1-.5c4.8-.7 19.7.1 20.7 1.1m-509.2 8.2c.9.6-.7 1-4.7 1.3-3.4.1-6.2.2-6.2 0 0-.1 1-.7 2.3-1.2 2.9-1.1 6.8-1.2 8.6-.1m654.5 1.2c.8.9.7 1-.7.5-1-.3-4.2-.6-7-.7-4 0-4.7-.3-3.2-1 2.6-1.1 9.4-.4 10.9 1.2m-326.8 32.8c3.1.7 5.7 1.1 5.8.9s3.6-5.8 7.7-12.5 7.7-12.3 8.2-12.3c1 0-1.2 4.2-8.3 15.4-3.3 5.3-6 9.8-6 10.1s1.8 2.3 4.1 4.5l4.1 3.9 9.6-6.3c11.2-7.2 14.2-8.9 14.8-8.3.3.2-5 3.9-11.6 8.2-6.7 4.3-11.9 8.3-11.7 8.9 1.4 3.8 1.7 5.6.9 5.6-.6 0-1.3-1.1-1.6-2.5-1.5-5.9-12.9-14.5-19.3-14.5-2.2 0-2.3.4-2.3 7.2 0 5.1-.3 6.8-1 5.8-.5-.8-1-4.1-1-7.3 0-6.6-.7-6.9-8-3.6-5.6 2.5-9.6 6.2-12.2 11.4-1.2 2.2-2.3 3.5-2.5 2.8s.1-2.2.7-3.4c1.4-2.6 2.1-1.9-11.7-10.9-6.2-3.9-11.3-7.4-11.3-7.6 0-1.2 2.7.3 13.2 7l11.6 7.5 4.2-4 4.2-4-7.2-12.2c-4-6.7-7.5-12.5-7.7-13-.2-.4 0-.7.4-.7.5 0 3.9 5.1 7.6 11.2 3.7 6.2 7.1 11.9 7.6 12.7.7 1.1 1.7 1.1 6 0l5.1-1.3v-15.1c0-8.4.3-15.5.8-15.9.4-.4.8 6.4 1 15.1l.2 15.9zM223 709c1.2 2.3 1.3 2.2-5.5 2.1-2.7-.1-6.5.3-8.2.8-2.6.8-3.3.7-3.3-.4 0-3.1 3.1-4.5 9.5-4.5 5.4 0 6.6.3 7.5 2m648.6-1.4c1.2.3 2.7 1.7 3.3 3 1 2.3.9 2.4-1.7 1.7-1.5-.5-5.7-.8-9.4-.8-6.7 0-8.1-.8-5.6-3.3 1.2-1.2 9.7-1.6 13.4-.6m-669.8 5.2c.2 1.8-.1 3.2-.6 3.2-1.2 0-3.3-5.6-2.4-6.4 1.3-1.3 2.7.2 3 3.2m679.7-1.8c.9 1.4-.4 5.2-1.6 4.5-1.2-.8-1.2-5.5 0-5.5.6 0 1.3.5 1.6 1M193 713c-2 1.3-4.3 1.3-3.5 0 .3-.6 1.6-1 2.8-1 1.8 0 1.9.2.7 1m699.5 0c.8 1.3-2.5 1.3-4.5 0-1.2-.8-.9-1 1.2-1 1.5 0 3 .4 3.3 1M222.8 822.4c-.1 59.1-.5 107.6-.8 107.9-.3.2-4.2.7-8.7 1l-8.3.5V826.5c0-63.6.4-106.4.9-107.9 1.2-2.9 2.5-3.3 10.9-3.5l6.4-.1zM872.4 716l2.6 1v107.6c0 97.7-.1 107.6-1.6 107-.9-.3-4.9-.6-9-.6H857V823.7c0-59.1.3-107.7.7-108 1-1.1 11.8-.8 14.7.3m-678 3.1c-5.4 1.2-6.8 1.1-5.4-.5 1.5-1.9 5.1-2.5 6.9-1.1 1.1.8.8 1.1-1.5 1.6m697.4-.1c.3.9-.2 1.1-1.9.7-1.3-.4-3.2-.7-4.3-.7-1.5 0-1.6-.3-.7-1.4 1.4-1.7 6.2-.7 6.9 1.4m-692.3 4.8c.7.4.9 36 .7 104.3l-.4 103.7-3.6.6c-2 .3-4.6.6-5.6.6-1.8 0-1.9-2.4-1.1-104.3.5-76.9 1-104.4 1.8-104.9.7-.4 2.6-.8 4.2-.8 1.7 0 3.5.4 4 .8m689.9-.2c1.4.6 1.6 10.7 1.6 105.1v104.6l-3.7-.7c-2.1-.3-4.6-.6-5.5-.6-1.7 0-1.8-5.6-1.8-103.9 0-82.2.3-104 1.3-104.4 1.8-.8 6.3-.8 8.1-.1M595 759c0 2-.7 2-55 2s-55 0-55-2 .7-2 55-2 55 0 55 2m-112.5.5c0 .6-4.6 1.1-11.2 1.3-9.7.2-11.3 0-11.3-1.3s1.6-1.5 11.3-1.3c6.6.2 11.2.7 11.2 1.3m137.8 0c-.4 1.6-22.5 1.3-23.1-.3-.3-1 2.2-1.2 11.5-1 7.2.2 11.7.7 11.6 1.3m-147.2 5.4 6.6.1-.5 3-.4 3H462v-3.4c0-2.9.3-3.3 2.3-3.1 1.2.1 5.2.3 8.8.4m122.7 3.8.3 3.3h-56c-44.2 0-56.1-.3-56.1-1.3 0-.6.3-2.2.6-3.5l.6-2.2 55.2.2 55.1.3zm22.2-.7v3.1l-8.2-.3c-8.2-.3-8.3-.3-8.6-3.1l-.3-2.7H618zm-141 97.5V956h-14V775h14zm140 0V956h-14V775h14zm-20.2-88.7c1 .7 1.2 19.3 1 89.8l-.3 88.9-2.2.3-2.3.3V781l-52.7.2-52.8.3-.3 87.3-.2 87.3-2.3-.3-2.2-.3-.3-88.5c-.1-48.7 0-89.1.3-89.8.3-.9 12.6-1.2 56.7-1.2 31 0 56.9.4 57.6.8m-56.4 6.8c1.4.6 1.6 9 1.6 85V953l24.3.2c15.3.2 24.2.7 24.2 1.3s-17.6 1.1-50.2 1.3c-44.3.2-50.3 0-50.3-1.3s3.3-1.5 24-1.5h24v-85c0-46.8.2-85 .4-85s1.1.3 2 .6M529 827v37h-32v-74h32zm55 0v37h-33v-74h33zm-55.9 44c2.3 1.3 2.5 5.3.3 7.4-3 3-7.4 1-7.4-3.4 0-4.1 3.3-6 7.1-4m30.1.7c2.3 2.1 2.3 4.5-.1 6.7-2.6 2.4-5.2 1.7-7.1-1.7-1.4-2.7-1.4-2.9.9-4.8 2.8-2.3 3.9-2.4 6.3-.2m-411.9 3.4c2.5 3.1 2.2 8.5-.7 11.4-6.3 6.3-16.6 3.2-16.6-4.9 0-4 3.9-9.3 7.3-9.8 3.4-.6 8 1 10 3.3m803 0c1.7 2.1 2.3 7.3 1.1 10.4-1 2.6-6.2 4.8-10 4.1-3.8-.8-8.4-5.7-8.4-9.1 0-3 4.4-8.3 7.3-8.7 3.4-.6 8 1 10 3.3M529 912.5V938h-32v-51h32zm54.8.2.2 25.3h-33v-51l16.3.2 16.2.3zM951 901.4c1.4.2-2.9.3-9.5.3-7 0-10.1-.3-7.5-.6 4.2-.6 11.2-.4 17 .3m-806.2.3c-3.2.2-8.6.2-12 0-3.5-.2-.9-.3 5.7-.3s9.4.1 6.3.3m816 5.9c3.3.5 4.1 2.1 2 4.2-1.3 1.3-20 1.7-25.7.6-2.5-.5-3.1-1.1-3.1-3.3v-2.6l11.7.3c6.5.1 13.3.5 15.1.8M146 909.4c0 3-2.7 3.6-17.6 3.6-10.6 0-11.3-.1-11.9-2.1-.5-1.4-.2-2.5.6-3s7.6-.9 15.2-.9H146zm15.8-.8c.2.1.1 1.2-.3 2.3-.5 1.7-1.5 2.1-5 2.1-5.9 0-7.5-.8-7.5-3.7 0-2.4.1-2.4 6.3-1.7 3.4.4 6.4.8 6.5 1m769.2.9c0 2.9-2.5 3.8-8.6 3.3-3.1-.2-4-.7-4.2-2.5-.3-1.9.2-2.2 3.5-2.6 9.1-.9 9.3-.9 9.3 1.8M144.8 942c.2 13.5 0 26.4-.3 28.7l-.6 4.3H121v-56.9l10.3-.4c5.6-.1 10.9-.3 11.7-.2 1.3 0 1.5 3.6 1.8 24.5m806.8-24h7.4v57h-24v-58.3l4.6.7c2.6.3 8 .6 12 .6m-796.7.6 3.1.6V975h-9.9l-.3-28.5c-.3-28.5-.3-28.5 1.8-28.5 1.2 0 3.6.3 5.3.6M932 946.5V975h-10v-55.9l2.3-.4c1.2-.2 3.4-.5 5-.6l2.7-.1zm-551.6-17.6c.9.7 1.6 1.8 1.6 2.3s-7.2.8-18 .6c-12.9-.2-18-.6-18-1.4 0-2.2 7.4-3.3 20.1-3.1 8.8.2 13.2.7 14.3 1.6m57.5-.6c1.9.7 3.6 1.7 3.8 2.4.3.9-4 1.2-18.4 1-18.8-.2-21.5-.8-16.2-3.4 3.1-1.6 26.2-1.6 30.8 0m236.5.6c.9.8 1.4 1.7 1 2-.8.8-37.4.8-37.4 0 0-1 2.3-2.6 4.5-3.2 1.1-.3 8.3-.5 16.1-.4 10.4.2 14.5.6 15.8 1.6m56.6-.6c7 2.4 3.2 3.2-14.5 3.2s-21.5-.8-14.5-3.2c4.5-1.5 24.5-1.5 29 0m-509 7.1c0 1.7-4.4 2.6-12.7 2.6-4.7 0-6.4-.3-6.1-1.2.6-1.8 4.3-2.6 12.1-2.7 5.1-.1 6.7.2 6.7 1.3m654.1.7c.7 1.1 0 1.5-3.4 1.7-7.1.6-14.7-.7-14.7-2.5 0-1.3 1.3-1.5 8.6-1.1 5.9.3 8.8.9 9.5 1.9m-677.7 1.3c-.3.9-2.5 1.6-5.7 1.8-6.1.5-6.4.4-4.7-1.7 1.7-2 11.2-2.2 10.4-.1m693.4-.2c2 2 1.4 2.3-4.2 2-3.5-.3-5.6-.9-6-1.8-.4-1.1.5-1.4 4.2-1.4 2.7 0 5.3.5 6 1.2M384 944v7h-43v-14h43zm61.8.2.3 6.8h-22c-14.3 0-22.2-.4-22.6-1.1-.4-.5-.4-3.7 0-7l.7-5.9 21.7.2 21.6.3zM678 944v7h-44v-14h44zm61 0v7h-21.3c-11.8 0-21.6-.2-21.8-.4s-.2-3.4-.1-7l.4-6.6H739zm-404 1v6h-10.4c-5.8 0-10.7.4-11 .8-.3.5-17.3 1.2-37.8 1.5-20.5.4-41.9 1-47.5 1.4l-10.3.6v-6.1c0-5.8.1-6.1 2.8-6.6 1.5-.3 18.2-1 37.2-1.6s38.1-1.2 42.5-1.3c4.4-.2 14-.4 21.3-.5l13.2-.2zm491.5-3.9c18.2.6 33.6 1.2 34.3 1.5.9.3 1.2 2.1 1 6.1l-.3 5.8-13.5-.4c-7.4-.2-28.8-.7-47.5-1.2s-38.8-1.2-44.7-1.5l-10.8-.5v-12.2l24.3.7c13.3.4 39.1 1.1 57.2 1.7M214 948.5v6.5h-14.1l.3-5.8.3-5.7 6.5-.6c3.6-.3 6.6-.6 6.8-.7.1-.1.2 2.7.2 6.3m660.1-5.5h4.9v12h-13v-6.6c0-5.6.2-6.5 1.6-6 .9.3 3.8.6 6.5.6M196 950v6h-12v-5.3c0-3 .3-5.7.7-6 .3-.4 3-.7 6-.7h5.3zm699.8.2.3 5.8H884v-12.1l5.8.3 5.7.3zM313 967.3v11.4l-58.7.7c-32.4.4-61.6.9-65 1.3l-6.3.6v-20.1l3.3-.5c4.9-.9 86.8-4.1 117-4.5l9.7-.2zM808 957c40.4 1.1 80.9 2.8 85.8 3.6l3.3.5-.3 9.7c-.3 9-.4 9.7-2.3 9.5-1.1-.1-30.5-.5-65.2-.9l-63.3-.7V956h3.3c1.7 0 19.2.5 38.7 1m-362 3.5v3.5l-56.7.2-56.8.3-.3 22.7-.2 22.8h-12v-53h126zm314 23v26.5h-13v-46H634v-7h126zm-135-18v4.5H455v-9h170zM436 977v6.9l-8.2.3-8.3.3-.5 7c-.5 6.8-.6 7-3.2 7.1-1.6 0-5 .1-7.7.2l-5 .2-.3 5.2-.3 5.3h-63l-.3-19.8-.2-19.7h97zm304.3 12.7-.2 19.8-31.1.3-31 .2v-5c0-6-.6-6.4-10.2-6.5H661v-6.6c0-7.8-.1-7.9-9.5-7.9h-6.3l-.4-7-.3-7h96zm-100.6-10.2-.2 4.5H441v-9h198.9zm322.6 1.3c.9.8 1.7 2.2 1.7 3 0 1.3-2.1 1.4-15.1 1-8.2-.3-15.3-.8-15.6-1.1-.3-.4-.3-1.7.1-3.1l.6-2.5 13.3.6c9.8.4 13.7 1 15 2.1m-815.8.3c.4 1.1.5 2.2.3 2.4-.2.3-7.2.7-15.6 1.1-16.1.7-17.3.4-13.5-3.8 1.4-1.6 3.3-1.8 14.9-1.8 12.5 0 13.3.1 13.9 2.1M160 980c1.1.7-.1 1-4.2 1-3.1 0-6-.5-6.3-1-.8-1.3 8.5-1.3 10.5 0m770 0c0 .5-2.5 1-5.6 1-3.4 0-5.3-.4-4.9-1 .3-.6 2.8-1 5.6-1 2.7 0 4.9.4 4.9 1m-617 9v5h-40.7c-22.5 0-58.7.3-80.5.7l-39.8.6v-8.1l11.3-.6c10.2-.6 89.9-2 132.5-2.4l17.2-.2zm555-3.5c23.4.3 46.2.8 50.8 1.1l8.2.6v7.7l-79.2-.5c-51.5-.3-78.8-.2-77.8.4.9.6 24.6 1.3 59 1.6 31.6.4 66.6.9 77.8 1.2l20.2.6v10.7l-5.2.6c-2.9.3-39 .5-80.3.3l-75-.3-.3-12.9-.3-12.9 29.8.6c16.4.4 48.9.9 72.3 1.2m-721 13.2v10.3h-36.1l.3-9.8.3-9.7 15.5-.5c8.5-.3 16.5-.6 17.8-.6 2.1 0 2.2.3 2.2 10.3m820.8-9.2c.8.3 1.2 3.2 1.2 10v9.5h-37v-20.5l17.3.3c9.4.2 17.8.5 18.5.7m-311.8 4v4.5H546.8c-60.1 0-112.3.3-116 .7l-6.8.6V989h232zm-343.2 8.7-.3 7.3-76 .3c-41.8.2-77.9 0-80.2-.3l-4.3-.6v-10.6l15.2-.6c8.3-.4 30.2-.8 48.7-.8 29.9-.2 88.8-1.2 94.9-1.7 2.2-.2 2.3 0 2 7M673 1008v5H407v-4.3c0-2.4.3-4.7.7-5 .3-.4 60.2-.7 133-.7H673zm-94.7-748c-6.5 2.7-7.6 13.7-2.3 24.4 3.5 7.1 8.5 12.3 14.9 15.6 5.6 2.8 8.7 2.6 12.2-.9 2.3-2.4 2.9-3.8 2.9-7.3 0-17.1-16.8-36.4-27.7-31.8m13.1 30.1c3.3 1.9 4.6 4.6 3 6.2-.9.8-4.3-1-7.6-4.1-4.6-4.3-1.5-5.7 4.6-2.1m-69.9 85.4c-1.8 1.7-2.5 3.5-2.5 6.2.1 4.2 1.3 6.3 4.8 8.2 7 3.7 12.5-10.8 5.9-15.4-3.1-2.1-5.4-1.9-8.2 1m7 4.5c.7 2.3-1 5-3 5-1.7 0-2.5-3.3-1.3-5.4 1.3-2.2 3.5-2 4.3.4m-2 164.1c-7.7 2.7-23.2 8.2-34.5 12-11.3 3.9-21.3 7.5-22.2 8-1.5.8-1.8 2.4-1.8 9.4v8.5h145v-17.7L577.8 552c-19.4-6.7-35.7-12.4-36.3-12.6-.5-.2-7.3 1.9-15 4.7m43.9 8c16 5.6 31.5 11 34.4 12.1l5.2 1.9V579H471v-12.7l23.8-8.3c13-4.6 28.4-10 34.2-12.1s10.9-3.8 11.4-3.8c.5-.1 14 4.5 30 10M487 567.5c0 1.3 6.3 1.5 53.8 1.3 34.9-.2 53.7-.6 53.7-1.3s-18.8-1.1-53.7-1.3c-47.5-.2-53.8 0-53.8 1.3m-79.9 6.1c-1.2 1.5-2.1 3.2-2.1 3.9 0 2.4 4.1 6.5 6.6 6.5 3.1 0 6.4-3.3 6.4-6.5s-3.3-6.5-6.4-6.5c-1.5 0-3.3 1.1-4.5 2.6M665 573c-1.1 1.1-2 3.1-2 4.5 0 3 3.2 6.5 5.9 6.5 3 0 6.4-3.3 6.4-6.3 0-5.9-6.3-8.7-10.3-4.7M277.5 707.7c-8.6 1.8-9.4 2.5-7.2 6.2 2.5 4.2 2.1 5.7-1.8 8.1-11 6.8-19 22.5-21 41.2-.4 3.2-1.1 5.8-1.7 5.8s-.7 1.3-.3 3.7c.5 2.1 1 28.3 1.2 58.3l.3 54.5-2.2 1c-2 .9-2.3 1.8-2.6 7.6-.3 6.6.6 9 4 10.1.7.3 1.5 2.9 1.8 5.9s.8 5.3 1.3 5.1c.4-.1 3.2-.2 6.2-.2h5.5v-10.7l14.3-.6c7.8-.4 17.2-.7 21-.7h6.7v10h14v-5.5c0-4.4.4-5.6 2-6.5 1.8-.9 2-2.1 2-9.5 0-7.5-.2-8.4-2-9-2-.6-2-1.1-1.7-56.3.2-30.6.8-57.4 1.2-59.5.5-2.5.4-3.7-.4-3.7-.6 0-1.1-1.9-1.1-4.8-.1-16.8-10.1-33.7-23.3-39.2l-5.5-2.3 1.4-3.3c1.3-3.2 1.3-3.4-1.5-5.3-1.6-1.2-3.1-2.1-3.3-2-.1.1-3.4.8-7.3 1.6m5.5 9.5c0 1.8-.3 5.7-.6 8.5-.6 4.6-1 5.3-2.9 5.3-1.8 0-2.3-.9-3.5-6.8-.7-3.7-1.5-7.2-1.7-7.9-.3-.7.7-1.3 2.4-1.6 6.2-.9 6.3-.9 6.3 2.5m11.2 5.9c5 2.5 10.1 7.8 13.8 14.2 3.3 5.8 6.3 17.6 5.8 22.8-.3 3.1-.6 3.4-4 3.7l-3.8.3v-5.3c-.1-6-3.2-14.5-7.3-20-2.5-3.2-8.1-6.8-13.1-8.3-1.3-.4-1.7-1.1-1.2-2.8.3-1.2.6-3.4.6-5 0-2.5.3-2.7 2.8-2.1 1.5.4 4.4 1.5 6.4 2.5m-21.1 10.4c-8.4 6.3-12.6 13.6-14.9 26-1.6 8.3-1.7 8.5-4.4 8.5-2.5 0-2.8-.4-2.8-3.3 0-5.6 2.9-16.8 5.8-23.1 3.4-7.1 7.1-11.8 12.7-15.8l4-2.9 1.1 4.3c1.1 4.1 1 4.4-1.5 6.3m18.4 5.5c1.7.7 1.5.9-1.2.9l-3.3.1v29.3l7.5-.6c4.1-.4 7.5-.3 7.5.2 0 .9-7.1 2.1-12.1 2.1H287v25.3l8.5-.5c4.7-.3 8.5-.2 8.5.2 0 .8-4.3 1.5-13.5 2.2l-3 .3-.3 12.8-.3 12.9 8.6-.7c7.5-.6 8.5-.5 8.5.9 0 1.1-.9 1.6-3.2 1.6-1.8 0-5.7.3-8.5.6l-5.3.7V852h8.6c5.4 0 8.3.4 7.9 1-.3.5-3.5 1-7 1-9.9 0-9.5-.6-9.5 13.6V880h8c4.8 0 8 .4 8 1 0 1.6-1.3 1.8-20.3 2.5l-17.8.6.3-61.8.3-61.8 2.4-5.9c5-12.4 15.3-19.2 23.6-15.6m23.5 28.5c0 1.1-1.2 1.5-5 1.5-5.8 0-6.8-1.7-1.2-2.3 2-.2 4.3-.4 5-.5.6-.1 1.2.5 1.2 1.3m-58 4.4c0 .5-1.8 1.1-4 1.3-2.8.2-4 0-4-.9 0-.8 1.4-1.3 4-1.3 2.2 0 4 .4 4 .9m56.8 55.3-.3 55.3-3.7.3-3.8.3v-110l2.3-.4c6.3-1.2 5.7-6.4 5.5 54.5m-56.8 3.3V885l-2.5.6c-1.4.4-2.9.3-3.3 0-1.2-1.3-.1-108 1.2-108.8.6-.4 1.9-.8 2.9-.8 1.6 0 1.7 3.3 1.7 54.5m58 60.9c0 4.2-.1 4.4-3.7 5-2.1.3-7.9.6-13 .6s-18.3.5-29.3 1.1c-11.1.6-20.7.8-21.4.6-.7-.3-1-2-.8-4.5l.4-4 13.1-.7c19.9-1.1 41.4-2.2 48.5-2.3l6.2-.2zm-1 14c0 2.6-.5 3.5-2.2 4-5 1.3-5.8.8-5.8-3.4v-4h4c3.9 0 4 .1 4 3.4m-57.4 5.1c-.3.8-1.7 1.5-3.1 1.5-2.2 0-2.5-.4-2.5-3.4 0-2.8.4-3.5 2.3-3.8 2.4-.3 4.4 3 3.3 5.7m23.9-168.6c-4.3 2.7-7.1 6-9.5 11.3-2.5 5.7-4.2 16.8-2.6 17.4.6.2 4.5.1 8.6-.3l7.5-.8.3-14.8c.1-8.1-.1-14.7-.5-14.7-.5 0-2.1.8-3.8 1.9m-8.7 30.8-3.6.4-.7 7.2c-.4 4-.5 9.4-.3 12.2l.3 5 8-.4c4.4-.1 8.3-.5 8.8-.8.4-.2.7-5.8.7-12.4V772l-4.7.2c-2.7.1-6.5.3-8.5.5m-1.8 27.2c-2.5.7-2.5.7-2.5 13.1v12.5l4-.3c2.2-.1 6.1-.5 8.8-.8l4.7-.6V799l-6.2.1c-3.5.1-7.4.4-8.8.8m3 28-5.5.6v25l8-.3c4.4-.2 8.4-.7 8.8-1.1s.6-6.1.5-12.7l-.3-11.9-3-.1c-1.6-.1-5.5.2-8.5.5m-3.2 27.8-2.8.4v25l8.8-.3 8.7-.3v-25l-6-.1c-3.3-.1-7.2.1-8.7.3m524.2-149c-.8.3-2.3 1.2-3.2 2.1-1.5 1.3-1.6 1.8-.4 4.7l1.4 3.2-5.7 2.4c-12.5 5.2-21.7 19.8-23.6 37.6-.4 3.5-1.1 6.3-1.7 6.3-1 0-.2 7.6 1.1 9.5.3.5.5 25.4.3 55.2-.3 52.9-.3 54.2-2.2 54.8-1.8.6-2 1.6-2 9s.2 8.6 2 9.5c1.6.9 2 2.1 2 6.5v5.5h14v-10l12.3.1c6.7.1 16.3.4 21.2.8l9 .6.3 5.2.3 5.3H832v-5c0-4.2.4-5.2 2.5-6.6 2.3-1.5 2.5-2.2 2.5-9.1 0-6.6-.2-7.5-2-8-2-.5-2-1.4-2-54.9 0-35.1.4-54.5 1-54.9 1.2-.7 1.4-7.5.2-7.5-.5 0-1.4-4-2-8.8-1.4-10.6-4.1-18.8-8.2-25.3-3-4.6-10.6-12.2-14.6-14.6-1.8-1.1-1.8-1.2-.1-4.3 3-5.6 2.4-6.6-4.5-7.9-3.5-.7-7-1.4-7.8-1.6s-2.2-.1-3 .2m8.9 7.9c2.3.5 3 1.1 2.7 2.3-.2.9-1 4.4-1.6 7.8-1 5.1-1.6 6.3-3.2 6.3-2.3 0-2.5-.6-3.3-9.8-.7-7.9-.7-7.8 5.4-6.6m-7.4 11.1c.6 3.6.4 4.4-1.2 4.9-5.5 1.8-7.5 2.9-10.8 6.1-4.1 4-8.1 11.4-8.9 16.6-.3 2-.8 5.3-1.1 7.2-.4 2.6-1.1 3.5-2.5 3.5-4.1 0-5-1.1-5-5.9 0-11.4 6.5-25.1 14.9-31.7 5.2-4 11.8-6.8 13.2-5.5.4.3 1 2.5 1.4 4.8m20.8 5.3c7.3 8.2 12.7 21.8 12.7 32.4 0 4.4-.1 4.6-2.9 4.6-2.7 0-2.9-.2-3.5-6.2-1.3-11.4-7.2-22.5-14.5-27.4-3.8-2.5-3.8-2.5-2.8-6.9s1-4.4 3.7-3c1.5.8 4.8 3.7 7.3 6.5m-15.7 9.1q12.15 5.85 14.4 27c.5 5.2 1 33.6 1 63.2V884l-16.2-.5c-18.3-.7-22.8-1.2-22.8-2.5 0-.6 3.6-1 8-1h8.1l-.3-12.8-.3-12.7-8.2-.3c-11-.4-10.7-2.2.2-2.2h8.5v-24.7l-3.7-.7c-2.1-.3-5.9-.6-8.5-.6-3.8 0-4.8-.4-4.8-1.6 0-1.4 1-1.5 8.5-.9l8.5.7V798h-3.2c-5.3 0-13.8-1.2-13.8-2 0-.3 3.8-.4 8.5-.2l8.5.5v-25.1l-8-.7c-4.4-.4-7.7-1.1-7.4-1.6s3.4-.7 7-.3c4.1.4 6.8.3 7.7-.4 1-.8 1.3-4.5 1.1-14.9l-.2-13.8-2.8.3c-2.3.2-2.6.1-1.4-.7 2.4-1.7 7-1.3 11.6 1m-8.6 27.4c0 .5-.5.3-1-.5s-1-2-1-2.5c0-.6.5-.3 1 .5s1 1.9 1 2.5m-20.4-.5c1.9 0 3.4.4 3.4 1 0 1.2-9.7 1.3-10.4.1-.8-1.2.6-2.2 2.2-1.6.7.3 2.9.5 4.8.5m59.4 5.3c0 .9-1.2 1.1-4 .9-2.2-.2-4-.8-4-1.3s1.8-.9 4-.9c2.6 0 4 .5 4 1.3m-59.2.7c.9 0 1.2 11.6 1.2 54.8v54.8l-3.5-.4-3.5-.4v-110l2.3.6c1.2.3 2.8.6 3.5.6m55.6 3.6c1.4.6 1.6 6.3 1.6 55.1 0 49.3-.2 54.5-1.6 53.9-.9-.3-2.2-.6-3-.6-1.2 0-1.4-8.1-1.4-54.5 0-57.9-.2-55.7 4.4-53.9M791.5 888c11 .5 24.8 1.2 30.8 1.6l10.7.7v9l-7.2-.6c-4-.4-15.4-.9-25.3-1.2s-22.2-.8-27.2-1.1l-9.3-.6V887h3.8c2 0 12.7.5 23.7 1M773 905.5c0 3.4-.1 3.5-4 3.5s-4-.1-4-3.5.1-3.5 4-3.5 4 .1 4 3.5m56 3.2c0 3.2-.2 3.4-2.7 3.1-2-.2-2.9-.9-3.1-2.6-.6-3.7.4-5 3.2-4.5 2.2.5 2.6 1.1 2.6 4m-34-154.3c0 8 .3 14.7.8 14.9.4.3 4.3.6 8.7.8l8 .4-.3-5.2c-.5-10.2-5.7-20-12.3-23.4-2.1-1-4.1-1.9-4.4-1.9s-.5 6.5-.5 14.4m.2 29.8.3 12.3 7.5.7c4.1.4 8.1.5 8.8.3.9-.3 1.2-3.7 1.2-12.3v-11.9l-5.2-.7c-2.9-.3-7-.6-9.1-.6h-3.8zm-.2 26.7c0 6.6.4 12.2.9 12.6.6.3 4.6.8 9 1.2l8.1.6v-25.1l-3.1-.6c-1.7-.3-5.8-.6-9-.6H795zm.7 16.7c-.9 1-.9 24.2.1 24.7.4.3 4.3.7 8.7.8l8 .4.3-12.3c.2-9.3 0-12.3-1-12.6-2.8-.9-15.4-1.6-16.1-1m0 28.1c-.9.8-.9 21.6-.1 23.7.5 1.3 2.3 1.6 9 1.6h8.4v-24.8l-3.1-.6c-4.2-.8-13.4-.8-14.2.1M499 826c0 18.7-.1 34.3-.2 34.7-.2.5 6.1.9 14 1.1l14.2.3V792h-28zm67.8-34.2-13.8.3V862h29v-34.9c0-19.3-.3-35.1-.7-35.3-.5-.2-7-.2-14.5 0m-68 97.9c-.2.5-.3 4.6-.2 9.3s.2 15.1.3 23.2l.1 14.8h28v-48h-13.9c-7.7 0-14.1.3-14.3.7M553 913v24.1l14.3-.3 14.2-.3.3-23.8.2-23.7h-29zM671.6 45.2c-.3 1.3-.6 3.8-.6 5.6 0 4.7-3.5 7.8-9.8 8.7-6.4.9-6 2 1 2.8 6.5.8 8 2.3 8.6 8.6.2 2.8.8 5.4 1.3 5.7.8.5 1.3-.9 2.4-7.7.7-4.6 2.3-5.9 7.7-6.6 6.3-.7 7.8-1.3 5.3-2.3-1.1-.5-3.4-.9-5.1-.9-5-.1-7.3-2.8-8.4-9.5-1.1-6.8-1.5-7.6-2.4-4.4m-285 13.9c-.3 1.9-.8 5.6-1.1 8.3-1.3 9.5-2.9 10.9-14.9 12.5-8.2 1.2-9.1 1.8-4 2.6 9.9 1.6 14.3 2.7 15.8 3.8 1.1.8 2.1 3.8 2.7 8.2 2 13.4 2.4 13.9 3.8 4.6 1.9-13 3-14.2 13.1-15.6 7.1-1 10.2-1.7 9.7-2.2-.3-.2-3.6-.8-7.3-1.4-12.6-1.7-13.8-2.9-15.4-15.7-1.1-8.6-1.7-9.8-2.4-5.1m372.6 40.1c-3.4 3.4 1.4 10.2 5.6 7.9 2.6-1.4 3.3-4.5 1.5-7-1.6-2.3-5.2-2.8-7.1-.9m-477 57c-1.9 1.9-1.4 4.5 1 6.2 1.9 1.3 2.5 1.4 4.3.2 2.5-1.6 3.1-4.2 1.5-6.1-1.5-1.8-5.2-1.9-6.8-.3m560.1 1.4c-.8 2.2 1 4.9 3.2 4.9 1 0 2.2-.7 2.8-1.6 1.5-2.4.1-4.9-2.8-4.9-1.5 0-2.8.7-3.2 1.6m-13.8 40c-.8 5.3-3.4 8.4-7.2 8.4s-6.1 1.5-3.8 2.4c.9.3 2.8.6 4.1.6 3.5 0 6 3.1 6.9 8.5.8 5.4 2.5 4.5 2.5-1.3 0-3.8 3-7.2 6.4-7.2 3.3 0 5.7-1 5-2.1-.3-.5-2-.9-3.8-.9-4.8 0-6.7-1.9-7.3-7.3-.7-6.3-1.9-6.8-2.8-1.1m-602.9 8.6c-.3 3.4-1.2 6.8-1.9 7.5-.7.8-4.1 1.9-7.5 2.5-6.1 1.1-7.5 2.8-2.4 2.8 1.5 0 4.3.5 6.4 1 4.1 1.2 5.8 4.5 5.8 11.1 0 2.2.5 3.9 1 3.9.6 0 1-.7 1-1.5 0-.7.5-3.7 1.1-6.5 1-4.5 1.6-5.4 4.5-6.6 1.8-.8 4.9-1.4 6.9-1.4 4.4 0 4.6-1.6.3-2.5-1.8-.3-4.6-.8-6.1-1.1-3.6-.7-5.3-3.6-6.2-10.2-.4-2.8-1-5.2-1.5-5.2-.4 0-1 2.8-1.4 6.2M916 245.1c-.3 6-3.3 22.8-4.5 24.5-1.7 2.6-8.5 5-17.5 6-3.3.4-6 1-6 1.3 0 .4 3.8 1.3 8.5 1.9 4.7.7 9.6 1.7 11 2.2 3.9 1.5 5.7 5.4 7 15.5.6 5.3 1.4 9.8 1.7 10 .3.3 1-3.4 1.7-8.3 2.1-16.3 2.8-17.1 18.4-19.3 4.8-.7 8.7-1.5 8.7-1.9s-3.9-1.2-8.7-1.9c-15.5-2.2-16.5-3.3-18.4-20-.6-5.3-1.3-9.8-1.5-10s-.4-.2-.4 0m-762.6 38.7c-2.6 1.7-3.6 5.3-2.4 8.3 1.3 3.2 4.5 4.5 8.4 3.5 3.2-.8 5.2-5.6 3.5-8.8-1.5-3-2.8-3.8-5.9-3.8-1.4 0-3 .4-3.6.8m809 87.7c-1.5 2.3-1.5 2.7 0 5 1.9 2.9 4.7 3.2 7 .9 3.1-3 .9-8.4-3.4-8.4-1.1 0-2.7 1.1-3.6 2.5m-847.7 5c-.3 1.6-.9 5.9-1.3 9.5-1 10.5-2.3 12.6-8.6 14.4-2.9.8-7.9 1.8-11 2.2-3.2.3-5.8.9-5.8 1.3s3.8 1.3 8.5 1.9c4.7.7 9.7 1.7 11.1 2.2 3.2 1.3 5.1 5.9 6 14.6 1.1 11.3 2 11.7 3.3 1.4 1.9-15.1 2.9-16.1 17.3-18.1 4.8-.7 8.8-1.6 8.8-1.9 0-.4-3.9-1.2-8.7-1.9-14.4-2-15.4-3.1-17.6-19.1-1-7.3-1.5-8.8-2-6.5m867.6 83.9c-.7 3.8-1.8 7.6-2.6 8.3-.7.7-3.9 1.8-7.1 2.3s-6.1 1.1-6.3 1.4c-.6.6 2.2 1.3 7.9 2.1 2.5.3 5.1 1.2 5.7 1.9s1.7 4.4 2.4 8.2l1.3 6.9.8-4.5c1.6-10 1.7-10.1 5.2-11.6 1.8-.8 4.9-1.4 6.8-1.4s3.7-.4 4-.9c.6-.9-.7-1.3-8.6-2.7-4.9-.8-5.6-1.8-7.1-10l-1.3-6.9zM98.2 542.2c-2.8 2.8-.1 7.5 3.7 6.3 2.7-.8 3.4-3.5 1.5-5.6-2-2.2-3.5-2.4-5.2-.7M952 562.1c-1.4 2.5-.8 4.4 1.9 5.8 1.5.8 2.4.7 4.2-.8 2.1-1.6 2.2-2.2 1.1-4.5-1.5-3.3-5.6-3.6-7.2-.5"/></svg>