<!-- Icon: Trust Custom Design --><svg fill="#FFFFFF" xmlns="http://www.w3.org/2000/svg" width="457.333" height="552" viewBox="0 0 343 414"><path d="M170.3 16.5c0 2.2.2 3 .4 1.7.2-1.2.2-3 0-4-.3-.9-.5.1-.4 2.3M168.4 29c-1.1.5-2.8 2-3.8 3.4-1.6 2.5-1.6 2.9-.2 5.8.9 1.7 1.6 3.2 1.6 3.4s-2.4.5-5.2.7l-5.3.4 5.5.1c3 0 6.3.1 7.3.1 1.2.1 1.7 1 1.8 2.8l.1 2.8 1-2.8c.9-2.6 1.1-2.7 9.6-2.8 9.2-.1 9.2-.4.1-1.4l-5.7-.6 1.5-3.1c1.4-2.8 1.4-3.2-.4-5.5-2.3-3.1-5.1-4.3-7.9-3.3m5.4 2.3c2.1 2.7 2.2 5.4.2 7.8-1.7 2-2.1 2.2-3 .9-.6-1-1-1.1-1-.3 0 2.2-2.6 1.4-3.8-1.2-1.3-2.7-.2-7 1.9-7.7 2.5-.8 4.8-.6 5.7.5M56.3 34c0 3 .2 4.3.4 2.7.2-1.5.2-3.9 0-5.5-.2-1.5-.4-.2-.4 2.8m224.7-.1c0 2.8.5 5.1 1 5.1.6 0 1-2 1-4.4 0-2.5-.4-4.8-1-5.1-.6-.4-1 1.3-1 4.4M55.2 43c-.7 1.2-.8 2-.2 2 .5 0 1 1.3 1 3 0 2.5-.4 3-2.5 3-2.7 0-3.5-2.6-1.3-4.8.9-.9.9-1.2 0-1.2-.7 0-1.5 1.3-1.8 3-.6 3-.7 3-7.8 3.2l-7.1.2 6.7.3c5.9.4 7 .7 10.2 3.8l3.6 3.4V105l-3.2 5.7c-1.8 3.1-2.7 5.4-2.1 5s1.6-2 2.3-3.7c.7-1.6 1.6-3 2.1-3s1 9.1 1.2 20.2l.2 20.3.3-22.1c.2-21.7.2-22.1 2.7-25.4 3.2-4.3 3.2-5.4 0-1.5l-2.5 3V80.2c0-19.8.2-23.2 1.5-23.2.8 0 2.2-1.1 3.1-2.5l1.6-2.5 20.7-.3 20.6-.2-20.5-.3-20.6-.2-1.1-3c-.6-1.7-1.6-3-2.3-3s-.5.6.4 1.6c2.4 2.4 2 4.4-1 4.4-2.5 0-2.6-.2-2.1-3.9.6-4.8-.4-6.8-2.1-4.1m.8 11c0 2.3-1 2.6-2.8.8S51.7 52 54 52c1.3 0 2 .7 2 2m5-1.2c0 1-2.2 3.2-3.2 3.2-.4 0-.8-.9-.8-2 0-1.3.7-2 2-2 1.1 0 2 .4 2 .8m220-9.3c0 .8.5 1.5 1 1.5.6 0 1-.7 1-1.5s-.4-1.5-1-1.5c-.5 0-1 .7-1 1.5m-131.7.2c.9.2 2.3.2 3 0 .6-.3-.1-.5-1.8-.5-1.6 0-2.2.2-1.2.5m41.5 0c.6.2 1.8.2 2.5 0 .6-.3.1-.5-1.3-.5s-1.9.2-1.2.5m7.3.7c.4.4 2.1 1.1 3.9 1.6 1.9.5 2.9.6 2.4.1-1-1-7.2-2.6-6.3-1.7m-62.6 2.1c-3.9 1.4-4 1.4-.5.8 4.1-.7 8.2-2.2 6-2.2-.8 0-3.3.7-5.5 1.4m150-.5c.3.5 1.1 1 1.6 1 .6 0 .7-.5.4-1-.3-.6-1.1-1-1.6-1-.6 0-.7.4-.4 1m-70.1 4c4.4 1.6 8.1 2.8 8.3 2.6.5-.5-9.6-4.3-13.4-5.1-1.5-.3.8.8 5.1 2.5m-94.2 1.1c-4 1.7-7.1 3.3-7 3.5.2.2 4.2-1.2 8.8-3.1 4.7-1.9 7.8-3.4 7-3.4s-4.8 1.4-8.8 3M275 49.8c0 .9-4.8 1.3-18.2 1.4l-18.3.3 17.9.2 17.9.3 3.4 3c1.8 1.7 3.8 3 4.4 3s2.4-1.3 4-3c2.6-2.6 3.8-3 10.2-3.3l7.2-.3-7.2-.2c-4.1-.1-7.3-.6-7.3-1.2s-.5-1-1.1-1c-.5 0-.7.4-.4 1 .9 1.5-9.8 1.3-11.3-.2-.9-.9-1.2-.9-1.2 0m12 3.2c0 .4-.7 1.4-1.7 2.1-1.4 1.2-1.7 1.2-2.1 0-.4-1.1-.6-1.1-1.3 0-.6 1.1-1.3 1.1-2.6.3-3.4-2.1-2.5-3.2 2.7-3.2 2.7 0 5 .4 5 .8m-118.5 0c-.8 1.6-1.5 4.2-1.5 5.8 0 4.9-2.2 6.7-7.9 6.5-4.3-.2-5.3.1-7.1 2.4-1.1 1.4-2 3.4-2 4.5 0 3.3 3.9 9.7 6.9 11.3 1.9.9 3.2 2.6 3.6 4.6.4 1.6 1.3 3.3 2.1 3.6 1.6.6 1.9 3.9.4 4.8-.5.3-1 1.4-1 2.5s-1 2-2.6 2.4c-2.3.6-2.6 1.1-2 3.6.4 2.3.2 3-1 3-5.5 0-11.3 7.9-11.6 15.6 0 2.2-.7 4.8-1.5 5.9-1.8 2.6-1.7 6 .3 7.6 1.3 1 1.4 2.6.8 8.8-.3 4.2-1 7.8-1.4 8.1s-1.2 2.5-1.8 5c-1.8 8.1-4.2 16.2-5.8 19.9-.9 2-2.2 5.2-3.1 7.1-2.2 5.1-10.8 18.9-14.3 22.9-2.4 2.9-3 3.2-3.6 1.8-1-2.7-2.2-2-2.6 1.5-.2 1.7-.9 3.3-1.5 3.6-.9.3-1.3-1.2-1.3-5.2 0-4.7.3-5.7 2.3-6.7 3.4-1.9 10.9-9.8 10.4-11.2-.4-1.3-1-1.4-6.9-1.6l-3.8-.1v-12.4c0-7.3-.4-12.7-1-13.1-.7-.4-.7-1.2 0-2.5 1.8-3.3 1.1-9.4-1.9-16.5-1.6-3.8-3.4-7.1-3.9-7.3-1-.3-7 12.4-7.9 16.8-.3 1.7.1 4.2 1 5.9.9 1.8 1.1 3.3.6 3.7-.5.3-.9 6.1-.9 13V191h-4.7c-8.3 0-8.6 1.2-1.8 7.9 3.3 3.4 6.5 6.1 7.1 6.1 1.1 0 3.9 14.8 3 15.7-.2.2-1.4-1.3-2.6-3.4-1.8-3.1-2-4.3-1.2-7 .7-2.3.7-3.5 0-4-1.5-.9-3.9 2.7-3.2 4.9.3 1-.5 4.5-1.7 7.8l-2.2 6.1 2.7 2.7 2.7 2.7 3.3-3.9 3.3-4 1.3 4c.7 2.1 2 4.9 2.8 6.2.8 1.2 1.3 2.4 1.1 2.6-1.5 1.2-8 2.6-12.3 2.6-6.9 0-11.5-1.4-15.6-4.8l-3.4-2.9 3.7-.7c2-.4 3.7-1.1 3.7-1.6 0-1.2.2-1.2-4 0-1.9.5-4.2.7-5.2.4-2.4-.7-5.7-6.5-7.3-12.5-1.3-4.8-1.3-5 .8-5.9 2.8-1.1 10-9.7 9.2-11-.3-.6-2.8-1-5.5-1h-4.9l-.3-11.3c-.2-6.1.1-12.6.6-14.4.7-2.5.3-4.7-1.9-10.8-1.5-4.1-3.1-7.8-3.6-8.1-1.1-.7-5.9 10-6.6 14.7-.3 2 0 4.5.6 5.7.7 1.4.8 2.3.1 2.7-.6.3-1 5.2-1 11.1V198h-4.9c-2.8 0-5.3.4-5.6 1-.7 1.2 9 11 10.9 11 .8 0 1.6 1.7 2 4.2.4 2.3 1.5 6.1 2.5 8.4 1.9 4.1 1.9 4.2 0 4.7-2 .5-2.6 3.6-.9 5.3.7.7.3 2.8-1.3 6.5-4.2 9.4-4.3 11.2-.6 15.4l3.2 3.6 3.3-3.2c4-3.9 4.2-5.7 1-14.4-1.3-3.6-2.2-7.4-1.9-8.5.4-1.6 1.3-1.1 5.8 3.4 5.3 5.2 13.3 9.8 19.3 11.1 3.6.7 4 2 1.6 5.3-1.4 2.1-1.4 2.5 0 4.6 1.4 2.2 1.3 2.9-1.3 9.2-4.4 10.9-4.4 11.1-.4 15.5l3.6 4 3.3-3.2c1.9-1.8 3.6-4 3.9-4.9.3-1-.9-5.4-2.6-9.9-3-7.9-3-8.3-1.4-10.2 1.7-1.7 1.7-2 .2-3.7-.9-1-1.4-2.7-1.1-3.9.5-1.7 1.6-2.1 6.3-2.6 3.2-.2 7.8-1.4 10.3-2.5 3.1-1.3 5-1.7 6.1-1 2.1 1.1 2.2 4.6.2 6.8-1.5 1.7-1.1 5 .6 5 1.2 0 1.2 3.3 0 4.6-1.1 1.2-5.1 13.3-5.1 15.3.1 1.7 5.4 8.1 6.8 8.1.5 0 2.3-1.8 4.1-4l3.2-4-3.1-9.2c-2.6-7.8-2.9-9.6-1.9-11.5.9-1.7.9-2.6 0-3.7-.7-.8-1-2.4-.6-3.6.8-2.4 3.4-2 7.4 1.1 1.3 1.1 2.8 1.9 3.4 1.9.5 0 3.1 2 5.6 4.3 2.6 2.4 5.3 4.6 6 4.8 1 .4 1 1 0 3.2s-1 3 .3 4.4c1.7 2.1 1.7 2.7-.4 7.3-.8 1.9-2.3 5.9-3.2 8.8l-1.8 5.2 3.2 4c1.7 2.2 3.7 4 4.3 4 .7 0 2.7-1.8 4.5-4.1l3.4-4-3.3-9.5c-2.9-8.4-3.1-9.7-1.9-12 1.1-2 1.2-2.9.2-4.4-1.7-2.7-1.5-3 1.1-3 5.4 0 7.2-6.6 4.1-15.5-1.2-3.7-1.3-5-.3-6.1.6-.8.9-1.7.6-2.1-.4-.3-.1-1.5.5-2.6 1.1-2.1 3-9.1 5-18.2 1.4-6.3 2.9-8.7 4.8-7.5 1.2.7 1.1 1.2-.4 2.9-1.7 1.9-1.7 2 1.3 3.6 1.8.9 2.9 2 2.6 2.5s-.2 1.8.4 2.8c1.3 2.4-.4 16.2-3 24.8-2.3 7.5-2.3 7.7 2.8 21.7 2.2 5.9 2.3 7.2 1.3 9.8-1 2.4-1 3.5 0 5.3 1 1.9.9 2.9-.4 5.3-2.1 4.1-6.6 16.2-6.6 17.8 0 .7 2.1 4.1 4.7 7.5l4.7 6.3 2.3-2.9c1.3-1.6 3.5-4.6 5-6.7l2.6-3.8-2.3-6.7c-1.3-3.7-3.2-8.5-4.2-10.6-1.5-3-1.7-4.4-1-6.1.6-1.3.7-2.8.1-3.6-1.3-2.1-1.1-6.7.6-9.8.8-1.6 2.4-5.7 3.6-9.2s2.7-6.7 3.3-7.2c.8-.5.8-.9 0-1.5-3.8-2.5-8.1-21.5-6.9-30.2.5-3.5 1.2-5.1 2.5-5.5 2.3-.7 3.7-4.5 2-5.5-.6-.4-1-1.8-.8-3.1.4-2.3.5-2.3 1.3-.4.4 1.1 1.3 2.7 2 3.5s1.8 4.4 2.5 8c.6 3.6 2.4 10.2 4 14.7l2.7 8.3-1.8 5.6c-1.1 3.2-1.9 6.7-1.9 7.9 0 2.7 3.4 5.9 6.3 6 2.9.2 3 .4 2.2 4.8-.5 2.4-.3 4.2.5 5.2q1.2 1.5.3 2.7c-.6.7-2.2 4.9-3.6 9.2l-2.7 7.9 3.6 4.4 3.6 4.4 3-2.8c4.9-4.7 5.2-5.7 2.7-13.1-1.1-3.7-2.8-7.8-3.6-9-1.3-2.1-1.3-2.6.3-4.3 1.4-1.6 1.5-2.3.6-4.5-1.6-3.3-1.5-4.4.2-4.4 3.7 0 7.3-8.1 5.6-12.6-1.4-3.6-3.3-3-2.7.8.5 3.5-1.8 9.8-3.5 9.8-.6 0-.8-1.2-.4-3 .3-1.7.1-3-.4-3-.6 0-1 .5-1 1.2 0 3.2-2-1.6-4-9.7-1.2-5-3.4-13.3-5-18.5-1.9-6.6-2.7-11.6-2.7-16.5 0-3.9.2-6.1.4-5s.8 2.9 1.3 4 1.8 4.9 3 8.5 3.5 9.1 5.1 12.3c2 4 2.7 6.2 2.1 7-.6.7-1.2 3-1.4 5.2-.2 3 .1 4 1.2 4 1.2 0 1.4-1.1 1.3-4.8-.2-2.6.1-4.7.5-4.7.5 0 1.8 1.3 3 3 1.3 1.6 4.5 4.3 7.3 5.9l5 2.8-3.1 1.3c-3.1 1.3-6.1 5-4 5 1.7 0 8.5-3.7 9.9-5.4.8-.9 1.9-1.6 2.6-1.6 1.8 0 2.6 3.8.9 4.4-1.8.7-1.8 3.1 0 4.8 1.2 1.2.9 2.9-2 11.2-1.9 5.4-3.2 10.2-2.9 10.6.3.5 1.9 2.4 3.7 4.4l3.2 3.6 3.3-3.2c4.1-4 4.2-6 .4-16.9-2.4-7-2.7-8.5-1.5-9.2 1.6-.9 1.9-4.3.4-5.2s-1.2-5.1.4-6.4c1.1-1 2.4-.7 5.7 1 2.5 1.2 7 2.4 10.6 2.7 5.8.4 6.3.7 6.3 2.8 0 1.3-.4 2.4-1 2.4-1.5 0-1.2 3.1.5 5 1.3 1.4 1.1 2.4-1.5 9-1.6 4.1-2.9 8.5-3 9.7 0 2.5 4.5 8.3 6.5 8.3.7 0 2.7-1.6 4.4-3.5 2.5-2.8 3-4.2 2.5-6.3-.8-3.4-4.4-12.3-5.7-14q-1.05-1.2.9-3.3c1.5-1.7 1.6-2.4.6-3.9-2.4-3.8-1.5-5.4 4.1-7.4 7.2-2.5 13.9-6.9 19-12.6l4.4-4.9-.3 4.2c-.1 2.3-1.2 6.7-2.3 9.7-2.7 7.3-2.6 8.9.9 13l3 3.5 3.6-3.8c4-4.3 4-6-.2-15.6-1.6-3.6-2.1-5.8-1.4-6.5 1.3-1.6.1-5.6-1.6-5.6-1.3 0-1.3-.4-.1-2.8.8-1.5 2-5.1 2.7-8 .8-3.6 1.9-5.6 3.4-6.3 2.9-1.5 9.6-8.8 9.6-10.5 0-1-1.5-1.4-5.5-1.4H286l-.2-11.3c0-6.1 0-11.9.1-12.7.6-5.3.2-8.2-2-13.7-1.3-3.5-2.9-6.3-3.5-6.3-1.3 0-6.4 12.2-6.4 15.6 0 1.4.5 3.4 1 4.4.7 1.3.7 2.1 0 2.5-.6.3-1 5.2-1 11.1V198h-5c-2.9 0-5 .5-5 1.1 0 1.9 8.5 10.9 10.3 10.9 1.6 0 1.8.5 1.2 3.2-1.2 5.4-4.1 11.1-7.2 14.1-2.9 2.7-3 2.7-6.6 1.2-4.2-1.7-5.7-1.9-5.7-.6 0 .5 1.8 1.2 4 1.6s4 1.1 4 1.5c0 .5-2.1 2.2-4.7 3.7-4.2 2.5-5.8 2.8-13.3 2.8-4.9 0-9.4-.5-10.7-1.2l-2.1-1.3 1.8-4.7c1-2.7 2.2-5.7 2.5-6.8.6-1.8.8-1.7 2 1 .7 1.6 1.9 3.8 2.7 4.8 1.3 1.7 1.5 1.6 4.2-1.2l2.9-3-2.1-5.8c-1.1-3.2-2.3-7.5-2.6-9.6-.7-3.5-1.9-4.7-3-2.8-.3.4-.2 2.1.2 3.7.6 2.1.3 3.9-1 6.4l-1.8 3.5.6-7c.6-6.3.9-7.2 3.8-9.4 5.2-4.1 10.7-10.2 10.3-11.4-.3-.8-2.4-1.1-6-.9l-5.7.4v-13.6c0-8.7-.4-13.6-1-13.6-.7 0-.7-.7.1-2.2.6-1.1 1.1-3.7 1.1-5.7-.1-3.7-5.3-17.3-6.9-17.8-.5-.2-2.4 3.1-4.2 7.4-2.7 6.3-3.2 8.5-2.7 12.2.3 2.5.5 6.2.3 8.1-.1 1.9-.2 8.1-.2 13.7 0 10.3 0 10.3-2.5 10.5-6.8.4-8.1.5-8.6 1.1-.7.7 2.6 5.7 3.8 5.7.5 0 2.4 1.5 4.1 3.3 1.8 1.9 3.8 3.6 4.6 3.8 1 .4 1.1 1.5.5 4.7l-.9 4.3-4.6-4.3c-9-8.3-17.4-23.3-21.5-38-1.4-5.1-2.9-10.1-3.5-11-.5-1-.9-3.1-.9-4.7 0-1.7-.3-3.2-.7-3.4-1.2-.8-1.5-15.4-.4-17.5.6-1.2.5-2.5-.5-4.2-.7-1.4-1.3-4.7-1.4-7.3 0-8.5-5.4-15.7-11.6-15.7-2.4 0-2.6-.3-2.1-2.9.5-2.1.1-3.4-1.4-4.7-3.5-3.1-4.2-5.3-2.9-8.4.7-1.6 1.8-3.1 2.6-3.4s1.4-1.4 1.4-2.4c0-1.1 1.6-3.2 3.5-4.6 4-3.1 5.6-7.7 4.2-11.9-1.2-3.6-4.1-5.1-8.7-4.3-3 .5-4.1.2-6-1.9-1.6-1.7-2.1-3.1-1.6-4.8.5-2.1-1.7-8.7-2.9-8.7-.3 0-1.1 1.3-2 3m2.1 6.7c-1.1 1.1-1.9-.6-1.1-2.4.8-1.7.8-1.7 1.2 0 .3 1 .2 2.1-.1 2.4m.6 9.5-.8 3.3-.7-2.8c-.4-1.5-1.2-2.7-1.9-2.7-.6 0-.3-.9.7-2 1.6-1.8 2-1.9 2.7-.6.5.9.5 3 0 4.8m5.8 2c0 3.3-1.6 6.8-3 6.8-.6 0-1-1.8-1-4 0-2.9.4-4 1.5-4 1.3 0 1.4-.4.4-2.3-1.1-2-1.1-2.1.4-.8 1 .7 1.7 2.7 1.7 4.3m-18.2-3.4c.7.5 1 1.6.7 2.4-.4.9.3 3.4 1.4 5.7l2.1 4-3.6-2.1c-3.3-1.9-3.5-2.4-2.9-5.4.6-3.5-1-4.9-2.1-1.9-2 5.1 3.5 11.2 10.1 11.3 4.4.1 4.4.1 5-3.6 1-5.8 1.3-6.1 1.4-1l.1 4.8h4.6c2.5 0 4.3.3 4.1.7-.3.5-4.8.7-10.1.5-9.3-.3-9.7-.4-13.1-3.6-2.7-2.6-3.5-4.1-3.5-6.9 0-4.4 2.8-6.7 5.8-4.9m27.6.8c.9.8 1.6 2 1.6 2.5s-.9 0-2-1.1c-1.2-1.2-2.6-1.7-3.6-1.3-1.5.6-1.4.7.4 1.4 2.8 1.1 3 5.4.3 6.9-2.9 1.5-3.1 1.4-3.1-3.3 0-6.2 3-8.6 6.4-5.1m-19.4 6c0 5-1.8 5.7-3.4 1.2-1.1-3.1-.2-5.8 1.9-5.8 1.1 0 1.5 1.1 1.5 4.6m18 4.9c-1.3 1.4-2.7 2.5-3.1 2.5s.4-1.3 1.9-2.8 2.9-2.6 3.1-2.5c.3.2-.6 1.4-1.9 2.8m-6.5-.6c-.3.6-1.1 1.1-1.7 1.1s-.6-.6.2-1.5c1.4-1.7 2.6-1.3 1.5.4m-2.7 7.1c1.3 0 2 .4 1.7 1-.7 1.2-6.8 1.3-11.6.3l-3.4-.7 3.5-.7c1.9-.4 4.4-.5 5.5-.3s3 .4 4.3.4m-7.5 3.7c-.7.2-1.9.2-2.5 0-.7-.3-.2-.5 1.2-.5s1.9.2 1.3.5m6.7.3c0 .5-1 1-2.2 1-1.9 0-2-.2-.8-1 1.9-1.3 3-1.3 3 0m-6.4 7.2c-.4 2.4-1.3 4.8-2.1 5.4-2 1.5-1.9 3.2.3 3.7.9.3-.2.5-2.5.6-4.6.1-6.2-2.2-2.2-3.2 1.2-.3 1.8-1 1.5-1.5-.3-.6.1-1.2.9-1.6.9-.3 1.5-1.8 1.5-3.4 0-3 .7-4.2 2.3-4.2.6 0 .7 1.7.3 4.2m6.4-1.5c0 1.7.9 3.5 2.5 4.8 1.8 1.5 2.3 2.6 1.9 4.2-.8 2.8-2.4 3-2.4.4 0-1.1-.8-2.2-1.9-2.6-2.8-.9-4.3-9.5-1.6-9.5 1 0 1.5 1 1.5 2.7m-4 9.5c-.1 2.8-.2 3-1.1 1.5-.6-1-.8-2.5-.5-3.3.9-2.4 1.6-1.6 1.6 1.8m4 .8c0 .5-.7 1-1.6 1-.8 0-1.2-.5-.9-1 .3-.6 1-1 1.6-1 .5 0 .9.4.9 1m-8.5 22.7c-.2 10.5-.8 19.9-1.4 21.3-1 2.3-1.1 2.3-.5-.7 1.1-6.5.7-32.1-.6-35.4-1.1-2.6-1.1-3.2 0-3.9.8-.5 1.7-.7 2.1-.4.4.2.5 8.8.4 19.1m4.5-11.2c0 5-.4 8.5-1 8.5-1.1 0-1.4-15.2-.3-16.3 1.2-1.3 1.3-.7 1.3 7.8m11.4-5.2c.3 1.2.6 5.4.6 9.4 0 4.7.4 7.3 1.3 7.7.8.3.7.8-.5 1.6-2.3 1.4-2.3 4.7.1 5.9 2.1 1.2 5.4 7.6 4.8 9.4-.3.7-.8 0-1.2-1.6-.8-3.1-2.5-3.6-2.5-.7 0 1.1.9 2.8 2 3.7 1.2 1.1 1.6 1.9.9 2.4-.8.4-.6 2.7.5 7.5 3.4 15.5 4.9 20.9 5.9 21.5.5.4 1.5 4.7 2.1 9.6.6 5 1.7 9.7 2.3 10.5 1.8 2.1 8.4 16.8 7.6 16.8-.4 0-1.9-1.2-3.5-2.7-1.5-1.4-3-2.4-3.3-2.1-1 1 .8 3.9 3.3 5.2 2.9 1.5 17.2 18.7 16.5 19.8-.2.5-1.8.8-3.4.8-4.7 0-11.3-6.8-15.9-16.4-5.4-11.3-5.8-13.5-3-15.6 2.6-2 2.2-5-.7-5-3.5 0-9.3-9.6-11.8-19.5-3.1-12.2-5.2-26.4-6.1-40.3-.6-10-.5-11.2 1-11.2.9 0 1.6-.5 1.6-1 0-.6-.7-1-1.6-1-1.3 0-1.5-.7-1-3.1.3-1.7.6-5.8.6-9 0-4.6.3-5.7 1.4-5.3.8.3 1.7 1.5 2 2.7m-24.8.9c-.9 1.2-1.6 4-1.6 6.1 0 2.4-.7 4.6-2 5.9-2.4 2.6-2.5 3.8-.5 3.8 1.6 0 2.1 2.5.6 3.4-.5.3-.7 1.5-.4 2.6.5 1.9-2 14.4-3.7 18.5-.4 1.1-1.5 3.8-2.4 6-1.5 3.9-1.5 3.9-1.5 1-.1-8.2 1.8-22.8 3.1-23.6.8-.5 1.3-3.2 1.4-7.6.1-7.7.9-11 3.2-13.6 1.4-1.6 1.4-1.9.2-2.7s-1.2-1 0-1.4c5.5-1.7 5.8-1.6 3.6 1.6m17.5 16.3c-.8 5.5-.9 5.1-1-6.1 0-6.6.2-12.4.7-12.8 1.1-1.2 1.4 12.1.3 18.9m14.2-16.7c3.6 3.9 6.2 14.2 3.7 14.2-.5 0-1.3.1-1.7.2-.5.2-.8-2.4-.9-5.6-.1-5.1-.4-6.2-2.8-8.3-1.6-1.3-2.1-2.3-1.3-2.3s2.1.8 3 1.8m-38.8 3.2c-.8 1.6-1.5 4-1.5 5.5 0 1.4-.5 2.5-1.1 2.5-1.4 0-.2-5.6 1.8-8.7 2.2-3.3 2.6-2.8.8.7m12.5 6.7c0 3.6-.3 4.3-2 4.3-1.8 0-2-.7-2-5.4 0-3 .3-6.2.7-7.2.6-1.6.9-1.4 1.9 1.1.7 1.7 1.3 4.9 1.4 7.2m25.1-.7c.2 2.5-.1 4.5-.7 4.7-1.2.4-2.4-4.9-2.4-10.2 0-2.8.1-2.9 1.4-.9.8 1.1 1.6 4 1.7 6.4m3.1 10.5c.5 2.2 1.2 4.2 1.7 4.5s1.2 3.9 1.5 8c.4 4.1.9 9.7 1.2 12.5.8 6.4-.4 5.2-2.2-2.2-1.8-7.2-5.4-25.1-5.4-26.5 0-2.6 2.5.3 3.2 3.7m-43.2-1.3c0 1.3-.4 3-.9 3.7-.8 1.2-1.1.9-1.6-1.1-.7-2.8-.1-4.8 1.6-4.8.5 0 .9 1 .9 2.2m14.6 9c-.8 15.3-3.5 31.8-6.3 38.8-.3.8-.7 1.9-.8 2.5-.9 6.7-2.1 8.8-8.2 14.7-3.5 3.5-8.3 9.1-10.5 12.6-4.4 6.7-5.8 7.5-3.5 2.1.8-1.9 1.9-5.2 2.4-7.4 4.4-18.1 13.6-45.6 14.8-44.3.2.2-1.6 6.1-4 13.3-8 24.1-10.6 32.8-10 33.4 1.1 1 2.5-2.3 8.4-20.9 7.3-22.4 8.3-26.4 7.9-30-.1-1.5.3-3.4.9-4.1.6-.8 1.4-3.7 1.8-6.4.4-2.8 1.2-5.5 1.7-6.2.5-.6.9-2 .8-3-.6-5 0-6.3 2.6-6.3h2.6zm9-9.7c.8 2-.4 6.5-1.6 6.5-.6 0-1-1.8-1-4 0-4 1.5-5.4 2.6-2.5m24.4 2.8c0 2-2.5-.1-2.8-2.4-.2-2.3-.2-2.3 1.3-.5.8 1.1 1.5 2.4 1.5 2.9m-20.3 11.9c-.2 1.8-.4.4-.4-3.2s.2-5 .4-3.3c.2 1.8.2 4.8 0 6.5m-3.9-1.4c.2 2.3-.1 3.2-1 3-1.3-.3-2.8-4.6-2-6.1.9-1.8 2.7.1 3 3.1m-64.9 6.8c1.8 4.6 2 6.2 1.1 9.5-.6 2.1-1.5 3.9-2.1 3.9-.5 0-.7-1.1-.3-2.4.3-1.3.1-2.7-.5-3-.7-.4-1.1.1-1.1 1.3s-.5 2.1-1.1 2.1c-.5 0-.7.5-.3 1.1.4.7.1 1-.7.7-2.8-.9-3.2-6.9-.9-13.1 1.2-3.1 2.5-5.7 3-5.7s1.8 2.5 2.9 5.6m132.1 3.1c1 3.4 1 4.8 0 7.2-1.6 3.9-3 4-3 .1 0-1.7-.4-3-1-3-.5 0-1 1.3-1 3 0 4.1-1.7 3.8-2.9-.5-1-3.8-.4-7.1 2.4-12.5l1.7-3.4 1.3 2.5c.7 1.3 1.8 4.3 2.5 6.6m-70.1 5.8c-.4.5-1 7.1-1.4 14.5-1 19.2-1.1 20.4-2.3 20.8-1.4.4-5.4-1.7-4.8-2.6.4-.6 3.4-17.3 6.8-37.2l1.3-7.5.5 5.5c.3 3 .2 5.9-.1 6.5m5.4-2.8c.4 4.3 1.8 14 3.2 21.6l2.6 13.8-2.3 1.9c-2.3 1.8-2.3 1.8-3-.8-.6-2.5-2.8-35.8-2.8-42.5 0-5.9 1.7-1.4 2.3 6m2.4-2.5c-.2 1.3-.4.5-.4-1.7-.1-2.2.1-3.2.4-2.3.2 1 .2 2.8 0 4m17 10.1c5.8 18.9 7.1 23 8.7 27.2.8 2.2 1.5 5.1 1.6 6.5 0 1.4 1.6 6.3 3.5 11 3.7 9.2 4 9.9 2.6 8.4-2-2.2-10-23.5-11.4-30.4-.8-4.1-2.9-12-4.6-17.5-3.5-11.3-5.2-17.9-4.3-17.1.3.4 2.1 5.7 3.9 11.9m-14 10.1c-.5 1.4-2.7-11.2-2.6-14.5 0-1.3.7 1.2 1.5 5.5.8 4.4 1.3 8.4 1.1 9M64 169.5c0 1.6-.5 3.7-1 4.5-.8 1.3-1 1.2-1-.3 0-.9-.7-1.7-1.5-1.7s-1.5.8-1.5 1.7c0 1.5-.2 1.6-1 .3-1.5-2.3-1.2-7.3.6-11.6l1.7-3.9 1.8 4c1 2.2 1.9 5.3 1.9 7m218.5-5.5c1 3 1.4 6.2 1 8-.7 3.1-2.5 4.2-2.5 1.5 0-.8-.4-1.5-1-1.5-.5 0-1 .7-1 1.6s-.5 1.2-1.1.8c-1.8-1.1.5-15.4 2.5-15.4.2 0 1.2 2.2 2.1 5M143 167.1c-.6 2.4-1.6 6.3-2.1 8.6-.6 2.4-1.5 4.3-2.1 4.3s-.7-.8-.3-1.8c.9-2.1 3.1-9.7 3.9-13.6.4-1.5.9-2.6 1.2-2.3.3.2 0 2.4-.6 4.8m57.4 3.3c2.7 8.8 3.2 11.7 1.7 10-1-1.1-5.1-14.5-5.1-16.8 0-3.1.8-1.5 3.4 6.8m-37.7-3.2c-.3.7-.5.2-.5-1.2s.2-1.9.5-1.3c.2.7.2 1.9 0 2.5M108 179v12h-8v-24h8zm131 0v12h-8v-24h8zm-78.5.2c-.8 4.5-1.8 9.3-2.1 10.5-.2 1.3-1.1 2.3-1.9 2.3-1.2 0-1.2-.5-.1-3.3.8-1.7 2.2-6.7 3.2-10.9 2.3-10.2 3-9.2.9 1.4m22 4.8c.9 3.8 1.5 7.5 1.3 8.2-.4 1.1-3.8-11.8-3.8-14.3s1-.2 2.5 6.1M64 188v10h-7v-20h7zm220 0v10h-7v-20h7zm-148.5 7.2c-4.1 14.2-7 21.5-9.5 24.3-1 1.1-2.5 3.4-3.4 5.2-.8 1.7-2.9 4.1-4.5 5.3l-3 2.1-1.9-3.8c-2.9-5.8-3.5-9-1.7-9.7.8-.3 1.5-1.3 1.5-2.1 0-.9.5-1.3 1-1 .6.3 1 1.5 1 2.6 0 1.2.7 1.9 2 1.9 2 0 2-.1.4-2.6-1.7-2.4-1.6-2.6 1.8-6.2 1.9-2 4.4-5.1 5.5-6.7 2.6-3.8 11.7-19.7 12.8-22.1.4-1.2.9-1.4 1.2-.7.2.6-1.2 6.7-3.2 13.5m35.5-9.7c0 2.5-.4 4.5-1 4.5-1.1 0-1.4-4.9-.4-7.4 1-2.6 1.4-1.8 1.4 2.9m36.4 3.7c2.1 4 4.9 8.7 6.2 10.5 2.7 3.5 3 4.9 1.2 5.5-.6.2-.8 1-.4 1.6 1 1.7 2.6 1.5 2.6-.3 0-1.7 1.6-2 2.5-.6.3.5 0 1.3-.5 1.6-.7.4.4 2 2.7 4l3.8 3.3-2.4 2.6c-2.4 2.6-2.4 2.6-.3 2.6 1.1 0 2.6-.8 3.1-1.8.7-1.1 1-1.2 1.1-.3 0 .8.6 1.1 1.6.7 1.3-.5 1.5-.1.9 2.1-1.1 4.6-4.3 11.3-5.4 11.3-1.3 0-7.1-7.4-7.1-9.1 0-.7-.8-2.2-1.8-3.3-2.4-2.8-5.4-10.7-9.2-23.9-1.7-6-3.4-11.5-3.7-12.3s-.1-1.4.4-1.4c.4 0 2.6 3.3 4.7 7.2m-34.7 8c1.2 1.3 1.4 3 1 6.8-.4 2.9-.2 5 .3 5 .6 0 1 .4 1 1 0 .5-2.3 1-5.1 1-4.5 0-4.9-.2-3.5-1.5 1.2-1.2 1.3-2.2.6-4.1-1.6-4-1.2-7.3 1-8.6 1.1-.7 2.1-2.2 2.1-3.3.1-2 .1-2 .6 0 .3 1.1 1.2 2.8 2 3.7m-58.7 1c-4 4-4.6 4.3-9.9 4.3s-5.9-.3-9.9-4.3L90 194h28.2zm46.8-1.7c1 .9.7 1.1-1.7.7-3.5-.5-4.2.7-9.7 15.1-4.9 12.9-7.9 18.5-12.7 23.5-7 7.2-12 8.8-19.1 5.8-5.9-2.5-11.7-12.2-14.2-24.1-2-8.9-1.8-12.5.5-12.5 1.6 0 1.9 1.1 2.5 7.6 1.2 12.7 5.9 22.4 12.7 25.9 3.8 2 6.2 1.9 10.8-.5 7.4-3.7 13.9-14.2 20.6-33.2 3.6-10.5 3.8-10.8 6.4-10.2 1.4.4 3.2 1.2 3.9 1.9m31.1 8.7c1.9 11.1 9.2 25.4 16.2 31.2 7.8 6.6 16.8 3 21.8-8.7 1.2-2.7 2.1-5.7 2.1-6.8 0-2 1.5-2.6 2.5-.9.9 1.5-2.1 11.1-4.8 15-2.5 3.9-9 8-12.5 8-6.4 0-16.4-9.1-20.9-19-3.1-6.9-7.8-21.2-8.7-26.5l-.7-4 2.1 3.2c1.1 1.7 2.5 5.5 2.9 8.5m58.1-10.7c0 .2-2.4 2.3-5.2 4.6-5 3.9-5.5 4.1-10.2 3.5-3.8-.4-5.6-1.3-7.7-3.6-1.5-1.6-3.3-3-3.8-3-.6 0-1.1-.5-1.1-1 0-.6 5.3-1 14-1 7.7 0 14 .2 14 .5m-65.2 2.8c.3 1.5 0 1.6-2.2.6-2-.9-2.9-.9-4.1.1-.9.8-1.5.9-1.5.2 0-3.1 7.2-4 7.8-.9m-35.3 1.9c-.4 1.3-1.3 3.6-2.1 5.2s-1.4 3.7-1.4 4.6c0 3.6-8.4 18.5-13.1 23.2-3.9 3.9-5.5 4.8-8.4 4.8-1.9 0-3.5-.3-3.5-.6s2-2.9 4.4-5.7c4-4.8 10.9-15.3 14.3-22 .8-1.5 2.3-2.7 3.4-2.7s1.9-.7 1.9-1.6c0-1.6 3.7-7.4 4.6-7.4.3 0 .2 1-.1 2.2m8.8 7.2c-.7 1.2-1.1 1.2-2.6.2-1.6-1.2-1.6-1.5.5-4.2l2.3-2.9.3 2.7c.2 1.5 0 3.4-.5 4.2m-88.5-1.9c-3.4 3.1-4.4 3.5-9.3 3.5-5 0-5.9-.3-9.1-3.5l-3.5-3.5h12.8l12.8.1zm93.4-.3c-1.5 1.5-2.6.4-1.8-1.8.5-1.3.9-1.5 1.8-.6s.9 1.5 0 2.4m19.8-.6c0 2.2-.2 2.5-1.5 1.4-.8-.7-1.5-1.9-1.5-2.6 0-.8.7-1.4 1.5-1.4 1 0 1.5 1 1.5 2.6m106.6.9c-3.4 3-4.6 3.5-9 3.5-4.4-.1-5.7-.6-9-3.5l-3.9-3.5h12.9l12.9.1zm-93.6-2.1c0 .3-.4.8-1 1.1-.5.3-1 .1-1-.4 0-.6.5-1.1 1-1.1.6 0 1 .2 1 .4m41 9.1c0 5.8-.2 6.5-2 6.5s-2-.7-2-6.5.2-6.5 2-6.5 2 .7 2 6.5m-81.4-1.1c.6 1.4-1.8 12-5 22.1-.9 2.7-2.3 7.7-3.3 11-.9 3.3-1.9 5.2-2.1 4.2-.8-3.8-2.2-1.4-2.2 4v5.6l-2.1-1.9c-3.1-2.8-4.8-6.6-3.9-8.9.4-1.1.5-2.4.3-2.8-.6-1.1-3.3 1.2-3.3 2.9 0 2.3-2 2.6-4.5.6l-2.4-1.9 3.8-1.8c6.6-2.9 13.4-11 17.4-20.5 1.9-4.7 3.9-9.7 4.2-11.3.8-2.9 2.2-3.6 3.1-1.3m-92.2 4.7c2.8 17.3 23.1 29.9 39.7 24.5 5.7-1.9 8.9-1.5 7 .8-1.7 2.1-9.7 3.9-16.5 3.8-13.8-.2-25.6-8.4-32.1-22.4-3.1-6.5-3.3-10.8-.6-10.8 1.4 0 2 1 2.5 4.1m218.6-2.2c0 6.3-7.1 19.1-10.6 19.1-2 0-1.8-.7 1.6-6 1.7-2.6 3.6-7 4.3-9.9.9-3.7 1.6-5.1 2.9-5.1 1.1 0 1.8.8 1.8 1.9m-111 3.7c0 1.4-.4 2.3-1 1.9-.5-.3-1-1.5-1-2.6 0-1 .5-1.9 1-1.9.6 0 1 1.2 1 2.6m75 7.1c0 2.9-1.8 3.9-3.7 2.1-1.2-1.3-1.3-2.2-.2-5.8l1.3-4.3 1.3 2.9c.6 1.6 1.2 3.9 1.3 5.1m-149.3.7c-.4.9-1.1 1.6-1.6 1.6-1.6 0-2-2.8-.8-6l1.2-3.2.9 3c.5 1.7.6 3.8.3 4.6m34.7-6.2c-3.1 5.4-12.2 15.8-13.8 15.8-.6 0-.1-.7 1.1-1.5s4.4-4.7 7.2-8.5c2.8-3.9 5.4-7 5.7-7s.2.6-.2 1.2m85.3 10.4c-.5.5-5.7-8-5.7-9.3 0-.4 1.4 1.4 3.1 4.1 1.7 2.6 2.8 5 2.6 5.2m4.3 2.9c2 2.4.6 2.8-1.5.5-1-1.1-1.3-2-.8-2 .6 0 1.6.7 2.3 1.5m47.9 4.1c-1.8 2.2-6.1 4.3-8.4 4.1-1.1-.1-1.9.3-1.8 1 .7 3.3-15.4 4.6-23.7 1.8-5.1-1.7-5.5-2.1-4.2-4.3.7-1 1.6-.9 4.3.5 2.2 1.1 5.6 1.7 9.9 1.7 9.2-.1 12-.7 17.1-3.7 5.1-3.1 9-3.7 6.8-1.1m-93.1 12.1c.9 1.6.7 3.4-1.3 8.9l-2.4 6.9.1-14c0-13.2.1-13.7 1.3-9 .6 2.8 1.7 6 2.3 7.2m-6.8 2c0 13.1-.7 14.5-2.9 5.7-1-4.3-.9-6.1.5-11.7.9-3.7 1.8-6.7 2-6.7s.4 5.7.4 12.7m-106.8-5.3c1.3 4.9 1.3 5.5-.3 7.5-2.2 2.7-2.5 2.6-4.5-.4-1.5-2.2-1.5-2.8.1-7.5.9-2.7 2-5 2.4-5s1.4 2.4 2.3 5.4m220.6-3c2.4 5.3 2.5 9.1.2 11.1-2.1 1.9-2.2 1.9-4-.5-1.6-2.2-1.7-2.8-.4-6.9.8-2.5 1.4-4.9 1.4-5.4 0-1.6 1.7-.6 2.8 1.7m-90.8 5.7c0 1.1.7 3.6 1.5 5.6 1.9 4.5.6 6.4-2.4 3.4-1.5-1.5-2-3-1.7-5.3.3-1.8.5-4.1.5-5.1.1-2.4 2.1-1.1 2.1 1.4m-40.5 2.5c.7 3.8-1.3 7.4-4.2 7.4-1.7 0-1.7-1.2.4-7 1.9-5.5 2.8-5.6 3.8-.4m-32.5 2.9c0 .8-.4 1.5-1 1.5-.5 0-1-.7-1-1.5s.5-1.5 1-1.5c.6 0 1 .7 1 1.5m105-.5c0 .5-.4 1-1 1-.5 0-1-.5-1-1 0-.6.5-1 1-1 .6 0 1 .4 1 1m-132 2.6c0 .8-.4 1.4-1 1.4-.5 0-1-.9-1-2.1 0-1.1.5-1.7 1-1.4.6.3 1 1.3 1 2.1m158.3.7c-.3.5-1 .4-1.5-.1-.6-.6-.7-1.6-.3-2.2.6-.9.9-.9 1.6.1.4.7.5 1.7.2 2.2m-105.1 8.9c-.9.9-1.2.7-1.2-1.2s.3-2.1 1.2-1.2.9 1.5 0 2.4m-24.9 5 1.8 6.1-2.4 2.4-2.4 2.4-1.8-2.7c-1.7-2.6-1.7-2.9 0-8.5 1-3.3 2.1-5.9 2.4-5.9s1.4 2.8 2.4 6.2m77.2-5.3c.3.5.1 1.2-.5 1.6-.5.3-1-.1-1-.9 0-1.8.6-2.1 1.5-.7m28 6.8c1.4 4.5 1.3 4.8-.8 7.1l-2.2 2.3-2.2-2.5-2.2-2.6 2.1-6.1c2.3-6.8 2.8-6.6 5.3 1.8m-132.1.3c1.6 5.4 1.6 5.5-.7 7.7l-2.3 2.4-2.1-2.3-2.1-2.3 2-6.4c1.1-3.5 2.3-6 2.8-5.5.4.5 1.5 3.4 2.4 6.4m158.5-.8c1.9 5.6 2 6.4.6 8.5-.9 1.3-1.8 2.3-2.2 2.3-1.3 0-4.3-3.4-4.3-4.8 0-1.5 3.2-12.2 3.6-12.2.1 0 1.2 2.8 2.3 6.2m-104.4 12.5c1.4 4.7 1 6.8-1.8 9.1-1.1.9-1.8.5-3.5-1.8l-2.2-2.9 2.2-6c2.4-6.7 2.9-6.6 5.3 1.6m23.1-4c-1 1-1.9-.5-1-1.8.6-1.1.8-1.1 1.2 0 .2.7.1 1.5-.2 1.8m29 4 1.8 5.3-2.4 2.6-2.5 2.5-2.2-2.5c-2.3-2.7-2.2-3.5.9-11.9 1.3-3.4 2-2.8 4.4 4m-29.8 23-.3 5.8-2.9-3.8c-2.7-3.5-2.8-4-1.7-7.6.6-2.2 1.9-5.6 2.9-7.8l1.7-3.8.3 5.7c.2 3.2.2 8.4 0 11.5m5.2-8.9 2.3 6.2-2.7 4c-1.4 2.2-2.8 4-3 4s-.3-1.1-.3-2.4c0-1.6.7-2.7 2.1-3.1 2.1-.8 2.1-.8-.1-1.2-2.1-.4-2.3-1-2.3-8.1 0-8.6.7-8.5 4 .6m12.3-116.1c.9.2 2.3.2 3 0 .6-.3-.1-.5-1.8-.5-1.6 0-2.2.2-1.2.5m-38.5 0c.6.2 1.8.2 2.5 0 .6-.3.1-.5-1.3-.5s-1.9.2-1.2.5M104.2 152c0 1.4.2 1.9.5 1.2.2-.6.2-1.8 0-2.5-.3-.6-.5-.1-.5 1.3m37.8 86.8c0 3.7.9 6.2 2.2 6.2 1.4 0 .5-8.3-.9-8.8-.9-.2-1.3.7-1.3 2.6m88.5-183.1c2 1.9 8.8 5.7 8.1 4.5-.4-.7-2.6-2.2-4.9-3.3-2.3-1.2-3.7-1.7-3.2-1.2M107 58.1l-2.5 2 3.3-1.6c1.7-.8 3.2-1.8 3.2-2 0-1-1.6-.4-4 1.6m174.8 1.5c-.5.4-.8 9.1-.8 19.3v18.6l-2.1-2.5c-1.8-2.2-1.9-2.2-1-.3.6 1.2 1.6 2.5 2.1 2.8.6.4 1 6.6 1 15.1V127l-14.7.2c-8.2.1-16.9.3-19.5.3-2.5 0-5 .3-5.4.7-.4.5 8.3.8 19.4.8H281v8.9c0 5.3.4 9.3 1.1 9.6.7.5 1-2.3.9-8.7-.4-26.6 0-36.9 1.3-36.2.9.6.9.5 0-.7-.9-1.1-1.3-7.7-1.5-22.3-.2-11.4-.6-20.4-1-20M90.9 68.1C82.2 74.6 70.9 85.4 65 93c-1.9 2.4 2.4-1.4 9.5-8.6 7.2-7.2 15.8-15 19.3-17.4 5.7-3.9 6.9-5 5.8-5-.2 0-4.1 2.8-8.7 6.1m153.5-3.9c7.5 5.9 11.8 8.9 12.3 8.5.2-.3-2.4-2.5-5.9-4.9-7-5-10.9-7.1-6.4-3.6m16.2 12.6c.5.5 3.6 3.3 6.9 6.2l6 5.4-6-6.2c-3.3-3.4-6.4-6.2-6.9-6.2-.6 0-.6.3 0 .8m-26.3 24.7c0 4.4.2 6.1.4 3.7.2-2.3.2-5.9 0-8-.2-2-.4-.1-.4 4.3M103 112c0 2.2.5 4 1 4 .6 0 1-1.8 1-4s-.4-4-1-4c-.5 0-1 1.8-1 4m186.5 0c.9 1.6 1.8 3 2.1 3 .2 0-.2-1.4-1.1-3-.9-1.7-1.8-3-2.1-3-.2 0 .2 1.3 1.1 3m-55.5 7.7c0 5.6-.4 8.3-1.2 8.6q-1.5.6 0 .6c.7.1 1.2 1.5 1.2 3.6 0 1.9.4 3.5.9 3.5.9 0 .3-22.9-.5-23.9-.2-.2-.4 3.2-.4 7.6m58.1-3.2c0 .5 1.3 3.5 2.9 6.5s2.9 5 2.9 4.5c0-.6-1.3-3.5-2.9-6.5s-2.9-5.1-2.9-4.5m-244 2.6c-.7 1.2-1 2.3-.8 2.6.3.3 1.1-.5 1.7-1.7 1.5-2.8.8-3.5-.9-.9m56 4.4c-1.1 7.3-1.1 12.5-.2 12.5.6 0 1.1-1.6 1.1-3.5V129h15.2c8.3 0 14.8-.3 14.4-.7s-7.1-.8-14.9-.8c-14.1-.1-14.1-.1-14.8-2.6-.4-1.3-.8-2-.8-1.4m-61 6.7c-1 3-.9 3.1.4 1.4.8-1.1 1.5-2.6 1.5-3.3 0-2.2-.8-1.4-1.9 1.9M59 128c0 .6 7.8 1 21.5 1s21.5-.4 21.5-1-7.8-1-21.5-1-21.5.4-21.5 1m141 0c0 .5 1.8 1 3.9 1 2.2 0 4.3-.5 4.6-1 .4-.6-1.2-1-3.9-1-2.5 0-4.6.4-4.6 1m11 0c0 .5 1.8 1 4 1s4-.5 4-1c0-.6-1.8-1-4-1s-4 .4-4 1m13 0c0 .5 1.2 1 2.8 1 2.1 0 2.4-.2 1.2-1-2-1.3-4-1.3-4 0m75.7 7c.3 1.1.9 2.2 1.3 2.5.5.3.6-.4.3-1.5s-.9-2.2-1.3-2.5c-.5-.3-.6.4-.3 1.5m-259.6 4.1c-.6 1.8-.9 3.4-.7 3.6s.9-1 1.5-2.8.9-3.4.7-3.6-.9 1-1.5 2.8m262.9 5c.1 2.4 3.8 16.5 3.9 14.7.1-.9-.6-4.7-1.5-8.5-1.5-6.6-2.4-9-2.4-6.2m-265.4 3.4c-.3.9-.6 2.4-.5 3.3 0 .9.5.4 1-1.2.9-3.2.6-4.8-.5-2.1m-1.9 8.2c-.4.3-.7 1.6-.6 2.7 0 1.9.1 1.9 1-.3 1-2.4.8-3.6-.4-2.4m271.7 27.9c0 16.7-.4 24.9-1.6 30.2-.8 4-1.1 6.9-.7 6.5 3.1-3.1 5.3-41.5 3.2-54.7-.5-3.2-.8 3-.9 18M33.6 167.5c-.3.8-.1 1.5.4 1.5.6 0 1-.7 1-1.5s-.2-1.5-.4-1.5-.6.7-1 1.5m-.4 7.7L33 180l-5.2.2-5.3.1 5 .6 5 .6.7 13.5c.3 7.4 1.4 17.1 2.3 21.5 1.8 8.6 6.9 25.1 8.5 27.5 1.7 2.7 1.1-.6-1.6-7.6-4.6-12.2-7.4-26.8-8.1-41.6l-.6-13.7 8.4-.4 8.4-.3-8.2-.2-8.2-.2-.4-4.8-.3-4.7zm-19.4 5.5c1.2.2 3 .2 4 0 .9-.3-.1-.5-2.3-.4-2.2 0-3 .2-1.7.4m59 0c1.2.2 3.2.2 4.5 0 1.2-.2.2-.4-2.3-.4s-3.5.2-2.2.4m10 0c1.2.2 3 .2 4 0 .9-.3-.1-.5-2.3-.4-2.2 0-3 .2-1.7.4m208.5 0c.9.2 2.3.2 3 0 .6-.3-.1-.5-1.8-.5-1.6 0-2.2.2-1.2.5m8 0c.9.2 2.3.2 3 0 .6-.3-.1-.5-1.8-.5-1.6 0-2.2.2-1.2.5m16 0c.9.2 2.5.2 3.5 0 .9-.3.1-.5-1.8-.5s-2.7.2-1.7.5m9.5 0c1.2.2 3 .2 4 0 .9-.3-.1-.5-2.3-.4-2.2 0-3 .2-1.7.4M52.2 213.2c-1.7 1.7-1.5 8.3.3 9.8 2.4 2 3.5.3 1.9-3-1.1-2.2-1.2-3.4-.5-4.9 1.3-2.3 0-3.6-1.7-1.9m234.5 2.6c.4 2.7.1 4.2-1.1 5.1-1.7 1.4-2.2 4.1-.8 4.1 1.7 0 5.2-4.7 5.2-6.9 0-2.6-1.7-6.1-2.9-6.1-.5 0-.7 1.7-.4 3.8m16.9 7.7c-.3.9-.6 2.2-.5 2.8 0 .7.5.1 1-1.2s.8-2.6.5-2.8c-.2-.2-.6.3-1 1.2M85.5 227c-.3.5-.1 1 .4 1 .6 0 1.1-.5 1.1-1 0-.6-.2-1-.4-1-.3 0-.8.4-1.1 1m224.7 5.7c-1.6 3.2-3.7 7.9-4.7 10.5-1.3 3.6-2.3 4.8-3.8 4.8-6 0-12.7 9.4-11.4 16 .5 2.5-.3 4.6-5 12.3-3.1 5-9.5 15.9-14.2 24.2-4.8 8.2-12.6 21.8-17.5 30.1l-8.8 15.1-13.7 4.3c-7.5 2.4-24.5 7.8-37.8 12l-24.2 7.7-13.5 8.9c-7.5 4.9-13.4 9.3-13.2 9.9.1.6 6.1 1.1 14.5 1.3l14.2.3 29.5-9.7c16.2-5.3 29.7-9.4 30-9.1s.1 1.4-.5 2.5c-.6 1.2-1.1 3.4-1.1 5s-.9 5.4-1.9 8.5c-1.8 5.2-1.8 6.7 0 6.7.4 0 2.4-2.7 4.4-5.9 2.1-3.3 4.3-6.2 5-6.5.8-.3 3.4-4 5.9-8.4l4.6-7.9 16-5.3c15-4.9 18-6.3 16.7-7.7-.3-.3-6.3 1.4-13.4 3.7-7 2.4-13.5 4.5-14.3 4.8-1.3.4-1.3.3 0-.9.8-.8 7.5-3.4 14.8-5.8 7.2-2.5 13.2-4.9 13.2-5.4 0-1.1.2-1.2-17.9 5.2-14.5 5.1-16.8 6.1-13.8 6.1.9 0 1.7.4 1.7.8 0 1-68.8 23.4-70.3 22.9-.6-.2 10.7-4.3 25.1-9.2 14.4-4.8 25.9-9.1 25.7-9.5-.3-.5-11.2 2.7-24.2 7.1-13.1 4.3-24 7.9-24.4 7.9s-.9-1.8-1.3-3.9c-.4-2.8-1.2-4.2-2.7-4.6-1.1-.4-1.9-.8-1.7-1s15.4-5.2 33.8-11 40-12.7 47.9-15.2c9.9-3.2 14.6-4.3 14.9-3.5.2.7 1.1 1.2 1.9 1.2 1.2 0 1.3-.3.4-1.4-1-1.2-.4-1.7 4-3 2.9-.9 5.6-1.6 6-1.6.3 0-.1 3.9-1.1 8.7-4.6 22.9-6.9 37.2-6.8 41.8.1 2.7-.2 7.1-.6 9.7-1.1 7.1 1.6 6.4 4.4-1.1 1.2-3.3 3-6.7 4.1-7.7 2.7-2.4 4.5-8.2 7.5-24.2 2-11 3-14.2 4.2-14.2 2.8 0 33.2-10.1 33.2-11.1 0-1.2-1.7-1.1-5.9.1-4.3 1.2-4.7.8-2.5-2.5 1.6-2.5 1.6-2.7-.6-5-1.2-1.3-3.2-2.5-4.4-2.7-1.6-.3-1.2-.7 1.9-1.7 4.5-1.5 6.2-2.7 5.2-3.8-.9-.8-11.4 2.4-12.3 3.8s1.5 3.9 3.8 3.9c1.9 0 1.9.1-.3 2l-2.4 1.9 3.2-.9c1.9-.5 3.5-.5 3.8 0 .8 1.3-3.4 3.8-7 4.3-2.3.3-3.1.9-3.4 2.8-.5 3.6-5.1 5.7-5.1 2.4 0-.8-.4-2.3-.9-3.3-.5-.9-1.2-2.5-1.5-3.6-.4-1.1-1.2-1.6-2.1-1.2-1.2.4-1.4 0-1.1-1.7.3-1.2 1.3-5.7 2.2-10 1.6-7.9 3.6-10 4.8-5.2.8 3 2.2 3.2 2.9.4.8-3.1-.2-4.9-2.9-4.9-1.3 0-2.4-.3-2.4-.8 0-.4 1.6-8.8 3.7-18.7 3.1-15.3 4-18.4 6.3-21 5.5-6 6.5-11.6 3.1-17.2l-2-3.1 3.9-10.3c4-10.5 4.1-12.9.4-14.3-3.9-1.5-5.4-.6-8.2 5.1m8.2-1.8c.7 1.1-5.8 18.4-7.1 18.8-.4.1-1.6-.4-2.6-1.1-1.7-1.3-1.6-1.8 1.3-9.2 1.8-4.3 3.4-8.2 3.6-8.6.7-1.1 4.2-1 4.8.1m-8.4 21.8c7.5 4.4 6.5 16.5-1.7 20-7.4 3.1-15.3-2.5-15.3-10.7.1-9 9.2-14 17-9.3m-17.9 29.6c-2.4 4.5-7 12.3-10.3 17.4-3.2 5.1-5.8 9.5-5.8 9.9 0 .3-2.3 4-5.1 8.2-2.7 4.3-6.7 11.3-8.9 15.8-3.5 7.5-4.1 8.1-8 9.3-2.3.7-4.4 1.1-4.5.9-.2-.2 2.1-4.6 5.2-9.8 3-5.2 8.8-15.1 12.8-22 17.5-30.3 21.8-37.6 23.2-39.9l1.5-2.3 2.2 2.1 2.1 2.2zm14.9-5.1c0 2.4-6.1 29.3-7.1 31-.5 1-.9 3-.9 4.5-.1 1.6-2.4 14.9-5.3 29.6-5 25.6-5.3 26.9-7.9 28.5-1.5.9-3.1 1.3-3.5.9s1-9.2 3-19.5c4.6-23.4 14.6-72.1 15.3-74.5.6-2 6.4-2.4 6.4-.5m-12.6 16.9c-1.4 6.8-3 12.8-3.5 13.4-.6.6-1.6.5-2.9-.3-1.1-.6-2.7-1.2-3.5-1.2s-1.5-.2-1.5-.5c0-1.7 13.1-24.7 13.7-24.2.2.2-.8 6-2.3 12.8m-11.2 17.4c-.3 2.9-.3 2.9 1.6 1.1 1.1-1 2.9-1.6 3.9-1.4 1.8.3 1.8.6-.2 10.8l-2 10.4-12 3.8c-6.6 2.1-12.1 3.8-12.1 3.8-.1 0 3.9-7.2 9-16 6.2-10.9 9.6-16 10.6-15.7 1 .2 1.4 1.2 1.2 3.2m16.8 29.9c-.6.6-.3 1.4.7 2.1 1.4 1 1.2 1.3-1.7 2.3l-3.2 1.2.7-4.8c.9-6.2 1.5-7 3.1-4.1.7 1.4.9 2.8.4 3.3m17-2c-2.1 1.9-6 3-6 1.6 0-1.1 3.4-2.8 6-2.9 1.3-.1 1.3.1 0 1.3M241.8 369c-.7 1.1-1.9 1.8-2.5 1.5-1.3-.4-1.7.7-1.4 3.2.3 2.1-1.9 5.3-3.5 5.3-2.3 0-2.7-2.4-1-6.4 1.5-3.5 4.2-5.4 7.9-5.5 1.5-.1 1.5.2.5 1.9m-69.8 4.5c0 .8.7 1.5 1.6 1.5 1 0 1.4-.5 1-1.5-.4-1.3-.2-1.4 1.4-.5 2.5 1.3 2.6 5.8.3 7.5-1.5 1.1-1.5 1.5-.4 2.9 1.1 1.3.9 1.7-1.4 2.6-3.5 1.3-16.8 1.3-16 0 .3-.6 1.5-1 2.5-1s2.2-.5 2.5-1.1c.5-.7-.5-.8-3.2-.4-2.8.5-3.4.4-2.3-.4.8-.6 2.3-1.1 3.3-1.1.9 0 1.7-.5 1.7-1 0-1.3-1.6-1.3-4.1 0-4.3 2.3-1.4-.8 4.4-4.7 6.7-4.5 8.7-5.2 8.7-2.8m114.8 3.9c-1 4.4-3.3 8.6-4.8 8.6-1.7 0-2.2-2.2-1.6-7.3.7-5.1.8-5.2 4-5.3h3.3zm-132.2 8.5c-.4.6-2.2 1.1-3.9 1.1h-3.2l3-2c2.9-1.9 5.4-1.3 4.1.9m144.8-130.7c-2.4 1.1-4.4 4.8-4.4 7.9 0 5.6 5.6 9.4 11.3 7.8 7-1.9 9-9.3 3.9-14.2-3-2.9-6.9-3.4-10.8-1.5m9.1 3.3c3.1 3 3.1 4.5.4 7.9-1.8 2.3-2.6 2.6-5.3 2-4.4-.9-5.6-2.2-5.6-6 0-6 6.2-8.3 10.5-3.9m-29 67.5c-.3.5-.1 1 .4 1 .6 0 1.1-.5 1.1-1 0-.6-.2-1-.4-1-.3 0-.8.4-1.1 1m22.6-97.3c-.1.6-.4 2-.7 3-.5 1.7-.5 1.7.6 0 .6-1 .9-2.3.6-3-.3-.9-.5-.9-.5 0M157.5 251c.3.5 1 1 1.6 1 .5 0 .9-.5.9-1 0-.6-.7-1-1.6-1-.8 0-1.2.4-.9 1M48 253.2c0 .9.7 2.2 1.7 2.9 1.5 1.3 1.5 1.2.3-1.1-1.7-3.4-2-3.6-2-1.8m8 14.8c1.2 1.6 2.4 3 2.6 3 .3 0-.3-1.4-1.3-3-.9-1.7-2.1-3-2.6-3s.1 1.3 1.3 3m222.9 7.7c-1.3 1.6-1.2 1.7.4.4.9-.7 1.7-1.5 1.7-1.7 0-.8-.8-.3-2.1 1.3M62.2 277c.7 1.1 1.6 2 2.1 2 .4 0 .3-.9-.3-2s-1.5-2-2-2c-.6 0-.5.9.2 2m211.7 5.7c-1.3 1.6-1.2 1.7.4.4s2.1-2.1 1.3-2.1c-.2 0-1 .8-1.7 1.7m-211.1-.1c-.5.4-.8 10.3-.8 22 0 21.3 0 21.3-2.2 21.7l-2.3.4 2.3.2c2.2.1 2.2.2 2.2 17v16.9l-2.5 1.6c-3.3 2.2-3.4 6.8-.2 9.3 1.3 1 2.7 2.7 3.2 3.8.8 2 .8 2 1.3.1.2-1.1 1.5-2.8 2.8-3.9 3.2-2.5 3.2-6.9-.1-9.5-2.5-2-2.5-2.1-2.5-18.6V327l17.8-.3 17.7-.2-17.7-.3L64 326l-.2-22.1c-.2-12.1-.6-21.7-1-21.3m1.5 81.2c.3-1 .9-.9 2.3.4 1.4 1.4 1.6 2.3.8 4.5-1.1 3.1-3.4 4.3-3.4 1.6-.1-1.7-.1-1.7-1.1 0-1 1.8-1.2 1.8-3 .1-2.4-2.1-2.4-4.2-.2-6.6 1.6-1.8 1.8-1.8 2.9-.3.9 1.2 1.3 1.3 1.7.3m204.1-74.6-1.9 2.3 2.3-1.9c2.1-1.8 2.7-2.6 1.9-2.6-.2 0-1.2 1-2.3 2.2M79 296.5c3 3 5.9 5.5 6.4 5.5.6 0-1.4-2.5-4.4-5.5s-5.9-5.5-6.4-5.5c-.6 0 1.4 2.5 4.4 5.5m184.5-2.1c-1.6 1.3-2.7 2.7-2.4 3s1.8-.8 3.4-2.4c3.5-3.6 3.1-3.8-1-.6m-8.6 8.3-3.4 3.8 3.8-3.4c2-1.9 3.7-3.6 3.7-3.8 0-.8-.8 0-4.1 3.4M90 306.3c0 .8 15.1 10.9 15.6 10.5.2-.3-2.8-2.7-6.8-5.4-7.8-5.2-8.8-5.8-8.8-5.1m156.5 2.8c-5.2 4-5.7 4.6-1.7 2.3 2.9-1.6 7.3-5.5 6.1-5.3-.2 0-2.2 1.4-4.4 3m-10 6.9c-1.6 1.1-2.5 2-2 2 1 0 6.4-3.9 5.5-4-.3 0-1.8.9-3.5 2m-66.3 11.2-.2 6.7-3.2.4-3.3.4 3.3.1 3.2.2.2 6.2.1 6.3.6-6 .6-6 5.5-.6 5.5-.5-5.5-.5-5.5-.4-.6-6.5-.6-6.5zm-65.9-3.8c.4.9-.4 1.7-2.1 2.2l-2.7.7 2.5.7c1.6.4 2.4 1.2 2.2 2.3-.2.9.2 1.7.8 1.7.5 0 1-.9 1-2 0-1.5.7-2 2.8-2.1l2.7-.1-2.7-1c-1.6-.5-2.8-1.6-2.8-2.4s-.5-1.4-1.1-1.4-.9.6-.6 1.4m12.2-.4c.3.5 1.4 1 2.3 1 1.5 0 1.5-.2.2-1-2-1.3-3.3-1.3-2.5 0m106.5 0c-1.3.8-1.3 1 .2 1 .9 0 2-.5 2.3-1 .8-1.3-.5-1.3-2.5 0m-105.5 3c-3.5.6-3.2.7 2.8.9 4.3 0 6.6-.3 6.2-.9-.7-1.1-2.9-1.1-9 0m97.6.1c-1.3.5-2.2 1.2-1.9 1.4.6.6 5.8-1.2 5.8-2 0-.7-1.1-.5-3.9.6m-178.3.6c1.2.2 3.2.2 4.5 0 1.2-.2.2-.4-2.3-.4s-3.5.2-2.2.4m12 0c1.2.2 3 .2 4 0 .9-.3-.1-.5-2.3-.4-2.2 0-3 .2-1.7.4m186.5 0c3.7.2 9.6.2 13 0s.4-.3-6.8-.3c-7.1 0-9.9.1-6.2.3m69 .5c-2.6 1.2-3 2.8-.9 2.8 2.4 0 6.6-1.9 6.6-3 0-1.3-2.8-1.2-5.7.2m-166.8 3.3c2.2.8 4.9 1.3 6 1.3s-.2-.6-3-1.4c-6.3-1.7-8.4-1.6-3 .1m64 0c-5.4 1.7-3.3 1.8 3 .1 2.8-.8 4.1-1.4 3-1.4s-3.8.5-6 1.3m105.5 1.4c0 1.3 2.9 3.5 3.7 2.8.7-.8-1.5-3.7-2.8-3.7-.5 0-.9.4-.9.9m-197.4 1.6c-.3.8-.1 1.5.4 1.5 1.3 0 2.2-1.8 1.1-2.4-.5-.3-1.1.1-1.5.9m37.2-.8c.6.2 1.8.2 2.5 0 .6-.3.1-.5-1.3-.5s-1.9.2-1.2.5m47 0c.6.2 1.8.2 2.5 0 .6-.3.1-.5-1.3-.5s-1.9.2-1.2.5M99 334c0 .5.7 1 1.6 1 .8 0 1.2-.5.9-1-.3-.6-1-1-1.6-1-.5 0-.9.4-.9 1m54-.6c0 .8 6.1 1.2 6.6.4.3-.4-1.1-.8-3-.8-2 0-3.6.2-3.6.4m34.3.3c.9.2 2.3.2 3 0 .6-.3-.1-.5-1.8-.5-1.6 0-2.2.2-1.2.5m-83.3 7.8c0 1.4.5 2.5 1 2.5.6 0 1-1.1 1-2.5s-.4-2.5-1-2.5c-.5 0-1 1.1-1 2.5m150.4 5.9c-2.2 1.7-1.1 3.5 1.3 2 1.9-1.2 2.9-3.4 1.6-3.4-.5 0-1.8.6-2.9 1.4m-84.2 7.6c0 1.9.2 2.7.5 1.7.2-.9.2-2.5 0-3.5-.3-.9-.5-.1-.5 1.8m65.3 7.9c-1 1.7 1.2 2.1 2.5.6 1-1.2 1-1.5-.3-1.5-.9 0-1.8.4-2.2.9"/></svg>